<svg width="168" height="144" viewBox="0 0 168 144" fill="none" xmlns="http://www.w3.org/2000/svg">
<path d="M6.50773 15.835C6.6324 15.8717 6.72407 15.89 6.78273 15.89C6.90007 15.89 6.9734 15.846 7.00273 15.758C7.0394 15.67 7.05773 15.5307 7.05773 15.34V11.523C7.05773 11.3323 7.0394 11.193 7.00273 11.105C6.9734 11.017 6.90007 10.973 6.78273 10.973C6.72407 10.973 6.6324 10.9913 6.50773 11.028V10.863H11.7217V11.028C11.5971 10.9913 11.5054 10.973 11.4467 10.973C11.3147 10.973 11.2304 11.0207 11.1937 11.116C11.1571 11.204 11.1387 11.3397 11.1387 11.523V15.34C11.1387 15.5233 11.1571 15.6627 11.1937 15.758C11.2304 15.846 11.3147 15.89 11.4467 15.89C11.5054 15.89 11.5971 15.8717 11.7217 15.835V16H9.85173V15.835C9.9764 15.8717 10.0681 15.89 10.1267 15.89C10.2441 15.89 10.3174 15.846 10.3467 15.758C10.3834 15.67 10.4017 15.5307 10.4017 15.34V11.523C10.4017 11.215 10.2991 11.061 10.0937 11.061H8.11373C8.0184 11.061 7.9414 11.1123 7.88273 11.215C7.82407 11.3103 7.79473 11.413 7.79473 11.523V15.34C7.79473 15.5233 7.81307 15.6627 7.84973 15.758C7.8864 15.846 7.97073 15.89 8.10273 15.89C8.1614 15.89 8.25307 15.8717 8.37773 15.835V16H6.50773V15.835ZM12.3837 15.835C12.5084 15.8717 12.6 15.89 12.6587 15.89C12.776 15.89 12.8494 15.846 12.8787 15.758C12.9154 15.67 12.9337 15.5307 12.9337 15.34V11.523C12.9337 11.3323 12.9154 11.193 12.8787 11.105C12.8494 11.017 12.776 10.973 12.6587 10.973C12.6 10.973 12.5084 10.9913 12.3837 11.028V10.863H14.2537V11.028C14.151 10.9913 14.0557 10.973 13.9677 10.973C13.843 10.973 13.7624 11.0207 13.7257 11.116C13.689 11.204 13.6707 11.3397 13.6707 11.523V13.107H16.1677V11.523C16.1677 11.3323 16.1494 11.193 16.1127 11.105C16.0834 11.017 16.01 10.973 15.8927 10.973C15.834 10.973 15.7424 10.9913 15.6177 11.028V10.863H17.4877V11.028C17.363 10.9913 17.2714 10.973 17.2127 10.973C17.0807 10.973 16.9964 11.0207 16.9597 11.116C16.923 11.204 16.9047 11.3397 16.9047 11.523V15.34C16.9047 15.5233 16.923 15.6627 16.9597 15.758C16.9964 15.846 17.0807 15.89 17.2127 15.89C17.2714 15.89 17.363 15.8717 17.4877 15.835V16H15.6177V15.835C15.7424 15.8717 15.834 15.89 15.8927 15.89C16.01 15.89 16.0834 15.846 16.1127 15.758C16.1494 15.67 16.1677 15.5307 16.1677 15.34V13.305H13.6707V15.34C13.6707 15.5233 13.689 15.6627 13.7257 15.758C13.7624 15.846 13.8467 15.89 13.9787 15.89C14.0374 15.89 14.129 15.8717 14.2537 15.835V16H12.3837V15.835Z" fill="black"/>
<path d="M34.4036 13.206C34.6309 13.2133 34.8729 13.272 35.1296 13.382C35.3862 13.492 35.6026 13.6423 35.7786 13.833C35.9619 14.0237 36.0536 14.2363 36.0536 14.471C36.0536 14.9623 35.8372 15.34 35.4046 15.604C34.9719 15.868 34.4256 16 33.7656 16H31.5766V15.692C31.8186 15.7433 31.9946 15.769 32.1046 15.769C32.2952 15.769 32.3906 15.703 32.3906 15.571L32.3796 13.118C32.3722 12.7587 32.3686 12.2967 32.3686 11.732V11.347C32.3686 11.1857 32.2512 11.105 32.0166 11.105C31.9066 11.105 31.7599 11.1233 31.5766 11.16V10.863H33.8426C34.3486 10.863 34.7922 10.951 35.1736 11.127C35.5622 11.2957 35.7566 11.5707 35.7566 11.952C35.7566 12.2013 35.6906 12.4177 35.5586 12.601C35.4266 12.7843 35.2542 12.9237 35.0416 13.019C34.8362 13.1143 34.6236 13.162 34.4036 13.162C34.3889 13.162 34.3816 13.1693 34.3816 13.184C34.3816 13.1987 34.3889 13.206 34.4036 13.206ZM33.8646 11.017C33.5639 11.017 33.3512 11.0243 33.2266 11.039C33.1092 11.0537 33.0506 11.1087 33.0506 11.204L33.0396 13.074L34.0846 13.063C34.3926 13.041 34.6382 12.9383 34.8216 12.755C35.0049 12.5643 35.0966 12.3077 35.0966 11.985C35.0966 11.655 34.9792 11.413 34.7446 11.259C34.5099 11.0977 34.2166 11.017 33.8646 11.017ZM33.7546 15.846C34.1579 15.8313 34.4696 15.7763 34.6896 15.681C34.9169 15.5857 35.0709 15.45 35.1516 15.274C35.2396 15.0907 35.2836 14.856 35.2836 14.57C35.2836 14.1593 35.1846 13.8513 34.9866 13.646C34.7959 13.4407 34.4989 13.3307 34.0956 13.316L33.0286 13.327C33.0286 14.361 33.0359 15.109 33.0506 15.571C33.0506 15.6883 33.1056 15.7653 33.2156 15.802C33.3329 15.8313 33.5126 15.846 33.7546 15.846ZM37.5719 15.835C37.6966 15.8717 37.7883 15.89 37.8469 15.89C37.9643 15.89 38.0376 15.846 38.0669 15.758C38.1036 15.67 38.1219 15.5307 38.1219 15.34V11.523C38.1219 11.347 38.1109 11.215 38.0889 11.127C38.0743 11.039 38.0303 10.995 37.9569 10.995H37.3959C37.1466 11.0023 36.9559 11.0463 36.8239 11.127C36.6993 11.2003 36.6149 11.292 36.5709 11.402C36.5269 11.512 36.4903 11.6587 36.4609 11.842C36.4389 11.9887 36.4133 12.1097 36.3839 12.205C36.3619 12.3003 36.3179 12.392 36.2519 12.48H36.0539C36.1273 12.414 36.1786 12.3187 36.2079 12.194C36.2299 12.062 36.2409 11.8713 36.2409 11.622V10.863H40.7839V11.622C40.7839 11.8713 40.7949 12.062 40.8169 12.194C40.8463 12.3187 40.8976 12.414 40.9709 12.48H40.7729C40.7069 12.392 40.6593 12.3003 40.6299 12.205C40.6079 12.1097 40.5859 11.9887 40.5639 11.842C40.5346 11.6587 40.4979 11.512 40.4539 11.402C40.4099 11.292 40.3219 11.2003 40.1899 11.127C40.0653 11.0463 39.8783 11.0023 39.6289 10.995H39.0459C38.9726 10.995 38.9213 11.0427 38.8919 11.138C38.8699 11.2333 38.8589 11.3617 38.8589 11.523V15.34C38.8589 15.5233 38.8773 15.6627 38.9139 15.758C38.9506 15.846 39.0349 15.89 39.1669 15.89C39.2256 15.89 39.3173 15.8717 39.4419 15.835V16H37.5719V15.835Z" fill="black"/>
<path d="M57.562 16.11C57.0194 16.11 56.572 15.9817 56.22 15.725C55.8754 15.4683 55.6224 15.1347 55.461 14.724C55.307 14.306 55.23 13.855 55.23 13.371C55.23 12.9017 55.3107 12.4617 55.472 12.051C55.6334 11.633 55.8754 11.2957 56.198 11.039C56.528 10.775 56.9204 10.643 57.375 10.643C57.793 10.643 58.1817 10.7383 58.541 10.929C58.9077 11.1197 59.1167 11.3617 59.168 11.655C59.1827 11.7577 59.19 11.8273 59.19 11.864C59.19 12.0253 59.1497 12.1573 59.069 12.26C58.9884 12.3553 58.8747 12.403 58.728 12.403C58.4714 12.403 58.343 12.3223 58.343 12.161C58.343 12.095 58.3614 11.9997 58.398 11.875C58.442 11.7283 58.464 11.6073 58.464 11.512C58.464 11.3653 58.409 11.237 58.299 11.127C58.189 11.0097 58.057 10.9217 57.903 10.863C57.749 10.8043 57.6097 10.775 57.485 10.775C57.023 10.775 56.66 11.006 56.396 11.468C56.132 11.9227 56 12.59 56 13.47C56 14.1813 56.1284 14.7643 56.385 15.219C56.649 15.6737 57.0524 15.901 57.595 15.901C57.969 15.901 58.277 15.7873 58.519 15.56C58.761 15.3327 58.9224 15.054 59.003 14.724H59.245C59.1424 15.1053 58.937 15.4317 58.629 15.703C58.321 15.9743 57.9654 16.11 57.562 16.11ZM59.9003 18.695C60.025 18.7317 60.1166 18.75 60.1753 18.75C60.3073 18.75 60.3916 18.7023 60.4283 18.607C60.465 18.519 60.4833 18.3833 60.4833 18.2V11.435C60.3733 11.4717 60.256 11.49 60.1313 11.49C60.08 11.49 60.003 11.4827 59.9003 11.468V11.171H59.9993C59.9993 11.2223 60.025 11.2663 60.0763 11.303C60.135 11.3397 60.201 11.358 60.2743 11.358C60.377 11.358 60.4686 11.3177 60.5493 11.237C60.63 11.1563 60.729 11.0317 60.8463 10.863H61.1763V11.556H61.3743C61.675 10.9473 62.1663 10.643 62.8483 10.643C63.5303 10.643 64.0216 10.9217 64.3223 11.479C64.623 12.029 64.7733 12.733 64.7733 13.591C64.7733 14.0457 64.7 14.4637 64.5533 14.845C64.4066 15.2263 64.1866 15.5343 63.8933 15.769C63.6073 15.9963 63.2553 16.11 62.8373 16.11C62.4853 16.11 62.181 16.0073 61.9243 15.802C61.6676 15.5967 61.4623 15.329 61.3083 14.999H61.1323L61.1213 17.87V18.2C61.1213 18.3907 61.136 18.53 61.1653 18.618C61.202 18.706 61.279 18.75 61.3963 18.75C61.455 18.75 61.5466 18.7317 61.6713 18.695V18.86H59.9003V18.695ZM61.2643 13.415C61.2643 13.767 61.312 14.141 61.4073 14.537C61.51 14.933 61.6676 15.274 61.8803 15.56C62.093 15.8387 62.357 15.978 62.6723 15.978C63.127 15.978 63.4606 15.7323 63.6733 15.241C63.8933 14.7497 64.0033 14.1447 64.0033 13.426C64.0033 12.6927 63.897 12.0803 63.6843 11.589C63.4716 11.0903 63.127 10.841 62.6503 10.841C62.1223 10.841 61.7593 11.083 61.5613 11.567C61.3633 12.0437 61.2643 12.6597 61.2643 13.415Z" fill="black"/>
<path d="M83.4169 15.34C83.4169 15.5233 83.4352 15.6627 83.4719 15.758C83.5085 15.846 83.5929 15.89 83.7249 15.89C83.7835 15.89 83.8752 15.8717 83.9999 15.835V16H82.1299V15.835C82.2545 15.8717 82.3462 15.89 82.4049 15.89C82.5222 15.89 82.5955 15.846 82.6249 15.758C82.6615 15.67 82.6799 15.5307 82.6799 15.34V13.811C82.3719 14.053 81.8989 14.174 81.2609 14.174C80.9749 14.174 80.6962 14.1117 80.4249 13.987C80.1535 13.855 79.9299 13.668 79.7539 13.426C79.5852 13.1767 79.5009 12.8907 79.5009 12.568V11.358C79.5009 11.1013 79.4092 10.973 79.2259 10.973C79.1672 10.973 79.0829 10.9913 78.9729 11.028V10.863H80.8099V11.072C80.7219 11.0353 80.6302 11.017 80.5349 11.017C80.3369 11.017 80.2379 11.1307 80.2379 11.358V12.601C80.2379 13.1363 80.3259 13.5103 80.5019 13.723C80.6779 13.9283 80.9565 14.031 81.3379 14.031C81.9392 14.031 82.3865 13.8843 82.6799 13.591V11.523C82.6799 11.3323 82.6615 11.1967 82.6249 11.116C82.5955 11.0353 82.5149 10.995 82.3829 10.995C82.3095 10.995 82.2252 11.006 82.1299 11.028V10.863H83.9999L83.9889 11.072C83.8789 11.05 83.7872 11.039 83.7139 11.039C83.5892 11.039 83.5085 11.0757 83.4719 11.149C83.4352 11.2223 83.4169 11.347 83.4169 11.523V15.34ZM85.6256 15.835C85.7503 15.8717 85.842 15.89 85.9006 15.89C86.018 15.89 86.0913 15.846 86.1206 15.758C86.1573 15.67 86.1756 15.5307 86.1756 15.34V11.523C86.1756 11.347 86.1646 11.215 86.1426 11.127C86.128 11.039 86.084 10.995 86.0106 10.995H85.4496C85.2003 11.0023 85.0096 11.0463 84.8776 11.127C84.753 11.2003 84.6686 11.292 84.6246 11.402C84.5806 11.512 84.544 11.6587 84.5146 11.842C84.4926 11.9887 84.467 12.1097 84.4376 12.205C84.4156 12.3003 84.3716 12.392 84.3056 12.48H84.1076C84.181 12.414 84.2323 12.3187 84.2616 12.194C84.2836 12.062 84.2946 11.8713 84.2946 11.622V10.863H88.8376V11.622C88.8376 11.8713 88.8486 12.062 88.8706 12.194C88.9 12.3187 88.9513 12.414 89.0246 12.48H88.8266C88.7606 12.392 88.713 12.3003 88.6836 12.205C88.6616 12.1097 88.6396 11.9887 88.6176 11.842C88.5883 11.6587 88.5516 11.512 88.5076 11.402C88.4636 11.292 88.3756 11.2003 88.2436 11.127C88.119 11.0463 87.932 11.0023 87.6826 10.995H87.0996C87.0263 10.995 86.975 11.0427 86.9456 11.138C86.9236 11.2333 86.9126 11.3617 86.9126 11.523V15.34C86.9126 15.5233 86.931 15.6627 86.9676 15.758C87.0043 15.846 87.0886 15.89 87.2206 15.89C87.2793 15.89 87.371 15.8717 87.4956 15.835V16H85.6256V15.835Z" fill="black"/>
<path d="M103.152 15.835C103.277 15.8717 103.369 15.89 103.427 15.89C103.545 15.89 103.618 15.846 103.647 15.758C103.684 15.67 103.702 15.5307 103.702 15.34V11.523C103.702 11.3323 103.684 11.193 103.647 11.105C103.618 11.017 103.545 10.973 103.427 10.973C103.369 10.973 103.277 10.9913 103.152 11.028V10.863H108.366V11.028C108.242 10.9913 108.15 10.973 108.091 10.973C107.959 10.973 107.875 11.0207 107.838 11.116C107.802 11.204 107.783 11.3397 107.783 11.523V15.34C107.783 15.5233 107.802 15.6627 107.838 15.758C107.875 15.846 107.959 15.89 108.091 15.89C108.15 15.89 108.242 15.8717 108.366 15.835V16H106.496V15.835C106.621 15.8717 106.713 15.89 106.771 15.89C106.889 15.89 106.962 15.846 106.991 15.758C107.028 15.67 107.046 15.5307 107.046 15.34V11.523C107.046 11.215 106.944 11.061 106.738 11.061H104.758C104.663 11.061 104.586 11.1123 104.527 11.215C104.469 11.3103 104.439 11.413 104.439 11.523V15.34C104.439 15.5233 104.458 15.6627 104.494 15.758C104.531 15.846 104.615 15.89 104.747 15.89C104.806 15.89 104.898 15.8717 105.022 15.835V16H103.152V15.835ZM109.996 15.835C110.121 15.8717 110.213 15.89 110.271 15.89C110.389 15.89 110.462 15.846 110.491 15.758C110.528 15.67 110.546 15.5307 110.546 15.34V11.523C110.546 11.347 110.535 11.215 110.513 11.127C110.499 11.039 110.455 10.995 110.381 10.995H109.82C109.571 11.0023 109.38 11.0463 109.248 11.127C109.124 11.2003 109.039 11.292 108.995 11.402C108.951 11.512 108.915 11.6587 108.885 11.842C108.863 11.9887 108.838 12.1097 108.808 12.205C108.786 12.3003 108.742 12.392 108.676 12.48H108.478C108.552 12.414 108.603 12.3187 108.632 12.194C108.654 12.062 108.665 11.8713 108.665 11.622V10.863H113.208V11.622C113.208 11.8713 113.219 12.062 113.241 12.194C113.271 12.3187 113.322 12.414 113.395 12.48H113.197C113.131 12.392 113.084 12.3003 113.054 12.205C113.032 12.1097 113.01 11.9887 112.988 11.842C112.959 11.6587 112.922 11.512 112.878 11.402C112.834 11.292 112.746 11.2003 112.614 11.127C112.49 11.0463 112.303 11.0023 112.053 10.995H111.47C111.397 10.995 111.346 11.0427 111.316 11.138C111.294 11.2333 111.283 11.3617 111.283 11.523V15.34C111.283 15.5233 111.302 15.6627 111.338 15.758C111.375 15.846 111.459 15.89 111.591 15.89C111.65 15.89 111.742 15.8717 111.866 15.835V16H109.996V15.835Z" fill="black"/>
<path d="M129.729 16.11C129.186 16.11 128.739 15.9817 128.387 15.725C128.042 15.4683 127.789 15.1347 127.628 14.724C127.474 14.306 127.397 13.855 127.397 13.371C127.397 12.9017 127.477 12.4617 127.639 12.051C127.8 11.633 128.042 11.2957 128.365 11.039C128.695 10.775 129.087 10.643 129.542 10.643C129.96 10.643 130.348 10.7383 130.708 10.929C131.074 11.1197 131.283 11.3617 131.335 11.655C131.349 11.7577 131.357 11.8273 131.357 11.864C131.357 12.0253 131.316 12.1573 131.236 12.26C131.155 12.3553 131.041 12.403 130.895 12.403C130.638 12.403 130.51 12.3223 130.51 12.161C130.51 12.095 130.528 11.9997 130.565 11.875C130.609 11.7283 130.631 11.6073 130.631 11.512C130.631 11.3653 130.576 11.237 130.466 11.127C130.356 11.0097 130.224 10.9217 130.07 10.863C129.916 10.8043 129.776 10.775 129.652 10.775C129.19 10.775 128.827 11.006 128.563 11.468C128.299 11.9227 128.167 12.59 128.167 13.47C128.167 14.1813 128.295 14.7643 128.552 15.219C128.816 15.6737 129.219 15.901 129.762 15.901C130.136 15.901 130.444 15.7873 130.686 15.56C130.928 15.3327 131.089 15.054 131.17 14.724H131.412C131.309 15.1053 131.104 15.4317 130.796 15.703C130.488 15.9743 130.132 16.11 129.729 16.11ZM134.421 16.11C133.629 16.11 133.057 15.8533 132.705 15.34C132.353 14.8267 132.177 14.218 132.177 13.514C132.177 12.26 132.389 11.2737 132.815 10.555C133.24 9.83633 133.816 9.35233 134.542 9.103C134.71 9.04433 134.89 8.99667 135.081 8.96C135.315 8.90133 135.491 8.85 135.609 8.806C135.733 8.75467 135.836 8.68133 135.917 8.586C135.997 8.49067 136.038 8.35867 136.038 8.19C136.038 8.058 136.012 7.904 135.961 7.728L136.06 7.717C136.206 8.03967 136.28 8.32933 136.28 8.586C136.28 8.90867 136.17 9.16167 135.95 9.345C135.73 9.52833 135.433 9.66767 135.059 9.763C134.384 9.93167 133.878 10.1077 133.541 10.291C133.203 10.4743 132.958 10.742 132.804 11.094C132.657 11.4387 132.584 11.9337 132.584 12.579C132.584 12.6157 132.591 12.6413 132.606 12.656C132.628 12.6633 132.646 12.6523 132.661 12.623C133.049 11.5963 133.643 11.083 134.443 11.083C135.213 11.083 135.763 11.3213 136.093 11.798C136.43 12.2673 136.599 12.8833 136.599 13.646C136.599 14.328 136.426 14.911 136.082 15.395C135.737 15.8717 135.183 16.11 134.421 16.11ZM134.421 15.978C134.89 15.978 135.242 15.747 135.477 15.285C135.711 14.8157 135.829 14.2693 135.829 13.646C135.829 12.942 135.715 12.3627 135.488 11.908C135.268 11.446 134.919 11.215 134.443 11.215C133.907 11.215 133.533 11.435 133.321 11.875C133.115 12.315 133.013 12.9053 133.013 13.646C133.013 14.2913 133.119 14.8413 133.332 15.296C133.552 15.7507 133.915 15.978 134.421 15.978Z" fill="black"/>
<path d="M154.253 13.206C154.481 13.2133 154.723 13.272 154.979 13.382C155.236 13.492 155.452 13.6423 155.628 13.833C155.812 14.0237 155.903 14.2363 155.903 14.471C155.903 14.9623 155.687 15.34 155.254 15.604C154.822 15.868 154.275 16 153.615 16H151.426V15.692C151.668 15.7433 151.844 15.769 151.954 15.769C152.145 15.769 152.24 15.703 152.24 15.571L152.229 13.118C152.222 12.7587 152.218 12.2967 152.218 11.732V11.347C152.218 11.1857 152.101 11.105 151.866 11.105C151.756 11.105 151.61 11.1233 151.426 11.16V10.863H153.692C154.198 10.863 154.642 10.951 155.023 11.127C155.412 11.2957 155.606 11.5707 155.606 11.952C155.606 12.2013 155.54 12.4177 155.408 12.601C155.276 12.7843 155.104 12.9237 154.891 13.019C154.686 13.1143 154.473 13.162 154.253 13.162C154.239 13.162 154.231 13.1693 154.231 13.184C154.231 13.1987 154.239 13.206 154.253 13.206ZM153.714 11.017C153.414 11.017 153.201 11.0243 153.076 11.039C152.959 11.0537 152.9 11.1087 152.9 11.204L152.889 13.074L153.934 13.063C154.242 13.041 154.488 12.9383 154.671 12.755C154.855 12.5643 154.946 12.3077 154.946 11.985C154.946 11.655 154.829 11.413 154.594 11.259C154.36 11.0977 154.066 11.017 153.714 11.017ZM153.604 15.846C154.008 15.8313 154.319 15.7763 154.539 15.681C154.767 15.5857 154.921 15.45 155.001 15.274C155.089 15.0907 155.133 14.856 155.133 14.57C155.133 14.1593 155.034 13.8513 154.836 13.646C154.646 13.4407 154.349 13.3307 153.945 13.316L152.878 13.327C152.878 14.361 152.886 15.109 152.9 15.571C152.9 15.6883 152.955 15.7653 153.065 15.802C153.183 15.8313 153.362 15.846 153.604 15.846ZM158.896 16.11C158.353 16.11 157.906 15.9817 157.554 15.725C157.209 15.4683 156.956 15.1347 156.795 14.724C156.641 14.306 156.564 13.855 156.564 13.371C156.564 12.9017 156.644 12.4617 156.806 12.051C156.967 11.633 157.209 11.2957 157.532 11.039C157.862 10.775 158.254 10.643 158.709 10.643C159.127 10.643 159.515 10.7383 159.875 10.929C160.241 11.1197 160.45 11.3617 160.502 11.655C160.516 11.7577 160.524 11.8273 160.524 11.864C160.524 12.0253 160.483 12.1573 160.403 12.26C160.322 12.3553 160.208 12.403 160.062 12.403C159.805 12.403 159.677 12.3223 159.677 12.161C159.677 12.095 159.695 11.9997 159.732 11.875C159.776 11.7283 159.798 11.6073 159.798 11.512C159.798 11.3653 159.743 11.237 159.633 11.127C159.523 11.0097 159.391 10.9217 159.237 10.863C159.083 10.8043 158.943 10.775 158.819 10.775C158.357 10.775 157.994 11.006 157.73 11.468C157.466 11.9227 157.334 12.59 157.334 13.47C157.334 14.1813 157.462 14.7643 157.719 15.219C157.983 15.6737 158.386 15.901 158.929 15.901C159.303 15.901 159.611 15.7873 159.853 15.56C160.095 15.3327 160.256 15.054 160.337 14.724H160.579C160.476 15.1053 160.271 15.4317 159.963 15.703C159.655 15.9743 159.299 16.11 158.896 16.11Z" fill="black"/>
<path d="M36.6059 39.34C36.6059 39.4867 36.6425 39.6003 36.7159 39.681C36.7965 39.7543 36.9065 39.791 37.0459 39.791C37.1632 39.791 37.2915 39.769 37.4309 39.725V40H34.9559V39.725C35.1025 39.769 35.2309 39.791 35.3409 39.791C35.4802 39.791 35.5865 39.7543 35.6599 39.681C35.7405 39.6003 35.7809 39.4867 35.7809 39.34V33.543C35.7809 33.499 35.7662 33.4697 35.7369 33.455C35.7149 33.4403 35.6892 33.455 35.6599 33.499C35.3812 33.8803 35.0182 34.0417 34.5709 33.983V33.642C34.6809 33.6787 34.7835 33.697 34.8789 33.697C35.1209 33.697 35.3482 33.6053 35.5609 33.422C35.7735 33.2313 35.9422 32.993 36.0669 32.707C36.1989 32.421 36.2649 32.1387 36.2649 31.86H36.6059V39.34Z" fill="black"/>
<path d="M57.6178 39.549C57.8745 39.2337 58.2631 38.823 58.7838 38.317C59.3265 37.7817 59.7591 37.3197 60.0818 36.931C60.4118 36.535 60.6905 36.073 60.9178 35.545C61.1525 35.0097 61.2698 34.4193 61.2698 33.774C61.2698 33.202 61.1488 32.7437 60.9068 32.399C60.6721 32.047 60.3495 31.871 59.9388 31.871C59.7188 31.871 59.5098 31.9333 59.3118 32.058C59.1138 32.1753 58.9561 32.3367 58.8388 32.542C58.7215 32.7473 58.6628 32.9673 58.6628 33.202C58.6628 33.4073 58.6885 33.5503 58.7398 33.631C58.7985 33.7043 58.8828 33.763 58.9928 33.807C59.0735 33.8363 59.1321 33.873 59.1688 33.917C59.2055 33.9537 59.2238 34.027 59.2238 34.137C59.2238 34.2617 59.1798 34.3717 59.0918 34.467C59.0038 34.5623 58.8865 34.61 58.7398 34.61C58.5638 34.61 58.4061 34.533 58.2668 34.379C58.1275 34.225 58.0578 34.0307 58.0578 33.796C58.0578 33.3267 58.1641 32.9343 58.3768 32.619C58.5895 32.2963 58.8498 32.058 59.1578 31.904C59.4658 31.75 59.7591 31.673 60.0378 31.673C60.4045 31.673 60.7345 31.761 61.0278 31.937C61.3285 32.113 61.5631 32.3697 61.7318 32.707C61.9078 33.037 61.9958 33.4293 61.9958 33.884C61.9958 34.522 61.8675 35.0977 61.6108 35.611C61.3615 36.117 61.0608 36.5497 60.7088 36.909C60.3641 37.2683 59.9278 37.6643 59.3998 38.097C59.1285 38.317 58.9085 38.5003 58.7398 38.647C58.5785 38.7937 58.4428 38.9403 58.3328 39.087C58.3108 39.1163 58.2998 39.153 58.2998 39.197C58.2998 39.263 58.3365 39.296 58.4098 39.296L60.1368 39.307C60.5695 39.307 60.8995 39.2703 61.1268 39.197C61.3615 39.1237 61.5375 38.9623 61.6548 38.713C61.7795 38.4637 61.8418 38.0713 61.8418 37.536H62.0508V40H57.6178V39.549Z" fill="black"/>
<path d="M83.6191 40.11C83.2671 40.11 82.9407 40.0403 82.6401 39.901C82.3394 39.7543 82.0974 39.549 81.9141 39.285C81.7307 39.021 81.6391 38.7167 81.6391 38.372C81.6391 38.1227 81.6941 37.9173 81.8041 37.756C81.9214 37.5947 82.0681 37.514 82.2441 37.514C82.3981 37.514 82.5301 37.5653 82.6401 37.668C82.7574 37.7633 82.8161 37.8733 82.8161 37.998C82.8161 38.1007 82.7941 38.174 82.7501 38.218C82.7061 38.2547 82.6364 38.2877 82.5411 38.317C82.4457 38.3463 82.3724 38.383 82.3211 38.427C82.2697 38.471 82.2441 38.5553 82.2441 38.68C82.2441 38.8487 82.2917 39.0283 82.3871 39.219C82.4897 39.4097 82.6364 39.5747 82.8271 39.714C83.0251 39.846 83.2524 39.912 83.5091 39.912C83.8977 39.912 84.2497 39.8167 84.5651 39.626C84.8804 39.428 85.1297 39.1603 85.3131 38.823C85.4964 38.4857 85.5881 38.1153 85.5881 37.712C85.5881 37.2427 85.4781 36.843 85.2581 36.513C85.0454 36.183 84.7521 35.9373 84.3781 35.776C84.0041 35.6073 83.5861 35.523 83.1241 35.523V35.347C83.6081 35.3103 83.9821 35.2333 84.2461 35.116C84.5101 34.9913 84.7007 34.797 84.8181 34.533C84.9354 34.269 84.9941 33.895 84.9941 33.411C84.9941 33.0003 84.8987 32.641 84.7081 32.333C84.5174 32.025 84.2167 31.871 83.8061 31.871C83.4321 31.871 83.1424 31.9553 82.9371 32.124C82.7391 32.2853 82.6401 32.4907 82.6401 32.74C82.6401 32.8647 82.6657 32.949 82.7171 32.993C82.7684 33.037 82.8417 33.0737 82.9371 33.103C83.0324 33.1323 83.1021 33.169 83.1461 33.213C83.1901 33.2497 83.2121 33.3193 83.2121 33.422C83.2121 33.5467 83.1534 33.6603 83.0361 33.763C82.9261 33.8583 82.7941 33.906 82.6401 33.906C82.4641 33.906 82.3174 33.8253 82.2001 33.664C82.0901 33.5027 82.0351 33.2973 82.0351 33.048C82.0351 32.8207 82.1194 32.6007 82.2881 32.388C82.4641 32.1753 82.6951 32.003 82.9811 31.871C83.2744 31.739 83.5861 31.673 83.9161 31.673C84.2901 31.673 84.6164 31.75 84.8951 31.904C85.1737 32.058 85.3864 32.267 85.5331 32.531C85.6871 32.795 85.7641 33.0883 85.7641 33.411C85.7641 33.9683 85.6357 34.4157 85.3791 34.753C85.1224 35.083 84.7704 35.2773 84.3231 35.336C84.2937 35.3433 84.2791 35.358 84.2791 35.38C84.2791 35.3947 84.2937 35.402 84.3231 35.402C84.6237 35.402 84.9317 35.4973 85.2471 35.688C85.5624 35.8713 85.8264 36.1353 86.0391 36.48C86.2517 36.8247 86.3581 37.217 86.3581 37.657C86.3581 38.141 86.2444 38.57 86.0171 38.944C85.7971 39.3107 85.4781 39.5967 85.0601 39.802C84.6494 40.0073 84.1691 40.11 83.6191 40.11Z" fill="black"/>
<path d="M107.738 39.725C107.885 39.769 108.013 39.791 108.123 39.791C108.263 39.791 108.369 39.7543 108.442 39.681C108.523 39.6003 108.563 39.4867 108.563 39.34V37.272C107.324 37.272 106.301 37.2573 105.494 37.228V36.953C105.934 35.8163 106.338 34.9217 106.704 34.269C107.078 33.6163 107.408 33.147 107.694 32.861C107.98 32.5677 108.281 32.333 108.596 32.157C108.824 32.0323 109.036 31.9407 109.234 31.882C109.432 31.8233 109.594 31.794 109.718 31.794V31.926C109.572 31.926 109.473 32.0103 109.421 32.179C109.377 32.3403 109.355 32.575 109.355 32.883V33.279L109.344 37.052H110.202V37.272H109.344V39.34C109.344 39.4867 109.381 39.6003 109.454 39.681C109.535 39.7543 109.645 39.791 109.784 39.791C109.894 39.791 110.023 39.769 110.169 39.725V40H107.738V39.725ZM108.607 32.663C108.607 32.597 108.604 32.5493 108.596 32.52C108.589 32.4833 108.578 32.4687 108.563 32.476C108.079 32.6447 107.625 33.1103 107.199 33.873C106.781 34.6357 106.349 35.5817 105.901 36.711L105.802 36.953C105.788 36.9677 105.784 36.9823 105.791 36.997C105.799 37.0117 105.813 37.019 105.835 37.019C106.092 37.019 106.506 37.0263 107.078 37.041C107.79 37.0557 108.285 37.0593 108.563 37.052L108.607 32.663Z" fill="black"/>
<path d="M131.903 40.11C131.265 40.11 130.752 39.9523 130.363 39.637C129.974 39.3217 129.78 38.9 129.78 38.372C129.78 38.1227 129.835 37.9173 129.945 37.756C130.062 37.5947 130.209 37.514 130.385 37.514C130.539 37.514 130.671 37.5653 130.781 37.668C130.898 37.7633 130.957 37.8733 130.957 37.998C130.957 38.1007 130.935 38.174 130.891 38.218C130.847 38.2547 130.777 38.2877 130.682 38.317C130.587 38.3463 130.513 38.383 130.462 38.427C130.411 38.471 130.385 38.5553 130.385 38.68C130.385 38.856 130.433 39.0393 130.528 39.23C130.623 39.4207 130.774 39.582 130.979 39.714C131.192 39.846 131.463 39.912 131.793 39.912C132.16 39.912 132.468 39.7947 132.717 39.56C132.974 39.318 133.161 39.01 133.278 38.636C133.395 38.262 133.454 37.877 133.454 37.481C133.454 36.7403 133.304 36.161 133.003 35.743C132.702 35.325 132.262 35.116 131.683 35.116C131.558 35.116 131.423 35.138 131.276 35.182C131.137 35.226 130.946 35.2993 130.704 35.402L130.319 35.556C130.304 35.5633 130.286 35.567 130.264 35.567C130.198 35.567 130.165 35.5413 130.165 35.49L130.286 31.86H133.575L133.586 33.51H133.366C133.366 33.1947 133.344 32.971 133.3 32.839C133.263 32.6997 133.194 32.6117 133.091 32.575C132.996 32.531 132.838 32.509 132.618 32.509H132.123H130.792C130.697 32.509 130.634 32.5273 130.605 32.564C130.576 32.5933 130.557 32.6373 130.55 32.696C130.44 33.686 130.385 34.555 130.385 35.303C130.385 35.325 130.396 35.3397 130.418 35.347C130.447 35.3543 130.477 35.3507 130.506 35.336C131.049 35.072 131.551 34.94 132.013 34.94C132.16 34.94 132.27 34.9473 132.343 34.962C132.644 35.0133 132.937 35.1527 133.223 35.38C133.516 35.6073 133.755 35.9043 133.938 36.271C134.129 36.6303 134.224 37.0227 134.224 37.448C134.224 37.888 134.136 38.3133 133.96 38.724C133.791 39.1273 133.531 39.461 133.179 39.725C132.827 39.9817 132.402 40.11 131.903 40.11Z" fill="black"/>
<path d="M156.107 40.11C155.286 40.11 154.695 39.824 154.336 39.252C153.984 38.68 153.808 37.9357 153.808 37.019C153.808 36.425 153.841 35.8347 153.907 35.248C153.98 34.654 154.094 34.1333 154.248 33.686C154.446 33.092 154.728 32.608 155.095 32.234C155.469 31.86 155.894 31.673 156.371 31.673C156.804 31.673 157.17 31.8013 157.471 32.058C157.779 32.3073 157.933 32.6447 157.933 33.07C157.933 33.312 157.874 33.5173 157.757 33.686C157.64 33.8547 157.497 33.939 157.328 33.939C157.174 33.939 157.038 33.8913 156.921 33.796C156.804 33.6933 156.745 33.5797 156.745 33.455C156.745 33.3523 156.767 33.2827 156.811 33.246C156.855 33.202 156.925 33.1653 157.02 33.136C157.123 33.0993 157.196 33.059 157.24 33.015C157.291 32.971 157.317 32.8867 157.317 32.762C157.317 32.3807 157.214 32.1313 157.009 32.014C156.811 31.8967 156.598 31.838 156.371 31.838C155.968 31.838 155.594 32.1093 155.249 32.652C154.912 33.1947 154.684 34.181 154.567 35.611C154.567 35.7063 154.6 35.7393 154.666 35.71C154.871 35.468 155.113 35.27 155.392 35.116C155.678 34.9547 155.993 34.874 156.338 34.874C156.668 34.874 156.98 34.9877 157.273 35.215C157.566 35.435 157.801 35.7357 157.977 36.117C158.16 36.4983 158.252 36.9163 158.252 37.371C158.252 38.1337 158.091 38.7827 157.768 39.318C157.445 39.846 156.892 40.11 156.107 40.11ZM156.107 39.912C156.518 39.912 156.826 39.7873 157.031 39.538C157.236 39.2887 157.365 38.9917 157.416 38.647C157.467 38.295 157.493 37.8697 157.493 37.371C157.493 36.7183 157.379 36.1683 157.152 35.721C156.925 35.2663 156.591 35.039 156.151 35.039C155.645 35.039 155.264 35.2627 155.007 35.71C154.758 36.15 154.633 36.7183 154.633 37.415C154.633 38.1117 154.75 38.702 154.985 39.186C155.22 39.67 155.594 39.912 156.107 39.912Z" fill="black"/>
<path d="M10.8646 63.329C10.8646 62.911 10.8866 62.5627 10.9306 62.284C10.9746 61.998 11.0663 61.6827 11.2056 61.338C11.4403 60.7807 11.8216 60.0693 12.3496 59.204C12.885 58.3387 13.38 57.5723 13.8346 56.905L13.9666 56.696C13.9813 56.6667 13.9886 56.641 13.9886 56.619C13.9886 56.5457 13.919 56.509 13.7796 56.509H12.1736H11.3486C10.982 56.509 10.718 56.531 10.5566 56.575C10.3953 56.6117 10.2816 56.6997 10.2156 56.839C10.157 56.971 10.1276 57.1947 10.1276 57.51H9.90764L9.91864 55.86H14.3076V56.586C14.1536 56.7987 14.0033 57.0297 13.8566 57.279C13.7173 57.5283 13.5706 57.7923 13.4166 58.071C13.336 58.2323 13.215 58.4597 13.0536 58.753C12.533 59.699 12.17 60.546 11.9646 61.294C11.7666 62.042 11.6676 62.944 11.6676 64H10.8646V63.329Z" fill="black"/>
<path d="M36.0031 64.11C35.4751 64.11 35.0461 63.989 34.7161 63.747C34.3861 63.4977 34.1477 63.1933 34.0011 62.834C33.8617 62.4747 33.7921 62.108 33.7921 61.734C33.7921 61.1913 33.9167 60.7073 34.1661 60.282C34.4227 59.8567 34.8407 59.5853 35.4201 59.468C35.4494 59.4607 35.4604 59.4533 35.4531 59.446C35.4531 59.4313 35.4384 59.4203 35.4091 59.413C34.9471 59.3323 34.6061 59.127 34.3861 58.797C34.1661 58.4597 34.0561 58.0783 34.0561 57.653C34.0561 57.3743 34.1294 57.081 34.2761 56.773C34.4301 56.4577 34.6537 56.1937 34.9471 55.981C35.2477 55.7683 35.5997 55.662 36.0031 55.662C36.4137 55.662 36.7621 55.7683 37.0481 55.981C37.3414 56.1937 37.5614 56.4577 37.7081 56.773C37.8621 57.081 37.9391 57.3743 37.9391 57.653C37.9391 58.0783 37.8254 58.4597 37.5981 58.797C37.3781 59.127 37.0407 59.3323 36.5861 59.413C36.5567 59.4203 36.5384 59.4313 36.5311 59.446C36.5311 59.4533 36.5457 59.4607 36.5751 59.468C37.1544 59.5853 37.5687 59.8567 37.8181 60.282C38.0747 60.7073 38.2031 61.1913 38.2031 61.734C38.2031 62.108 38.1297 62.4747 37.9831 62.834C37.8437 63.1933 37.6091 63.4977 37.2791 63.747C36.9564 63.989 36.5311 64.11 36.0031 64.11ZM36.0031 59.325C36.4211 59.325 36.7181 59.193 36.8941 58.929C37.0701 58.6577 37.1581 58.2323 37.1581 57.653C37.1581 57.147 37.0811 56.718 36.9271 56.366C36.7804 56.0067 36.4724 55.827 36.0031 55.827C35.2257 55.827 34.8371 56.4357 34.8371 57.653C34.8371 58.1517 34.9214 58.555 35.0901 58.863C35.2587 59.171 35.5631 59.325 36.0031 59.325ZM36.0031 63.945C36.3991 63.945 36.6961 63.835 36.8941 63.615C37.0921 63.3877 37.2131 63.1237 37.2571 62.823C37.3084 62.515 37.3341 62.152 37.3341 61.734C37.3341 61.1473 37.2277 60.6413 37.0151 60.216C36.8097 59.7907 36.4724 59.567 36.0031 59.545C35.5264 59.567 35.1817 59.7907 34.9691 60.216C34.7637 60.6413 34.6611 61.1473 34.6611 61.734C34.6611 62.152 34.6867 62.515 34.7381 62.823C34.7894 63.1237 34.9141 63.3877 35.1121 63.615C35.3101 63.835 35.6071 63.945 36.0031 63.945Z" fill="black"/>
<path d="M59.7992 64.11C59.2858 64.11 58.8605 63.956 58.5232 63.648C58.1858 63.34 58.0172 62.9293 58.0172 62.416C58.0172 62.1813 58.0722 61.9943 58.1822 61.855C58.2995 61.7083 58.4425 61.635 58.6112 61.635C58.7725 61.635 58.9008 61.6753 58.9962 61.756C59.0915 61.8293 59.1392 61.9247 59.1392 62.042C59.1392 62.152 59.1172 62.229 59.0732 62.273C59.0365 62.3097 58.9778 62.3427 58.8972 62.372C58.8092 62.4087 58.7432 62.449 58.6992 62.493C58.6552 62.537 58.6332 62.6213 58.6332 62.746C58.6332 63.1347 58.7505 63.4317 58.9852 63.637C59.2198 63.8423 59.5022 63.945 59.8322 63.945C60.9028 63.945 61.4382 62.581 61.4382 59.853C61.4382 59.7503 61.4052 59.7173 61.3392 59.754C61.1338 59.996 60.8882 60.1977 60.6022 60.359C60.3235 60.513 60.0118 60.59 59.6672 60.59C59.3372 60.59 59.0218 60.4983 58.7212 60.315C58.4278 60.1243 58.1932 59.864 58.0172 59.534C57.8412 59.1967 57.7532 58.8227 57.7532 58.412C57.7532 57.6493 57.9145 57.004 58.2372 56.476C58.5598 55.9407 59.1135 55.673 59.8982 55.673C60.7195 55.673 61.3062 55.959 61.6582 56.531C62.0175 57.103 62.1972 57.8473 62.1972 58.764C62.1972 59.8713 62.1348 60.81 62.0102 61.58C61.8928 62.3427 61.6582 62.955 61.3062 63.417C60.9615 63.879 60.4592 64.11 59.7992 64.11ZM59.8652 60.425C60.3638 60.425 60.7378 60.238 60.9872 59.864C61.2438 59.49 61.3722 58.9913 61.3722 58.368C61.3722 57.6713 61.2548 57.081 61.0202 56.597C60.7855 56.113 60.4115 55.871 59.8982 55.871C59.4875 55.871 59.1795 55.9957 58.9742 56.245C58.7688 56.4943 58.6405 56.795 58.5892 57.147C58.5378 57.4917 58.5122 57.9133 58.5122 58.412C58.5122 58.9987 58.6258 59.4827 58.8532 59.864C59.0805 60.238 59.4178 60.425 59.8652 60.425Z" fill="black"/>
<path d="M81.5712 63.34C81.5712 63.4867 81.6079 63.6003 81.6812 63.681C81.7619 63.7543 81.8719 63.791 82.0112 63.791C82.1285 63.791 82.2569 63.769 82.3962 63.725V64H79.9212V63.725C80.0679 63.769 80.1962 63.791 80.3062 63.791C80.4455 63.791 80.5519 63.7543 80.6252 63.681C80.7059 63.6003 80.7462 63.4867 80.7462 63.34V57.543C80.7462 57.499 80.7315 57.4697 80.7022 57.455C80.6802 57.4403 80.6545 57.455 80.6252 57.499C80.3465 57.8803 79.9835 58.0417 79.5362 57.983V57.642C79.6462 57.6787 79.7489 57.697 79.8442 57.697C80.0862 57.697 80.3135 57.6053 80.5262 57.422C80.7389 57.2313 80.9075 56.993 81.0322 56.707C81.1642 56.421 81.2302 56.1387 81.2302 55.86H81.5712V63.34ZM85.8595 64.11C85.2948 64.11 84.8181 63.923 84.4295 63.549C84.0408 63.175 83.7511 62.6727 83.5605 62.042C83.3698 61.404 83.2745 60.6927 83.2745 59.908C83.2745 58.7053 83.4945 57.73 83.9345 56.982C84.3745 56.234 85.0161 55.86 85.8595 55.86C86.4021 55.86 86.8678 56.036 87.2565 56.388C87.6525 56.74 87.9531 57.224 88.1585 57.84C88.3638 58.4487 88.4665 59.138 88.4665 59.908C88.4665 60.678 88.3638 61.382 88.1585 62.02C87.9531 62.658 87.6525 63.1677 87.2565 63.549C86.8678 63.923 86.4021 64.11 85.8595 64.11ZM85.8595 63.89C86.3435 63.89 86.7065 63.714 86.9485 63.362C87.1978 63.01 87.3591 62.5553 87.4325 61.998C87.5058 61.4333 87.5425 60.7367 87.5425 59.908C87.5425 59.0867 87.5058 58.4083 87.4325 57.873C87.3591 57.3377 87.1978 56.905 86.9485 56.575C86.7065 56.245 86.3435 56.08 85.8595 56.08C85.3535 56.08 84.9795 56.245 84.7375 56.575C84.4955 56.8977 84.3451 57.3157 84.2865 57.829C84.2278 58.3423 84.1985 59.0353 84.1985 59.908C84.1985 60.788 84.2278 61.4957 84.2865 62.031C84.3451 62.5663 84.4955 63.01 84.7375 63.362C84.9795 63.714 85.3535 63.89 85.8595 63.89Z" fill="black"/>
<path d="M106.737 63.34C106.737 63.4867 106.773 63.6003 106.847 63.681C106.927 63.7543 107.037 63.791 107.177 63.791C107.294 63.791 107.422 63.769 107.562 63.725V64H105.087V63.725C105.233 63.769 105.362 63.791 105.472 63.791C105.611 63.791 105.717 63.7543 105.791 63.681C105.871 63.6003 105.912 63.4867 105.912 63.34V57.543C105.912 57.499 105.897 57.4697 105.868 57.455C105.846 57.4403 105.82 57.455 105.791 57.499C105.512 57.8803 105.149 58.0417 104.702 57.983V57.642C104.812 57.6787 104.914 57.697 105.01 57.697C105.252 57.697 105.479 57.6053 105.692 57.422C105.904 57.2313 106.073 56.993 106.198 56.707C106.33 56.421 106.396 56.1387 106.396 55.86H106.737V63.34ZM110.475 63.34C110.475 63.4867 110.512 63.6003 110.585 63.681C110.666 63.7543 110.776 63.791 110.915 63.791C111.032 63.791 111.161 63.769 111.3 63.725V64H108.825V63.725C108.972 63.769 109.1 63.791 109.21 63.791C109.349 63.791 109.456 63.7543 109.529 63.681C109.61 63.6003 109.65 63.4867 109.65 63.34V57.543C109.65 57.499 109.635 57.4697 109.606 57.455C109.584 57.4403 109.558 57.455 109.529 57.499C109.25 57.8803 108.887 58.0417 108.44 57.983V57.642C108.55 57.6787 108.653 57.697 108.748 57.697C108.99 57.697 109.217 57.6053 109.43 57.422C109.643 57.2313 109.811 56.993 109.936 56.707C110.068 56.421 110.134 56.1387 110.134 55.86H110.475V63.34Z" fill="black"/>
<path d="M130.114 63.34C130.114 63.4867 130.15 63.6003 130.224 63.681C130.304 63.7543 130.414 63.791 130.554 63.791C130.671 63.791 130.799 63.769 130.939 63.725V64H128.464V63.725C128.61 63.769 128.739 63.791 128.849 63.791C128.988 63.791 129.094 63.7543 129.168 63.681C129.248 63.6003 129.289 63.4867 129.289 63.34V57.543C129.289 57.499 129.274 57.4697 129.245 57.455C129.223 57.4403 129.197 57.455 129.168 57.499C128.889 57.8803 128.526 58.0417 128.079 57.983V57.642C128.189 57.6787 128.291 57.697 128.387 57.697C128.629 57.697 128.856 57.6053 129.069 57.422C129.281 57.2313 129.45 56.993 129.575 56.707C129.707 56.421 129.773 56.1387 129.773 55.86H130.114V63.34ZM131.487 63.549C131.744 63.2337 132.132 62.823 132.653 62.317C133.196 61.7817 133.628 61.3197 133.951 60.931C134.281 60.535 134.56 60.073 134.787 59.545C135.022 59.0097 135.139 58.4193 135.139 57.774C135.139 57.202 135.018 56.7437 134.776 56.399C134.541 56.047 134.219 55.871 133.808 55.871C133.588 55.871 133.379 55.9333 133.181 56.058C132.983 56.1753 132.825 56.3367 132.708 56.542C132.591 56.7473 132.532 56.9673 132.532 57.202C132.532 57.4073 132.558 57.5503 132.609 57.631C132.668 57.7043 132.752 57.763 132.862 57.807C132.943 57.8363 133.001 57.873 133.038 57.917C133.075 57.9537 133.093 58.027 133.093 58.137C133.093 58.2617 133.049 58.3717 132.961 58.467C132.873 58.5623 132.756 58.61 132.609 58.61C132.433 58.61 132.275 58.533 132.136 58.379C131.997 58.225 131.927 58.0307 131.927 57.796C131.927 57.3267 132.033 56.9343 132.246 56.619C132.459 56.2963 132.719 56.058 133.027 55.904C133.335 55.75 133.628 55.673 133.907 55.673C134.274 55.673 134.604 55.761 134.897 55.937C135.198 56.113 135.432 56.3697 135.601 56.707C135.777 57.037 135.865 57.4293 135.865 57.884C135.865 58.522 135.737 59.0977 135.48 59.611C135.231 60.117 134.93 60.5497 134.578 60.909C134.233 61.2683 133.797 61.6643 133.269 62.097C132.998 62.317 132.778 62.5003 132.609 62.647C132.448 62.7937 132.312 62.9403 132.202 63.087C132.18 63.1163 132.169 63.153 132.169 63.197C132.169 63.263 132.206 63.296 132.279 63.296L134.006 63.307C134.439 63.307 134.769 63.2703 134.996 63.197C135.231 63.1237 135.407 62.9623 135.524 62.713C135.649 62.4637 135.711 62.0713 135.711 61.536H135.92V64H131.487V63.549Z" fill="black"/>
<path d="M153.915 63.34C153.915 63.4867 153.952 63.6003 154.025 63.681C154.106 63.7543 154.216 63.791 154.355 63.791C154.472 63.791 154.601 63.769 154.74 63.725V64H152.265V63.725C152.412 63.769 152.54 63.791 152.65 63.791C152.789 63.791 152.896 63.7543 152.969 63.681C153.05 63.6003 153.09 63.4867 153.09 63.34V57.543C153.09 57.499 153.075 57.4697 153.046 57.455C153.024 57.4403 152.998 57.455 152.969 57.499C152.69 57.8803 152.327 58.0417 151.88 57.983V57.642C151.99 57.6787 152.093 57.697 152.188 57.697C152.43 57.697 152.657 57.6053 152.87 57.422C153.083 57.2313 153.251 56.993 153.376 56.707C153.508 56.421 153.574 56.1387 153.574 55.86H153.915V63.34ZM157.488 64.11C157.136 64.11 156.81 64.0403 156.509 63.901C156.209 63.7543 155.967 63.549 155.783 63.285C155.6 63.021 155.508 62.7167 155.508 62.372C155.508 62.1227 155.563 61.9173 155.673 61.756C155.791 61.5947 155.937 61.514 156.113 61.514C156.267 61.514 156.399 61.5653 156.509 61.668C156.627 61.7633 156.685 61.8733 156.685 61.998C156.685 62.1007 156.663 62.174 156.619 62.218C156.575 62.2547 156.506 62.2877 156.41 62.317C156.315 62.3463 156.242 62.383 156.19 62.427C156.139 62.471 156.113 62.5553 156.113 62.68C156.113 62.8487 156.161 63.0283 156.256 63.219C156.359 63.4097 156.506 63.5747 156.696 63.714C156.894 63.846 157.122 63.912 157.378 63.912C157.767 63.912 158.119 63.8167 158.434 63.626C158.75 63.428 158.999 63.1603 159.182 62.823C159.366 62.4857 159.457 62.1153 159.457 61.712C159.457 61.2427 159.347 60.843 159.127 60.513C158.915 60.183 158.621 59.9373 158.247 59.776C157.873 59.6073 157.455 59.523 156.993 59.523V59.347C157.477 59.3103 157.851 59.2333 158.115 59.116C158.379 58.9913 158.57 58.797 158.687 58.533C158.805 58.269 158.863 57.895 158.863 57.411C158.863 57.0003 158.768 56.641 158.577 56.333C158.387 56.025 158.086 55.871 157.675 55.871C157.301 55.871 157.012 55.9553 156.806 56.124C156.608 56.2853 156.509 56.4907 156.509 56.74C156.509 56.8647 156.535 56.949 156.586 56.993C156.638 57.037 156.711 57.0737 156.806 57.103C156.902 57.1323 156.971 57.169 157.015 57.213C157.059 57.2497 157.081 57.3193 157.081 57.422C157.081 57.5467 157.023 57.6603 156.905 57.763C156.795 57.8583 156.663 57.906 156.509 57.906C156.333 57.906 156.187 57.8253 156.069 57.664C155.959 57.5027 155.904 57.2973 155.904 57.048C155.904 56.8207 155.989 56.6007 156.157 56.388C156.333 56.1753 156.564 56.003 156.85 55.871C157.144 55.739 157.455 55.673 157.785 55.673C158.159 55.673 158.486 55.75 158.764 55.904C159.043 56.058 159.256 56.267 159.402 56.531C159.556 56.795 159.633 57.0883 159.633 57.411C159.633 57.9683 159.505 58.4157 159.248 58.753C158.992 59.083 158.64 59.2773 158.192 59.336C158.163 59.3433 158.148 59.358 158.148 59.38C158.148 59.3947 158.163 59.402 158.192 59.402C158.493 59.402 158.801 59.4973 159.116 59.688C159.432 59.8713 159.696 60.1353 159.908 60.48C160.121 60.8247 160.227 61.217 160.227 61.657C160.227 62.141 160.114 62.57 159.886 62.944C159.666 63.3107 159.347 63.5967 158.929 63.802C158.519 64.0073 158.038 64.11 157.488 64.11Z" fill="black"/>
<path d="M9.99014 87.34C9.99014 87.4867 10.0268 87.6003 10.1001 87.681C10.1808 87.7543 10.2908 87.791 10.4301 87.791C10.5475 87.791 10.6758 87.769 10.8151 87.725V88H8.34014V87.725C8.4868 87.769 8.61514 87.791 8.72514 87.791C8.86447 87.791 8.9708 87.7543 9.04414 87.681C9.1248 87.6003 9.16514 87.4867 9.16514 87.34V81.543C9.16514 81.499 9.15047 81.4697 9.12114 81.455C9.09914 81.4403 9.07347 81.455 9.04414 81.499C8.76547 81.8803 8.40247 82.0417 7.95514 81.983V81.642C8.06514 81.6787 8.1678 81.697 8.26314 81.697C8.50514 81.697 8.73247 81.6053 8.94514 81.422C9.1578 81.2313 9.32647 80.993 9.45114 80.707C9.58314 80.421 9.64914 80.1387 9.64914 79.86H9.99014V87.34ZM13.6074 87.725C13.7541 87.769 13.8824 87.791 13.9924 87.791C14.1318 87.791 14.2381 87.7543 14.3114 87.681C14.3921 87.6003 14.4324 87.4867 14.4324 87.34V85.272C13.1931 85.272 12.1701 85.2573 11.3634 85.228V84.953C11.8034 83.8163 12.2068 82.9217 12.5734 82.269C12.9474 81.6163 13.2774 81.147 13.5634 80.861C13.8494 80.5677 14.1501 80.333 14.4654 80.157C14.6928 80.0323 14.9054 79.9407 15.1034 79.882C15.3014 79.8233 15.4628 79.794 15.5874 79.794V79.926C15.4408 79.926 15.3418 80.0103 15.2904 80.179C15.2464 80.3403 15.2244 80.575 15.2244 80.883V81.279L15.2134 85.052H16.0714V85.272H15.2134V87.34C15.2134 87.4867 15.2501 87.6003 15.3234 87.681C15.4041 87.7543 15.5141 87.791 15.6534 87.791C15.7634 87.791 15.8918 87.769 16.0384 87.725V88H13.6074V87.725ZM14.4764 80.663C14.4764 80.597 14.4728 80.5493 14.4654 80.52C14.4581 80.4833 14.4471 80.4687 14.4324 80.476C13.9484 80.6447 13.4938 81.1103 13.0684 81.873C12.6504 82.6357 12.2178 83.5817 11.7704 84.711L11.6714 84.953C11.6568 84.9677 11.6531 84.9823 11.6604 84.997C11.6678 85.0117 11.6824 85.019 11.7044 85.019C11.9611 85.019 12.3754 85.0263 12.9474 85.041C13.6588 85.0557 14.1538 85.0593 14.4324 85.052L14.4764 80.663Z" fill="black"/>
<path d="M34.0009 87.34C34.0009 87.4867 34.0375 87.6003 34.1109 87.681C34.1915 87.7543 34.3015 87.791 34.4409 87.791C34.5582 87.791 34.6865 87.769 34.8259 87.725V88H32.3509V87.725C32.4975 87.769 32.6259 87.791 32.7359 87.791C32.8752 87.791 32.9815 87.7543 33.0549 87.681C33.1355 87.6003 33.1759 87.4867 33.1759 87.34V81.543C33.1759 81.499 33.1612 81.4697 33.1319 81.455C33.1099 81.4403 33.0842 81.455 33.0549 81.499C32.7762 81.8803 32.4132 82.0417 31.9659 81.983V81.642C32.0759 81.6787 32.1785 81.697 32.2739 81.697C32.5159 81.697 32.7432 81.6053 32.9559 81.422C33.1685 81.2313 33.3372 80.993 33.4619 80.707C33.5939 80.421 33.6599 80.1387 33.6599 79.86H34.0009V87.34ZM37.7722 88.11C37.1342 88.11 36.6208 87.9523 36.2322 87.637C35.8435 87.3217 35.6492 86.9 35.6492 86.372C35.6492 86.1227 35.7042 85.9173 35.8142 85.756C35.9315 85.5947 36.0782 85.514 36.2542 85.514C36.4082 85.514 36.5402 85.5653 36.6502 85.668C36.7675 85.7633 36.8262 85.8733 36.8262 85.998C36.8262 86.1007 36.8042 86.174 36.7602 86.218C36.7162 86.2547 36.6465 86.2877 36.5512 86.317C36.4558 86.3463 36.3825 86.383 36.3312 86.427C36.2798 86.471 36.2542 86.5553 36.2542 86.68C36.2542 86.856 36.3018 87.0393 36.3972 87.23C36.4925 87.4207 36.6428 87.582 36.8482 87.714C37.0608 87.846 37.3322 87.912 37.6622 87.912C38.0288 87.912 38.3368 87.7947 38.5862 87.56C38.8428 87.318 39.0298 87.01 39.1472 86.636C39.2645 86.262 39.3232 85.877 39.3232 85.481C39.3232 84.7403 39.1728 84.161 38.8722 83.743C38.5715 83.325 38.1315 83.116 37.5522 83.116C37.4275 83.116 37.2918 83.138 37.1452 83.182C37.0058 83.226 36.8152 83.2993 36.5732 83.402L36.1882 83.556C36.1735 83.5633 36.1552 83.567 36.1332 83.567C36.0672 83.567 36.0342 83.5413 36.0342 83.49L36.1552 79.86H39.4442L39.4552 81.51H39.2352C39.2352 81.1947 39.2132 80.971 39.1692 80.839C39.1325 80.6997 39.0628 80.6117 38.9602 80.575C38.8648 80.531 38.7072 80.509 38.4872 80.509H37.9922H36.6612C36.5658 80.509 36.5035 80.5273 36.4742 80.564C36.4448 80.5933 36.4265 80.6373 36.4192 80.696C36.3092 81.686 36.2542 82.555 36.2542 83.303C36.2542 83.325 36.2652 83.3397 36.2872 83.347C36.3165 83.3543 36.3458 83.3507 36.3752 83.336C36.9178 83.072 37.4202 82.94 37.8822 82.94C38.0288 82.94 38.1388 82.9473 38.2122 82.962C38.5128 83.0133 38.8062 83.1527 39.0922 83.38C39.3855 83.6073 39.6238 83.9043 39.8072 84.271C39.9978 84.6303 40.0932 85.0227 40.0932 85.448C40.0932 85.888 40.0052 86.3133 39.8292 86.724C39.6605 87.1273 39.4002 87.461 39.0482 87.725C38.6962 87.9817 38.2708 88.11 37.7722 88.11Z" fill="black"/>
<path d="M57.974 87.34C57.974 87.4867 58.0107 87.6003 58.084 87.681C58.1647 87.7543 58.2747 87.791 58.414 87.791C58.5314 87.791 58.6597 87.769 58.799 87.725V88H56.324V87.725C56.4707 87.769 56.599 87.791 56.709 87.791C56.8484 87.791 56.9547 87.7543 57.028 87.681C57.1087 87.6003 57.149 87.4867 57.149 87.34V81.543C57.149 81.499 57.1344 81.4697 57.105 81.455C57.083 81.4403 57.0574 81.455 57.028 81.499C56.7494 81.8803 56.3864 82.0417 55.939 81.983V81.642C56.049 81.6787 56.1517 81.697 56.247 81.697C56.489 81.697 56.7164 81.6053 56.929 81.422C57.1417 81.2313 57.3104 80.993 57.435 80.707C57.567 80.421 57.633 80.1387 57.633 79.86H57.974V87.34ZM61.9763 88.11C61.155 88.11 60.5646 87.824 60.2053 87.252C59.8533 86.68 59.6773 85.9357 59.6773 85.019C59.6773 84.425 59.7103 83.8347 59.7763 83.248C59.8496 82.654 59.9633 82.1333 60.1173 81.686C60.3153 81.092 60.5976 80.608 60.9643 80.234C61.3383 79.86 61.7636 79.673 62.2403 79.673C62.673 79.673 63.0396 79.8013 63.3403 80.058C63.6483 80.3073 63.8023 80.6447 63.8023 81.07C63.8023 81.312 63.7436 81.5173 63.6263 81.686C63.509 81.8547 63.366 81.939 63.1973 81.939C63.0433 81.939 62.9076 81.8913 62.7903 81.796C62.673 81.6933 62.6143 81.5797 62.6143 81.455C62.6143 81.3523 62.6363 81.2827 62.6803 81.246C62.7243 81.202 62.794 81.1653 62.8893 81.136C62.992 81.0993 63.0653 81.059 63.1093 81.015C63.1606 80.971 63.1863 80.8867 63.1863 80.762C63.1863 80.3807 63.0836 80.1313 62.8783 80.014C62.6803 79.8967 62.4676 79.838 62.2403 79.838C61.837 79.838 61.463 80.1093 61.1183 80.652C60.781 81.1947 60.5536 82.181 60.4363 83.611C60.4363 83.7063 60.4693 83.7393 60.5353 83.71C60.7406 83.468 60.9826 83.27 61.2613 83.116C61.5473 82.9547 61.8626 82.874 62.2073 82.874C62.5373 82.874 62.849 82.9877 63.1423 83.215C63.4356 83.435 63.6703 83.7357 63.8463 84.117C64.0296 84.4983 64.1213 84.9163 64.1213 85.371C64.1213 86.1337 63.96 86.7827 63.6373 87.318C63.3146 87.846 62.761 88.11 61.9763 88.11ZM61.9763 87.912C62.387 87.912 62.695 87.7873 62.9003 87.538C63.1056 87.2887 63.234 86.9917 63.2853 86.647C63.3366 86.295 63.3623 85.8697 63.3623 85.371C63.3623 84.7183 63.2486 84.1683 63.0213 83.721C62.794 83.2663 62.4603 83.039 62.0203 83.039C61.5143 83.039 61.133 83.2627 60.8763 83.71C60.627 84.15 60.5023 84.7183 60.5023 85.415C60.5023 86.1117 60.6196 86.702 60.8543 87.186C61.089 87.67 61.463 87.912 61.9763 87.912Z" fill="black"/>
<path d="M82.1835 87.34C82.1835 87.4867 82.2202 87.6003 82.2935 87.681C82.3742 87.7543 82.4842 87.791 82.6235 87.791C82.7408 87.791 82.8692 87.769 83.0085 87.725V88H80.5335V87.725C80.6802 87.769 80.8085 87.791 80.9185 87.791C81.0578 87.791 81.1642 87.7543 81.2375 87.681C81.3182 87.6003 81.3585 87.4867 81.3585 87.34V81.543C81.3585 81.499 81.3438 81.4697 81.3145 81.455C81.2925 81.4403 81.2668 81.455 81.2375 81.499C80.9588 81.8803 80.5958 82.0417 80.1485 81.983V81.642C80.2585 81.6787 80.3612 81.697 80.4565 81.697C80.6985 81.697 80.9258 81.6053 81.1385 81.422C81.3512 81.2313 81.5198 80.993 81.6445 80.707C81.7765 80.421 81.8425 80.1387 81.8425 79.86H82.1835V87.34ZM84.7338 87.329C84.7338 86.911 84.7558 86.5627 84.7998 86.284C84.8438 85.998 84.9354 85.6827 85.0748 85.338C85.3094 84.7807 85.6908 84.0693 86.2188 83.204C86.7541 82.3387 87.2491 81.5723 87.7038 80.905L87.8358 80.696C87.8504 80.6667 87.8578 80.641 87.8578 80.619C87.8578 80.5457 87.7881 80.509 87.6488 80.509H86.0428H85.2178C84.8511 80.509 84.5871 80.531 84.4258 80.575C84.2644 80.6117 84.1508 80.6997 84.0848 80.839C84.0261 80.971 83.9968 81.1947 83.9968 81.51H83.7768L83.7878 79.86H88.1768V80.586C88.0228 80.7987 87.8724 81.0297 87.7258 81.279C87.5864 81.5283 87.4398 81.7923 87.2858 82.071C87.2051 82.2323 87.0841 82.4597 86.9228 82.753C86.4021 83.699 86.0391 84.546 85.8338 85.294C85.6358 86.042 85.5368 86.944 85.5368 88H84.7338V87.329Z" fill="black"/>
<path d="M105.958 87.34C105.958 87.4867 105.995 87.6003 106.068 87.681C106.149 87.7543 106.259 87.791 106.398 87.791C106.515 87.791 106.644 87.769 106.783 87.725V88H104.308V87.725C104.455 87.769 104.583 87.791 104.693 87.791C104.832 87.791 104.939 87.7543 105.012 87.681C105.093 87.6003 105.133 87.4867 105.133 87.34V81.543C105.133 81.499 105.118 81.4697 105.089 81.455C105.067 81.4403 105.041 81.455 105.012 81.499C104.733 81.8803 104.37 82.0417 103.923 81.983V81.642C104.033 81.6787 104.136 81.697 104.231 81.697C104.473 81.697 104.7 81.6053 104.913 81.422C105.126 81.2313 105.294 80.993 105.419 80.707C105.551 80.421 105.617 80.1387 105.617 79.86H105.958V87.34ZM109.872 88.11C109.344 88.11 108.915 87.989 108.585 87.747C108.255 87.4977 108.017 87.1933 107.87 86.834C107.731 86.4747 107.661 86.108 107.661 85.734C107.661 85.1913 107.786 84.7073 108.035 84.282C108.292 83.8567 108.71 83.5853 109.289 83.468C109.319 83.4607 109.33 83.4533 109.322 83.446C109.322 83.4313 109.308 83.4203 109.278 83.413C108.816 83.3323 108.475 83.127 108.255 82.797C108.035 82.4597 107.925 82.0783 107.925 81.653C107.925 81.3743 107.999 81.081 108.145 80.773C108.299 80.4577 108.523 80.1937 108.816 79.981C109.117 79.7683 109.469 79.662 109.872 79.662C110.283 79.662 110.631 79.7683 110.917 79.981C111.211 80.1937 111.431 80.4577 111.577 80.773C111.731 81.081 111.808 81.3743 111.808 81.653C111.808 82.0783 111.695 82.4597 111.467 82.797C111.247 83.127 110.91 83.3323 110.455 83.413C110.426 83.4203 110.408 83.4313 110.4 83.446C110.4 83.4533 110.415 83.4607 110.444 83.468C111.024 83.5853 111.438 83.8567 111.687 84.282C111.944 84.7073 112.072 85.1913 112.072 85.734C112.072 86.108 111.999 86.4747 111.852 86.834C111.713 87.1933 111.478 87.4977 111.148 87.747C110.826 87.989 110.4 88.11 109.872 88.11ZM109.872 83.325C110.29 83.325 110.587 83.193 110.763 82.929C110.939 82.6577 111.027 82.2323 111.027 81.653C111.027 81.147 110.95 80.718 110.796 80.366C110.65 80.0067 110.342 79.827 109.872 79.827C109.095 79.827 108.706 80.4357 108.706 81.653C108.706 82.1517 108.791 82.555 108.959 82.863C109.128 83.171 109.432 83.325 109.872 83.325ZM109.872 87.945C110.268 87.945 110.565 87.835 110.763 87.615C110.961 87.3877 111.082 87.1237 111.126 86.823C111.178 86.515 111.203 86.152 111.203 85.734C111.203 85.1473 111.097 84.6413 110.884 84.216C110.679 83.7907 110.342 83.567 109.872 83.545C109.396 83.567 109.051 83.7907 108.838 84.216C108.633 84.6413 108.53 85.1473 108.53 85.734C108.53 86.152 108.556 86.515 108.607 86.823C108.659 87.1237 108.783 87.3877 108.981 87.615C109.179 87.835 109.476 87.945 109.872 87.945Z" fill="black"/>
<path d="M129.974 87.34C129.974 87.4867 130.011 87.6003 130.084 87.681C130.165 87.7543 130.275 87.791 130.414 87.791C130.531 87.791 130.66 87.769 130.799 87.725V88H128.324V87.725C128.471 87.769 128.599 87.791 128.709 87.791C128.848 87.791 128.955 87.7543 129.028 87.681C129.109 87.6003 129.149 87.4867 129.149 87.34V81.543C129.149 81.499 129.134 81.4697 129.105 81.455C129.083 81.4403 129.057 81.455 129.028 81.499C128.749 81.8803 128.386 82.0417 127.939 81.983V81.642C128.049 81.6787 128.152 81.697 128.247 81.697C128.489 81.697 128.716 81.6053 128.929 81.422C129.142 81.2313 129.31 80.993 129.435 80.707C129.567 80.421 129.633 80.1387 129.633 79.86H129.974V87.34ZM133.668 88.11C133.155 88.11 132.73 87.956 132.392 87.648C132.055 87.34 131.886 86.9293 131.886 86.416C131.886 86.1813 131.941 85.9943 132.051 85.855C132.169 85.7083 132.312 85.635 132.48 85.635C132.642 85.635 132.77 85.6753 132.865 85.756C132.961 85.8293 133.008 85.9247 133.008 86.042C133.008 86.152 132.986 86.229 132.942 86.273C132.906 86.3097 132.847 86.3427 132.766 86.372C132.678 86.4087 132.612 86.449 132.568 86.493C132.524 86.537 132.502 86.6213 132.502 86.746C132.502 87.1347 132.62 87.4317 132.854 87.637C133.089 87.8423 133.371 87.945 133.701 87.945C134.772 87.945 135.307 86.581 135.307 83.853C135.307 83.7503 135.274 83.7173 135.208 83.754C135.003 83.996 134.757 84.1977 134.471 84.359C134.193 84.513 133.881 84.59 133.536 84.59C133.206 84.59 132.891 84.4983 132.59 84.315C132.297 84.1243 132.062 83.864 131.886 83.534C131.71 83.1967 131.622 82.8227 131.622 82.412C131.622 81.6493 131.784 81.004 132.106 80.476C132.429 79.9407 132.983 79.673 133.767 79.673C134.589 79.673 135.175 79.959 135.527 80.531C135.887 81.103 136.066 81.8473 136.066 82.764C136.066 83.8713 136.004 84.81 135.879 85.58C135.762 86.3427 135.527 86.955 135.175 87.417C134.831 87.879 134.328 88.11 133.668 88.11ZM133.734 84.425C134.233 84.425 134.607 84.238 134.856 83.864C135.113 83.49 135.241 82.9913 135.241 82.368C135.241 81.6713 135.124 81.081 134.889 80.597C134.655 80.113 134.281 79.871 133.767 79.871C133.357 79.871 133.049 79.9957 132.843 80.245C132.638 80.4943 132.51 80.795 132.458 81.147C132.407 81.4917 132.381 81.9133 132.381 82.412C132.381 82.9987 132.495 83.4827 132.722 83.864C132.95 84.238 133.287 84.425 133.734 84.425Z" fill="black"/>
<path d="M150.583 87.549C150.84 87.2337 151.228 86.823 151.749 86.317C152.292 85.7817 152.724 85.3197 153.047 84.931C153.377 84.535 153.656 84.073 153.883 83.545C154.118 83.0097 154.235 82.4193 154.235 81.774C154.235 81.202 154.114 80.7437 153.872 80.399C153.637 80.047 153.315 79.871 152.904 79.871C152.684 79.871 152.475 79.9333 152.277 80.058C152.079 80.1753 151.921 80.3367 151.804 80.542C151.687 80.7473 151.628 80.9673 151.628 81.202C151.628 81.4073 151.654 81.5503 151.705 81.631C151.764 81.7043 151.848 81.763 151.958 81.807C152.039 81.8363 152.097 81.873 152.134 81.917C152.171 81.9537 152.189 82.027 152.189 82.137C152.189 82.2617 152.145 82.3717 152.057 82.467C151.969 82.5623 151.852 82.61 151.705 82.61C151.529 82.61 151.371 82.533 151.232 82.379C151.093 82.225 151.023 82.0307 151.023 81.796C151.023 81.3267 151.129 80.9343 151.342 80.619C151.555 80.2963 151.815 80.058 152.123 79.904C152.431 79.75 152.724 79.673 153.003 79.673C153.37 79.673 153.7 79.761 153.993 79.937C154.294 80.113 154.528 80.3697 154.697 80.707C154.873 81.037 154.961 81.4293 154.961 81.884C154.961 82.522 154.833 83.0977 154.576 83.611C154.327 84.117 154.026 84.5497 153.674 84.909C153.329 85.2683 152.893 85.6643 152.365 86.097C152.094 86.317 151.874 86.5003 151.705 86.647C151.544 86.7937 151.408 86.9403 151.298 87.087C151.276 87.1163 151.265 87.153 151.265 87.197C151.265 87.263 151.302 87.296 151.375 87.296L153.102 87.307C153.535 87.307 153.865 87.2703 154.092 87.197C154.327 87.1237 154.503 86.9623 154.62 86.713C154.745 86.4637 154.807 86.0713 154.807 85.536H155.016V88H150.583V87.549ZM158.483 88.11C157.918 88.11 157.441 87.923 157.053 87.549C156.664 87.175 156.374 86.6727 156.184 86.042C155.993 85.404 155.898 84.6927 155.898 83.908C155.898 82.7053 156.118 81.73 156.558 80.982C156.998 80.234 157.639 79.86 158.483 79.86C159.025 79.86 159.491 80.036 159.88 80.388C160.276 80.74 160.576 81.224 160.782 81.84C160.987 82.4487 161.09 83.138 161.09 83.908C161.09 84.678 160.987 85.382 160.782 86.02C160.576 86.658 160.276 87.1677 159.88 87.549C159.491 87.923 159.025 88.11 158.483 88.11ZM158.483 87.89C158.967 87.89 159.33 87.714 159.572 87.362C159.821 87.01 159.982 86.5553 160.056 85.998C160.129 85.4333 160.166 84.7367 160.166 83.908C160.166 83.0867 160.129 82.4083 160.056 81.873C159.982 81.3377 159.821 80.905 159.572 80.575C159.33 80.245 158.967 80.08 158.483 80.08C157.977 80.08 157.603 80.245 157.361 80.575C157.119 80.8977 156.968 81.3157 156.91 81.829C156.851 82.3423 156.822 83.0353 156.822 83.908C156.822 84.788 156.851 85.4957 156.91 86.031C156.968 86.5663 157.119 87.01 157.361 87.362C157.603 87.714 157.977 87.89 158.483 87.89Z" fill="black"/>
<path d="M7.74867 111.549C8.00534 111.234 8.39401 110.823 8.91467 110.317C9.45734 109.782 9.89001 109.32 10.2127 108.931C10.5427 108.535 10.8213 108.073 11.0487 107.545C11.2833 107.01 11.4007 106.419 11.4007 105.774C11.4007 105.202 11.2797 104.744 11.0377 104.399C10.803 104.047 10.4803 103.871 10.0697 103.871C9.84967 103.871 9.64067 103.933 9.44267 104.058C9.24467 104.175 9.08701 104.337 8.96967 104.542C8.85234 104.747 8.79367 104.967 8.79367 105.202C8.79367 105.407 8.81934 105.55 8.87067 105.631C8.92934 105.704 9.01367 105.763 9.12367 105.807C9.20434 105.836 9.26301 105.873 9.29967 105.917C9.33634 105.954 9.35467 106.027 9.35467 106.137C9.35467 106.262 9.31067 106.372 9.22267 106.467C9.13467 106.562 9.01734 106.61 8.87067 106.61C8.69467 106.61 8.53701 106.533 8.39767 106.379C8.25834 106.225 8.18867 106.031 8.18867 105.796C8.18867 105.327 8.29501 104.934 8.50767 104.619C8.72034 104.296 8.98067 104.058 9.28867 103.904C9.59667 103.75 9.89001 103.673 10.1687 103.673C10.5353 103.673 10.8653 103.761 11.1587 103.937C11.4593 104.113 11.694 104.37 11.8627 104.707C12.0387 105.037 12.1267 105.429 12.1267 105.884C12.1267 106.522 11.9983 107.098 11.7417 107.611C11.4923 108.117 11.1917 108.55 10.8397 108.909C10.495 109.268 10.0587 109.664 9.53067 110.097C9.25934 110.317 9.03934 110.5 8.87067 110.647C8.70934 110.794 8.57367 110.94 8.46367 111.087C8.44167 111.116 8.43067 111.153 8.43067 111.197C8.43067 111.263 8.46734 111.296 8.54067 111.296L10.2677 111.307C10.7003 111.307 11.0303 111.27 11.2577 111.197C11.4923 111.124 11.6683 110.962 11.7857 110.713C11.9103 110.464 11.9727 110.071 11.9727 109.536H12.1817V112H7.74867V111.549ZM15.098 111.34C15.098 111.487 15.1347 111.6 15.208 111.681C15.2887 111.754 15.3987 111.791 15.538 111.791C15.6554 111.791 15.7837 111.769 15.923 111.725V112H13.448V111.725C13.5947 111.769 13.723 111.791 13.833 111.791C13.9724 111.791 14.0787 111.754 14.152 111.681C14.2327 111.6 14.273 111.487 14.273 111.34V105.543C14.273 105.499 14.2584 105.47 14.229 105.455C14.207 105.44 14.1814 105.455 14.152 105.499C13.8734 105.88 13.5104 106.042 13.063 105.983V105.642C13.173 105.679 13.2757 105.697 13.371 105.697C13.613 105.697 13.8404 105.605 14.053 105.422C14.2657 105.231 14.4344 104.993 14.559 104.707C14.691 104.421 14.757 104.139 14.757 103.86H15.098V111.34Z" fill="black"/>
<path d="M31.1256 111.549C31.3823 111.234 31.771 110.823 32.2916 110.317C32.8343 109.782 33.267 109.32 33.5896 108.931C33.9196 108.535 34.1983 108.073 34.4256 107.545C34.6603 107.01 34.7776 106.419 34.7776 105.774C34.7776 105.202 34.6566 104.744 34.4146 104.399C34.18 104.047 33.8573 103.871 33.4466 103.871C33.2266 103.871 33.0176 103.933 32.8196 104.058C32.6216 104.175 32.464 104.337 32.3466 104.542C32.2293 104.747 32.1706 104.967 32.1706 105.202C32.1706 105.407 32.1963 105.55 32.2476 105.631C32.3063 105.704 32.3906 105.763 32.5006 105.807C32.5813 105.836 32.64 105.873 32.6766 105.917C32.7133 105.954 32.7316 106.027 32.7316 106.137C32.7316 106.262 32.6876 106.372 32.5996 106.467C32.5116 106.562 32.3943 106.61 32.2476 106.61C32.0716 106.61 31.914 106.533 31.7746 106.379C31.6353 106.225 31.5656 106.031 31.5656 105.796C31.5656 105.327 31.672 104.934 31.8846 104.619C32.0973 104.296 32.3576 104.058 32.6656 103.904C32.9736 103.75 33.267 103.673 33.5456 103.673C33.9123 103.673 34.2423 103.761 34.5356 103.937C34.8363 104.113 35.071 104.37 35.2396 104.707C35.4156 105.037 35.5036 105.429 35.5036 105.884C35.5036 106.522 35.3753 107.098 35.1186 107.611C34.8693 108.117 34.5686 108.55 34.2166 108.909C33.872 109.268 33.4356 109.664 32.9076 110.097C32.6363 110.317 32.4163 110.5 32.2476 110.647C32.0863 110.794 31.9506 110.94 31.8406 111.087C31.8186 111.116 31.8076 111.153 31.8076 111.197C31.8076 111.263 31.8443 111.296 31.9176 111.296L33.6446 111.307C34.0773 111.307 34.4073 111.27 34.6346 111.197C34.8693 111.124 35.0453 110.962 35.1626 110.713C35.2873 110.464 35.3496 110.071 35.3496 109.536H35.5586V112H31.1256V111.549ZM36.11 111.549C36.3667 111.234 36.7553 110.823 37.276 110.317C37.8187 109.782 38.2513 109.32 38.574 108.931C38.904 108.535 39.1827 108.073 39.41 107.545C39.6447 107.01 39.762 106.419 39.762 105.774C39.762 105.202 39.641 104.744 39.399 104.399C39.1643 104.047 38.8417 103.871 38.431 103.871C38.211 103.871 38.002 103.933 37.804 104.058C37.606 104.175 37.4483 104.337 37.331 104.542C37.2137 104.747 37.155 104.967 37.155 105.202C37.155 105.407 37.1807 105.55 37.232 105.631C37.2907 105.704 37.375 105.763 37.485 105.807C37.5657 105.836 37.6243 105.873 37.661 105.917C37.6977 105.954 37.716 106.027 37.716 106.137C37.716 106.262 37.672 106.372 37.584 106.467C37.496 106.562 37.3787 106.61 37.232 106.61C37.056 106.61 36.8983 106.533 36.759 106.379C36.6197 106.225 36.55 106.031 36.55 105.796C36.55 105.327 36.6563 104.934 36.869 104.619C37.0817 104.296 37.342 104.058 37.65 103.904C37.958 103.75 38.2513 103.673 38.53 103.673C38.8967 103.673 39.2267 103.761 39.52 103.937C39.8207 104.113 40.0553 104.37 40.224 104.707C40.4 105.037 40.488 105.429 40.488 105.884C40.488 106.522 40.3597 107.098 40.103 107.611C39.8537 108.117 39.553 108.55 39.201 108.909C38.8563 109.268 38.42 109.664 37.892 110.097C37.6207 110.317 37.4007 110.5 37.232 110.647C37.0707 110.794 36.935 110.94 36.825 111.087C36.803 111.116 36.792 111.153 36.792 111.197C36.792 111.263 36.8287 111.296 36.902 111.296L38.629 111.307C39.0617 111.307 39.3917 111.27 39.619 111.197C39.8537 111.124 40.0297 110.962 40.147 110.713C40.2717 110.464 40.334 110.071 40.334 109.536H40.543V112H36.11V111.549Z" fill="black"/>
<path d="M54.9269 111.549C55.1836 111.234 55.5722 110.823 56.0929 110.317C56.6356 109.782 57.0682 109.32 57.3909 108.931C57.7209 108.535 57.9996 108.073 58.2269 107.545C58.4616 107.01 58.5789 106.419 58.5789 105.774C58.5789 105.202 58.4579 104.744 58.2159 104.399C57.9812 104.047 57.6586 103.871 57.2479 103.871C57.0279 103.871 56.8189 103.933 56.6209 104.058C56.4229 104.175 56.2652 104.337 56.1479 104.542C56.0306 104.747 55.9719 104.967 55.9719 105.202C55.9719 105.407 55.9976 105.55 56.0489 105.631C56.1076 105.704 56.1919 105.763 56.3019 105.807C56.3826 105.836 56.4412 105.873 56.4779 105.917C56.5146 105.954 56.5329 106.027 56.5329 106.137C56.5329 106.262 56.4889 106.372 56.4009 106.467C56.3129 106.562 56.1956 106.61 56.0489 106.61C55.8729 106.61 55.7152 106.533 55.5759 106.379C55.4366 106.225 55.3669 106.031 55.3669 105.796C55.3669 105.327 55.4732 104.934 55.6859 104.619C55.8986 104.296 56.1589 104.058 56.4669 103.904C56.7749 103.75 57.0682 103.673 57.3469 103.673C57.7136 103.673 58.0436 103.761 58.3369 103.937C58.6376 104.113 58.8722 104.37 59.0409 104.707C59.2169 105.037 59.3049 105.429 59.3049 105.884C59.3049 106.522 59.1766 107.098 58.9199 107.611C58.6706 108.117 58.3699 108.55 58.0179 108.909C57.6732 109.268 57.2369 109.664 56.7089 110.097C56.4376 110.317 56.2176 110.5 56.0489 110.647C55.8876 110.794 55.7519 110.94 55.6419 111.087C55.6199 111.116 55.6089 111.153 55.6089 111.197C55.6089 111.263 55.6456 111.296 55.7189 111.296L57.4459 111.307C57.8786 111.307 58.2086 111.27 58.4359 111.197C58.6706 111.124 58.8466 110.962 58.9639 110.713C59.0886 110.464 59.1509 110.071 59.1509 109.536H59.3599V112H54.9269V111.549ZM62.1113 112.11C61.7593 112.11 61.4329 112.04 61.1323 111.901C60.8316 111.754 60.5896 111.549 60.4063 111.285C60.2229 111.021 60.1313 110.717 60.1313 110.372C60.1313 110.123 60.1863 109.917 60.2963 109.756C60.4136 109.595 60.5603 109.514 60.7363 109.514C60.8903 109.514 61.0223 109.565 61.1323 109.668C61.2496 109.763 61.3083 109.873 61.3083 109.998C61.3083 110.101 61.2863 110.174 61.2423 110.218C61.1983 110.255 61.1286 110.288 61.0333 110.317C60.9379 110.346 60.8646 110.383 60.8133 110.427C60.7619 110.471 60.7363 110.555 60.7363 110.68C60.7363 110.849 60.7839 111.028 60.8793 111.219C60.9819 111.41 61.1286 111.575 61.3193 111.714C61.5173 111.846 61.7446 111.912 62.0013 111.912C62.3899 111.912 62.7419 111.817 63.0573 111.626C63.3726 111.428 63.6219 111.16 63.8053 110.823C63.9886 110.486 64.0803 110.115 64.0803 109.712C64.0803 109.243 63.9703 108.843 63.7503 108.513C63.5376 108.183 63.2443 107.937 62.8703 107.776C62.4963 107.607 62.0783 107.523 61.6163 107.523V107.347C62.1003 107.31 62.4743 107.233 62.7383 107.116C63.0023 106.991 63.1929 106.797 63.3103 106.533C63.4276 106.269 63.4863 105.895 63.4863 105.411C63.4863 105 63.3909 104.641 63.2003 104.333C63.0096 104.025 62.7089 103.871 62.2983 103.871C61.9243 103.871 61.6346 103.955 61.4293 104.124C61.2313 104.285 61.1323 104.491 61.1323 104.74C61.1323 104.865 61.1579 104.949 61.2093 104.993C61.2606 105.037 61.3339 105.074 61.4293 105.103C61.5246 105.132 61.5943 105.169 61.6383 105.213C61.6823 105.25 61.7043 105.319 61.7043 105.422C61.7043 105.547 61.6456 105.66 61.5283 105.763C61.4183 105.858 61.2863 105.906 61.1323 105.906C60.9563 105.906 60.8096 105.825 60.6923 105.664C60.5823 105.503 60.5273 105.297 60.5273 105.048C60.5273 104.821 60.6116 104.601 60.7803 104.388C60.9563 104.175 61.1873 104.003 61.4733 103.871C61.7666 103.739 62.0783 103.673 62.4083 103.673C62.7823 103.673 63.1086 103.75 63.3873 103.904C63.6659 104.058 63.8786 104.267 64.0253 104.531C64.1793 104.795 64.2563 105.088 64.2563 105.411C64.2563 105.968 64.1279 106.416 63.8713 106.753C63.6146 107.083 63.2626 107.277 62.8153 107.336C62.7859 107.343 62.7713 107.358 62.7713 107.38C62.7713 107.395 62.7859 107.402 62.8153 107.402C63.1159 107.402 63.4239 107.497 63.7393 107.688C64.0546 107.871 64.3186 108.135 64.5313 108.48C64.7439 108.825 64.8503 109.217 64.8503 109.657C64.8503 110.141 64.7366 110.57 64.5093 110.944C64.2893 111.311 63.9703 111.597 63.5523 111.802C63.1416 112.007 62.6613 112.11 62.1113 112.11Z" fill="black"/>
<path d="M79.0021 111.549C79.2588 111.234 79.6474 110.823 80.1681 110.317C80.7108 109.782 81.1434 109.32 81.4661 108.931C81.7961 108.535 82.0748 108.073 82.3021 107.545C82.5368 107.01 82.6541 106.419 82.6541 105.774C82.6541 105.202 82.5331 104.744 82.2911 104.399C82.0564 104.047 81.7338 103.871 81.3231 103.871C81.1031 103.871 80.8941 103.933 80.6961 104.058C80.4981 104.175 80.3404 104.337 80.2231 104.542C80.1058 104.747 80.0471 104.967 80.0471 105.202C80.0471 105.407 80.0728 105.55 80.1241 105.631C80.1828 105.704 80.2671 105.763 80.3771 105.807C80.4578 105.836 80.5164 105.873 80.5531 105.917C80.5898 105.954 80.6081 106.027 80.6081 106.137C80.6081 106.262 80.5641 106.372 80.4761 106.467C80.3881 106.562 80.2708 106.61 80.1241 106.61C79.9481 106.61 79.7904 106.533 79.6511 106.379C79.5118 106.225 79.4421 106.031 79.4421 105.796C79.4421 105.327 79.5484 104.934 79.7611 104.619C79.9738 104.296 80.2341 104.058 80.5421 103.904C80.8501 103.75 81.1434 103.673 81.4221 103.673C81.7888 103.673 82.1188 103.761 82.4121 103.937C82.7128 104.113 82.9474 104.37 83.1161 104.707C83.2921 105.037 83.3801 105.429 83.3801 105.884C83.3801 106.522 83.2518 107.098 82.9951 107.611C82.7458 108.117 82.4451 108.55 82.0931 108.909C81.7484 109.268 81.3121 109.664 80.7841 110.097C80.5128 110.317 80.2928 110.5 80.1241 110.647C79.9628 110.794 79.8271 110.94 79.7171 111.087C79.6951 111.116 79.6841 111.153 79.6841 111.197C79.6841 111.263 79.7208 111.296 79.7941 111.296L81.5211 111.307C81.9538 111.307 82.2838 111.27 82.5111 111.197C82.7458 111.124 82.9218 110.962 83.0391 110.713C83.1638 110.464 83.2261 110.071 83.2261 109.536H83.4351V112H79.0021V111.549ZM86.2305 111.725C86.3771 111.769 86.5055 111.791 86.6155 111.791C86.7548 111.791 86.8611 111.754 86.9345 111.681C87.0151 111.6 87.0555 111.487 87.0555 111.34V109.272C85.8161 109.272 84.7931 109.257 83.9865 109.228V108.953C84.4265 107.816 84.8298 106.922 85.1965 106.269C85.5705 105.616 85.9005 105.147 86.1865 104.861C86.4725 104.568 86.7731 104.333 87.0885 104.157C87.3158 104.032 87.5285 103.941 87.7265 103.882C87.9245 103.823 88.0858 103.794 88.2105 103.794V103.926C88.0638 103.926 87.9648 104.01 87.9135 104.179C87.8695 104.34 87.8475 104.575 87.8475 104.883V105.279L87.8365 109.052H88.6945V109.272H87.8365V111.34C87.8365 111.487 87.8731 111.6 87.9465 111.681C88.0271 111.754 88.1371 111.791 88.2765 111.791C88.3865 111.791 88.5148 111.769 88.6615 111.725V112H86.2305V111.725ZM87.0995 104.663C87.0995 104.597 87.0958 104.549 87.0885 104.52C87.0811 104.483 87.0701 104.469 87.0555 104.476C86.5715 104.645 86.1168 105.11 85.6915 105.873C85.2735 106.636 84.8408 107.582 84.3935 108.711L84.2945 108.953C84.2798 108.968 84.2761 108.982 84.2835 108.997C84.2908 109.012 84.3055 109.019 84.3275 109.019C84.5841 109.019 84.9985 109.026 85.5705 109.041C86.2818 109.056 86.7768 109.059 87.0555 109.052L87.0995 104.663Z" fill="black"/>
<path d="M103.013 111.549C103.269 111.234 103.658 110.823 104.179 110.317C104.721 109.782 105.154 109.32 105.477 108.931C105.807 108.535 106.085 108.073 106.313 107.545C106.547 107.01 106.665 106.419 106.665 105.774C106.665 105.202 106.544 104.744 106.302 104.399C106.067 104.047 105.744 103.871 105.334 103.871C105.114 103.871 104.905 103.933 104.707 104.058C104.509 104.175 104.351 104.337 104.234 104.542C104.116 104.747 104.058 104.967 104.058 105.202C104.058 105.407 104.083 105.55 104.135 105.631C104.193 105.704 104.278 105.763 104.388 105.807C104.468 105.836 104.527 105.873 104.564 105.917C104.6 105.954 104.619 106.027 104.619 106.137C104.619 106.262 104.575 106.372 104.487 106.467C104.399 106.562 104.281 106.61 104.135 106.61C103.959 106.61 103.801 106.533 103.662 106.379C103.522 106.225 103.453 106.031 103.453 105.796C103.453 105.327 103.559 104.934 103.772 104.619C103.984 104.296 104.245 104.058 104.553 103.904C104.861 103.75 105.154 103.673 105.433 103.673C105.799 103.673 106.129 103.761 106.423 103.937C106.723 104.113 106.958 104.37 107.127 104.707C107.303 105.037 107.391 105.429 107.391 105.884C107.391 106.522 107.262 107.098 107.006 107.611C106.756 108.117 106.456 108.55 106.104 108.909C105.759 109.268 105.323 109.664 104.795 110.097C104.523 110.317 104.303 110.5 104.135 110.647C103.973 110.794 103.838 110.94 103.728 111.087C103.706 111.116 103.695 111.153 103.695 111.197C103.695 111.263 103.731 111.296 103.805 111.296L105.532 111.307C105.964 111.307 106.294 111.27 106.522 111.197C106.756 111.124 106.932 110.962 107.05 110.713C107.174 110.464 107.237 110.071 107.237 109.536H107.446V112H103.013V111.549ZM110.395 112.11C109.757 112.11 109.244 111.952 108.855 111.637C108.467 111.322 108.272 110.9 108.272 110.372C108.272 110.123 108.327 109.917 108.437 109.756C108.555 109.595 108.701 109.514 108.877 109.514C109.031 109.514 109.163 109.565 109.273 109.668C109.391 109.763 109.449 109.873 109.449 109.998C109.449 110.101 109.427 110.174 109.383 110.218C109.339 110.255 109.27 110.288 109.174 110.317C109.079 110.346 109.006 110.383 108.954 110.427C108.903 110.471 108.877 110.555 108.877 110.68C108.877 110.856 108.925 111.039 109.02 111.23C109.116 111.421 109.266 111.582 109.471 111.714C109.684 111.846 109.955 111.912 110.285 111.912C110.652 111.912 110.96 111.795 111.209 111.56C111.466 111.318 111.653 111.01 111.77 110.636C111.888 110.262 111.946 109.877 111.946 109.481C111.946 108.74 111.796 108.161 111.495 107.743C111.195 107.325 110.755 107.116 110.175 107.116C110.051 107.116 109.915 107.138 109.768 107.182C109.629 107.226 109.438 107.299 109.196 107.402L108.811 107.556C108.797 107.563 108.778 107.567 108.756 107.567C108.69 107.567 108.657 107.541 108.657 107.49L108.778 103.86H112.067L112.078 105.51H111.858C111.858 105.195 111.836 104.971 111.792 104.839C111.756 104.7 111.686 104.612 111.583 104.575C111.488 104.531 111.33 104.509 111.11 104.509H110.615H109.284C109.189 104.509 109.127 104.527 109.097 104.564C109.068 104.593 109.05 104.637 109.042 104.696C108.932 105.686 108.877 106.555 108.877 107.303C108.877 107.325 108.888 107.34 108.91 107.347C108.94 107.354 108.969 107.351 108.998 107.336C109.541 107.072 110.043 106.94 110.505 106.94C110.652 106.94 110.762 106.947 110.835 106.962C111.136 107.013 111.429 107.153 111.715 107.38C112.009 107.607 112.247 107.904 112.43 108.271C112.621 108.63 112.716 109.023 112.716 109.448C112.716 109.888 112.628 110.313 112.452 110.724C112.284 111.127 112.023 111.461 111.671 111.725C111.319 111.982 110.894 112.11 110.395 112.11Z" fill="black"/>
<path d="M126.986 111.549C127.243 111.234 127.631 110.823 128.152 110.317C128.695 109.782 129.127 109.32 129.45 108.931C129.78 108.535 130.059 108.073 130.286 107.545C130.521 107.01 130.638 106.419 130.638 105.774C130.638 105.202 130.517 104.744 130.275 104.399C130.04 104.047 129.718 103.871 129.307 103.871C129.087 103.871 128.878 103.933 128.68 104.058C128.482 104.175 128.324 104.337 128.207 104.542C128.09 104.747 128.031 104.967 128.031 105.202C128.031 105.407 128.057 105.55 128.108 105.631C128.167 105.704 128.251 105.763 128.361 105.807C128.442 105.836 128.5 105.873 128.537 105.917C128.574 105.954 128.592 106.027 128.592 106.137C128.592 106.262 128.548 106.372 128.46 106.467C128.372 106.562 128.255 106.61 128.108 106.61C127.932 106.61 127.774 106.533 127.635 106.379C127.496 106.225 127.426 106.031 127.426 105.796C127.426 105.327 127.532 104.934 127.745 104.619C127.958 104.296 128.218 104.058 128.526 103.904C128.834 103.75 129.127 103.673 129.406 103.673C129.773 103.673 130.103 103.761 130.396 103.937C130.697 104.113 130.931 104.37 131.1 104.707C131.276 105.037 131.364 105.429 131.364 105.884C131.364 106.522 131.236 107.098 130.979 107.611C130.73 108.117 130.429 108.55 130.077 108.909C129.732 109.268 129.296 109.664 128.768 110.097C128.497 110.317 128.277 110.5 128.108 110.647C127.947 110.794 127.811 110.94 127.701 111.087C127.679 111.116 127.668 111.153 127.668 111.197C127.668 111.263 127.705 111.296 127.778 111.296L129.505 111.307C129.938 111.307 130.268 111.27 130.495 111.197C130.73 111.124 130.906 110.962 131.023 110.713C131.148 110.464 131.21 110.071 131.21 109.536H131.419V112H126.986V111.549ZM134.599 112.11C133.778 112.11 133.188 111.824 132.828 111.252C132.476 110.68 132.3 109.936 132.3 109.019C132.3 108.425 132.333 107.835 132.399 107.248C132.473 106.654 132.586 106.133 132.74 105.686C132.938 105.092 133.221 104.608 133.587 104.234C133.961 103.86 134.387 103.673 134.863 103.673C135.296 103.673 135.663 103.801 135.963 104.058C136.271 104.307 136.425 104.645 136.425 105.07C136.425 105.312 136.367 105.517 136.249 105.686C136.132 105.855 135.989 105.939 135.82 105.939C135.666 105.939 135.531 105.891 135.413 105.796C135.296 105.693 135.237 105.58 135.237 105.455C135.237 105.352 135.259 105.283 135.303 105.246C135.347 105.202 135.417 105.165 135.512 105.136C135.615 105.099 135.688 105.059 135.732 105.015C135.784 104.971 135.809 104.887 135.809 104.762C135.809 104.381 135.707 104.131 135.501 104.014C135.303 103.897 135.091 103.838 134.863 103.838C134.46 103.838 134.086 104.109 133.741 104.652C133.404 105.195 133.177 106.181 133.059 107.611C133.059 107.706 133.092 107.739 133.158 107.71C133.364 107.468 133.606 107.27 133.884 107.116C134.17 106.955 134.486 106.874 134.83 106.874C135.16 106.874 135.472 106.988 135.765 107.215C136.059 107.435 136.293 107.736 136.469 108.117C136.653 108.498 136.744 108.916 136.744 109.371C136.744 110.134 136.583 110.783 136.26 111.318C135.938 111.846 135.384 112.11 134.599 112.11ZM134.599 111.912C135.01 111.912 135.318 111.787 135.523 111.538C135.729 111.289 135.857 110.992 135.908 110.647C135.96 110.295 135.985 109.87 135.985 109.371C135.985 108.718 135.872 108.168 135.644 107.721C135.417 107.266 135.083 107.039 134.643 107.039C134.137 107.039 133.756 107.263 133.499 107.71C133.25 108.15 133.125 108.718 133.125 109.415C133.125 110.112 133.243 110.702 133.477 111.186C133.712 111.67 134.086 111.912 134.599 111.912Z" fill="black"/>
<path d="M151.195 111.549C151.452 111.234 151.841 110.823 152.361 110.317C152.904 109.782 153.337 109.32 153.659 108.931C153.989 108.535 154.268 108.073 154.495 107.545C154.73 107.01 154.847 106.419 154.847 105.774C154.847 105.202 154.726 104.744 154.484 104.399C154.25 104.047 153.927 103.871 153.516 103.871C153.296 103.871 153.087 103.933 152.889 104.058C152.691 104.175 152.534 104.337 152.416 104.542C152.299 104.747 152.24 104.967 152.24 105.202C152.24 105.407 152.266 105.55 152.317 105.631C152.376 105.704 152.46 105.763 152.57 105.807C152.651 105.836 152.71 105.873 152.746 105.917C152.783 105.954 152.801 106.027 152.801 106.137C152.801 106.262 152.757 106.372 152.669 106.467C152.581 106.562 152.464 106.61 152.317 106.61C152.141 106.61 151.984 106.533 151.844 106.379C151.705 106.225 151.635 106.031 151.635 105.796C151.635 105.327 151.742 104.934 151.954 104.619C152.167 104.296 152.427 104.058 152.735 103.904C153.043 103.75 153.337 103.673 153.615 103.673C153.982 103.673 154.312 103.761 154.605 103.937C154.906 104.113 155.141 104.37 155.309 104.707C155.485 105.037 155.573 105.429 155.573 105.884C155.573 106.522 155.445 107.098 155.188 107.611C154.939 108.117 154.638 108.55 154.286 108.909C153.942 109.268 153.505 109.664 152.977 110.097C152.706 110.317 152.486 110.5 152.317 110.647C152.156 110.794 152.02 110.94 151.91 111.087C151.888 111.116 151.877 111.153 151.877 111.197C151.877 111.263 151.914 111.296 151.987 111.296L153.714 111.307C154.147 111.307 154.477 111.27 154.704 111.197C154.939 111.124 155.115 110.962 155.232 110.713C155.357 110.464 155.419 110.071 155.419 109.536H155.628V112H151.195V111.549ZM157.357 111.329C157.357 110.911 157.379 110.563 157.423 110.284C157.467 109.998 157.558 109.683 157.698 109.338C157.932 108.781 158.314 108.069 158.842 107.204C159.377 106.339 159.872 105.572 160.327 104.905L160.459 104.696C160.473 104.667 160.481 104.641 160.481 104.619C160.481 104.546 160.411 104.509 160.272 104.509H158.666H157.841C157.474 104.509 157.21 104.531 157.049 104.575C156.887 104.612 156.774 104.7 156.708 104.839C156.649 104.971 156.62 105.195 156.62 105.51H156.4L156.411 103.86H160.8V104.586C160.646 104.799 160.495 105.03 160.349 105.279C160.209 105.528 160.063 105.792 159.909 106.071C159.828 106.232 159.707 106.46 159.546 106.753C159.025 107.699 158.662 108.546 158.457 109.294C158.259 110.042 158.16 110.944 158.16 112H157.357V111.329Z" fill="black"/>
<path d="M6.96986 135.549C7.22653 135.234 7.6152 134.823 8.13586 134.317C8.67853 133.782 9.1112 133.32 9.43386 132.931C9.76386 132.535 10.0425 132.073 10.2699 131.545C10.5045 131.01 10.6219 130.419 10.6219 129.774C10.6219 129.202 10.5009 128.744 10.2589 128.399C10.0242 128.047 9.70153 127.871 9.29086 127.871C9.07086 127.871 8.86186 127.933 8.66386 128.058C8.46586 128.175 8.3082 128.337 8.19086 128.542C8.07353 128.747 8.01486 128.967 8.01486 129.202C8.01486 129.407 8.04053 129.55 8.09186 129.631C8.15053 129.704 8.23486 129.763 8.34486 129.807C8.42553 129.836 8.4842 129.873 8.52086 129.917C8.55753 129.954 8.57586 130.027 8.57586 130.137C8.57586 130.262 8.53186 130.372 8.44386 130.467C8.35586 130.562 8.23853 130.61 8.09186 130.61C7.91586 130.61 7.7582 130.533 7.61886 130.379C7.47953 130.225 7.40986 130.031 7.40986 129.796C7.40986 129.327 7.5162 128.934 7.72886 128.619C7.94153 128.296 8.20186 128.058 8.50986 127.904C8.81786 127.75 9.1112 127.673 9.38986 127.673C9.75653 127.673 10.0865 127.761 10.3799 127.937C10.6805 128.113 10.9152 128.37 11.0839 128.707C11.2599 129.037 11.3479 129.429 11.3479 129.884C11.3479 130.522 11.2195 131.098 10.9629 131.611C10.7135 132.117 10.4129 132.55 10.0609 132.909C9.7162 133.268 9.27986 133.664 8.75186 134.097C8.48053 134.317 8.26053 134.5 8.09186 134.647C7.93053 134.794 7.79486 134.94 7.68486 135.087C7.66286 135.116 7.65186 135.153 7.65186 135.197C7.65186 135.263 7.68853 135.296 7.76186 135.296L9.48886 135.307C9.92153 135.307 10.2515 135.27 10.4789 135.197C10.7135 135.124 10.8895 134.962 11.0069 134.713C11.1315 134.464 11.1939 134.071 11.1939 133.536H11.4029V136H6.96986V135.549ZM14.4952 136.11C13.9672 136.11 13.5382 135.989 13.2082 135.747C12.8782 135.498 12.6399 135.193 12.4932 134.834C12.3539 134.475 12.2842 134.108 12.2842 133.734C12.2842 133.191 12.4089 132.707 12.6582 132.282C12.9149 131.857 13.3329 131.585 13.9122 131.468C13.9416 131.461 13.9526 131.453 13.9452 131.446C13.9452 131.431 13.9306 131.42 13.9012 131.413C13.4392 131.332 13.0982 131.127 12.8782 130.797C12.6582 130.46 12.5482 130.078 12.5482 129.653C12.5482 129.374 12.6216 129.081 12.7682 128.773C12.9222 128.458 13.1459 128.194 13.4392 127.981C13.7399 127.768 14.0919 127.662 14.4952 127.662C14.9059 127.662 15.2542 127.768 15.5402 127.981C15.8336 128.194 16.0536 128.458 16.2002 128.773C16.3542 129.081 16.4312 129.374 16.4312 129.653C16.4312 130.078 16.3176 130.46 16.0902 130.797C15.8702 131.127 15.5329 131.332 15.0782 131.413C15.0489 131.42 15.0306 131.431 15.0232 131.446C15.0232 131.453 15.0379 131.461 15.0672 131.468C15.6466 131.585 16.0609 131.857 16.3102 132.282C16.5669 132.707 16.6952 133.191 16.6952 133.734C16.6952 134.108 16.6219 134.475 16.4752 134.834C16.3359 135.193 16.1012 135.498 15.7712 135.747C15.4486 135.989 15.0232 136.11 14.4952 136.11ZM14.4952 131.325C14.9132 131.325 15.2102 131.193 15.3862 130.929C15.5622 130.658 15.6502 130.232 15.6502 129.653C15.6502 129.147 15.5732 128.718 15.4192 128.366C15.2726 128.007 14.9646 127.827 14.4952 127.827C13.7179 127.827 13.3292 128.436 13.3292 129.653C13.3292 130.152 13.4136 130.555 13.5822 130.863C13.7509 131.171 14.0552 131.325 14.4952 131.325ZM14.4952 135.945C14.8912 135.945 15.1882 135.835 15.3862 135.615C15.5842 135.388 15.7052 135.124 15.7492 134.823C15.8006 134.515 15.8262 134.152 15.8262 133.734C15.8262 133.147 15.7199 132.641 15.5072 132.216C15.3019 131.791 14.9646 131.567 14.4952 131.545C14.0186 131.567 13.6739 131.791 13.4612 132.216C13.2559 132.641 13.1532 133.147 13.1532 133.734C13.1532 134.152 13.1789 134.515 13.2302 134.823C13.2816 135.124 13.4062 135.388 13.6042 135.615C13.8022 135.835 14.0992 135.945 14.4952 135.945Z" fill="black"/>
<path d="M30.986 135.549C31.2426 135.234 31.6313 134.823 32.152 134.317C32.6946 133.782 33.1273 133.32 33.45 132.931C33.78 132.535 34.0586 132.073 34.286 131.545C34.5206 131.01 34.638 130.419 34.638 129.774C34.638 129.202 34.517 128.744 34.275 128.399C34.0403 128.047 33.7176 127.871 33.307 127.871C33.087 127.871 32.878 127.933 32.68 128.058C32.482 128.175 32.3243 128.337 32.207 128.542C32.0896 128.747 32.031 128.967 32.031 129.202C32.031 129.407 32.0566 129.55 32.108 129.631C32.1666 129.704 32.251 129.763 32.361 129.807C32.4416 129.836 32.5003 129.873 32.537 129.917C32.5736 129.954 32.592 130.027 32.592 130.137C32.592 130.262 32.548 130.372 32.46 130.467C32.372 130.562 32.2546 130.61 32.108 130.61C31.932 130.61 31.7743 130.533 31.635 130.379C31.4956 130.225 31.426 130.031 31.426 129.796C31.426 129.327 31.5323 128.934 31.745 128.619C31.9576 128.296 32.218 128.058 32.526 127.904C32.834 127.75 33.1273 127.673 33.406 127.673C33.7726 127.673 34.1026 127.761 34.396 127.937C34.6966 128.113 34.9313 128.37 35.1 128.707C35.276 129.037 35.364 129.429 35.364 129.884C35.364 130.522 35.2356 131.098 34.979 131.611C34.7296 132.117 34.429 132.55 34.077 132.909C33.7323 133.268 33.296 133.664 32.768 134.097C32.4966 134.317 32.2766 134.5 32.108 134.647C31.9466 134.794 31.811 134.94 31.701 135.087C31.679 135.116 31.668 135.153 31.668 135.197C31.668 135.263 31.7046 135.296 31.778 135.296L33.505 135.307C33.9376 135.307 34.2676 135.27 34.495 135.197C34.7296 135.124 34.9056 134.962 35.023 134.713C35.1476 134.464 35.21 134.071 35.21 133.536H35.419V136H30.986V135.549ZM38.2914 136.11C37.778 136.11 37.3527 135.956 37.0154 135.648C36.678 135.34 36.5094 134.929 36.5094 134.416C36.5094 134.181 36.5644 133.994 36.6744 133.855C36.7917 133.708 36.9347 133.635 37.1034 133.635C37.2647 133.635 37.393 133.675 37.4884 133.756C37.5837 133.829 37.6314 133.925 37.6314 134.042C37.6314 134.152 37.6094 134.229 37.5654 134.273C37.5287 134.31 37.47 134.343 37.3894 134.372C37.3014 134.409 37.2354 134.449 37.1914 134.493C37.1474 134.537 37.1254 134.621 37.1254 134.746C37.1254 135.135 37.2427 135.432 37.4774 135.637C37.712 135.842 37.9944 135.945 38.3244 135.945C39.395 135.945 39.9304 134.581 39.9304 131.853C39.9304 131.75 39.8974 131.717 39.8314 131.754C39.626 131.996 39.3804 132.198 39.0944 132.359C38.8157 132.513 38.504 132.59 38.1594 132.59C37.8294 132.59 37.514 132.498 37.2134 132.315C36.92 132.124 36.6854 131.864 36.5094 131.534C36.3334 131.197 36.2454 130.823 36.2454 130.412C36.2454 129.649 36.4067 129.004 36.7294 128.476C37.052 127.941 37.6057 127.673 38.3904 127.673C39.2117 127.673 39.7984 127.959 40.1504 128.531C40.5097 129.103 40.6894 129.847 40.6894 130.764C40.6894 131.871 40.627 132.81 40.5024 133.58C40.385 134.343 40.1504 134.955 39.7984 135.417C39.4537 135.879 38.9514 136.11 38.2914 136.11ZM38.3574 132.425C38.856 132.425 39.23 132.238 39.4794 131.864C39.736 131.49 39.8644 130.991 39.8644 130.368C39.8644 129.671 39.747 129.081 39.5124 128.597C39.2777 128.113 38.9037 127.871 38.3904 127.871C37.9797 127.871 37.6717 127.996 37.4664 128.245C37.261 128.494 37.1327 128.795 37.0814 129.147C37.03 129.492 37.0044 129.913 37.0044 130.412C37.0044 130.999 37.118 131.483 37.3454 131.864C37.5727 132.238 37.91 132.425 38.3574 132.425Z" fill="black"/>
<path d="M56.5844 136.11C56.2324 136.11 55.9061 136.04 55.6054 135.901C55.3047 135.754 55.0627 135.549 54.8794 135.285C54.6961 135.021 54.6044 134.717 54.6044 134.372C54.6044 134.123 54.6594 133.917 54.7694 133.756C54.8867 133.595 55.0334 133.514 55.2094 133.514C55.3634 133.514 55.4954 133.565 55.6054 133.668C55.7227 133.763 55.7814 133.873 55.7814 133.998C55.7814 134.101 55.7594 134.174 55.7154 134.218C55.6714 134.255 55.6017 134.288 55.5064 134.317C55.4111 134.346 55.3377 134.383 55.2864 134.427C55.2351 134.471 55.2094 134.555 55.2094 134.68C55.2094 134.849 55.2571 135.028 55.3524 135.219C55.4551 135.41 55.6017 135.575 55.7924 135.714C55.9904 135.846 56.2177 135.912 56.4744 135.912C56.8631 135.912 57.2151 135.817 57.5304 135.626C57.8457 135.428 58.0951 135.16 58.2784 134.823C58.4617 134.486 58.5534 134.115 58.5534 133.712C58.5534 133.243 58.4434 132.843 58.2234 132.513C58.0107 132.183 57.7174 131.937 57.3434 131.776C56.9694 131.607 56.5514 131.523 56.0894 131.523V131.347C56.5734 131.31 56.9474 131.233 57.2114 131.116C57.4754 130.991 57.6661 130.797 57.7834 130.533C57.9007 130.269 57.9594 129.895 57.9594 129.411C57.9594 129 57.8641 128.641 57.6734 128.333C57.4827 128.025 57.1821 127.871 56.7714 127.871C56.3974 127.871 56.1077 127.955 55.9024 128.124C55.7044 128.285 55.6054 128.491 55.6054 128.74C55.6054 128.865 55.6311 128.949 55.6824 128.993C55.7337 129.037 55.8071 129.074 55.9024 129.103C55.9977 129.132 56.0674 129.169 56.1114 129.213C56.1554 129.25 56.1774 129.319 56.1774 129.422C56.1774 129.547 56.1187 129.66 56.0014 129.763C55.8914 129.858 55.7594 129.906 55.6054 129.906C55.4294 129.906 55.2827 129.825 55.1654 129.664C55.0554 129.503 55.0004 129.297 55.0004 129.048C55.0004 128.821 55.0847 128.601 55.2534 128.388C55.4294 128.175 55.6604 128.003 55.9464 127.871C56.2397 127.739 56.5514 127.673 56.8814 127.673C57.2554 127.673 57.5817 127.75 57.8604 127.904C58.1391 128.058 58.3517 128.267 58.4984 128.531C58.6524 128.795 58.7294 129.088 58.7294 129.411C58.7294 129.968 58.6011 130.416 58.3444 130.753C58.0877 131.083 57.7357 131.277 57.2884 131.336C57.2591 131.343 57.2444 131.358 57.2444 131.38C57.2444 131.395 57.2591 131.402 57.2884 131.402C57.5891 131.402 57.8971 131.497 58.2124 131.688C58.5277 131.871 58.7917 132.135 59.0044 132.48C59.2171 132.825 59.3234 133.217 59.3234 133.657C59.3234 134.141 59.2097 134.57 58.9824 134.944C58.7624 135.311 58.4434 135.597 58.0254 135.802C57.6147 136.007 57.1344 136.11 56.5844 136.11ZM62.6813 136.11C62.1166 136.11 61.6399 135.923 61.2513 135.549C60.8626 135.175 60.5729 134.673 60.3822 134.042C60.1916 133.404 60.0963 132.693 60.0963 131.908C60.0963 130.705 60.3163 129.73 60.7563 128.982C61.1963 128.234 61.8379 127.86 62.6813 127.86C63.2239 127.86 63.6896 128.036 64.0783 128.388C64.4743 128.74 64.7749 129.224 64.9803 129.84C65.1856 130.449 65.2883 131.138 65.2883 131.908C65.2883 132.678 65.1856 133.382 64.9803 134.02C64.7749 134.658 64.4743 135.168 64.0783 135.549C63.6896 135.923 63.2239 136.11 62.6813 136.11ZM62.6813 135.89C63.1653 135.89 63.5283 135.714 63.7703 135.362C64.0196 135.01 64.1809 134.555 64.2543 133.998C64.3276 133.433 64.3643 132.737 64.3643 131.908C64.3643 131.087 64.3276 130.408 64.2543 129.873C64.1809 129.338 64.0196 128.905 63.7703 128.575C63.5283 128.245 63.1653 128.08 62.6813 128.08C62.1753 128.08 61.8013 128.245 61.5593 128.575C61.3173 128.898 61.1669 129.316 61.1082 129.829C61.0496 130.342 61.0203 131.035 61.0203 131.908C61.0203 132.788 61.0496 133.496 61.1082 134.031C61.1669 134.566 61.3173 135.01 61.5593 135.362C61.8013 135.714 62.1753 135.89 62.6813 135.89Z" fill="black"/>
<path d="M107.5 98.437L106.772 99.215L106.785 99.2314L107.5 98.437ZM109.483 102.222C109.575 102.332 109.687 102.421 109.811 102.482C109.935 102.543 110.069 102.576 110.205 102.579C110.341 102.582 110.476 102.554 110.602 102.498C110.728 102.441 110.842 102.357 110.938 102.251C111.034 102.144 111.11 102.017 111.161 101.877C111.212 101.738 111.237 101.588 111.234 101.437C111.232 101.287 111.202 101.138 111.147 101C111.092 100.863 111.012 100.739 110.913 100.636L109.483 102.222ZM104.028 117.62C101.983 115.832 99.7482 114.086 97.9745 111.872C96.2372 109.699 95.0233 107.167 95.0233 103.878H93C93 107.867 94.4972 110.91 96.4625 113.362C98.3913 115.77 100.852 117.7 102.775 119.382L104.028 117.62ZM95.0233 103.878C95.0233 100.662 96.6621 97.9628 98.8998 96.8273C101.074 95.7247 103.996 96.0164 106.772 99.215L108.228 97.6606C104.937 93.8651 101.112 93.2382 98.0581 94.7866C95.0718 96.3021 93 99.8209 93 103.878H95.0233ZM102.775 119.382C103.467 119.986 104.209 120.63 104.96 121.117C105.711 121.605 106.569 122 107.5 122V119.756C107.082 119.756 106.591 119.576 105.981 119.18C105.37 118.785 104.738 118.24 104.028 117.62L102.775 119.382ZM112.225 119.382C114.148 117.699 116.609 115.772 118.538 113.362C120.503 110.908 122 107.867 122 103.878H119.977C119.977 107.167 118.763 109.699 117.025 111.872C115.252 114.086 113.017 115.832 110.972 117.62L112.225 119.382ZM122 103.878C122 99.8209 119.93 96.3021 116.942 94.7866C113.888 93.2382 110.065 93.8651 106.772 97.6591L108.228 99.215C111.004 96.0179 113.926 95.7247 116.1 96.8273C118.338 97.9628 119.977 100.66 119.977 103.878H122ZM110.972 117.62C110.262 118.24 109.63 118.785 109.019 119.18C108.408 119.575 107.918 119.756 107.5 119.756V122C108.431 122 109.289 121.604 110.04 121.117C110.793 120.63 111.533 119.986 112.225 119.382L110.972 117.62ZM106.785 99.2314L109.483 102.222L110.913 100.636L108.215 97.6441L106.785 99.2314Z" fill="#C72727"/>
</svg>
