<svg width="109" height="86" viewBox="0 0 109 86" fill="none"
     xmlns="http://www.w3.org/2000/svg">
    <path fill-rule="evenodd" clip-rule="evenodd"
          d="M68.4504 63.796C70.2014 62.98 71.8534 61.9889 73.3314 60.7879C73.6094 60.5599 73.2544 60.151 72.9614 60.309C72.9014 60.34 72.8424 60.3679 72.7824 60.4009C81.9464 51.3119 83.7984 35.053 74.1324 25.647C64.7914 16.557 47.8314 14.514 37.8834 23.049C37.8074 23.039 37.7274 23.041 37.6424 23.08C26.1554 28.304 26.5604 46.302 32.4194 55.519C39.7314 67.024 56.8314 70.818 68.4504 63.796ZM34.1354 27.639C34.2424 27.812 34.4894 27.913 34.6554 27.729C45.2214 15.935 61.5834 16.2069 73.4234 26.3569C83.7704 35.2259 80.1414 52.553 71.0244 60.752C70.5134 61.211 69.9824 61.631 69.4444 62.031C60.8094 65.855 52.2614 66.508 43.0084 62.191C29.2204 55.761 28.5224 39.81 34.1354 27.639ZM33.5914 27.615C27.7454 38.387 28.3974 51.455 37.6854 59.751C36.0234 58.355 34.5364 56.7699 33.2894 55.0129C28.0774 47.6729 27.7714 34.931 33.5914 27.615Z"
          fill="black"></path>
    <path fill-rule="evenodd" clip-rule="evenodd"
          d="M42.4543 32.5477C41.8093 33.3417 41.5593 34.2977 41.5483 35.3037C40.3143 43.2257 48.4003 49.7947 53.4503 55.0387C53.5403 55.1907 53.6443 55.3367 53.7313 55.4917C53.7233 55.4997 53.7163 55.5097 53.7083 55.5167C53.2573 56.0157 53.9973 56.7587 54.4463 56.2557C54.5403 56.1497 54.6453 56.0307 54.7423 55.9217C54.7623 55.9017 54.7793 55.8827 54.7953 55.8617C59.6783 50.3717 68.1663 40.2737 65.2873 32.5617C63.4213 27.5607 55.9483 32.0787 54.3653 35.7057C54.3383 35.6567 54.3023 35.6107 54.2733 35.5617C54.2983 35.4967 54.3183 35.4267 54.3423 35.3607C54.4373 35.1047 54.1523 34.9677 53.9553 35.0617C51.4893 31.5317 45.4673 28.8317 42.4543 32.5477ZM53.9913 37.0817C54.0663 37.2367 54.2023 37.2827 54.3423 37.2887C53.3623 41.1667 52.1053 44.8887 50.7333 48.6477C50.6403 48.9007 51.0243 49.0427 51.1563 48.8257C51.9273 47.5607 52.5073 46.2077 52.9823 44.8127C52.4873 46.5047 52.0313 48.2027 51.6783 49.8987C51.6303 50.1317 51.9743 50.3097 52.0843 50.0697C54.1743 45.4857 55.1333 40.4077 56.9483 35.7047C57.1293 35.2357 56.3813 35.0387 56.2003 35.4977C55.3013 37.7877 54.4333 40.1477 53.6613 42.5377C54.1513 40.6737 54.5233 38.7697 54.9273 36.9107C54.9313 36.8947 54.9193 36.8867 54.9203 36.8707C55.0763 36.7667 55.1273 36.6197 55.0983 36.4837C55.2863 36.2327 55.5603 35.8787 55.9843 35.3517C56.5433 34.6557 57.1543 34.0017 57.7663 33.3517C59.2543 31.7717 63.0443 29.4337 64.6563 33.7367C65.3523 35.5967 64.5043 37.9697 63.8993 39.7437C63.2363 41.6877 62.3153 43.6017 61.2383 45.4597C61.9113 43.2247 62.6503 41.0137 63.4493 38.8097C63.5953 38.4087 62.9543 38.2367 62.8093 38.6337C61.7693 41.4967 60.6803 44.3667 60.0793 47.3567C59.5693 48.1417 59.0363 48.9167 58.4843 49.6727C60.0663 46.1357 60.9543 42.1917 61.9343 38.5107C62.0593 38.0397 61.3323 37.8397 61.2053 38.3107C60.0053 42.7547 58.3553 47.0577 57.1173 51.4797C56.2643 52.5647 55.3873 53.6127 54.5083 54.6117C54.4173 54.5077 54.3223 54.4047 54.2303 54.3007C52.7763 51.9127 50.9143 49.7377 49.0813 47.5487C49.4003 47.0337 49.6673 46.4847 49.9143 45.9217C49.7473 46.5157 49.5903 47.1077 49.4523 47.7017C49.3853 47.9897 49.7933 48.1847 49.9423 47.9077C51.7843 44.4907 52.6303 40.5247 53.8463 36.8107C53.8903 36.9027 53.9463 36.9897 53.9913 37.0817ZM47.8663 32.0877C50.2663 32.5657 52.2023 34.1087 53.4573 36.1197C52.6883 38.0807 51.8883 40.0687 51.1623 42.0797C51.6423 40.1177 51.9933 38.1107 52.4953 36.3067C52.6013 35.9277 52.0303 35.7757 51.9123 36.1457C50.7853 39.6917 49.5423 43.3087 48.5413 46.9027C48.2873 46.5957 48.0283 46.2907 47.7793 45.9817C49.8773 42.6657 50.4133 38.2537 50.9963 34.4507C51.0663 33.9937 50.3783 33.7877 50.2903 34.2557C49.5713 38.0917 48.3573 41.7137 47.3693 45.4637C47.1233 45.1517 46.8773 44.8387 46.6413 44.5237C48.3313 41.3017 48.7023 37.2287 49.7623 33.8307C49.9093 33.3607 49.1803 33.1657 49.0283 33.6287C47.9543 36.8947 46.9183 40.2317 45.9423 43.5467C45.7353 43.2487 45.5223 42.9567 45.3273 42.6527C46.8163 39.9207 47.3313 36.4777 48.1623 33.5087C48.2803 33.0847 47.6413 32.9137 47.5083 33.3277C46.6253 36.0847 45.2883 39.0297 44.9093 41.9457C44.7153 41.6197 44.5083 41.3007 44.3313 40.9667C45.0323 40.1087 45.3793 38.9017 45.6933 37.8777C46.2283 36.1317 46.4533 34.3267 46.8103 32.5417C46.8683 32.2517 46.4343 32.1267 46.3643 32.4197C46.0273 33.8217 45.6293 35.2077 45.2323 36.5947C44.8973 37.7617 44.2803 38.8737 43.8633 40.0177C43.7573 39.7847 43.6473 39.5547 43.5503 39.3167C43.5923 39.3027 43.6343 39.2927 43.6723 39.2427C45.0433 37.4707 45.3803 34.7327 45.6723 32.5737C45.7303 32.1427 45.0803 31.9437 45.0043 32.3887C44.8153 33.4927 44.5423 34.5707 44.2203 35.6437C43.9313 36.6107 43.4783 37.5757 43.2673 38.5657C43.1743 38.3017 43.0773 38.0417 42.9983 37.7707C43.2463 37.1947 43.3343 36.5267 43.5013 35.9307C43.7903 34.9097 44.1303 33.9047 44.4433 32.8907C44.4993 32.7157 44.4303 32.5827 44.3173 32.5077C45.2433 31.9747 46.4773 31.8097 47.8663 32.0877ZM42.6533 35.6957C42.6433 35.7277 42.6313 35.7607 42.6213 35.7947C42.5893 34.6327 42.9573 33.7087 43.6003 33.0557C43.2763 33.9327 42.9423 34.8047 42.6533 35.6957Z"
          fill="black"></path>
    <path fill-rule="evenodd" clip-rule="evenodd"
          d="M55.1477 45.9772C55.4057 45.4762 55.5567 44.9382 55.7967 44.4312C55.8987 44.2172 55.5787 44.0282 55.4767 44.2432C55.2347 44.7552 55.1007 45.3002 54.8777 45.8182C54.8007 46.0002 55.0527 46.1592 55.1477 45.9772Z"
          fill="black"></path>
    <path fill-rule="evenodd" clip-rule="evenodd"
          d="M54.2731 51.3224C57.1681 46.3244 58.1631 40.4824 59.9421 35.0464C60.0461 34.7304 59.5582 34.6034 59.4482 34.9094C57.5122 40.3024 55.9182 45.7944 53.8582 51.1474C53.7652 51.3924 54.1481 51.5394 54.2731 51.3224Z"
          fill="black"></path>
    <path fill-rule="evenodd" clip-rule="evenodd"
          d="M59.7285 38.9553C58.3985 43.8623 56.3335 48.4934 54.8695 53.3504C54.8215 53.5094 55.0645 53.6153 55.1405 53.4643C57.4235 48.9383 59.0615 44.0184 60.2825 39.1084C60.3725 38.7484 59.8255 38.5953 59.7285 38.9553Z"
          fill="black"></path>
    <path fill-rule="evenodd" clip-rule="evenodd"
          d="M65.4807 62.034C70.1687 59.606 75.6228 55.781 76.4778 50.131C76.5168 49.876 76.1407 49.653 76.0187 49.938C74.9117 52.517 73.8687 54.699 71.8937 56.751C69.9767 58.741 67.6398 60.289 65.3528 61.816C65.2168 61.906 65.3357 62.109 65.4807 62.034Z"
          fill="black"></path>
    <path fill-rule="evenodd" clip-rule="evenodd"
          d="M32.7644 36.809C34.4724 31.637 36.9164 27.472 41.5974 24.452C41.7944 24.324 41.6684 23.959 41.4294 24.055C36.7524 25.92 32.6894 31.7349 32.3094 36.7479C32.2884 37.0199 32.6864 37.046 32.7644 36.809Z"
          fill="black"></path>
    <path fill-rule="evenodd" clip-rule="evenodd"
          d="M77.2229 46.619C77.6859 45.905 77.7899 44.928 77.9889 44.113C78.0819 43.732 77.4979 43.571 77.4019 43.952C77.1949 44.765 76.8239 45.682 76.8959 46.529C76.9099 46.702 77.1229 46.77 77.2229 46.619Z"
          fill="black"></path>
    <path fill-rule="evenodd" clip-rule="evenodd"
          d="M42.9188 23.5331C43.5238 23.1751 44.3458 22.9161 44.8318 22.4021C45.0338 22.1891 44.8758 21.8951 44.6088 21.8661C43.8398 21.7831 43.1278 22.4831 42.5538 22.9081C42.1898 23.1781 42.5088 23.7751 42.9188 23.5331Z"
          fill="black"></path>
    <path fill-rule="evenodd" clip-rule="evenodd"
          d="M65.4349 70.3535C66.0899 71.7785 66.5289 73.4795 67.4689 74.7505C67.6569 75.0035 68.0269 74.8535 67.9719 74.5385C67.6949 72.9505 66.7009 71.4415 65.8169 70.1305C65.6559 69.8895 65.3159 70.0955 65.4349 70.3535Z"
          fill="black"></path>
    <path fill-rule="evenodd" clip-rule="evenodd"
          d="M78.6822 12.1125C71.2612 6.08854 61.7062 3.29153 52.2442 3.42653C39.5402 3.60853 30.5412 10.4895 22.2382 19.3695C22.0702 19.5505 22.0922 19.7625 22.1992 19.9195C10.5692 36.7175 14.4052 59.4665 30.7312 71.8355C47.6692 84.6675 73.1312 81.5635 86.2252 64.9745C99.0602 48.7115 94.0702 24.6015 78.6822 12.1125ZM17.2782 35.0215C17.0242 37.3695 17.0262 39.7635 17.2362 42.1565C17.1072 42.1905 16.9772 42.2215 16.8482 42.2555C16.7722 42.2755 16.7272 42.3225 16.6882 42.3745C16.6752 39.9285 16.8672 37.4665 17.2782 35.0215ZM24.4592 64.8225C19.2682 58.5265 16.7982 50.7535 16.6822 42.7495C16.7352 42.8345 16.8122 42.9025 16.9352 42.9015C17.0582 42.8995 17.1772 42.8855 17.2982 42.8765C17.4422 44.2345 17.6822 45.5855 17.9642 46.9315C18.3242 49.1475 18.8682 51.3315 19.5762 53.4395C19.3292 52.9645 19.0832 52.4895 18.8372 52.0055C18.6972 51.7305 18.2222 51.9245 18.3342 52.2175C18.7642 53.3385 19.2232 54.4855 19.7082 55.6345C19.4362 55.8305 19.5582 56.3155 19.9322 56.1975C19.9352 56.1965 19.9392 56.1955 19.9432 56.1945C21.2182 59.1385 22.7472 62.0445 24.7532 64.4955C24.5992 64.5405 24.4742 64.6715 24.4592 64.8225ZM32.5452 71.9325C29.6602 70.1015 27.2092 67.9705 25.1432 65.6225C26.0812 66.4845 27.0332 67.3615 28.0052 68.2255C28.0422 68.3965 28.1932 68.5395 28.3702 68.5515C30.0692 70.0445 31.8432 71.4655 33.7362 72.6525C33.3362 72.4175 32.9372 72.1815 32.5452 71.9325ZM84.6472 65.4345C73.0142 80.1445 51.8862 81.9795 35.9922 73.8885C36.3542 73.9705 36.5882 73.5165 36.2572 73.2695C36.0882 73.1425 35.9202 73.0175 35.7512 72.8905C37.0382 73.6305 38.3622 74.2915 39.7222 74.8645C39.7682 75.1125 40.0392 75.2435 40.2372 75.0755C53.3972 80.3745 69.4272 77.8295 79.9492 68.3625C80.1942 68.5555 80.4502 68.7295 80.7382 68.8495C80.9242 68.9255 81.1572 68.6935 81.0802 68.5065C80.9662 68.2295 80.8032 67.9765 80.6172 67.7345C82.4972 65.9485 84.2092 63.9605 85.6552 61.7165C86.5192 60.3775 87.2212 58.9495 87.8072 57.4705C88.0422 57.5225 88.2772 57.5595 88.5112 57.5475C88.6892 57.5385 88.7772 57.3345 88.6542 57.2025C88.4922 57.0275 88.3022 56.8795 88.1012 56.7435C90.8622 49.1645 90.4242 40.1715 89.3932 32.5375C88.1072 23.0235 83.3132 16.1425 75.1042 11.2575C73.2142 10.1325 71.1932 9.15654 69.0902 8.33254C69.0202 8.13654 68.7802 8.03354 68.5782 8.13454C53.0532 2.28054 33.1202 4.92254 25.4482 21.2165C25.3072 21.5185 25.7192 21.7715 25.8992 21.4805C26.7512 20.1095 27.6662 18.8455 28.6272 17.6705C29.0522 18.0275 29.4782 18.3855 29.8882 18.7565C30.4152 19.2335 30.9232 19.8155 31.5592 20.1485C31.8242 20.2875 32.1012 20.0105 31.9622 19.7455C31.6312 19.1125 31.0452 18.5975 30.5252 18.1175C30.0902 17.7185 29.6302 17.3725 29.1502 17.0525C32.2032 13.4975 35.7452 10.8685 39.6052 9.09954C40.2842 10.7835 40.8642 12.9405 42.2352 14.1515C42.3222 14.2275 42.4592 14.1555 42.4312 14.0365C42.0102 12.2905 41.1772 10.4095 40.3082 8.79854C44.3462 7.07154 48.7072 6.25954 53.1862 6.23854C53.1062 7.08654 53.1132 7.93752 53.1102 8.79052C53.1062 9.80752 53.0392 10.8585 53.3512 11.8375C53.4152 12.0365 53.6912 12.0365 53.7562 11.8375C54.0272 10.9845 54.0022 10.0915 53.9982 9.20452C53.9942 8.21552 54.0132 7.22354 53.9192 6.23754C58.5732 6.30554 63.3442 7.24053 68.0072 8.91253C67.0662 10.3865 66.2772 12.1815 65.8192 13.8015C65.7562 14.0235 66.0362 14.1755 66.1982 14.0225C67.4702 12.8095 68.0792 10.8415 68.8042 9.20153C70.3342 9.78053 71.8532 10.4335 73.3492 11.1705C76.0302 12.4905 78.3412 14.1635 80.3172 16.1035C79.7932 16.4415 79.3562 16.9475 78.9002 17.3745C78.2012 18.0275 77.1162 18.7165 76.6702 19.5805C76.6032 19.7095 76.6832 19.9225 76.8562 19.9025C77.7582 19.8015 78.6062 18.8765 79.2362 18.2965C79.7772 17.7985 80.4412 17.2755 80.8492 16.6465C83.3842 19.2795 85.3142 22.3755 86.7202 25.7425C86.5232 25.3705 86.3182 24.9995 86.1032 24.6305C86.0452 24.5305 85.8672 24.5985 85.9112 24.7105C86.4522 26.0765 86.8982 27.4845 87.3022 28.9075C85.5742 29.2365 83.8102 30.0265 82.2002 30.6815C81.9082 30.8015 82.0122 31.2485 82.3342 31.1665C84.0112 30.7415 85.9682 30.4365 87.4552 29.4695C87.8052 30.7405 88.1302 32.0185 88.4562 33.2835C88.5202 33.5335 88.8552 33.5175 88.9492 33.3215C89.4852 36.2405 89.7132 39.2495 89.6582 42.2575C88.7882 42.1675 87.8762 42.3225 87.0122 42.4075C86.1842 42.4895 85.3842 42.6175 84.6142 42.9415C84.3452 43.0555 84.4782 43.5305 84.7642 43.4975C85.6282 43.3995 86.4882 43.2865 87.3552 43.2155C88.1172 43.1525 88.9162 43.1575 89.6502 42.9295C89.5042 47.5285 88.7122 52.1055 87.3652 56.3295C86.8812 56.0985 86.3692 55.9045 85.9132 55.6855C84.8212 55.1615 83.7182 54.6875 82.6072 54.2075C82.3042 54.0765 82.0392 54.4875 82.3412 54.6635C83.3812 55.2675 84.3922 55.9035 85.4652 56.4515C85.9612 56.7045 86.5072 57.0125 87.0702 57.2415C85.6292 61.4025 83.3532 64.8395 80.5012 67.6085C80.0162 67.0225 79.3912 66.5155 78.8532 66.0225C77.9762 65.2215 77.0072 64.5255 76.0042 63.8925C75.5892 63.6305 75.2482 64.2585 75.6282 64.5365C76.6242 65.2655 77.5332 66.0905 78.4352 66.9295C78.8902 67.3505 79.3222 67.8395 79.8052 68.2465C73.2162 74.2135 63.8522 76.8565 54.5852 76.7255C54.6852 75.0745 54.5792 73.3465 54.4862 71.7055C54.4642 71.3085 53.8992 71.3105 53.8722 71.7055C53.7592 73.2965 53.3992 75.1785 54.0082 76.7175C49.3902 76.5945 44.8162 75.7915 40.6442 74.3735C40.9142 73.8595 41.1862 73.3485 41.4192 72.8135C41.6832 72.2085 41.9982 71.5455 41.9292 70.8725C41.9092 70.6835 41.6832 70.5465 41.5292 70.7075C41.1222 71.1365 40.9572 71.6915 40.7372 72.2285C40.4782 72.8625 40.2152 73.4965 39.9482 74.1255C39.1932 73.8545 38.4462 73.5685 37.7212 73.2575C34.6702 71.9425 31.8992 70.0325 29.4522 67.6985C30.5412 66.6915 31.6872 65.6205 32.3832 64.3645C32.5162 64.1235 32.2252 63.7615 31.9722 63.9555C30.8232 64.8345 29.8262 65.9975 28.8332 67.0965C25.6912 63.9385 23.1172 60.0675 21.2292 55.8375C21.2282 55.8305 21.2262 55.8235 21.2242 55.8165C21.7542 55.6655 22.2852 55.5135 22.8122 55.3505C23.5892 55.1075 24.3712 54.9175 25.0002 54.3845C25.1542 54.2545 25.0262 54.0025 24.8422 54.0025C24.0572 54.0005 23.3302 54.3095 22.5902 54.5435C22.0622 54.7105 21.5532 54.9175 21.0392 55.1115C19.9272 50.8575 19.1472 46.7705 18.8282 42.6155C19.0762 42.5555 19.3252 42.4905 19.5752 42.4245C20.5152 42.1755 21.5582 42.0975 22.4462 41.7045C22.6192 41.6265 22.5392 41.3955 22.3982 41.3435C21.6372 41.0565 20.8312 41.2565 20.0602 41.4365C19.6262 41.5395 19.1922 41.6555 18.7582 41.7695C18.6932 40.7075 18.6582 39.6395 18.6572 38.5615C19.4212 35.2035 20.1352 31.9575 21.0822 28.7315L21.0932 28.7355C21.1482 28.8375 21.2832 28.8855 21.3922 28.8455C21.7872 28.9875 22.1832 29.1235 22.5742 29.2705C23.3832 29.5775 24.1762 29.9405 25.0522 29.9745C25.3472 29.9855 25.4672 29.5535 25.2032 29.4155C24.4412 29.0155 23.5992 28.7695 22.7962 28.4655C22.4782 28.3455 22.1492 28.2285 21.8152 28.1325C23.2112 25.3495 24.4112 22.4285 26.0422 19.7795C26.1682 19.5735 25.8632 19.4085 25.7272 19.5935C23.8152 22.1925 22.4232 24.9295 21.3282 27.9315C21.9022 26.0585 22.5552 24.1855 23.3652 22.2915C23.4732 22.0415 23.1552 21.8425 22.9942 22.0755C21.1402 24.7855 19.7842 28.0925 18.9162 31.5185C18.7732 31.4715 18.5922 31.5115 18.5472 31.6805C18.2742 32.7235 18.0532 33.7835 17.8832 34.8545C18.5292 29.6055 20.3552 24.6325 23.6172 20.5395C23.8752 20.2165 23.4172 19.7535 23.1592 20.0815C22.1692 21.3375 21.3202 22.6675 20.5832 24.0485C21.1712 22.7155 21.8142 21.4065 22.5272 20.1275C22.6412 20.1415 22.7632 20.1105 22.8722 20.0015C31.2222 11.7645 38.6582 5.59354 50.7552 4.45354C60.0562 3.57854 69.3552 6.73155 76.9232 11.9885C94.1512 23.9575 97.5282 49.1445 84.6472 65.4345Z"
          fill="black"></path>
    <path fill-rule="evenodd" clip-rule="evenodd"
          d="M20.3684 20.3694C22.6274 17.0774 25.3264 14.3324 28.0744 11.4724C28.1954 11.3474 28.0384 11.1304 27.8854 11.2274C24.5134 13.3704 22.1364 16.8614 20.1624 20.2494C20.0844 20.3834 20.2824 20.4944 20.3684 20.3694Z"
          fill="black"></path>
    <path fill-rule="evenodd" clip-rule="evenodd"
          d="M87.8677 64.2849C85.4667 68.0909 82.7207 71.3889 79.0377 74.0079C78.8037 74.1739 79.0017 74.5129 79.2617 74.3909C83.3407 72.4779 86.3357 68.4769 88.3257 64.5529C88.4797 64.2479 88.0507 63.9929 87.8677 64.2849Z"
          fill="black"></path>
    <path fill-rule="evenodd" clip-rule="evenodd"
          d="M10.623 1.6961C10.544 1.3511 10.145 1.38712 9.99304 1.62112C9.98504 1.62212 9.97504 1.6171 9.96704 1.6181C8.48104 1.8971 8.76503 6.19011 8.70603 7.14111C8.45703 11.1331 8.27303 14.9161 6.84103 18.5751C6.17103 13.0261 6.52803 7.3271 5.54203 1.9281C5.48903 1.6391 5.11804 1.7151 5.03004 1.9281C4.36804 3.5171 4.53603 15.4421 3.51003 17.4161C3.11103 14.0091 3.91803 1.23713 0.501032 1.37613C0.233032 1.38713 0.235032 1.7761 0.501032 1.7901C0.557032 1.7931 0.608029 1.81111 0.660029 1.82711C-0.176971 6.97511 0.706027 12.1571 0.968027 17.3351C1.20703 22.0681 4.28203 25.3911 4.62403 30.1861C4.82503 32.9971 4.88903 35.8401 4.87803 38.6951C4.78103 38.5031 4.71003 38.2961 4.66303 38.0891C4.53603 37.5371 3.74504 37.7811 3.83004 38.3181C3.94404 39.0361 4.25203 39.6621 4.86703 40.0731C4.86903 40.0741 4.87304 40.0761 4.87504 40.0771C4.87104 40.4131 4.85704 40.7481 4.85104 41.0831C4.73604 41.0111 4.62504 40.9321 4.52104 40.8431C4.14604 40.5211 3.61803 41.0311 3.97303 41.3921C4.22003 41.6431 4.51004 41.8701 4.82704 42.0391C4.70604 47.0251 4.39403 52.0201 4.09803 56.9181C3.70903 63.3351 3.46504 69.7821 3.93704 76.2031C4.11704 78.6551 4.18003 83.5851 7.05703 84.5631C7.25603 84.6291 7.48504 84.4881 7.53604 84.2911C9.48504 76.7891 8.73603 66.8241 7.73403 59.2211C7.02503 53.8421 6.45904 48.0931 6.29704 42.3441C6.84504 42.3101 7.42303 42.1301 7.61703 41.6031C7.66303 41.4771 7.56703 41.3151 7.43803 41.2881C7.04803 41.2051 6.66003 41.3681 6.26803 41.4201C6.26203 41.0711 6.23904 40.7221 6.23504 40.3731C6.47104 40.3301 6.67503 40.2271 6.79203 40.0201C6.85703 39.9051 6.84103 39.7571 6.74603 39.6631C6.60003 39.5181 6.41703 39.4731 6.22503 39.4461C6.21903 34.8011 6.52003 30.1951 7.34603 25.8311C7.36403 25.7371 7.34504 25.6571 7.31404 25.5861C9.65004 17.4801 12.641 10.5221 10.623 1.6961ZM7.48803 65.5891C7.61103 68.8841 7.30904 72.1781 7.38304 75.4731C7.41004 76.6551 7.59904 86.2561 5.81704 81.9781C4.15304 77.9851 4.54004 72.7271 4.54104 68.4871C4.54404 59.7471 5.24204 51.0051 5.43904 42.2651C5.48604 42.2771 5.53403 42.2841 5.58303 42.2931C5.99803 50.1181 7.20503 58.0011 7.48803 65.5891ZM9.72404 16.2311C8.84504 19.9651 6.84003 23.2621 6.22703 27.0901C6.22003 27.1321 6.24304 27.1601 6.25004 27.1961C5.90804 29.1121 5.68504 31.0451 5.56004 32.9921C5.49404 30.3461 5.25404 27.7161 4.59904 25.2041C3.70604 21.7811 1.88003 18.9451 1.70303 15.0991C1.50403 10.7801 0.973038 6.53411 1.15704 2.21011C2.86704 4.57411 1.85903 16.2421 2.86103 18.2231C2.98803 18.4751 3.25504 18.4501 3.43304 18.3061C5.30504 17.7941 5.02903 8.2001 5.07403 7.1231C5.12303 5.9421 5.16803 4.76612 5.29003 3.59112C5.44603 8.74112 4.74304 14.3921 6.16404 19.3711C6.20504 19.5141 6.29203 19.5831 6.39103 19.6171C6.34103 19.7211 6.30403 19.8291 6.25303 19.9341C6.11003 20.2301 6.40003 20.5371 6.70103 20.3811C9.02603 19.1721 9.07004 14.6631 9.30404 12.4361C9.51204 10.4481 9.59703 8.44511 9.71803 6.45211C9.78103 5.43111 9.68703 3.93512 10.083 2.84912C10.731 7.21112 10.724 11.9791 9.72404 16.2311Z"
          fill="black"></path>
    <path fill-rule="evenodd" clip-rule="evenodd"
          d="M106.418 47.4973C106.535 47.3933 106.641 47.2733 106.728 47.1323C106.895 46.8603 106.653 46.5723 106.37 46.5853C106.362 46.4183 106.352 46.2523 106.344 46.0853C106.361 46.0423 106.398 46.0093 106.408 45.9613C106.428 45.8723 106.389 45.8033 106.33 45.7503C106.224 43.4253 106.146 41.0973 106.126 38.7653C106.07 32.1103 106.436 25.3773 106.717 18.7273C106.972 12.6773 106.082 6.5473 106.771 0.544303C106.817 0.135303 106.128 0.0453111 106.052 0.446311C106.031 0.557311 106.019 0.669288 106 0.779288C105.983 0.509288 105.69 0.229299 105.359 0.384299C103.2 1.3933 102.64 3.6793 102.064 5.8413C100.676 11.0453 99.5345 16.6003 98.4255 21.8773C97.9645 24.0723 97.5435 26.1763 97.3135 28.2843C97.1175 28.3803 96.9755 28.6193 97.1245 28.8293C97.1655 28.8883 97.2025 28.9473 97.2435 29.0073C97.0595 31.1313 97.0855 33.2723 97.5055 35.5243C98.2335 39.4373 101.914 41.6063 103.799 44.9423C103.631 45.0083 103.496 45.1743 103.556 45.3763C103.713 45.9013 103.968 46.4113 104.428 46.6823C104.407 46.8173 104.382 46.9533 104.36 47.0883C104.177 47.0613 103.994 47.0213 103.811 46.9623C103.292 46.7963 103.114 47.5633 103.591 47.7573C103.784 47.8363 103.997 47.8933 104.218 47.9383C102.404 58.5333 98.1845 69.6763 100.653 80.3363C101.937 85.8773 106.545 83.1173 106.95 78.8383C107.941 68.3493 106.952 57.9413 106.418 47.4973ZM103.556 42.5973C102.571 41.4253 101.534 40.3203 100.487 39.2023C98.7165 37.3123 98.0485 34.9613 97.9035 32.5173C98.3135 32.9923 98.6615 33.6143 99.2775 33.8193C99.4245 33.8693 99.5635 33.7153 99.5235 33.5733C99.3425 32.9333 98.7945 32.3783 98.3385 31.9153C98.1915 31.7673 98.0135 31.7893 97.8865 31.8853C97.8715 31.2613 97.8775 30.6323 97.9145 30.0053C97.9595 30.0763 98.0095 30.1433 98.0545 30.2143C98.3345 30.6633 98.5595 31.2323 99.0135 31.5253C99.1275 31.6003 99.3085 31.5313 99.3355 31.3963C99.5235 30.4723 98.6525 29.4583 98.0175 28.7043C98.1095 27.7813 98.2325 26.8703 98.3585 25.9963C98.4245 25.5363 98.5175 25.0833 98.5975 24.6273C98.8605 25.5163 98.9185 26.4803 99.0335 27.3853C99.0425 27.4613 99.1605 27.5243 99.2025 27.4313C99.7545 26.1703 99.4325 24.9893 98.7275 23.8833C98.9455 22.7383 99.1875 21.6033 99.4695 20.4763C99.5705 20.9433 99.7155 21.3903 99.9915 21.7313C100.111 21.8803 100.352 21.7863 100.399 21.6243C100.651 20.7583 100.159 19.6833 99.8945 18.8393C100.098 18.0963 100.312 17.3563 100.537 16.6183C100.575 17.2553 100.685 17.8763 101.091 18.3433C101.177 18.4433 101.322 18.3773 101.361 18.2733C101.72 17.2853 101.362 16.0133 101.09 15.0273C101.084 15.0073 101.064 14.9993 101.054 14.9813C101.162 14.6423 101.264 14.3033 101.375 13.9643C101.559 13.4063 101.695 12.7223 101.814 11.9603C101.865 12.1213 101.899 12.2863 101.953 12.4463C102.176 13.1153 102.288 13.8543 102.73 14.4183C102.83 14.5443 103.016 14.4533 103.06 14.3303C103.498 13.1093 102.538 11.5013 102.044 10.3063C102.143 9.5333 102.243 8.72631 102.369 7.92031C102.522 8.58531 102.788 9.21031 103.35 9.53231C103.582 9.66631 103.816 9.4483 103.772 9.2073C103.687 8.7493 103.429 8.32529 103.261 7.89129C103.058 7.37029 102.91 6.82531 102.765 6.28631C102.753 6.24231 102.716 6.22231 102.69 6.19131C103.191 3.90631 104.034 1.88829 105.789 1.12029C105.893 1.07429 105.95 1.00431 105.98 0.924308C105.456 4.12731 105.671 7.2373 105.878 10.4873C106.181 15.2723 105.677 20.1333 105.537 24.9183C105.329 31.9433 105.412 38.8493 105.667 45.7823C105.539 45.8253 105.41 45.8653 105.277 45.8953C105.28 45.7593 105.29 45.6243 105.29 45.4883C105.29 45.2493 105.117 45.1553 104.944 45.1733C104.7 44.2803 104.301 43.4823 103.556 42.5973ZM106.389 70.5513C106.388 72.8133 106.277 75.0653 106.134 77.3223C106.735 80.7433 105.219 81.6613 101.588 80.0783C101.142 78.2243 100.917 76.3463 100.909 74.4453C100.474 65.3953 104.458 56.8853 105.163 47.9953C105.364 47.9773 105.56 47.9433 105.746 47.8813C105.87 50.9033 106.014 53.9313 106.205 56.9833C106.487 61.4863 106.389 66.0393 106.389 70.5513Z"
          fill="black"></path>
    <path fill-rule="evenodd" clip-rule="evenodd"
          d="M108.179 73.3696C107.843 77.6226 106.896 81.6776 105.262 85.6156C105.214 85.7326 105.404 85.8066 105.463 85.7006C107.606 81.8746 108.983 77.7966 108.799 73.3696C108.783 72.9676 108.21 72.9736 108.179 73.3696Z"
          fill="black"></path>
    <path fill-rule="evenodd" clip-rule="evenodd"
          d="M1.03244 71.912C1.19644 74.012 1.25744 76.127 2.16844 78.067C2.29044 78.326 2.64345 78.131 2.60045 77.883C2.25645 75.896 1.87645 73.914 1.63245 71.911C1.58645 71.538 1.00144 71.521 1.03244 71.912Z"
          fill="black"></path>
    <path fill-rule="evenodd" clip-rule="evenodd"
          d="M0.00404198 75.6536C-0.046958 77.1056 0.383046 78.6746 1.38605 79.7596C1.54605 79.9316 1.78504 79.7466 1.74904 79.5496C1.50204 78.1976 0.702039 77.0476 0.579039 75.6536C0.548039 75.2876 0.018042 75.2766 0.00404198 75.6536Z"
          fill="black"></path>
    <path fill-rule="evenodd" clip-rule="evenodd"
          d="M11.7005 1.02879C12.2765 2.87579 12.5185 4.72078 12.8445 6.61778C12.8675 6.75578 13.1065 6.76178 13.1265 6.61778C13.3965 4.68178 12.8045 2.71078 12.1895 0.894784C12.0855 0.586784 11.6025 0.715787 11.7005 1.02879Z"
          fill="black"></path>
    <path fill-rule="evenodd" clip-rule="evenodd"
          d="M99.9587 6.07421C100.381 5.31921 100.525 4.38221 100.818 3.56521C101.209 2.48021 101.716 1.43921 102.482 0.56921C102.763 0.25121 102.319 -0.203784 102.013 0.100216C100.629 1.47222 99.3767 3.95521 99.5097 5.95321C99.5237 6.18221 99.8347 6.29522 99.9587 6.07421Z"
          fill="black"></path>
</svg>