<svg width="120" height="95" viewBox="0 0 120 95" fill="none"
     xmlns="http://www.w3.org/2000/svg">
    <path fill-rule="evenodd" clip-rule="evenodd"
          d="M67.0055 74.1409C66.496 72.182 63.9516 70.6902 62.0957 71.8989C60.7464 72.7772 59.6042 74.0138 58.6825 75.4469C58.3368 73.4022 58.4523 71.1842 58.9262 69.2735C59.2902 67.8115 60.6501 66.0202 62.2662 64.7374C62.7814 65.5984 63.5153 66.3582 64.434 66.9447C66.2042 68.0764 68.6687 67.8943 68.8797 65.6205C68.9317 65.8189 68.9789 66.0289 69.0174 66.2533C69.0511 66.4545 69.3785 66.4054 69.3698 66.2042C69.1435 61.0295 65.7082 61.8866 62.6832 64.1865C61.3146 61.7133 62.8517 58.6641 64.5669 56.5877C67.7538 52.7315 67.7711 58.5582 70.4254 59.3258C73.9744 60.3505 75.5596 54.3467 73.8867 50.998C75.5259 50.6397 76.959 48.5672 77.7959 46.5852C78.316 46.7075 78.8822 46.7161 79.435 46.5861C79.6816 46.5283 79.5747 46.17 79.333 46.2134C77.6206 46.5216 76.2896 45.2705 76.6585 43.5379C77.0254 41.8208 78.9131 41.4066 80.3616 41.8612C81.08 42.0866 82.0248 42.8166 82.7539 43.6863C81.8129 44.8757 81.42 46.4898 82.019 47.9335C82.0807 48.0779 82.2068 48.1771 82.3725 48.1338C84.9536 47.4548 84.8187 45.5065 83.6707 43.8192C84.0733 43.3684 84.5384 42.9254 85.0421 42.4477C85.1664 42.3293 85.0402 42.0972 84.8717 42.155C84.2418 42.3688 83.6813 42.7415 83.2017 43.2057C82.2405 42.0856 80.8836 41.1851 79.7038 41.032C77.7266 40.7739 75.9738 42.101 75.8813 44.1302C75.8264 45.3177 76.4611 46.0786 77.3346 46.4388C76.9696 46.9049 76.618 47.3806 76.2867 47.8699C75.9025 48.3649 75.5162 48.859 75.131 49.355C73.8328 49.2269 72.9159 49.2144 72.3593 49.3145C72.052 49.1392 71.713 49.0035 71.3355 48.9303C71.0379 48.8715 70.6536 49.2086 70.8877 49.512C71.6215 50.4654 72.3564 50.92 73.0701 51.025C73.1288 51.0635 73.1788 51.0982 73.2424 51.1367C74.165 52.5794 73.9214 54.6895 73.5005 56.2324C72.8379 58.6603 70.2463 59.4163 68.9943 57.1252C68.6447 56.4866 68.3817 55.8057 68.0119 55.1758C66.3169 52.3049 63.0116 57.4382 62.2921 58.6449C61.1085 60.6346 61.1865 62.8083 62.1814 64.5823C60.5027 65.9663 59.0167 67.7277 58.3811 69.0414C57.7329 70.3781 57.5798 73.5525 58.1249 76.3676C55.0835 81.967 55.3425 89.9856 60.8639 93.2938C61.2472 93.523 61.5795 92.9413 61.2106 92.7005C56.5782 89.6899 56.4433 84.759 57.7021 79.9252C57.9159 79.1981 58.1817 78.4912 58.4716 77.792C59.3153 80.5791 60.9862 82.5361 63.7387 81.0328C66.4787 79.5381 67.8107 77.2315 67.0055 74.1409ZM82.5294 47.4943C82.2887 46.1585 82.6104 45.2002 83.2402 44.346C84.0781 45.6365 84.2485 47.0195 82.5294 47.4943ZM68.7044 65.0658C68.5156 65.0061 68.2777 65.0841 68.296 65.3306C68.5252 68.4876 64.6007 66.2947 63.5856 65.3422C63.2514 65.0282 62.9865 64.6979 62.7766 64.3579C65.0514 62.7582 67.6594 62.2757 68.7044 65.0658ZM59.2074 77.4732C59.114 77.2151 59.035 76.9474 58.9608 76.6777C58.9772 76.644 58.9897 76.6084 59.007 76.5737C60.0395 73.8202 62.3933 72.8417 66.0645 73.6372C69.3043 78.1618 61.1855 82.9252 59.2074 77.4732Z"
          fill="black"></path>
    <path fill-rule="evenodd" clip-rule="evenodd"
          d="M51.88 65.9921C52.664 61.4068 48.1558 56.1965 43.9914 54.3156H43.9885C43.7179 50.9073 40.3837 47.7368 36.9802 47.5615C36.7673 42.0267 31.3702 39.0787 26.4854 38.1493C25.9865 38.0539 25.7737 38.7753 26.2726 38.9188C29.5576 39.8472 33.3811 41.1435 35.2081 44.2649C35.7792 45.2405 35.9959 46.4482 36.0835 47.5904C35.1676 47.6935 34.2662 48.0103 33.4408 48.646C33.2019 48.8289 33.1682 49.0851 33.3531 49.3239C35.3689 51.9137 36.8549 50.8851 36.9772 48.2501C37.3914 48.1971 37.7246 48.1779 37.8421 48.1981C40.1862 48.6141 41.8264 51.1606 42.6344 53.1859C42.7481 53.471 42.8318 53.7686 42.8983 54.0672C40.7333 53.6511 38.0434 54.2983 38.5288 57.1047C38.8697 59.079 42.5786 58.7458 43.3664 57.3002C43.7824 56.5394 43.9664 55.7487 43.9943 54.959C47.3882 57.0132 51.621 61.168 51.0556 65.4441C48.7558 64.0572 45.9446 63.4187 45.4197 66.2078C45.021 68.3324 46.9038 72.0633 49.4415 69.9754C50.6868 68.9506 51.4139 67.7911 51.7481 66.5747C51.8887 66.7086 52.0274 66.8232 52.1699 66.9802C53.525 68.1272 54.0788 70.0206 54.5266 71.655C55.9115 76.7045 54.749 82.5937 54.0518 87.675C53.9988 88.0448 54.5574 88.2124 54.622 87.8319C55.6919 81.4303 57.0547 74.2755 54.0441 68.1994C53.732 67.5619 52.9028 66.7317 51.88 65.9921ZM34.5204 49.4164C34.0553 48.9628 35.0992 48.5988 36.1442 48.3878C36.3243 49.4925 35.7879 49.8392 34.5204 49.4164ZM42.9705 56.1773C42.7144 57.1654 42.0373 57.6527 40.9413 57.6392C40.3943 57.1384 39.8463 56.6376 39.2992 56.1358C40.3625 54.7394 41.5914 54.201 42.9802 54.4996C43.062 55.0553 43.0688 55.6216 42.9705 56.1773ZM49.5301 68.8004C48.4419 68.55 47.3516 68.3025 46.2624 68.054C47.7109 65.5336 49.2816 64.8518 50.9689 65.9468C50.7561 66.9022 50.3093 67.8604 49.5301 68.8004Z"
          fill="black"></path>
    <path fill-rule="evenodd" clip-rule="evenodd"
          d="M58.8377 40.7529C58.7154 40.3378 58.1067 40.3281 57.9892 40.7529C57.1244 43.8752 53.7536 46.2877 51.9719 42.0511C50.6197 38.8344 54.2929 36.3313 56.8566 35.4982C57.4451 35.3076 58.5151 35.2835 58.9234 34.6931C60.7928 31.9859 58.9533 26.6244 57.631 24.0452C57.37 23.5348 56.613 23.9836 56.8643 24.4931C58.0788 26.9547 58.5026 29.5243 58.5979 32.2469C58.6885 34.7991 56.9385 34.3657 55.5623 35.0032C53.1642 36.1166 51.4326 37.6199 50.9183 40.2867C50.4666 42.6261 53.0833 46.6132 55.8261 45.4113C56.7632 45.001 58.7308 43.4909 58.4149 42.4267C59.1305 44.844 60.0926 52.5189 55.4823 52.3821C54.8149 52.3619 54.0772 52.7394 53.4348 52.9166C48.8293 54.184 55.568 63.2418 57.0098 64.4081C57.343 64.6778 57.8207 64.2252 57.4884 63.9285C57.0733 63.5587 50.1536 53.7554 54.0637 53.7554C55.0374 53.7554 56.3414 53.3847 57.3199 53.1285C61.5084 52.0306 59.5504 43.1586 58.8377 40.7529Z"
          fill="black"></path>
    <path fill-rule="evenodd" clip-rule="evenodd"
          d="M101.896 56.0357C102.303 55.8999 102.137 55.3182 101.72 55.3981C83.2502 59.0261 69.1738 74.7735 65.6788 92.9113C65.6017 93.309 66.194 93.4824 66.2932 93.0798C71.0162 73.8422 83.4265 62.1484 101.896 56.0357Z"
          fill="black"></path>
    <path fill-rule="evenodd" clip-rule="evenodd"
          d="M72.6156 25.7623C72.3921 25.8384 72.37 26.1041 72.554 26.2361C72.789 26.4056 73.076 26.4826 73.3745 26.5269C67.4564 34.7998 63.5674 45.4978 61.1664 55.092C61.1135 55.3049 61.4111 55.3752 61.4881 55.1807C63.6946 49.5562 65.6169 43.8509 68.0554 38.317C69.8718 34.2018 72.2005 30.412 74.4137 26.5318C74.613 26.5058 74.8086 26.4711 74.9867 26.4335C75.946 26.2284 76.728 25.5744 77.327 24.829C77.6333 24.4486 77.1151 23.9025 76.7809 24.283C76.2763 24.8531 75.7138 25.2393 75.0127 25.4733C75.2727 25.011 75.5309 24.5488 75.7842 24.0836C75.8978 23.8756 75.6079 23.6252 75.4452 23.8207C74.954 24.4101 74.4792 25.0207 74.014 25.6419C73.5392 25.6486 73.0615 25.6101 72.6156 25.7623Z"
          fill="black"></path>
    <path fill-rule="evenodd" clip-rule="evenodd"
          d="M49.4101 53.0951C48.942 43.8841 42.2679 32.4542 34.9879 26.8914C34.6739 26.6536 34.3619 27.1438 34.5901 27.4077C40.9918 34.8359 47.7546 42.9037 48.7745 53.0951C48.813 53.4957 49.4322 53.5121 49.4101 53.0951Z"
          fill="black"></path>
    <path fill-rule="evenodd" clip-rule="evenodd"
          d="M41.1776 26.1305C41.5032 25.9206 41.8056 25.6865 42.1099 25.4515C42.4046 25.282 42.7051 25.1578 43.0133 25.0827C43.0239 25.2088 43.0441 25.336 43.0576 25.4631C42.7099 26.0487 42.3921 26.6458 42.106 27.2554C41.9934 27.0849 41.8846 26.9087 41.7709 26.7392C41.5619 26.4271 41.1141 26.6949 41.272 27.031C41.4329 27.3729 41.6053 27.709 41.7738 28.049C41.77 28.1559 41.8162 28.2512 41.9048 28.3158C44.2653 33.0281 47.1286 37.4294 48.319 42.6647C48.3777 42.9209 48.7436 42.8073 48.7042 42.5588C47.8749 37.4111 45.3902 32.3992 42.5741 27.9816C42.8842 27.5674 43.1876 27.1446 43.4755 26.7074C43.7173 26.7209 44.0014 26.5129 43.9542 26.1941C43.9446 26.1276 43.9388 26.0583 43.9302 25.9909C44.1122 25.701 44.2942 25.413 44.4695 25.1193C44.8403 25.2387 45.2082 25.4477 45.5616 25.7578C45.8804 26.0371 46.5122 25.7771 46.3379 25.3051C46.0952 24.6503 45.7831 24.0425 45.448 23.4454C45.6348 23.118 45.8226 22.7886 46.0104 22.465C46.2531 22.0441 45.7735 21.5896 45.3575 21.813C45.1321 21.9363 44.9289 22.0884 44.716 22.2291C44.3587 21.6734 43.9899 21.1215 43.6191 20.5639C43.4063 20.2432 42.8476 20.3433 42.8611 20.77C42.891 21.7128 42.8939 22.6461 42.9256 23.5783C42.4653 23.9655 41.9982 24.3459 41.5196 24.7119C41.2056 24.9016 40.8964 25.1193 40.6027 25.386C40.2049 25.7482 40.724 26.4223 41.1776 26.1305Z"
          fill="black"></path>
    <path fill-rule="evenodd" clip-rule="evenodd"
          d="M31.1461 19.6066C31.1991 18.1485 31.5351 16.7617 32.1785 15.4519C32.4886 14.8172 32.9162 14.2634 33.4084 13.7616C33.7888 13.3774 34.2058 13.2213 34.4359 12.7311C34.514 12.5645 34.4167 12.4133 34.2414 12.3921C32.9769 12.2371 31.904 14.0544 31.3946 14.9934C30.6395 16.3899 30.3544 18.0339 30.3477 19.6066C30.3467 20.1219 31.1268 20.118 31.1461 19.6066Z"
          fill="black"></path>
    <path fill-rule="evenodd" clip-rule="evenodd"
          d="M32.4606 17.6714C32.2516 18.0961 32.8661 18.4669 33.1011 18.046C33.5547 17.2313 34.1094 16.508 34.8616 15.9484C35.2584 15.6508 35.7062 15.4765 36.2012 15.4505C36.5547 15.4322 36.8533 15.5256 37.2009 15.4264C37.3281 15.3898 37.3772 15.2502 37.3184 15.1385C36.8485 14.2264 35.5762 14.5702 34.8414 14.9179C33.7454 15.4341 32.973 16.6245 32.4606 17.6714Z"
          fill="black"></path>
    <path fill-rule="evenodd" clip-rule="evenodd"
          d="M33.5622 20.8138C34.4068 20.1753 35.3093 19.7467 36.3465 19.5117C37.5378 19.2421 38.4008 19.7978 39.3735 20.3728C39.5314 20.4671 39.75 20.3121 39.6903 20.13C38.7455 17.184 34.6524 18.9012 33.0913 20.2023C32.7532 20.4845 33.2097 21.0787 33.5622 20.8138Z"
          fill="black"></path>
    <path fill-rule="evenodd" clip-rule="evenodd"
          d="M37.1496 22.8145C37.8478 23.2055 38.364 23.8219 39.0421 24.2331C39.2491 24.3574 39.5689 24.1493 39.4735 23.9008C38.8427 22.2703 36.7826 21.5818 35.208 21.3034C34.7602 21.2244 34.5598 21.8842 35.0173 21.9968C35.7695 22.1818 36.4725 22.435 37.1496 22.8145Z"
          fill="black"></path>
    <path fill-rule="evenodd" clip-rule="evenodd"
          d="M33.0381 22.8548C32.703 22.5321 32.2089 23.0272 32.5296 23.3623C33.0025 23.8544 33.4725 24.3475 33.8905 24.8878C34.2237 25.3183 34.4905 26.1244 35.0452 26.2689C35.1897 26.3065 35.312 26.2217 35.3611 26.0898C35.5662 25.5398 34.9797 24.9504 34.659 24.545C34.1755 23.9315 33.5987 23.3931 33.0381 22.8548Z"
          fill="black"></path>
    <path fill-rule="evenodd" clip-rule="evenodd"
          d="M30.6486 32.0366C32.7164 30.4341 32.5998 27.7355 31.6676 25.53C31.4952 25.1236 30.7951 25.4193 30.953 25.8315C31.7697 27.9792 31.4721 29.8129 30.221 31.7073C30.0342 31.9894 30.4242 32.2119 30.6486 32.0366Z"
          fill="black"></path>
    <path fill-rule="evenodd" clip-rule="evenodd"
          d="M27 27.5799C27.6521 27.3112 28.1442 26.8306 28.4687 26.2094C28.7056 25.7549 28.0324 25.3571 27.782 25.8069C27.4825 26.3423 27.0703 26.6736 26.4896 26.8682C26.0398 27.0184 25.4908 26.9847 25.096 27.265C24.9496 27.368 24.9448 27.5635 25.096 27.6646C25.6286 28.0248 26.4559 27.8062 27 27.5799Z"
          fill="black"></path>
    <path fill-rule="evenodd" clip-rule="evenodd"
          d="M25.979 23.4162C26.4028 23.2014 26.032 22.6081 25.614 22.7911C25.1161 23.0097 24.6288 23.1195 24.0847 23.0974C23.5656 23.0752 23.1418 22.715 22.6438 22.6283C22.5013 22.6043 22.3713 22.7131 22.4089 22.8643C22.7912 24.3908 25.0044 23.9112 25.979 23.4162Z"
          fill="black"></path>
    <path fill-rule="evenodd" clip-rule="evenodd"
          d="M24.5368 20.8264C24.9827 20.9757 25.1513 20.2977 24.7275 20.133C22.9728 19.4521 22.652 17.9853 22.2832 16.3269C22.2235 16.063 21.7901 16.0524 21.739 16.3269C21.3596 18.3706 22.628 20.1908 24.5368 20.8264Z"
          fill="black"></path>
    <path fill-rule="evenodd" clip-rule="evenodd"
          d="M26.9766 18.8471C26.3746 17.8349 26.0192 16.7717 25.8045 15.6208C25.6128 14.5941 25.8555 13.58 25.7072 12.5649C25.6783 12.3607 25.4135 12.3848 25.321 12.5129C23.991 14.3283 25.2758 17.572 26.3602 19.2063C26.6135 19.5887 27.2145 19.2458 26.9766 18.8471Z"
          fill="black"></path>
    <path fill-rule="evenodd" clip-rule="evenodd"
          d="M28.1816 16.3068C28.041 15.6673 27.989 15.0317 27.9938 14.3787C27.9996 13.7681 28.1142 13.1729 28.0189 12.5642C27.9919 12.3861 27.753 12.3996 27.6702 12.519C26.9296 13.5832 27.207 15.3148 27.4892 16.4975C27.5951 16.9492 28.2808 16.7566 28.1816 16.3068Z"
          fill="black"></path>
    <path fill-rule="evenodd" clip-rule="evenodd"
          d="M77.8105 23.8243C78.2757 24.0111 78.6128 23.2098 78.1534 23.0134C78.0773 22.9816 78.009 22.9392 77.9367 22.9017C78.0176 22.9643 78.1168 22.9999 78.2198 22.998C79.5855 22.9604 81.008 22.3941 81.084 20.8493C81.1466 19.5549 79.9543 18.537 78.7861 18.3077C78.4115 18.2336 78.0282 18.2345 77.6584 18.2981C77.6931 18.2307 77.7123 18.1517 77.695 18.0573C77.484 16.9373 77.5322 15.8182 77.7797 14.7068C78.0465 13.5125 78.818 12.6563 79.3111 11.5835C79.4151 11.3581 79.2022 11.1106 78.9672 11.2377C76.6587 12.482 76.4324 16.0243 76.9977 18.2509C77.0198 18.3414 77.068 18.3992 77.1238 18.4407C76.311 18.7402 75.6581 19.3835 75.5194 20.3158C75.2834 21.8885 76.4237 23.2696 77.8105 23.8243ZM78.4761 20.467C78.5887 20.0066 79.1328 19.8477 79.5007 19.6262C79.8417 19.9045 80.0959 20.2869 80.1431 20.7183C80.2413 21.6313 79.3428 21.9424 78.58 22.0233C78.45 21.5129 78.3499 20.9841 78.4761 20.467ZM78.2613 19.2024C77.3117 19.8246 77.4744 21.6025 77.7614 22.6493C77.7894 22.7485 77.851 22.8352 77.9319 22.8988C76.1637 21.9424 75.8083 19.213 78.2613 19.2024Z"
          fill="black"></path>
    <path fill-rule="evenodd" clip-rule="evenodd"
          d="M79.1506 17.0817C79.4742 15.9539 79.9172 14.8917 80.5943 13.9286C81.3098 12.9077 82.4155 12.6428 83.3198 11.8955C83.4412 11.7953 83.3766 11.5671 83.2245 11.5382C81.984 11.2897 80.8206 12.3019 80.0771 13.1889C79.1988 14.2377 78.7547 15.5774 78.4485 16.89C78.3435 17.3437 79.0225 17.5353 79.1506 17.0817Z"
          fill="black"></path>
    <path fill-rule="evenodd" clip-rule="evenodd"
          d="M81.9852 17.2587C82.6594 16.6462 83.3904 16.2561 84.313 16.2292C85.2299 16.2032 85.8135 16.8898 86.611 17.1816C86.7622 17.2385 86.8951 17.0719 86.8604 16.9332C86.6215 15.9691 85.5101 15.3874 84.5634 15.347C83.3393 15.295 82.2944 15.8786 81.4411 16.7155C81.0857 17.0632 81.6202 17.59 81.9852 17.2587Z"
          fill="black"></path>
    <path fill-rule="evenodd" clip-rule="evenodd"
          d="M83.7516 18.7938C84.6222 18.8458 85.4167 19.1049 86.0996 19.6596C86.7853 20.2182 87.1358 21.058 87.5846 21.7948C87.7252 22.0269 88.1278 21.9421 88.1143 21.6513C88.0055 19.3909 85.8463 18.0657 83.7525 18.1023C83.3037 18.109 83.3095 18.7668 83.7516 18.7938Z"
          fill="black"></path>
    <path fill-rule="evenodd" clip-rule="evenodd"
          d="M85.303 25.1943C85.3367 25.3648 85.5948 25.3936 85.6738 25.2434C86.5242 23.6004 85.4802 21.6858 84.2985 20.5156C83.9643 20.1824 83.4693 20.6851 83.7842 21.0289C84.312 21.6068 84.704 22.2212 84.9534 22.9657C85.1932 23.6822 85.1566 24.4575 85.303 25.1943Z"
          fill="black"></path>
    <path fill-rule="evenodd" clip-rule="evenodd"
          d="M79.8203 29.0784C79.7202 29.1997 79.7683 29.4424 79.9629 29.4231C82.6923 29.1621 83.7728 25.8183 82.9484 23.5878C82.7828 23.1381 82.074 23.3162 82.2194 23.7881C82.542 24.8302 82.516 25.8048 82.02 26.7853C81.5163 27.7811 80.5051 28.2578 79.8203 29.0784Z"
          fill="black"></path>
    <path fill-rule="evenodd" clip-rule="evenodd"
          d="M79.346 24.7648C79.0031 25.6884 78.5013 26.4694 77.8377 27.1956C77.2945 27.7898 76.3979 28.1317 75.9915 28.8223C75.9029 28.9744 76.0195 29.1391 76.1803 29.1516C77.1058 29.2219 78.014 28.2338 78.5784 27.603C79.2497 26.8537 79.6927 25.8955 80.0037 24.9468C80.1434 24.5231 79.4972 24.3584 79.346 24.7648Z"
          fill="black"></path>
    <path fill-rule="evenodd" clip-rule="evenodd"
          d="M73.6638 23.7759C74.18 23.6777 73.9528 22.9226 73.45 22.9997C72.8731 23.0873 72.2981 22.9814 71.8542 22.5894C71.4535 22.2369 71.3803 21.6764 71.1617 21.2161C71.0529 20.9878 70.7582 21.0928 70.683 21.2787C70.3912 22.0019 70.7996 22.7993 71.3437 23.2857C71.9803 23.8559 72.8616 23.9291 73.6638 23.7759Z"
          fill="black"></path>
    <path fill-rule="evenodd" clip-rule="evenodd"
          d="M71.324 16.8758C70.8887 17.6184 71.3125 18.6537 71.7218 19.3211C72.1774 20.0675 72.9546 20.5423 73.7482 20.8582C74.1546 21.02 74.4445 20.3294 74.0467 20.1513C73.3986 19.8614 72.8688 19.4771 72.4634 18.8877C72.0406 18.2723 72.1061 17.4826 71.7179 16.8758C71.6264 16.7342 71.4136 16.7236 71.324 16.8758Z"
          fill="black"></path>
    <path fill-rule="evenodd" clip-rule="evenodd"
          d="M26.6896 22.445C26.8947 23.67 28.0611 24.3817 29.1888 24.6293C29.653 24.7323 29.8485 24.0408 29.3853 23.9156C28.6514 23.7134 27.9147 23.305 27.6152 22.5635C27.3369 21.8739 27.8193 21.3471 28.4376 21.1092C29.1445 20.8328 30.3696 20.6864 30.8627 21.4183C31.323 22.106 30.3677 22.5606 29.9564 22.9024C29.7465 23.0787 29.9352 23.3801 30.1606 23.3965C31.2643 23.4745 32.0694 22.3092 31.769 21.296C31.3693 19.94 29.6617 19.9275 28.5551 20.1615C27.4803 20.3888 26.4912 21.2662 26.6896 22.445Z"
          fill="black"></path>
    <path fill-rule="evenodd" clip-rule="evenodd"
          d="M10.8923 60.0661C11.0657 60.3502 11.2458 60.6257 11.4114 60.9127C11.6724 61.3643 12.4804 61.0552 12.2753 60.5486C12.2599 60.5101 12.2416 60.4754 12.2242 60.4369C12.2262 60.4369 12.2262 60.4359 12.2281 60.4359C12.2243 60.4282 12.2185 60.4215 12.2146 60.4157C11.5318 58.7698 10.6477 57.2953 9.55361 55.8854C9.46019 55.7679 9.37158 55.6552 9.28779 55.5483C10.0063 54.9868 10.7026 54.3984 11.3479 53.7473C11.7206 53.5585 12.1078 53.3871 12.5238 53.2494C13.0785 53.0683 12.8483 52.2054 12.2811 52.372C12.2734 52.374 12.2657 52.3788 12.2589 52.3807C12.2079 52.1948 12.0634 52.0427 11.8207 52.0398C10.8933 52.0301 9.9687 51.9858 9.04414 51.929C9.00658 51.2086 8.92666 50.5152 8.73019 49.7861C8.70996 49.71 8.66469 49.6542 8.61268 49.6089C8.56068 49.3759 8.52506 49.1438 8.46632 48.9068C8.36615 48.5004 7.67271 48.458 7.60434 48.9068C7.47528 49.7505 7.28652 50.7752 7.1854 51.7942C6.10963 51.7017 5.03481 51.5977 3.95809 51.4841C3.51218 51.4359 3.42648 51.9887 3.63643 52.2594C4.49935 53.3698 5.35745 54.5139 6.26275 55.6157C6.12311 56.2061 5.86018 56.7531 5.47784 57.2423C4.93851 57.6699 4.40884 58.1091 3.909 58.5868C3.50836 58.9691 4.02264 59.6183 4.49359 59.3438C5.16293 58.9528 5.70705 58.478 6.14237 57.9444C6.5642 57.6102 6.99182 57.2809 7.42329 56.9602C8.46823 58.1178 9.60177 59.1868 10.8923 60.0661ZM9.06342 52.8777C9.62875 52.9152 10.196 52.9422 10.7623 52.9634C10.7305 52.9961 10.7016 53.0327 10.6689 53.0635C10.1016 53.3746 9.56425 53.7358 9.05766 54.1528C9.04996 53.7781 9.03744 53.4044 9.0201 53.0327C9.04418 52.9874 9.05572 52.9364 9.06342 52.8777ZM4.96455 52.503C5.35364 52.5463 5.74364 52.5897 6.13273 52.6292C6.09709 52.7159 6.08365 52.817 6.12121 52.9354C6.26567 53.3939 6.33593 53.8398 6.36386 54.2761C5.89098 53.6886 5.42587 53.0972 4.96455 52.503Z"
          fill="black"></path>
    <path fill-rule="evenodd" clip-rule="evenodd"
          d="M113.033 50.591C112.197 50.7432 111.364 50.9156 110.533 51.0957C110.647 50.3503 110.811 49.6049 111.019 48.8652C111.145 48.4116 110.526 48.0032 110.194 48.3865C109.283 49.4479 108.468 50.5708 107.696 51.7275C107.206 51.8344 106.715 51.9345 106.223 52.0357C104.944 51.0437 103.472 50.3089 101.64 50.0238C101.041 49.9304 100.783 50.8443 101.389 50.9407C102.749 51.1573 103.897 51.6389 104.914 52.2928C104.171 52.4305 103.429 52.5596 102.679 52.6569C102.124 52.7281 102.095 53.5949 102.679 53.5496C103.794 53.462 104.894 53.2915 105.989 53.0874C106.174 53.2424 106.354 53.4004 106.532 53.5651C105.719 54.9384 104.968 56.3503 104.293 57.8045C104.106 58.209 104.522 58.7908 104.967 58.4797C106.188 57.6274 107.427 56.7789 108.629 55.8851C109.327 56.7644 110.003 57.6842 110.703 58.5914V58.5924C110.729 58.6251 110.755 58.6588 110.779 58.6925C111.131 59.1461 111.8 58.5683 111.547 58.1002C110.916 56.9262 110.576 55.706 110.44 54.4636C111.547 53.5342 112.59 52.5374 113.511 51.4126C113.829 51.0235 113.533 50.5024 113.033 50.591ZM106.376 56.2935C106.254 56.3801 106.133 56.4697 106.01 56.5564C106.342 55.9025 106.698 55.2639 107.061 54.6302C107.078 54.6947 107.114 54.7496 107.163 54.792C106.888 55.2851 106.627 55.785 106.376 56.2935ZM108.768 54.5474C108.705 54.4752 108.639 54.4078 108.578 54.3365C108.864 54.0765 109.072 53.7346 109.203 53.3619C109.206 53.357 109.21 53.3512 109.213 53.3464L109.21 53.3455C109.224 53.305 109.25 53.2713 109.262 53.2318C109.427 52.6713 108.687 52.4421 108.379 52.8591C108.343 52.9082 108.316 52.9622 108.28 53.0113C108.177 52.9891 108.071 53.0074 107.983 53.0671C108.084 52.9179 108.183 52.7676 108.281 52.6145C108.661 52.5297 109.038 52.445 109.417 52.3583C109.383 52.913 109.394 53.4649 109.429 54.0148C109.209 54.1939 108.991 54.3731 108.768 54.5474ZM110.374 53.2135C110.374 52.8543 110.387 52.4951 110.416 52.133C110.887 52.028 111.358 51.9249 111.83 51.8267C111.366 52.3121 110.877 52.7705 110.374 53.2135Z"
          fill="black"></path>
    <path fill-rule="evenodd" clip-rule="evenodd"
          d="M61.6323 35.9386C62.2333 35.276 62.8689 34.6201 63.5027 33.9527C63.5075 33.971 63.5094 33.9873 63.5132 34.0047C63.651 34.5777 64.4802 34.3283 64.382 33.7658C64.3434 33.5472 64.3193 33.3286 64.2933 33.11C64.5033 32.8827 64.7113 32.6525 64.9145 32.4204C65.4885 32.4811 66.0567 32.6072 66.6153 32.8442C67.0324 33.0223 67.5428 32.641 67.275 32.1845C66.9688 31.6605 66.6606 31.1395 66.3553 30.6185C66.6876 30.1533 67.0035 29.6766 67.2741 29.1767C67.5284 28.7116 66.8879 28.1626 66.5171 28.5921C66.2542 28.8974 65.9807 29.1883 65.6995 29.4705C65.1775 28.5151 64.7007 27.5376 64.3348 26.4965C64.1845 26.066 63.5643 26.1392 63.5431 26.6024C63.467 28.1742 63.2397 29.743 63.232 31.3061C63.0577 31.3909 62.8757 31.4573 62.6936 31.5267C61.9993 31.621 61.3059 31.7684 60.6125 31.9562C60.0857 32.0978 60.1829 32.9453 60.7424 32.9164C61.5225 32.8779 62.243 32.7141 62.92 32.4685C63.0394 32.4512 63.1579 32.4406 63.2763 32.4271C63.2812 32.4917 63.2889 32.5562 63.2937 32.6207C62.4577 33.5048 61.6295 34.3957 60.9515 35.4127C60.6808 35.8239 61.303 36.3007 61.6323 35.9386ZM64.2943 28.6634C64.5139 29.1555 64.7508 29.6409 65.0041 30.1177C64.746 30.3373 64.4802 30.5443 64.2038 30.7331C64.2202 30.0435 64.2587 29.3539 64.2943 28.6634Z"
          fill="black"></path>
    <path fill-rule="evenodd" clip-rule="evenodd"
          d="M36.9137 38.6559C37.3085 38.8976 37.8315 38.4084 37.5628 38.0058C37.2113 37.479 36.8616 36.9502 36.5082 36.4244C36.6893 36.0045 36.8636 35.5846 37.0341 35.1695C37.2151 34.7255 36.5304 34.346 36.2309 34.7033C36.0671 34.8989 35.8822 35.0693 35.7059 35.2494C35.2417 34.5811 34.7641 33.9194 34.2507 33.2838C33.9772 32.9419 33.4187 33.3098 33.5371 33.7008C33.8154 34.6119 34.0841 35.5278 34.3287 36.4494C33.9705 36.7047 33.5949 36.9339 33.2039 37.1419C32.6925 37.2873 32.1791 37.5117 31.6648 37.8286C31.2112 38.1088 31.505 38.9053 32.0395 38.7146C32.079 38.6992 32.1146 38.679 32.1541 38.6655C32.156 38.6645 32.158 38.6636 32.158 38.6636C32.6299 38.4883 33.0864 38.288 33.5275 38.0607C33.906 37.9596 34.2796 37.9114 34.6562 37.922C34.3914 38.4421 34.1294 38.964 33.8905 39.4976C33.6738 39.9791 34.2758 40.323 34.5907 39.9079C34.7361 39.7133 34.8613 39.5024 34.9952 39.2982C35.156 39.7846 35.9284 39.5419 35.8398 39.0006C35.7936 38.7146 35.7329 38.4324 35.6761 38.1502C35.6857 38.131 35.6963 38.1146 35.705 38.0953C36.1027 38.2205 36.5034 38.4064 36.9137 38.6559Z"
          fill="black"></path>
    <path fill-rule="evenodd" clip-rule="evenodd"
          d="M13.2729 55.0728C12.8684 55.0256 12.8019 55.6699 13.1785 55.771C30.5516 60.3948 49.3886 72.6991 48.3629 92.9971C48.333 93.5692 49.2056 93.5605 49.2451 92.9971C50.604 73.9252 31.2123 57.1338 13.2729 55.0728Z"
          fill="black"></path>
    <path fill-rule="evenodd" clip-rule="evenodd"
          d="M23.6127 52.759C28.2509 55.4393 32.4529 58.0752 36.2754 61.8948C39.6799 65.2964 42.5402 69.1835 45.6712 72.8268C45.938 73.1369 46.3521 72.6939 46.1114 72.3857C40.1219 64.6685 33.4998 55.4826 23.8333 52.2341C23.5203 52.1282 23.3344 52.5982 23.6127 52.759Z"
          fill="black"></path>
    <path fill-rule="evenodd" clip-rule="evenodd"
          d="M21.0796 55.0809C21.4581 54.6042 21.7461 54.0379 21.9676 53.4263C22.2729 53.8607 22.5647 54.3047 22.8353 54.7564C23.0983 55.1888 23.7695 54.7987 23.5153 54.3567C23.1329 53.6922 22.7024 53.0652 22.2508 52.4575C22.35 52.0347 22.4212 51.6003 22.4703 51.1641C22.7467 51.087 23.0174 50.9946 23.3044 50.9445C23.8225 50.8549 23.7069 50.1605 23.3044 50.0113C23.0588 49.9207 22.8084 49.8456 22.5589 49.7666C22.5647 49.2023 22.5416 48.6523 22.4934 48.1477C22.4395 47.6007 21.7441 47.5015 21.5496 48.0196C21.384 48.4568 21.2135 48.9027 21.0324 49.3448C20.2408 49.1618 19.4395 49.0154 18.6372 48.8787C18.1393 48.793 17.8504 49.4103 18.2905 49.7021C18.9108 50.1104 19.4713 50.6016 20.0039 51.1217C19.0408 51.7015 18.1942 52.4758 17.5133 53.434C17.1926 53.8848 17.7878 54.27 18.1817 54.1034C19.3229 53.6219 20.131 52.8321 20.7666 51.897C20.9101 52.0597 21.0392 52.2312 21.1759 52.3997C20.9467 53.2145 20.6135 53.9994 20.5182 54.845C20.4854 55.1243 20.9063 55.2996 21.0796 55.0809Z"
          fill="black"></path>
    <path fill-rule="evenodd" clip-rule="evenodd"
          d="M96.3986 75.0646C96.8888 75.5876 97.5292 75.9969 98.2053 76.2251C98.7283 76.4033 98.9305 75.6001 98.4297 75.4084C98.0917 75.2794 97.7864 75.1108 97.5129 74.9047C97.7642 74.87 97.7633 74.4357 97.5129 74.4001C97.327 74.375 97.1363 74.3577 96.9485 74.3375C96.8753 74.245 96.8011 74.1554 96.7366 74.0514C96.3591 73.4341 96.3552 72.6521 96.2609 71.9567C96.2291 71.7179 95.8371 71.6736 95.7408 71.8893C95.37 72.7282 95.4721 73.54 95.8313 74.2441C84.4429 73.6036 70.5282 82.0884 68.4845 93.4691C68.3873 94.0114 69.2107 94.2483 69.3185 93.6984C71.8649 80.7892 85.0506 76.7442 96.3986 75.0646Z"
          fill="black"></path>
    <path fill-rule="evenodd" clip-rule="evenodd"
          d="M20.7487 73.0898C19.9272 72.4937 18.9304 72.0998 18.0318 71.9514C17.5541 71.8725 17.3394 72.5813 17.8267 72.6882C18.6213 72.8625 19.307 73.189 19.9686 73.6571C20.6803 74.1579 21.1435 74.884 21.7792 75.459C22.0103 75.668 22.4091 75.4686 22.3166 75.147C22.1712 74.6423 21.889 74.1954 21.5355 73.7977C33.5442 74.0336 42.5577 81.3531 45.1937 93.4013C45.3112 93.9387 46.0787 93.6979 46.0017 93.1778C44.3009 81.7845 32.8219 70.6648 20.7487 73.0898Z"
          fill="black"></path>
    <path fill-rule="evenodd" clip-rule="evenodd"
          d="M17.2958 65.1025C17.3507 64.934 17.2082 64.8059 17.057 64.7876C16.2297 64.6903 15.5151 65.7305 15.2175 66.3921C14.8486 67.2098 14.9006 68.1064 15.2261 68.926C15.4072 69.3806 16.1353 69.2043 15.9764 68.7189C15.7452 68.0139 15.7443 67.334 16.0765 66.6618C16.3818 66.0502 17.0887 65.7372 17.2958 65.1025Z"
          fill="black"></path>
    <path fill-rule="evenodd" clip-rule="evenodd"
          d="M17.7121 69.4015C17.7564 68.6686 18.0058 68.0272 18.5249 67.5023C18.9804 67.0419 19.593 67.0467 20.1333 66.7636C20.3307 66.6595 20.35 66.3119 20.1333 66.2137C19.3599 65.8592 18.4701 66.3533 17.9009 66.8782C17.2142 67.5119 16.9753 68.501 16.9888 69.4005C16.9956 69.8714 17.6832 69.8637 17.7121 69.4015Z"
          fill="black"></path>
    <path fill-rule="evenodd" clip-rule="evenodd"
          d="M18.4211 70.9189C18.9777 70.5433 19.5565 70.2736 20.2307 70.2158C20.8894 70.158 21.3835 70.55 22.0085 70.5731C22.2464 70.5818 22.3379 70.3275 22.2561 70.1417C21.9642 69.4781 21.1187 69.3404 20.4628 69.3076C19.5845 69.2633 18.7023 69.7275 18.0233 70.237C17.6236 70.5336 17.9906 71.2088 18.4211 70.9189Z"
          fill="black"></path>
    <path fill-rule="evenodd" clip-rule="evenodd"
          d="M17.8435 74.8886C17.4043 74.6025 17.0191 75.2892 17.438 75.5859C19.5597 77.0863 19.4335 79.443 18.3751 81.5628C18.2904 81.7323 18.4878 81.8748 18.6293 81.7583C21.0082 79.7993 20.2262 76.444 17.8435 74.8886Z"
          fill="black"></path>
    <path fill-rule="evenodd" clip-rule="evenodd"
          d="M15.8443 78.1394C15.7711 79.0148 15.3618 79.7275 14.601 80.1743C13.871 80.6029 13.0678 80.2707 12.331 80.5172C12.149 80.5789 12.0864 80.7946 12.2203 80.939C12.9358 81.7201 14.4267 81.3416 15.2145 80.8774C16.1708 80.3111 16.5493 79.1988 16.5233 78.1394C16.5118 77.6973 15.8809 77.7098 15.8443 78.1394Z"
          fill="black"></path>
    <path fill-rule="evenodd" clip-rule="evenodd"
          d="M11.5276 77.7837C11.0104 77.7673 10.5 77.7452 9.98761 77.6643C9.53496 77.592 9.14012 77.3494 8.69517 77.2704C8.465 77.228 8.18088 77.4765 8.35424 77.7134C9.03418 78.6534 10.5067 78.5349 11.5276 78.5031C11.9918 78.4887 11.9918 77.7991 11.5276 77.7837Z"
          fill="black"></path>
    <path fill-rule="evenodd" clip-rule="evenodd"
          d="M9.1987 74.2598C8.53899 74.2338 7.92933 74.0961 7.46416 73.601C7.0144 73.1234 7.1762 72.3317 6.72163 71.8877C6.64266 71.8107 6.51075 71.8059 6.43177 71.8877C5.878 72.4646 6.33158 73.6116 6.76689 74.1356C7.36689 74.8598 8.29822 75.0534 9.1987 75.0466C9.70625 75.0428 9.70336 74.281 9.1987 74.2598Z"
          fill="black"></path>
    <path fill-rule="evenodd" clip-rule="evenodd"
          d="M10.3503 72.01C9.97954 71.4669 9.67525 70.9073 9.46818 70.2755C9.24282 69.5869 9.40463 68.8338 9.14941 68.175C9.08681 68.0152 8.85758 67.9006 8.72371 68.0633C7.70669 69.2893 8.94616 71.4823 9.72048 72.5243C9.83316 72.6755 10.0007 72.717 10.1491 72.6881C9.7879 74.621 11.872 76.0242 13.4572 76.4874C13.9494 76.63 14.1439 75.8894 13.6682 75.7266C12.368 75.2865 10.7317 74.1606 11.0996 72.5812C11.3442 71.5304 12.3824 70.837 13.4052 70.8967C14.1497 70.942 14.9086 71.4235 15.3054 72.0428C15.787 72.7959 15.2322 73.3757 14.6033 73.7494C14.3712 73.2582 14.4001 72.6621 14.0486 72.2055C13.9089 72.0235 13.6566 72.089 13.6287 72.3202C13.5276 73.1802 13.5372 74.0007 14.1121 74.6836C14.2528 74.8511 14.4926 74.8357 14.6688 74.7548C15.7937 74.2406 16.7568 73.2438 16.2676 71.9311C15.8342 70.7686 14.5715 70.1128 13.4043 69.977C12.0473 69.821 10.8617 70.8062 10.3503 72.01Z"
          fill="black"></path>
    <path fill-rule="evenodd" clip-rule="evenodd"
          d="M12.0116 66.4876C12.0116 66.3307 11.8488 66.2574 11.7159 66.3181C10.4562 66.9172 10.6969 68.879 11.1766 69.895C11.4 70.3689 12.077 69.9557 11.8728 69.4876C11.6147 68.8953 11.583 68.3165 11.7284 67.6924C11.8228 67.2793 12.0125 66.923 12.0116 66.4876Z"
          fill="black"></path>
    <path fill-rule="evenodd" clip-rule="evenodd"
          d="M101.7 69.0064C101.553 69.4552 102.237 69.7374 102.456 69.3262C102.818 68.6549 103.232 68.0684 103.877 67.6408C104.469 67.2478 105.266 67.1554 105.951 67.0282C106.16 66.9897 106.203 66.6622 106.012 66.5708C104.23 65.7213 102.254 67.3249 101.7 69.0064Z"
          fill="black"></path>
    <path fill-rule="evenodd" clip-rule="evenodd"
          d="M109.962 69.678C110.158 69.6828 110.304 69.4478 110.192 69.2773C109.231 67.8019 106.569 68.1698 105.187 68.6995C104.669 68.8969 104.884 69.7329 105.418 69.5412C106.146 69.2802 106.857 69.1608 107.632 69.1829C108.454 69.206 109.162 69.6616 109.962 69.678Z"
          fill="black"></path>
    <path fill-rule="evenodd" clip-rule="evenodd"
          d="M109.289 71.3903C108.84 71.1196 108.452 71.8034 108.882 72.0875C109.63 72.5787 110.184 73.2018 110.621 73.9819C110.986 74.6349 111.092 75.3736 111.557 75.9678C111.661 76.0997 111.868 76.0092 111.91 75.8725C112.452 74.1543 110.621 72.1954 109.289 71.3903Z"
          fill="black"></path>
    <path fill-rule="evenodd" clip-rule="evenodd"
          d="M108.741 74.566C109.144 75.1631 109.4 75.7872 109.556 76.4903C109.682 77.0537 109.551 77.6594 109.758 78.2036C109.813 78.3509 109.991 78.4174 110.112 78.298C111.173 77.254 110.144 75.1073 109.437 74.1586C109.133 73.7522 108.444 74.1268 108.741 74.566Z"
          fill="black"></path>
    <path fill-rule="evenodd" clip-rule="evenodd"
          d="M107.28 77.6552C107.501 78.4815 107.429 79.1932 107.039 79.955C106.683 80.6504 106.051 81.1271 105.633 81.7791C105.503 81.9814 105.721 82.3088 105.965 82.2096C107.782 81.4748 108.562 79.2471 107.987 77.4597C107.842 77.0128 107.157 77.1958 107.28 77.6552Z"
          fill="black"></path>
    <path fill-rule="evenodd" clip-rule="evenodd"
          d="M104.464 79.9198C103.904 80.5564 103.287 81.0775 102.532 81.4685C101.819 81.8402 101.029 81.7381 100.288 81.9731C100.074 82.0405 100.041 82.3141 100.226 82.4344C101.897 83.5179 104.025 81.6659 104.983 80.437C105.264 80.0758 104.782 79.5577 104.464 79.9198Z"
          fill="black"></path>
    <path fill-rule="evenodd" clip-rule="evenodd"
          d="M100.821 80.3516C100.064 80.576 99.3205 80.707 98.5289 80.6742C97.6852 80.6386 97.1218 80.0511 96.3475 79.9192C96.1453 79.8835 95.9526 80.0386 96.0104 80.2563C96.2136 81.0421 97.1257 81.3561 97.8451 81.5227C98.9026 81.7683 100.042 81.5121 101.048 81.1808C101.572 81.0084 101.356 80.1927 100.821 80.3516Z"
          fill="black"></path>
    <path fill-rule="evenodd" clip-rule="evenodd"
          d="M96.6353 75.8463C96.5563 75.8193 96.4311 75.8463 96.3772 75.9146C95.9486 76.4655 96.5544 77.2071 96.9762 77.5837C97.5569 78.0999 98.3274 78.3782 99.069 78.5641C99.6179 78.7047 99.8491 77.8658 99.303 77.7175C98.7011 77.5538 98.1107 77.3371 97.6243 76.9345C97.2468 76.6244 97.0975 76.0081 96.6353 75.8463Z"
          fill="black"></path>
    <path fill-rule="evenodd" clip-rule="evenodd"
          d="M98.7646 70.0632C98.1733 70.382 98.2378 71.167 98.2426 71.7429C98.2465 72.209 98.9601 72.209 98.9659 71.7429C98.9726 71.2652 99.013 70.8164 99.1469 70.357C99.2114 70.1297 98.9601 69.9573 98.7646 70.0632Z"
          fill="black"></path>
    <path fill-rule="evenodd" clip-rule="evenodd"
          d="M103.505 74.3147C103.743 74.0614 103.506 73.6723 103.176 73.7474C102.294 73.9449 101.304 74.7481 101.295 75.7208C101.284 76.5153 102.056 76.9978 102.711 77.2376C104.299 77.8193 106.688 77.2733 106.954 75.3481C107.343 72.5455 104.428 70.6694 101.979 71.8059C100.835 72.3365 99.9126 73.3054 99.587 74.54C99.2076 75.9808 100.018 77.2964 101.11 78.1651C101.267 78.2913 101.432 78.402 101.598 78.5128C102.053 78.8171 102.452 78.0987 102.022 77.7895C101.094 77.126 100.248 76.1484 100.435 74.9282C100.576 74.0123 101.261 73.2746 102.022 72.8084C103.885 71.6643 106.137 72.8624 106.052 75.1064C106.003 76.4624 104.252 76.6386 103.251 76.3979C102.893 76.3121 102.367 76.1301 102.263 75.7295C102.132 75.2287 103.243 74.593 103.505 74.3147Z"
          fill="black"></path>
    <path fill-rule="evenodd" clip-rule="evenodd"
          d="M50.5207 14.5668C50.4918 14.6583 50.4534 14.7421 50.4264 14.8346C50.305 15.2419 50.8463 15.5318 51.1188 15.2795C52.2755 16.6403 53.5564 17.9694 54.9086 19.1752C54.9259 19.3418 54.924 19.5161 54.9519 19.6789C55.0039 19.963 55.3766 19.8946 55.4614 19.6789C55.4623 19.675 55.4633 19.6702 55.4642 19.6673C55.6116 19.7915 55.7618 19.909 55.9111 20.0323C55.8976 20.3771 55.8813 20.7248 55.8851 21.0638C55.8871 21.2448 56.1673 21.3488 56.2502 21.163C56.3426 20.9501 56.411 20.7248 56.4928 20.5061C56.852 20.7864 57.2142 21.0532 57.5821 21.3036C57.5484 21.3508 57.5128 21.397 57.4791 21.4413C57.193 21.8275 57.7911 22.2253 58.1147 21.9325C58.1763 21.8757 58.2341 21.813 58.2957 21.7562C58.601 21.8496 58.8967 21.5289 58.8225 21.2429C61.9795 18.137 64.55 13.935 66.5176 10.0788C67.5962 7.96581 69.7102 3.23802 67.6935 1.04893C64.2457 -2.69169 58.4257 4.51508 57.7786 7.91573C57.6485 7.66244 57.5002 7.41013 57.3346 7.15876C57.3837 6.91222 57.2084 6.74753 57.01 6.71478C54.3095 3.08588 48.3076 0.149432 46.4546 5.41076C45.4636 8.22779 48.0476 11.4079 49.6241 13.4429C49.9131 13.8146 50.2125 14.1912 50.5207 14.5668ZM56.0065 18.6339C55.9487 18.5809 55.8899 18.5318 55.8331 18.4789C56.1336 17.2538 56.2626 15.9469 56.5583 14.7401C56.6296 14.4503 56.723 14.1662 56.801 13.8772C56.4399 15.4586 56.1557 17.0631 56.0065 18.6339ZM58.496 8.35201C58.9853 6.05409 60.271 4.28394 62.0277 2.76901C62.6373 2.2422 63.3365 1.81942 64.08 1.50449C63.3385 2.37994 62.7375 3.36614 61.9256 4.19054C61.8505 4.26758 61.8235 4.35233 61.8206 4.43516C60.7901 7.88685 59.6893 11.3357 58.6395 14.7883C59.0893 12.3161 59.2868 9.76389 59.5786 7.37544C59.6181 7.04799 59.0537 6.97191 59.0017 7.29743C58.9102 7.86373 58.8062 8.42231 58.708 8.98283C58.6165 8.80562 58.3478 8.74784 58.1917 8.88749C58.1782 8.87111 58.1744 8.84898 58.1599 8.83549C58.1378 8.76711 58.1175 8.69679 58.0925 8.62552C58.2688 8.63901 58.4546 8.55618 58.496 8.35201ZM57.7352 19.4313C58.0906 18.9238 58.4094 18.3883 58.7012 17.8365C58.7956 17.8422 58.89 17.8162 58.9497 17.7132C60.8277 14.4262 61.4652 10.4072 62.8646 6.89583C63.0534 6.42681 62.2983 6.23035 62.1105 6.68974C62.0431 6.85539 61.9776 7.02873 61.9102 7.19727C62.1037 6.33723 62.3041 5.49165 62.5237 4.67784C63.428 3.74846 64.4498 2.60914 64.7031 1.30801C64.7051 1.29646 64.6993 1.2878 64.6993 1.27624C64.8148 1.23868 64.9294 1.19245 65.0479 1.15971C67.6607 0.437393 67.5365 3.60304 67.2833 5.21428C66.7208 8.8037 64.7628 12.0098 62.5189 15.0079C62.9339 14.015 63.3028 12.9999 63.6428 11.9722C63.7285 11.9742 63.8161 11.953 63.871 11.8731C64.9583 10.2666 65.7115 8.41076 66.5638 6.67143C66.7507 6.28812 66.1824 5.94911 65.985 6.33435C65.4938 7.29743 64.9632 8.25668 64.4729 9.23421C65.1355 6.8891 65.7028 4.51798 66.3153 2.22681C66.4319 1.79534 65.775 1.61621 65.6498 2.04382C63.9615 7.74239 62.359 13.2869 59.7105 18.5838C59.175 19.2503 58.6482 19.909 58.1465 20.562C57.8325 20.2875 57.5243 20.0063 57.2151 19.7251C57.2585 19.6278 57.2893 19.5248 57.3307 19.4265C57.4049 19.5565 57.6283 19.5864 57.7352 19.4313ZM57.0139 8.31927C57.1506 8.57545 57.27 8.83259 57.375 9.09167C56.4601 11.5678 55.0973 14.719 54.8864 17.5899C54.6495 17.3665 54.4049 17.1459 54.1718 16.9186C54.7795 15.9864 55.0588 14.5639 55.3757 13.6644C55.993 11.9106 56.5188 10.1164 57.0139 8.31927ZM55.4585 6.1918C54.6495 8.44446 53.7557 10.6615 52.9737 12.9238C52.8225 13.3658 52.4228 14.2384 52.7021 14.717C52.9564 15.1485 53.3724 14.7642 53.4533 14.4435C53.4649 14.3973 53.4514 14.3626 53.4456 14.3251C53.4533 14.3135 53.463 14.3068 53.4697 14.2943C53.5805 14.091 53.6335 13.8532 53.6999 13.6336C53.9513 12.7947 54.2296 11.9655 54.5099 11.1353C55.001 9.67723 55.4806 8.21332 55.9487 6.74462C56.1259 6.95746 56.2896 7.17514 56.4476 7.39954C55.9024 9.24192 55.2909 11.0602 54.6649 12.8776C54.3481 13.8002 53.6623 14.9973 53.3339 16.0971C52.7378 15.4952 52.1541 14.8827 51.5936 14.2509C52.0492 13.1713 52.4248 12.0647 52.7638 10.9437C52.7677 10.936 52.7705 10.9292 52.7744 10.9225C52.7753 10.9186 52.7734 10.9167 52.7744 10.9128C53.0941 9.85538 53.4023 8.79504 53.7683 7.75202C53.907 7.35812 53.2944 7.20017 53.149 7.58058C52.5211 9.24287 51.9885 10.9369 51.3586 12.5963C51.2026 12.893 51.0591 13.1954 50.9243 13.5026L50.9205 13.4997C52.1619 10.7328 52.106 7.11444 52.3352 4.17126C52.341 4.08843 52.3063 4.03835 52.2716 3.98827C53.4398 4.45151 54.5445 5.2422 55.4585 6.1918ZM49.0838 4.0894C48.6225 5.86533 48.1497 8.08042 48.3875 10.0172C48.3827 10.0095 48.3769 10.0028 48.3721 9.99409C46.7541 7.32153 46.8697 2.81043 51.1111 3.63387C51.3981 3.69069 51.6832 3.78025 51.9664 3.87752C51.8248 3.90449 51.6909 3.99214 51.6716 4.1732C51.4935 5.86726 51.2922 7.5536 51.0475 9.239C50.8703 10.4486 50.5516 11.6409 50.4004 12.8506C49.9207 12.2467 49.4565 11.6313 49.0231 10.987C49.2398 10.1684 49.2216 9.32375 49.2485 8.47528C49.2938 7.05569 49.3978 5.64767 49.6809 4.25505C49.7599 3.86693 49.1849 3.70032 49.0838 4.0894Z"
          fill="black"></path>
    <path fill-rule="evenodd" clip-rule="evenodd"
          d="M50.4794 11.2967C50.9176 10.3846 50.9301 9.30884 51.0428 8.31109C51.1767 7.13324 51.2181 5.94285 51.2084 4.76018C51.2046 4.28731 50.489 4.28924 50.4746 4.76018C50.4467 5.79743 50.3561 6.82599 50.2357 7.85553C50.1057 8.95922 49.7937 10.1352 50.0142 11.236C50.0547 11.4469 50.385 11.4922 50.4794 11.2967Z"
          fill="black"></path>
    <path fill-rule="evenodd" clip-rule="evenodd"
          d="M15.6826 39.7723C17.7147 39.5093 20.9334 39.1646 22.6698 37.824C22.926 37.7835 23.1514 37.5697 23.0531 37.2509C22.013 33.9081 20.5829 30.6519 19.0439 27.5122C17.9719 25.3231 16.6448 22.4849 13.9972 21.9177C10.3414 21.1347 13.2885 29.6926 14.2188 31.5389C13.9539 31.6044 13.6737 31.6833 13.3819 31.7729C13.2297 31.7344 13.0631 31.7951 12.9649 31.9135C12.2175 32.1639 11.4287 32.474 10.689 32.8554C10.6621 32.8246 10.6352 32.7947 10.6092 32.7629C10.3251 32.4422 9.90222 32.8554 10.0814 33.1886C7.86434 34.4984 6.44285 36.4111 8.86886 38.7283C10.6467 40.4281 13.4637 40.0612 15.6826 39.7723ZM13.4493 26.6734C13.2152 25.7267 13.0804 24.7626 13.116 23.786C14.1408 25.6024 15.2242 27.6162 16.4647 29.4942C15.6836 28.5388 14.8968 27.5892 14.108 26.6425C13.8538 26.3382 13.458 26.6705 13.534 26.9941C13.5051 26.8872 13.4753 26.7803 13.4493 26.6734ZM13.5398 27.0181C13.5542 27.0615 13.5735 27.1039 13.6063 27.1453C14.9594 28.8278 16.3087 30.5161 17.6233 32.2304C18.0769 32.8236 18.5064 33.4477 18.9418 34.0698C18.6962 33.7838 18.4525 33.4978 18.2233 33.2069C17.3372 32.0878 16.4811 30.9456 15.5488 29.8621C15.2666 29.5347 14.8092 30.0047 15.0788 30.3302C15.3215 30.6259 15.5603 30.9408 15.7973 31.2644C15.5016 31.0949 15.0605 31.4021 15.2946 31.7344C16.6063 33.6008 18.047 36.2252 20.1283 37.3203C20.3469 37.4358 20.6714 37.1825 20.4981 36.9495C20.3497 36.7482 20.1735 36.569 20.0098 36.3812C20.1524 36.4891 20.2891 36.6085 20.4374 36.7068C20.6185 36.8243 20.8226 36.623 20.7687 36.4381C20.9286 36.6191 21.0779 36.8089 21.2474 36.9774C21.4698 37.1989 21.7597 36.9187 21.6509 36.6654C21.1 35.3652 20.2159 34.1902 19.3174 33.0586C19.5668 33.3052 19.8143 33.5556 20.0762 33.78C20.3026 33.9745 20.6426 33.7328 20.4942 33.4573C19.5841 31.7681 18.229 30.2637 17.1167 28.6968C15.8589 26.9247 14.6887 25.0891 13.5581 23.2342C13.4936 23.1302 13.4021 23.0878 13.3077 23.082C13.9183 22.2191 15.8252 23.9161 16.2451 24.4708C18.9312 28.0246 20.6695 32.8554 22.0101 37.1084C20.9045 37.4012 19.8143 37.7142 18.7241 38.0118C18.7337 37.9771 18.7395 37.9405 18.728 37.9029C18.4082 36.8551 17.605 35.9835 16.9944 35.0878C16.2971 34.066 15.6788 32.9989 15.154 31.8798C15.1511 31.8317 15.1424 31.7835 15.1241 31.7373C15.1848 31.6217 15.1992 31.4801 15.1164 31.3289C14.3787 29.9796 13.9193 28.5023 13.5398 27.0181ZM14.5838 32.3536C15.0846 33.439 15.6721 34.4744 16.3164 35.4837C16.9 36.3986 17.4846 37.4474 18.362 38.11C18.0567 38.1928 17.7485 38.2824 17.4413 38.3575C17.0801 37.4503 16.43 36.6259 15.9359 35.7976C15.2984 34.7257 14.657 33.6548 14.0021 32.5934C14.1976 32.5174 14.3892 32.4345 14.5838 32.3536ZM13.2557 32.8737C13.9125 33.9861 14.5347 35.1177 15.1828 36.2358C15.4361 36.6759 15.6865 37.145 15.9629 37.5947C15.5228 37.0246 14.9902 36.4959 14.5905 35.9247C13.9722 35.0387 13.4531 34.1007 12.9976 33.1241C12.9726 33.0702 12.9369 33.0345 12.8945 33.0066C13.0149 32.9613 13.1353 32.9161 13.2557 32.8737ZM12.3436 33.2146C12.3282 33.2686 12.3244 33.3292 12.3523 33.3947C12.778 34.4233 13.2663 35.4095 13.8518 36.3572C13.8865 36.414 13.9308 36.4785 13.9664 36.5383C13.7353 36.3167 13.5129 36.0962 13.3183 35.8747C12.6615 35.1283 12.0114 34.3761 11.3594 33.6259C11.683 33.4766 12.0123 33.3418 12.3436 33.2146ZM10.5899 34.0092C10.6178 33.9918 10.6506 33.9812 10.6804 33.9649C11.3507 34.8095 12.0114 35.6628 12.6952 36.4968C13.3289 37.2721 14.0955 38.3277 15.0229 38.8506C14.8245 38.8776 14.63 38.9248 14.4306 38.944C14.4634 38.8583 14.473 38.7649 14.4258 38.6724C14.0396 37.928 13.144 37.3761 12.5286 36.8127C11.6945 36.0442 10.8759 35.2631 10.0611 34.4744C10.0236 34.4368 9.98216 34.4146 9.94075 34.3973C10.1815 34.2432 10.4127 34.1122 10.5899 34.0092ZM9.38985 34.7873C9.3937 34.8721 9.42163 34.9597 9.49771 35.0387C10.2846 35.8525 11.0743 36.6644 11.8852 37.456C12.4188 37.9771 13.0409 38.6715 13.7488 39.0008C13.274 39.0259 12.7963 39.0317 12.3109 39.0018C12.3619 38.9392 12.3899 38.8564 12.3706 38.762C12.2213 38.0455 11.4326 37.4599 10.9587 36.9312C10.3674 36.2686 9.75489 35.6262 9.12503 35.0002C9.20882 34.926 9.29932 34.8557 9.38985 34.7873ZM8.60399 35.6426C9.12213 36.2089 9.62484 36.7886 10.1324 37.3665C10.5629 37.8519 11.0579 38.6118 11.6734 38.9498C11.5722 38.9373 11.474 38.9392 11.3719 38.9248C10.1344 38.7485 8.93532 37.7912 8.5 36.6095C8.37191 36.2628 8.44219 35.9411 8.60399 35.6426Z"
          fill="black"></path>
    <path fill-rule="evenodd" clip-rule="evenodd"
          d="M15.6128 25.3032C16.783 27.3285 17.9936 29.6361 19.5326 31.4004C19.6664 31.5545 19.9419 31.3927 19.8745 31.202C19.104 28.9812 17.3493 27.003 16.1695 24.9776C15.9615 24.6165 15.4029 24.942 15.6128 25.3032Z"
          fill="black"></path>
    <path fill-rule="evenodd" clip-rule="evenodd"
          d="M86.043 43.4871C86.044 43.804 86.5053 43.9552 86.6575 43.6547C86.7124 43.5469 86.7509 43.4303 86.8019 43.3215C86.8828 43.5382 87.0899 43.7193 87.3788 43.6711C92.097 42.9074 97.0675 42.4268 101.486 40.4794C103.317 39.6724 106.9 38.3443 106.804 35.7902C106.662 31.9571 99.5484 32.9568 96.7911 34.2666C97.7301 32.2065 99.0418 29.5137 97.8466 27.524C96.6061 25.4611 94.9718 24.7783 92.7615 25.9118C90.4973 27.0733 89.306 29.8335 88.5076 32.1931C88.4873 32.2191 88.4613 32.2422 88.443 32.2672C88.3939 32.3317 88.3949 32.4069 88.4142 32.4791C88.3612 32.638 88.3063 32.8017 88.2572 32.9548C87.2469 36.1099 86.0343 40.1616 86.043 43.4871ZM103.856 34.4168C104.2 34.5478 104.502 34.7096 104.754 34.8955C103.879 35.5889 102.971 36.239 102.089 36.9227C101.162 37.6393 99.9789 38.4386 99.4646 39.5221C99.323 39.8168 99.6283 40.2223 99.948 40.0075C100.861 39.3979 101.614 38.5215 102.475 37.8329C103.424 37.073 104.404 36.3497 105.349 35.5812C105.609 36.1167 105.499 36.7552 104.843 37.4448C104.89 37.1 104.555 36.7273 104.204 36.9844C102.944 37.9061 101.524 38.6467 100.484 39.8342C100.449 39.8746 100.437 39.918 100.432 39.9603C99.0553 40.492 97.6154 40.9022 96.1429 41.2277C96.8238 40.7674 97.4768 40.2589 98.1211 39.7908C99.5773 38.7391 100.973 37.6017 102.376 36.4826C102.62 36.2871 102.454 35.9298 102.212 35.8335C102.715 35.4512 103.219 35.0784 103.718 34.7346C103.837 34.6518 103.874 34.5285 103.856 34.4168ZM88.6183 35.8576C89.5775 35.2557 90.4491 34.4707 91.3044 33.759C92.7153 32.5869 94.0655 31.3494 95.359 30.0473C95.6777 29.7256 95.1885 29.2364 94.863 29.5503C93.6736 30.7003 92.4225 31.7741 91.1416 32.82C90.4029 33.421 89.6016 33.995 88.8552 34.6181C89.0103 33.8553 89.1866 33.1099 89.41 32.403C89.411 32.3982 89.4138 32.3934 89.4148 32.3876C89.5477 32.3096 89.6758 32.2181 89.8039 32.1305C89.6296 32.3664 89.4687 32.6081 89.3503 32.8691C89.2491 33.0906 89.4668 33.3777 89.7085 33.2274C90.7082 32.6024 91.498 31.6229 92.3695 30.8341C93.3866 29.9134 94.4151 29.0062 95.3772 28.0277C95.4736 27.9304 95.4966 27.8216 95.4812 27.7186C95.6084 27.6377 95.7326 27.549 95.8626 27.4701C96.2382 27.2437 95.9069 26.6755 95.5217 26.8855C94.1945 27.6039 92.9676 28.4534 91.7782 29.3799C91.2331 29.8065 90.6311 30.2332 90.0562 30.6887C90.9817 28.5959 92.4842 26.4877 94.7724 26.2133C98.6257 25.7529 97.1416 30.7475 96.635 32.1854C96.427 32.7757 96.1853 33.3536 95.9522 33.9333C95.9387 33.9333 95.93 33.9256 95.9175 33.9276C94.5239 34.1221 93.0543 34.6383 91.6385 35.3086C91.705 35.2537 91.7734 35.1979 91.8408 35.1439C93.4848 33.8284 95.0777 32.456 96.5705 30.967C96.9538 30.5866 96.3673 30.0001 95.9792 30.3757C94.6164 31.6942 93.1727 32.9144 91.6954 34.0999C90.6735 34.9195 89.4996 35.69 88.4922 36.5866C88.5345 36.3459 88.575 36.0993 88.6183 35.8576ZM93.2893 35.9982C93.4299 35.9269 93.4896 35.8162 93.5021 35.7016C94.26 35.3963 95.0007 35.0563 95.6864 34.6345C95.6517 34.7337 95.6064 34.829 95.5737 34.9292C95.4986 35.1555 95.6055 35.3067 95.7606 35.3809C93.3105 36.2958 90.9451 37.7684 88.7955 39.0714C88.3612 39.3334 88.7522 40.0075 89.1933 39.7513C92.0999 38.0602 95.2636 36.9372 98.1846 35.3211C98.5207 35.1372 98.2838 34.6585 97.9361 34.7308C97.8081 34.7568 97.6819 34.7982 97.5548 34.829C98.8472 34.2387 100.214 34.0104 101.693 34.0287C102.26 34.0354 102.811 34.1086 103.309 34.2396C102.929 34.4708 102.558 34.7144 102.183 34.9533C102.155 34.9215 102.118 34.8993 102.065 34.9186C101.308 35.1805 100.567 35.4849 99.8353 35.8046C99.8045 35.7854 99.7689 35.7738 99.7333 35.7806C95.9243 36.5501 92.2087 38.7632 88.5942 40.177C88.103 40.3696 88.313 41.1661 88.8148 40.9754C89.9108 40.5574 91.0838 40.1501 92.2723 39.7234C92.0411 39.8486 91.81 39.9709 91.5769 40.0961C90.7429 40.5228 89.9089 40.9485 89.0768 41.3838C88.5981 41.6351 89.018 42.3247 89.4957 42.1003C92.6642 40.6085 95.7885 38.9404 98.828 37.1655C98.8126 37.1751 98.7972 37.1847 98.7827 37.1953C97.0588 38.3693 95.1634 39.3603 93.5166 40.6316C93.2893 40.8069 93.4058 41.2278 93.7275 41.1305C94.3853 40.9311 95.0238 40.6508 95.6527 40.3388C95.0132 40.7549 94.393 41.1911 93.8334 41.6891C91.5528 42.0878 89.2645 42.3728 87.1159 42.7215C87.088 42.7263 87.0716 42.7407 87.0465 42.7475C87.5531 41.4781 87.8661 40.0769 88.1281 38.6486C89.8818 37.829 91.5711 36.8871 93.2893 35.9982Z"
          fill="black"></path>
    <path fill-rule="evenodd" clip-rule="evenodd"
          d="M88.5611 54.1258C87.6095 54.4109 87.8185 53.0866 87.4323 52.6186C87.3379 52.504 87.154 52.5242 87.0567 52.6186C86.5328 53.1165 86.7514 54.1653 87.2098 54.6584C87.6394 55.1197 88.2269 55.2102 88.8221 55.0773C89.9315 54.8289 90.9004 53.5219 90.0066 52.5357C88.7344 51.1296 86.3017 50.9823 84.9139 52.2449C84.2648 52.8343 84.1068 53.7069 84.2233 54.5332C84.2715 54.8809 84.4622 55.4366 84.7453 55.8651C78.8185 59.729 72.9427 67.0263 70.8528 73.6726C70.7228 74.0848 71.3815 74.3747 71.5597 73.9702C74.7755 66.6902 79.9145 61.9451 85.2615 56.3736C85.4782 56.4892 85.7171 56.5133 85.9752 56.3611C86.1168 56.2792 86.215 56.1175 86.2092 55.9537C86.1938 55.5319 85.7575 55.2767 85.5437 54.9367C85.4888 54.851 85.4166 54.8048 85.3434 54.7797C85.0487 54.0362 85.0709 53.2571 85.8837 52.7062C86.9277 52.0003 88.3376 52.4048 89.2275 53.1531C89.71 53.5585 88.9241 54.0179 88.5611 54.1258Z"
          fill="black"></path>
    <path fill-rule="evenodd" clip-rule="evenodd"
          d="M43.2126 81.8467C43.49 82.2868 44.1699 81.8939 43.9128 81.4364C41.5686 77.2826 37.595 73.4505 33.2004 71.534C32.9153 71.4097 32.7112 71.7584 32.9587 71.9452C36.8813 74.9105 40.5526 77.6091 43.2126 81.8467Z"
          fill="black"></path>
    <path fill-rule="evenodd" clip-rule="evenodd"
          d="M31.9993 85.0986C31.6506 85.0398 31.3723 85.5358 31.7402 85.7149C35.0956 87.3339 39.2677 87.1027 41.58 90.5091C41.7717 90.7933 42.2253 90.539 42.0443 90.2385C39.9736 86.7926 35.738 85.7361 31.9993 85.0986Z"
          fill="black"></path>
    <path fill-rule="evenodd" clip-rule="evenodd"
          d="M82.3793 85.7044C80.4358 85.4126 78.0174 86.7676 76.412 87.7481C74.586 88.8662 73.097 90.4957 72.577 92.5991C72.4479 93.1192 73.2203 93.3291 73.3744 92.8206C73.9966 90.776 75.5289 89.3911 77.3106 88.3172C78.9276 87.3426 80.8663 87.1827 82.4573 86.288C82.6769 86.1618 82.6615 85.7458 82.3793 85.7044Z"
          fill="black"></path>
    <path fill-rule="evenodd" clip-rule="evenodd"
          d="M25.339 82.9892C24.5888 85.1802 27.0099 87.2306 28.9958 87.2403C29.46 87.2432 29.4514 86.5565 28.9958 86.5266C27.5339 86.4264 25.9294 84.9616 26.1721 83.3956C26.381 82.0415 28.7695 81.4454 29.7518 82.2987C30.3769 82.8419 30.4173 83.9465 30.0966 84.6592C29.644 85.6627 28.9486 84.169 28.6096 83.7741C28.4575 83.5979 28.1107 83.7337 28.1358 83.9706C28.2639 85.264 29.6613 86.7915 30.738 85.3584C31.5364 84.2961 31.2687 82.4297 30.295 81.5822C28.8244 80.3013 25.9448 81.222 25.339 82.9892Z"
          fill="black"></path>
    <path fill-rule="evenodd" clip-rule="evenodd"
          d="M31.5596 52.5631C32.5997 53.5656 33.6302 54.5836 34.626 55.6305C34.887 55.903 35.2482 55.5091 35.0296 55.2279C34.1281 54.0818 33.1997 52.9849 32.1779 51.9448C31.289 51.0375 30.3076 49.9069 29.1441 49.3627C28.9111 49.2549 28.5943 49.4908 28.7618 49.7461C29.4697 50.8247 30.6331 51.6664 31.5596 52.5631Z"
          fill="black"></path>
    <path fill-rule="evenodd" clip-rule="evenodd"
          d="M67.4253 47.772C67.2972 48.1062 67.8519 48.3393 68.0041 48.0157C70.1421 43.4246 73.5736 40.0307 76.7392 36.188C77.0542 35.8057 76.5784 35.3232 76.1951 35.6439C72.4333 38.8047 69.1781 43.1848 67.4253 47.772Z"
          fill="black"></path>
    <path fill-rule="evenodd" clip-rule="evenodd"
          d="M80.0485 34.2486C79.1663 34.9824 78.8273 36.428 79.8587 37.185C80.7448 37.8361 82.0392 37.2158 82.67 36.5166C83.9422 35.1038 83.922 32.5092 82.0112 31.7147C80.5098 31.0897 78.5345 31.5664 77.3952 32.6961C75.7493 34.3285 77.0706 36.4579 78.5123 37.6617C78.911 37.994 79.486 37.4431 79.0912 37.081C78.1319 36.2017 76.9618 34.8274 77.8728 33.5272C78.5258 32.5949 79.9281 32.2742 80.9923 32.3676C82.2626 32.4794 82.8251 33.4675 82.619 34.6646C82.4533 35.6104 81.8745 36.5465 80.8199 36.5764C79.6016 36.6129 80.3634 35.1173 80.5425 34.5375C80.6369 34.2332 80.2613 34.0723 80.0485 34.2486Z"
          fill="black"></path>
    <path fill-rule="evenodd" clip-rule="evenodd"
          d="M52.2096 34.461C52.6931 30.6251 51.8292 26.478 49.6382 23.2478C49.461 22.9878 49.0035 23.1438 49.1095 23.4712C50.3201 27.2099 51.7021 30.4353 51.809 34.461C51.8158 34.7259 52.1779 34.7114 52.2096 34.461Z"
          fill="black"></path>
    <path fill-rule="evenodd" clip-rule="evenodd"
          d="M65.6095 24.8568C65.6124 25.3402 66.3318 25.3344 66.3559 24.8568C66.5321 21.3983 67.9161 18.5659 68.8455 15.3126C68.9283 15.0237 68.5469 14.9004 68.388 15.12C66.4435 17.806 65.5989 21.588 65.6095 24.8568Z"
          fill="black"></path>
    <path fill-rule="evenodd" clip-rule="evenodd"
          d="M25.2125 42.5781C24.0385 42.5781 24.0385 44.3984 25.2125 44.3984C26.3865 44.3984 26.3856 42.5781 25.2125 42.5781Z"
          fill="black"></path>
    <path fill-rule="evenodd" clip-rule="evenodd"
          d="M20.2598 41.7656C19.1686 41.7656 19.1686 43.4587 20.2598 43.4587C21.3519 43.4587 21.3519 41.7656 20.2598 41.7656Z"
          fill="black"></path>
    <path fill-rule="evenodd" clip-rule="evenodd"
          d="M19.6792 87.8047C18.6121 87.8047 18.6121 89.4612 19.6792 89.4612C20.7492 89.4602 20.7492 87.8047 19.6792 87.8047Z"
          fill="black"></path>
    <path fill-rule="evenodd" clip-rule="evenodd"
          d="M12.9818 88.5625C12.1363 88.5625 12.1363 89.8723 12.9818 89.8723C13.8274 89.8723 13.8274 88.5625 12.9818 88.5625Z"
          fill="black"></path>
    <path fill-rule="evenodd" clip-rule="evenodd"
          d="M19.6768 83.8754C19.9311 83.8754 19.9311 83.4844 19.6768 83.4844C19.4254 83.4834 19.4254 83.8754 19.6768 83.8754Z"
          fill="black"></path>
    <path fill-rule="evenodd" clip-rule="evenodd"
          d="M16.1846 44.6147C16.8838 44.6147 16.8838 43.5312 16.1846 43.5312C15.4854 43.5312 15.4854 44.6147 16.1846 44.6147Z"
          fill="black"></path>
    <path fill-rule="evenodd" clip-rule="evenodd"
          d="M61.9951 40.8434C63.0564 41.4502 63.9453 40.5593 63.3395 39.499C62.5334 38.0871 60.5832 40.0373 61.9951 40.8434Z"
          fill="black"></path>
    <path fill-rule="evenodd" clip-rule="evenodd"
          d="M64.5308 37.4531C63.8856 37.4531 63.8856 38.4537 64.5308 38.4537C65.1771 38.4537 65.1771 37.4531 64.5308 37.4531Z"
          fill="black"></path>
    <path fill-rule="evenodd" clip-rule="evenodd"
          d="M84.6235 29.3738C85.5799 29.3738 85.5799 27.8906 84.6235 27.8906C83.6672 27.8906 83.6672 29.3738 84.6235 29.3738Z"
          fill="black"></path>
    <path fill-rule="evenodd" clip-rule="evenodd"
          d="M93.6564 50.9576C92.3958 51.0221 92.3958 52.85 93.6564 52.9146C93.9868 52.9309 94.2381 52.904 94.5396 52.746C95.1511 52.4253 95.1511 51.4459 94.5396 51.1252C94.2391 50.9691 93.9868 50.9402 93.6564 50.9576Z"
          fill="black"></path>
    <path fill-rule="evenodd" clip-rule="evenodd"
          d="M91.324 49.7757C92.2987 49.7757 92.2987 48.2656 91.324 48.2656C90.3503 48.2656 90.3503 49.7757 91.324 49.7757Z"
          fill="black"></path>
    <path fill-rule="evenodd" clip-rule="evenodd"
          d="M92.4875 67.9385C92.8457 67.9385 92.8457 67.3828 92.4875 67.3828C92.1292 67.3819 92.1292 67.9385 92.4875 67.9385Z"
          fill="black"></path>
    <path fill-rule="evenodd" clip-rule="evenodd"
          d="M84.2998 82.4243C84.3152 82.4041 84.3277 82.3848 84.3422 82.3655C84.5049 82.1431 84.5049 81.7241 84.3422 81.5016C84.3277 81.4824 84.3152 81.4631 84.2998 81.441C83.7605 80.6907 82.4844 80.8987 82.4844 81.9331C82.4844 82.9675 83.7605 83.1755 84.2998 82.4243Z"
          fill="black"></path>
    <path fill-rule="evenodd" clip-rule="evenodd"
          d="M84.3324 86.1016C83.3163 86.1016 83.3163 87.6752 84.3324 87.6752C85.3474 87.6752 85.3474 86.1016 84.3324 86.1016Z"
          fill="black"></path>
    <path fill-rule="evenodd" clip-rule="evenodd"
          d="M86.9546 83.4844C85.9578 83.4844 85.9578 85.0311 86.9546 85.0311C87.9524 85.0321 87.9524 83.4844 86.9546 83.4844Z"
          fill="black"></path>
    <path fill-rule="evenodd" clip-rule="evenodd"
          d="M92.1971 86.1797C91.2937 86.1797 91.2937 87.58 92.1971 87.58C93.1014 87.58 93.1014 86.1797 92.1971 86.1797Z"
          fill="black"></path>
    <path fill-rule="evenodd" clip-rule="evenodd"
          d="M43.269 17.1098C44.5547 17.1098 44.5547 15.1172 43.269 15.1172C41.9833 15.1172 41.9833 17.1098 43.269 17.1098Z"
          fill="black"></path>
    <path fill-rule="evenodd" clip-rule="evenodd"
          d="M39.4837 13.2672C40.311 13.2672 40.311 11.9844 39.4837 11.9844C38.6565 11.9844 38.6565 13.2672 39.4837 13.2672Z"
          fill="black"></path>
    <path fill-rule="evenodd" clip-rule="evenodd"
          d="M70.9367 13.655C71.8931 13.655 71.8931 12.1719 70.9367 12.1719C69.9794 12.1728 69.9794 13.655 70.9367 13.655Z"
          fill="black"></path>
    <path fill-rule="evenodd" clip-rule="evenodd"
          d="M96.567 46C95.3006 46 95.3006 47.9666 96.567 47.9666C97.8344 47.9666 97.8344 46 96.567 46Z"
          fill="black"></path>
    <path fill-rule="evenodd" clip-rule="evenodd"
          d="M94.5265 47.6562C93.5172 47.6562 93.5172 49.2222 94.5265 49.2222C95.5358 49.2222 95.5358 47.6562 94.5265 47.6562Z"
          fill="black"></path>
    <path fill-rule="evenodd" clip-rule="evenodd"
          d="M98.02 52.6243C98.907 52.6243 98.907 51.25 98.02 51.25C97.134 51.251 97.134 52.6243 98.02 52.6243Z"
          fill="black"></path>
    <path fill-rule="evenodd" clip-rule="evenodd"
          d="M101.224 46.7421C102.04 46.7421 102.04 45.4766 101.224 45.4766C100.41 45.4756 100.41 46.7421 101.224 46.7421Z"
          fill="black"></path>
    <path fill-rule="evenodd" clip-rule="evenodd"
          d="M94.2371 68.2742C95.4179 68.2742 95.4179 66.4453 94.2371 66.4453C93.0564 66.4453 93.0564 68.2742 94.2371 68.2742Z"
          fill="black"></path>
    <path fill-rule="evenodd" clip-rule="evenodd"
          d="M90.451 69.9922C89.3184 69.9922 89.3184 71.7489 90.451 71.7489C91.5846 71.7489 91.5846 69.9922 90.451 69.9922Z"
          fill="black"></path>
    <path fill-rule="evenodd" clip-rule="evenodd"
          d="M90.7401 65.5469C89.8887 65.5469 89.8887 66.8673 90.7401 66.8673C91.5895 66.8673 91.5895 65.5469 90.7401 65.5469Z"
          fill="black"></path>
    <path fill-rule="evenodd" clip-rule="evenodd"
          d="M24.3388 66.0859C23.4287 66.0859 23.4287 67.4969 24.3388 67.4969C25.248 67.4969 25.248 66.0859 24.3388 66.0859Z"
          fill="black"></path>
    <path fill-rule="evenodd" clip-rule="evenodd"
          d="M11.2366 64.5547C10.6086 64.5547 10.6086 65.5284 11.2366 65.5284C11.8635 65.5284 11.8635 64.5547 11.2366 64.5547Z"
          fill="black"></path>
    <path fill-rule="evenodd" clip-rule="evenodd"
          d="M7.73765 85.375C6.91037 85.375 6.91037 86.6578 7.73765 86.6578C8.56494 86.6578 8.56494 85.375 7.73765 85.375Z"
          fill="black"></path>
    <path fill-rule="evenodd" clip-rule="evenodd"
          d="M10.0683 82.6094C9.06576 82.6094 9.06576 84.1657 10.0683 84.1657C11.0719 84.1657 11.0719 82.6094 10.0683 82.6094Z"
          fill="black"></path>
    <path fill-rule="evenodd" clip-rule="evenodd"
          d="M42.1049 44.8125C41.189 44.8125 41.189 46.2331 42.1049 46.2331C43.0208 46.2321 43.0208 44.8125 42.1049 44.8125Z"
          fill="black"></path>
    <path fill-rule="evenodd" clip-rule="evenodd"
          d="M50.2969 75.7705C49.7046 75.9332 49.4175 76.6363 49.7286 77.166C50.0859 77.7785 51.0153 77.7891 51.3707 77.166C51.78 76.4514 51.1338 75.5412 50.2969 75.7705Z"
          fill="black"></path>
    <path fill-rule="evenodd" clip-rule="evenodd"
          d="M51.4252 72.1953C50.5093 72.1953 50.5093 73.6149 51.4252 73.6149C52.3421 73.6139 52.3421 72.1953 51.4252 72.1953Z"
          fill="black"></path>
    <path fill-rule="evenodd" clip-rule="evenodd"
          d="M47.9308 75.1953C47.5022 75.1953 47.5022 75.8589 47.9308 75.8589C48.3584 75.8589 48.3584 75.1953 47.9308 75.1953Z"
          fill="black"></path>
    <path fill-rule="evenodd" clip-rule="evenodd"
          d="M61.3269 84.5781C60.2348 84.5781 60.2348 86.2712 61.3269 86.2712C62.4191 86.2712 62.4191 84.5781 61.3269 84.5781Z"
          fill="black"></path>
    <path fill-rule="evenodd" clip-rule="evenodd"
          d="M61.6166 88.2109C60.7007 88.2109 60.7007 89.6305 61.6166 89.6305C62.5325 89.6305 62.5325 88.2109 61.6166 88.2109Z"
          fill="black"></path>
    <path fill-rule="evenodd" clip-rule="evenodd"
          d="M72.3929 63.2031C71.5357 63.2031 71.5357 64.5312 72.3929 64.5312C73.2481 64.5303 73.2481 63.2031 72.3929 63.2031Z"
          fill="black"></path>
    <path fill-rule="evenodd" clip-rule="evenodd"
          d="M58.9997 60.1482C59.8212 60.1482 59.8212 58.875 58.9997 58.875C58.1772 58.875 58.1772 60.1482 58.9997 60.1482Z"
          fill="black"></path>
    <path fill-rule="evenodd" clip-rule="evenodd"
          d="M66.5039 70.5784V70.8249C66.5039 72.0345 68.3781 72.0345 68.3781 70.8249V70.5784C68.3781 69.3697 66.5039 69.3697 66.5039 70.5784Z"
          fill="black"></path>
    <path fill-rule="evenodd" clip-rule="evenodd"
          d="M53.4645 49.2578C52.2722 49.2578 52.2722 51.106 53.4645 51.106C54.6549 51.106 54.6549 49.2578 53.4645 49.2578Z"
          fill="black"></path>
    <path fill-rule="evenodd" clip-rule="evenodd"
          d="M51.1318 49.3241C51.9013 49.3241 51.9013 48.1328 51.1318 48.1328C50.3623 48.1328 50.3623 49.3241 51.1318 49.3241Z"
          fill="black"></path>
    <path fill-rule="evenodd" clip-rule="evenodd"
          d="M43.2692 49.3024C44.004 49.3024 44.004 48.1641 43.2692 48.1641C42.5353 48.165 42.5353 49.3024 43.2692 49.3024Z"
          fill="black"></path>
    <path fill-rule="evenodd" clip-rule="evenodd"
          d="M42.9773 4.38432C43.6283 4.38432 43.6283 3.375 42.9773 3.375C42.3253 3.375 42.3253 4.38432 42.9773 4.38432Z"
          fill="black"></path>
    <path fill-rule="evenodd" clip-rule="evenodd"
          d="M39.1904 6.62185C40.0996 6.62185 40.0996 5.21094 39.1904 5.21094C38.2803 5.21094 38.2803 6.62185 39.1904 6.62185Z"
          fill="black"></path>
    <path fill-rule="evenodd" clip-rule="evenodd"
          d="M6.86643 46.163C7.68216 46.163 7.68216 44.8984 6.86643 44.8984C6.04973 44.8994 6.04973 46.163 6.86643 46.163Z"
          fill="black"></path>
    <path fill-rule="evenodd" clip-rule="evenodd"
          d="M4.24748 41.7103C4.9515 41.7103 4.9515 40.6172 4.24748 40.6172C3.54251 40.6182 3.54251 41.7103 4.24748 41.7103Z"
          fill="black"></path>
    <path fill-rule="evenodd" clip-rule="evenodd"
          d="M92.7757 21.7234C94.0017 21.7234 94.0017 19.8203 92.7757 19.8203C91.5487 19.8213 91.5487 21.7234 92.7757 21.7234Z"
          fill="black"></path>
    <path fill-rule="evenodd" clip-rule="evenodd"
          d="M89.8685 17.6817C90.7651 17.6817 90.7651 16.2891 89.8685 16.2891C88.9709 16.2891 88.9709 17.6817 89.8685 17.6817Z"
          fill="black"></path>
    <path fill-rule="evenodd" clip-rule="evenodd"
          d="M89.5766 11.2108C90.3924 11.2108 90.3924 9.94531 89.5766 9.94531C88.7609 9.94628 88.7609 11.2108 89.5766 11.2108Z"
          fill="black"></path>
    <path fill-rule="evenodd" clip-rule="evenodd"
          d="M0.748317 67.1797C-0.249439 67.1797 -0.249439 68.7274 0.748317 68.7274C1.74607 68.7274 1.74607 67.1797 0.748317 67.1797Z"
          fill="black"></path>
    <path fill-rule="evenodd" clip-rule="evenodd"
          d="M113.747 63.4062C112.767 63.4062 112.767 64.926 113.747 64.926C114.727 64.926 114.727 63.4062 113.747 63.4062Z"
          fill="black"></path>
    <path fill-rule="evenodd" clip-rule="evenodd"
          d="M115.2 67.8828C114.36 67.8828 114.36 69.1849 115.2 69.1849C116.04 69.1849 116.04 67.8828 115.2 67.8828Z"
          fill="black"></path>
    <path fill-rule="evenodd" clip-rule="evenodd"
          d="M119.284 67.7891C118.327 67.7891 118.327 69.2732 119.284 69.2732C120.241 69.2732 120.241 67.7891 119.284 67.7891Z"
          fill="black"></path>
</svg>