<svg width="81" height="113" viewBox="0 0 81 113" fill="none"
     xmlns="http://www.w3.org/2000/svg">
    <path d="M40.9657 0.815055C40.9657 0.912465 40.1865 0.993635 38.6929 1.13975C37.2155 1.31833 35.0237 1.59434 32.2962 2.29245C31.3708 2.51974 30.4129 2.8282 29.3901 3.1529C28.8868 3.34772 28.3673 3.54253 27.8316 3.75359C27.2958 3.98088 26.7601 4.20817 26.1918 4.41923C25.5911 4.54911 25.0716 4.92252 24.5196 5.26346C23.9838 5.63686 23.4482 5.99402 22.7663 6.14014C22.1656 6.43237 21.5649 6.75706 20.9805 7.1467C20.6882 7.34152 20.3959 7.55258 20.1037 7.76364C19.9576 7.86105 19.8115 7.9747 19.6653 8.07211C19.5192 8.18575 19.3893 8.29938 19.2432 8.41303C18.951 8.64032 18.6589 8.85139 18.3504 9.06244C18.0419 9.2735 17.7496 9.50079 17.4411 9.72808C16.8242 10.1664 16.2398 10.6859 15.7041 11.2866C15.4768 11.6276 15.2171 11.9198 14.9086 12.1796C14.6164 12.4556 14.259 12.6666 13.9506 12.9264C13.3174 13.4459 12.652 13.9816 12.311 14.8096C11.7915 15.4753 11.2881 16.1734 10.7523 16.8553C10.4926 17.1962 10.2328 17.5696 9.97308 17.9267C9.8432 18.1053 9.71334 18.2839 9.58346 18.4625C9.45358 18.6411 9.33997 18.8359 9.21009 19.0307C7.92752 20.3458 7.32685 22.1641 6.59627 23.9175C6.32028 24.3071 6.0279 24.713 5.83308 25.1513C5.62202 25.5897 5.44348 26.0442 5.26489 26.4988C4.97266 27.4405 4.74535 28.4146 4.6317 29.4049C3.56019 31.1745 3.20312 33.2851 3.51158 35.4119C3.47911 35.6716 3.44656 35.9314 3.43033 36.1911C3.39786 36.4509 3.38174 36.7107 3.34927 36.9704C3.3168 37.2302 3.28425 37.4899 3.26802 37.7659C3.26802 38.0257 3.23552 38.3017 3.23552 38.5615C3.21928 39.0972 3.18681 39.6492 3.23552 40.1362C3.23552 40.396 3.30055 40.6395 3.33302 40.8993C3.38173 41.1591 3.44664 41.4188 3.51158 41.6623C3.90122 43.7404 4.69663 45.8185 5.4272 47.9778C6.59612 49.9584 7.55404 52.069 8.31708 54.3581C9.72953 56.3225 10.7361 58.5305 11.7426 60.7872C12.7492 63.0601 14.5027 64.9433 15.5418 67.2974C16.8243 69.5054 18.2855 71.6484 19.6168 73.9051C20.8669 76.2104 22.1493 78.5483 23.9027 80.6101C25.445 82.8181 27.036 85.0098 28.3673 87.4288C30.2343 89.4907 31.5982 91.9097 32.9619 94.3774C34.5529 96.6828 35.8517 99.2154 37.6051 101.488C38.3519 102.706 39.1636 103.891 39.9591 105.109L40.5435 106.018L40.8196 106.44L40.8684 106.505C40.8684 106.505 40.9169 106.586 40.9332 106.635L40.9982 106.846C40.9982 106.846 41.0632 106.813 41.0957 106.781C41.1281 106.748 41.1768 106.716 41.2255 106.635L41.3067 106.537L41.5826 106.115L42.167 105.206C42.9463 103.989 43.6933 102.755 44.3589 101.488C45.674 98.9394 47.5572 96.7802 49.0021 94.3774C50.8691 92.2506 51.9568 89.653 53.5803 87.4288C55.0577 85.1072 56.7624 82.9804 58.0449 80.6101C59.4411 78.321 60.8049 76.0319 62.331 73.9051C63.2077 71.3562 65.2046 69.5703 66.406 67.2974C67.9321 65.2356 68.9386 62.914 70.2049 60.7872C71.3089 58.5792 72.8025 56.6148 73.6305 54.3581C74.1825 53.3028 74.6533 52.2151 75.0917 51.1274C75.5463 50.0558 76.0009 48.9843 76.5204 47.9778C76.7964 46.8575 77.2348 45.8347 77.6244 44.7957C78.0141 43.7566 78.3713 42.7176 78.4362 41.6623C78.4687 41.4026 78.501 41.1428 78.5498 40.883C78.566 40.6233 78.5985 40.3798 78.6148 40.12C78.6472 39.6329 78.6148 39.081 78.6148 38.5615C78.6148 38.3017 78.6148 38.0257 78.6148 37.7659C78.6148 37.5062 78.5822 37.2302 78.566 36.9704C78.566 36.7107 78.5335 36.4509 78.5173 36.1911C78.5173 35.9314 78.4849 35.6716 78.4524 35.4119C78.5011 34.8761 78.5012 34.3566 78.4687 33.8371C78.4038 33.3175 78.3063 32.8142 78.1926 32.311C78.0952 31.8077 77.9166 31.3206 77.7705 30.8336C77.7056 30.5901 77.6244 30.3465 77.5594 30.103C77.4783 29.8595 77.3971 29.6322 77.3321 29.3887C77.1048 28.4146 76.699 27.5054 76.3581 26.5963C76.1632 26.1579 75.9847 25.7033 75.8224 25.2487C75.6763 24.7942 75.4814 24.3558 75.3678 23.885C74.6209 22.1478 73.9066 20.3945 72.7539 18.9983C72.6241 18.8197 72.5103 18.6248 72.3966 18.43C72.283 18.2352 72.1694 18.0404 72.0557 17.8456C71.8447 17.4559 71.6498 17.0501 71.4226 16.6604C70.968 15.9136 70.4647 15.183 69.653 14.7771C69.0685 14.1602 68.5815 13.4946 68.0782 12.829C67.8347 12.5043 67.5425 12.212 67.2502 11.936C66.958 11.66 66.6496 11.4003 66.2762 11.2379C65.5456 10.8645 64.9774 10.345 64.4254 9.84172C64.1494 9.58196 63.8896 9.30597 63.6136 9.06244C63.3376 8.81892 63.0453 8.57538 62.7531 8.36432C62.607 8.25068 62.4609 8.15327 62.3147 8.03963C62.1686 7.94222 62.0225 7.84482 61.8601 7.74741C61.5679 7.55259 61.2596 7.35777 60.9836 7.16295C60.3991 6.78954 59.7983 6.4486 59.23 6.09143C56.6 4.61405 54.0837 3.59123 51.8432 2.86066C51.5672 2.77948 51.2912 2.68207 51.0152 2.60089C50.8854 2.55219 50.7392 2.51974 50.6094 2.47103C50.4795 2.43856 50.3496 2.40607 50.2035 2.3736C49.684 2.24372 49.1644 2.11386 48.6935 1.98398C47.7194 1.78916 46.8265 1.5781 46.0147 1.46446C45.6089 1.39952 45.2355 1.33458 44.8784 1.28587C44.5212 1.23717 44.1803 1.20469 43.8718 1.15599C43.5633 1.10728 43.271 1.07481 43.0113 1.04234C42.7515 1.02611 42.5081 0.993637 42.297 0.977402C41.4528 0.896227 41.0144 0.815053 41.0144 0.750113C41.0144 0.685173 41.5502 0.620236 42.6217 0.587766C43.6769 0.555296 45.2517 0.587759 47.2649 0.847519C49.2942 1.09104 51.7782 1.61056 54.5706 2.55219C55.9506 3.05547 57.4443 3.62371 58.9704 4.38675C60.4965 5.11733 62.0551 6.02648 63.6299 7.098C63.9383 7.30905 64.263 7.52011 64.6039 7.71493C64.9449 7.92599 65.2533 8.13703 65.5942 8.36432C66.2599 8.80267 66.8768 9.33842 67.3963 9.98783C67.721 10.2476 68.0132 10.5398 68.3379 10.8158C68.6463 11.0918 68.9874 11.3516 69.2959 11.66C69.9128 12.2607 70.5459 12.8614 71.0329 13.6082C71.796 14.1278 72.3642 14.8421 72.9 15.5727C73.1598 15.9461 73.4032 16.3519 73.6467 16.7578C73.7766 16.9526 73.8902 17.1475 74.0201 17.3585C74.1338 17.5696 74.2638 17.7644 74.3774 17.9592C75.449 19.534 76.2445 21.3036 77.2348 23.0408C77.4946 23.4791 77.738 23.9175 77.9328 24.3883C78.1276 24.8591 78.2901 25.3462 78.4687 25.8332C78.7609 26.8235 79.0693 27.8139 79.4102 28.8042C79.7025 30.9148 80.2221 32.9766 80.6929 35.1521C80.6929 35.4281 80.6929 35.7041 80.6929 35.9801C80.6929 36.2561 80.6927 36.5321 80.7252 36.8081C80.7414 37.0841 80.774 37.3601 80.7902 37.636C80.7902 37.912 80.8227 38.2043 80.8389 38.4803C80.8714 39.0485 80.9362 39.6005 80.92 40.2174C80.92 40.5259 80.8877 40.8181 80.8714 41.1266C80.839 41.4188 80.8064 41.7273 80.7577 42.0195C80.3518 43.156 80.0434 44.2762 79.7511 45.4126C79.4427 46.5491 79.1505 47.7018 78.8096 48.8382C78.4524 49.9747 77.9654 51.0787 77.4459 52.1664C76.9264 53.2541 76.3905 54.3419 75.8872 55.4459C74.7345 57.5889 73.7442 59.8618 72.4616 62.021C71.4063 64.2939 70.205 66.5344 68.6789 68.6287C67.4775 70.9016 66.0164 73.0771 64.6202 75.3013C63.3539 77.6229 61.7628 79.7659 60.3504 82.0713C58.9542 84.3767 57.0384 86.3736 55.902 88.9225C54.4408 91.2603 52.801 93.5007 51.3399 95.8873C49.7488 98.1926 48.1579 100.53 46.7292 102.982C45.7713 104.053 44.9757 105.239 44.2452 106.472C44.0666 106.781 43.8881 107.089 43.7095 107.398C43.466 107.836 43.2223 108.291 42.9788 108.729C42.6703 109.281 42.3457 109.882 42.021 110.499C41.68 111.116 41.3554 111.749 41.0144 112.366C39.0987 109.2 37.1829 106.083 35.2834 102.966C33.7086 100.595 32.1826 98.2251 30.6727 95.871C29.0168 93.5981 27.7668 91.1142 26.1108 88.9062C24.4386 86.7145 23.2857 84.2143 21.6622 82.055C20.0874 79.8633 18.5938 77.6391 17.3924 75.3013C15.9962 73.0609 14.9734 70.6418 13.3336 68.6287C11.9374 66.4694 10.2328 64.5212 9.55096 62.021C8.20345 59.8942 7.44043 57.5077 6.12539 55.4459C5.78446 54.2607 5.28121 53.1567 4.74546 52.0852C4.2097 51.0137 3.64138 49.9584 3.21926 48.8382C2.43998 46.5816 1.83935 44.3249 1.25489 42.0195C1.18995 41.7273 1.12504 41.435 1.07633 41.1428C1.04386 40.8343 0.995077 40.5421 0.995077 40.2337C0.962607 39.6005 1.01136 39.0485 1.04383 38.4803C1.06006 38.2043 1.07636 37.912 1.10883 37.636C1.1413 37.3601 1.17367 37.0841 1.20614 36.7918C1.23861 36.5158 1.27116 36.2398 1.28739 35.9638C1.30363 35.6878 1.33616 35.4119 1.3524 35.1359C1.3524 34.5839 1.41728 34.0319 1.49846 33.4961C1.6121 32.9604 1.74197 32.4246 1.88808 31.9051C2.01796 31.3856 2.19658 30.8661 2.32646 30.3465C2.3914 30.0868 2.45631 29.827 2.50502 29.5672C2.56996 29.3075 2.61861 29.0477 2.65108 28.788C2.94331 27.7814 3.28419 26.7911 3.60889 25.817C3.80371 25.3299 3.98245 24.8591 4.17727 24.3883C4.35586 23.9175 4.59922 23.4629 4.82651 23.0245C4.85898 22.7648 4.90783 22.505 4.97277 22.2615C5.03771 22.018 5.13498 21.7907 5.23239 21.5634C5.44345 21.1088 5.67084 20.6705 5.94683 20.2646C6.22283 19.8587 6.53134 19.4691 6.80734 19.0794C7.09957 18.6898 7.40788 18.3164 7.66764 17.9267C7.79752 17.7319 7.92739 17.5371 8.05727 17.3423C8.18715 17.1475 8.31721 16.9526 8.44709 16.7578C8.69061 16.3682 8.91782 15.9623 9.17758 15.5727C9.69711 14.8259 10.2491 14.0953 11.0121 13.5758C11.4018 12.7478 12.0187 12.0984 12.6519 11.5139C12.9766 11.2217 13.3175 10.9782 13.6585 10.7184C13.9994 10.4586 14.3241 10.1989 14.665 9.95537C15.3307 9.46832 15.8989 8.88386 16.5158 8.38058C16.8243 8.12081 17.1164 7.86104 17.4411 7.63375C17.7659 7.4227 18.0905 7.21164 18.4477 7.04929C18.5776 6.90318 18.7237 6.7733 18.8536 6.64342C18.9997 6.52977 19.1621 6.41613 19.3082 6.31872C19.6167 6.1239 19.9576 5.94531 20.2823 5.78296C20.9317 5.45826 21.6136 5.19849 22.1818 4.80885C22.8475 4.58156 23.4482 4.27312 24.0327 3.96465C24.6334 3.67242 25.2015 3.38019 25.786 3.1529C26.3542 2.89314 26.9225 2.6496 27.4745 2.45478C28.0427 2.2762 28.5947 2.13008 29.1467 2.0002C30.2182 1.70797 31.2248 1.43198 32.1827 1.25339C35.0238 0.685169 37.2641 0.555298 38.774 0.539062C40.2838 0.539062 41.0632 0.636461 41.0632 0.717636L40.9657 0.815055Z"
          fill="black"></path>
    <path d="M40.9689 12.2721C40.9689 12.4832 39.2156 12.4994 36.1634 13.23C35.9037 13.2949 35.6439 13.3761 35.3842 13.441C35.1082 13.5222 34.8322 13.5871 34.5562 13.6846C34.2802 13.782 33.9879 13.8956 33.6794 13.993C33.3872 14.1067 33.0788 14.2203 32.7541 14.3177C32.3969 14.3177 32.1208 14.5613 31.8123 14.7561C31.5201 14.9671 31.2279 15.1782 30.8058 15.1782C30.4486 15.2756 30.1079 15.4542 29.7669 15.649C29.6046 15.7464 29.4259 15.8438 29.2635 15.9575C29.1012 16.0711 28.9388 16.1847 28.7764 16.2984C28.4355 16.5257 28.0785 16.7205 27.7213 16.9316C27.3479 17.1264 27.007 17.3861 26.7147 17.7271C26.4874 18.1492 26.0815 18.344 25.6594 18.5226C25.2373 18.7174 24.8315 18.961 24.6691 19.4642C24.0684 20.1948 23.3702 20.828 22.7045 21.5748C21.7954 22.0943 21.4382 23.1496 20.9025 24.0263C19.9771 24.6757 19.5713 25.7309 19.344 26.8349C18.3699 27.5817 17.9802 28.7182 18.1426 29.9683C17.8179 31.056 17.2984 32.16 17.3633 33.3776C17.2172 34.5628 17.1847 35.7804 17.071 37.0143C17.4444 38.2481 17.4607 39.4658 17.3471 40.7808C17.9316 41.9822 18.0451 43.2485 18.2399 44.5635C18.2886 44.8882 18.3861 45.2129 18.516 45.5214C18.6459 45.8299 18.8082 46.1221 18.9706 46.4143C19.1167 46.7066 19.3114 46.9988 19.4413 47.3073C19.5712 47.6157 19.7174 47.9242 19.7986 48.2651C20.3993 49.4828 21.2273 50.5867 22.0065 51.7394C22.7046 52.9408 23.5489 54.1422 24.8477 54.8403C25.9679 55.7332 27.153 56.4963 28.257 57.4541C29.7019 57.86 30.8709 58.688 32.1697 59.451C33.5496 59.9219 34.9134 60.6524 36.4557 60.7011C37.9331 61.0583 39.4591 60.9447 40.9689 61.1395C42.495 61.2694 44.0536 61.2369 45.4823 60.7011C46.1966 60.4252 46.9109 60.279 47.6415 60.1167C48.0149 60.0517 48.3721 59.9543 48.7293 59.8407C49.0865 59.7433 49.4274 59.6134 49.7684 59.451C50.158 59.4186 50.5152 59.3049 50.8399 59.1588C51.0185 59.0939 51.1808 59.0127 51.3431 58.9153C51.5055 58.8179 51.6679 58.7205 51.814 58.6231L52.2849 58.3308L52.7393 58.0224C53.0478 57.8276 53.3564 57.6327 53.6811 57.4704C54.8825 56.6586 56.1975 55.993 57.1066 54.8565C58.097 53.8337 58.9737 52.7622 59.9478 51.7557C60.1101 51.0089 60.5322 50.4893 60.9706 49.9536C61.1979 49.6938 61.425 49.4341 61.6361 49.1581C61.7335 49.0119 61.831 48.8821 61.9284 48.736C62.0095 48.5898 62.0907 48.4275 62.1557 48.2814C63.0161 47.1774 63.2596 45.8136 63.7142 44.596C63.8441 43.9466 64.1038 43.3459 64.2824 42.7128L64.4286 42.242C64.4611 42.0796 64.4935 41.9335 64.5259 41.7711C64.5746 41.4464 64.6234 41.138 64.6072 40.8133C64.6559 40.5048 64.6883 40.1801 64.7207 39.8716C64.7207 39.5632 64.737 39.2385 64.7533 38.93C64.7695 38.6215 64.7533 38.2968 64.7858 37.9884C64.802 37.6799 64.8506 37.3714 64.8831 37.063C64.8019 36.7545 64.7695 36.446 64.7695 36.1376C64.7533 35.8291 64.7695 35.5207 64.7695 35.2284C64.7857 34.92 64.7695 34.6115 64.7695 34.3193C64.7533 34.0108 64.7046 33.7186 64.5909 33.4426C64.4124 32.2574 64.0877 31.1372 63.8117 30.0332C63.8279 29.7248 63.8116 29.4325 63.7467 29.1565C63.6817 28.8805 63.5682 28.6208 63.4383 28.361C63.3247 28.1013 63.1785 27.8577 63.0162 27.6304C62.8701 27.3869 62.7402 27.1434 62.6103 26.9161C62.383 26.4128 62.0908 25.9582 61.7823 25.5199C61.4901 25.0653 61.214 24.6269 61.0679 24.1074C60.5159 23.2307 60.0613 22.2729 59.2658 21.6397C58.9249 21.2826 58.7138 20.8117 58.4541 20.3896C58.1943 19.9675 57.8534 19.6103 57.3014 19.5292C56.9118 19.2694 56.6519 18.8635 56.3597 18.5226C56.0512 18.1817 55.7429 17.857 55.2558 17.7758C54.785 17.6784 54.4602 17.4186 54.1355 17.1588C53.827 16.8829 53.5349 16.5582 53.1939 16.3633C53.0153 16.2659 52.8531 16.1523 52.6907 16.0549C52.5284 15.9575 52.3497 15.86 52.1874 15.7626C51.8464 15.5678 51.5217 15.3893 51.1808 15.2269C49.6872 14.4801 48.2747 13.9768 47.0408 13.5872C46.7323 13.506 46.424 13.4086 46.1317 13.3274C45.8395 13.2462 45.5635 13.1975 45.2875 13.1326C44.7517 13.0027 44.2484 12.9215 43.81 12.8241C42.9171 12.678 42.219 12.5643 41.7482 12.4994C41.2774 12.4345 41.0339 12.3533 41.0339 12.2883C41.0339 12.2234 41.3425 12.1585 41.9269 12.0935C42.2192 12.0611 42.5925 12.0448 43.0308 12.0611C43.2419 12.0611 43.4855 12.0611 43.7452 12.0611C44.005 12.0773 44.2648 12.0935 44.557 12.1098C45.6934 12.2072 47.1058 12.402 48.7131 12.8404C50.3203 13.2787 52.1224 13.9606 54.0057 14.9834C54.3791 15.1782 54.8012 15.3405 55.2071 15.5516C55.6129 15.7464 56.0026 16.0062 56.2949 16.3958C56.6845 16.6556 57.0741 16.9153 57.48 17.1751C57.8859 17.4511 58.2594 17.7758 58.5678 18.1654C59.6069 18.5226 60.1101 19.5292 60.7595 20.3571C61.4901 21.1527 62.0258 22.1105 62.8051 22.9548C63.211 23.3606 63.5032 23.8639 63.7467 24.3997C64.0064 24.9192 64.2175 25.4712 64.5747 25.9582C64.8345 27.1596 65.3702 28.2311 65.9871 29.3514C66.0358 29.6598 66.0845 29.9845 66.1657 30.2767C66.2469 30.5852 66.3443 30.8774 66.4418 31.1859C66.5392 31.4944 66.6365 31.8028 66.7339 32.1113C66.815 32.4198 66.8962 32.7445 66.9449 33.0692C66.7501 34.4167 67.1722 35.683 67.3508 37.0467C67.5132 38.4105 67.2371 39.7905 67.1235 41.2029C66.8475 42.5829 66.7015 44.0278 66.1982 45.4078C65.9547 46.8527 65.4351 48.2976 64.5259 49.5315C63.9577 50.9277 63.0486 52.1778 62.1232 53.4116C61.3277 54.7591 60.1264 55.7982 58.9899 56.9022C58.438 57.4704 57.756 57.9087 57.0904 58.3471C56.7657 58.5744 56.4248 58.7854 56.1001 59.0289C55.7916 59.2887 55.483 59.5322 55.1908 59.8569C53.8595 60.7823 52.3336 61.4155 50.8399 62.0974C49.2814 62.6656 47.674 63.0715 46.0505 63.5098C44.3296 63.3799 42.7223 63.8183 41.0014 63.9969C39.2967 64.1267 37.5921 63.8994 35.9524 63.5098C34.2964 63.2338 32.6892 62.7305 31.1631 62.0974C29.5721 61.5941 28.257 60.555 26.812 59.8569C26.4549 59.6783 26.0977 59.4673 25.773 59.2238C25.4483 58.9802 25.1236 58.7367 24.8314 58.4607C24.2307 57.925 23.6625 57.373 23.0131 56.9184C21.763 55.9443 20.6427 54.8078 19.8797 53.4279C19.4251 52.8109 19.068 52.1128 18.7108 51.4472C18.516 51.1225 18.3537 50.7816 18.1588 50.4569C18.0614 50.2945 17.9477 50.1484 17.834 49.986C17.7204 49.8399 17.6068 49.6776 17.4769 49.5315C17.2821 49.2068 17.071 48.8983 16.8762 48.5736C16.6814 48.2489 16.4704 47.9404 16.308 47.5995C16.1457 47.2586 15.9996 46.9176 15.9022 46.5604C15.821 46.2033 15.7884 45.8136 15.8209 45.424C15.5449 44.7421 15.3989 44.0278 15.3177 43.3134C15.269 42.9563 15.2204 42.5991 15.1554 42.2582C15.1067 41.901 14.993 41.5601 14.8956 41.2191C14.9605 40.862 14.9766 40.5048 14.9604 40.1476C14.9604 39.8067 14.928 39.4495 14.8631 39.1086C14.7982 38.7676 14.7658 38.4267 14.7333 38.0858C14.6846 37.7448 14.652 37.4039 14.6683 37.063C14.7657 35.6992 15.0579 34.4004 15.0742 33.0854C15.0742 32.7607 15.1065 32.4198 15.1715 32.1113C15.2526 31.8028 15.3339 31.4781 15.4313 31.1697C15.5125 30.8612 15.6424 30.569 15.7398 30.2605C15.8373 29.9683 15.9345 29.6598 16.0157 29.3514C16.0482 29.0429 16.1456 28.7344 16.2593 28.4422C16.3892 28.15 16.5353 27.8902 16.6814 27.6142C16.8275 27.3382 16.9899 27.0785 17.1198 26.8187C17.2497 26.5427 17.3632 26.2667 17.4282 25.9745C18.0126 24.9354 18.4998 23.8639 19.2142 22.971C19.2304 22.6463 19.3439 22.3703 19.49 22.1268C19.6361 21.8833 19.7986 21.656 20.0097 21.4774C20.4155 21.0877 20.8862 20.763 21.2596 20.3896C22.0064 19.6428 22.4124 18.5551 23.4515 18.1979C23.6788 17.6946 24.0359 17.3537 24.458 17.0939C24.8802 16.8504 25.3184 16.6393 25.7405 16.4283C26.1626 16.2172 26.4874 15.9088 26.8608 15.6328C27.218 15.3568 27.5751 15.1132 28.0297 15.0158C28.1758 14.8373 28.3382 14.7074 28.533 14.5937C28.7116 14.4963 28.9227 14.4314 29.1175 14.3664C29.5071 14.2365 29.9129 14.1554 30.2539 13.9443C31.0494 13.8144 31.6664 13.3599 32.3482 13.165C32.6729 13.0189 32.9976 12.8891 33.306 12.8079C33.6307 12.7267 33.9554 12.678 34.2639 12.6455C34.5723 12.5643 34.8646 12.5156 35.1569 12.4669C35.4491 12.4182 35.7251 12.3533 35.9849 12.3208C39.2156 11.8662 41.0014 12.1909 40.9852 12.3208L40.9689 12.2721Z"
          fill="black"></path>
    <path d="M40.9967 31.6075C40.9967 31.6075 40.737 31.4939 40.4773 31.1529C40.2013 30.8282 39.844 30.3249 39.3244 29.7405C39.1459 29.5457 38.9511 29.3508 38.74 29.156C38.5127 28.9774 38.2693 28.8151 38.0258 28.604C37.9608 28.4254 37.7822 28.4092 37.5874 28.4092C37.4088 28.4092 37.2464 28.4092 37.1653 28.1657C37.0354 28.0358 36.873 27.9871 36.6944 27.9546C36.5158 27.9384 36.3373 27.9059 36.1424 27.9222C36.045 27.9222 35.9638 27.9222 35.8664 27.8897C35.769 27.8735 35.6717 27.841 35.5743 27.8248C35.3794 27.7761 35.1684 27.776 34.9736 27.8735C34.7625 28.0845 34.5839 27.9871 34.3566 27.8735C34.1456 27.7923 33.9021 27.7274 33.7559 28.0358C33.5611 28.1495 33.3663 28.2144 33.1715 28.2956C33.0741 28.328 32.9766 28.3605 32.8629 28.393C32.7655 28.4417 32.6682 28.4741 32.5546 28.5228C32.4085 28.4904 32.2949 28.5229 32.1974 28.5553C32.1 28.604 32.0026 28.669 31.9214 28.7501C31.759 28.9287 31.6291 29.1398 31.483 29.3184C31.1745 29.3184 30.9634 29.4645 30.8173 29.6755C30.7361 29.773 30.7037 29.9028 30.6713 30.0327C30.6713 30.0977 30.6387 30.1626 30.6225 30.2275C30.6225 30.2925 30.6225 30.3737 30.6225 30.4386C29.8757 30.5522 29.6972 31.1854 30.0868 31.8023C29.9569 32.2731 29.6971 32.7764 29.9731 33.3284C30.0055 33.6044 30.0544 33.8804 30.1031 34.1727C30.168 34.4486 30.2329 34.7409 30.2329 35.0331C30.7524 35.5202 30.866 36.0559 30.8173 36.7702C30.9634 36.8839 31.0772 36.9975 31.1746 37.1274C31.2883 37.2573 31.3531 37.3872 31.418 37.5333C31.5479 37.8255 31.5804 38.1664 31.6778 38.4911C31.7428 38.8321 31.9862 39.0918 32.2135 39.3354C32.457 39.5789 32.7007 39.8387 32.7494 40.2121C32.928 40.5043 33.1553 40.7803 33.3826 41.0563C33.5936 41.3323 33.8209 41.6083 34.0158 41.9167C34.3242 42.5986 34.6652 43.2805 35.4282 43.6052C35.9964 44.1085 36.5808 44.5793 36.9542 45.2936C37.7822 45.5696 38.188 46.2515 38.5614 46.9821C39.1621 47.5016 39.5031 48.2809 40.2337 48.6868C40.3636 48.8329 40.5097 48.979 40.6558 49.1251L40.7694 49.2225L40.8181 49.2712C40.8181 49.2712 40.8507 49.2712 40.8669 49.2712C40.9156 49.2712 40.9317 49.2712 40.9642 49.4335C40.9967 49.4823 41.0941 49.4823 41.159 49.4335C41.1752 49.4335 41.1915 49.4011 41.2078 49.3848L41.2565 49.3199L41.3538 49.2063C41.4837 49.0439 41.5975 48.8816 41.6949 48.6868C42.0683 47.9237 42.8961 47.6152 43.3669 46.9821C44.1949 46.6898 44.3575 45.7644 44.9744 45.2936C45.4777 44.7092 46.1757 44.3195 46.5004 43.6052C46.9225 42.9883 47.3284 42.3713 47.9128 41.9167C47.9128 41.6732 47.9615 41.4946 48.0589 41.3485C48.1563 41.2024 48.2863 41.0725 48.4325 40.9589C48.7085 40.7316 49.0656 40.5368 49.1955 40.2121C49.4877 40.001 49.6663 39.6926 49.8286 39.4003C49.9748 39.0919 50.0883 38.7671 50.2831 38.4911C50.413 38.1827 50.5916 37.9229 50.7865 37.6469C50.8839 37.5171 50.9651 37.3709 51.0463 37.2248C51.1112 37.0787 51.1436 36.9164 51.1436 36.754C51.452 36.1858 51.3546 35.5364 51.7443 35.0169C51.6469 34.6922 51.7442 34.4324 51.8903 34.1564C52.004 33.8804 52.0853 33.6044 52.0041 33.3122C52.0365 32.7602 51.9553 32.2732 51.8903 31.7861C51.939 31.7049 51.9554 31.64 51.9878 31.5588C51.9878 31.4939 51.9878 31.4289 51.9878 31.3478C51.9716 31.2179 51.923 31.088 51.858 30.9906C51.7768 30.8932 51.6956 30.7958 51.6145 30.6984C51.5333 30.6009 51.4358 30.5198 51.3709 30.4224C51.3384 30.3737 51.3061 30.3087 51.2736 30.26C51.2411 30.2113 51.1923 30.1788 51.1436 30.1301C51.0624 30.0489 50.9649 29.9678 50.8838 29.8866C50.7052 29.7405 50.5591 29.5619 50.4941 29.3021C50.348 29.1236 50.1858 28.945 50.0235 28.7826C49.9423 28.7014 49.8448 28.6365 49.7474 28.5878C49.65 28.5391 49.5364 28.4904 49.4228 28.4904C49.3091 28.4579 49.2279 28.3767 49.1467 28.2793C49.0655 28.1819 48.9843 28.0845 48.9031 28.0033C48.7246 27.8248 48.4974 27.7436 48.2214 28.0033C48.0103 28.0033 47.8318 27.8734 47.6207 27.7598C47.4259 27.6786 47.2148 27.5975 47.0038 27.8248C46.8089 28.0358 46.614 28.0196 46.4191 27.9709C46.3217 27.9546 46.2244 27.9059 46.127 27.8897C46.0296 27.8735 45.9321 27.8572 45.8347 27.8735C45.6399 27.8735 45.4776 27.9384 45.299 27.9709C45.1367 28.0196 44.958 28.0521 44.8119 28.1332C44.4547 28.2631 44.1463 28.4417 43.8541 28.6203C43.5781 28.8151 43.3184 29.0262 43.0911 29.2534C42.6365 29.6918 42.2793 30.1301 42.0033 30.4873C41.435 31.2179 41.1103 31.6238 40.9967 31.5588C40.8831 31.4939 40.9968 30.8769 41.5163 29.8054C41.7923 29.2697 42.1493 28.6203 42.7825 27.9546C43.091 27.6137 43.4808 27.3052 43.9516 27.013C44.4224 26.737 44.9581 26.5097 45.5426 26.3636C45.6562 26.3311 45.7698 26.2987 45.8834 26.2337C45.9971 26.185 46.1107 26.1363 46.2406 26.1038C46.4841 26.0227 46.744 26.0064 47.0038 26.1526C47.2635 26.1526 47.5233 26.1038 47.7993 26.0714C48.0753 26.0714 48.3675 26.0876 48.6273 26.25C48.952 26.1038 49.2603 26.1525 49.5201 26.2987C49.65 26.3636 49.7798 26.4448 49.9097 26.5422C50.0396 26.6396 50.1532 26.7208 50.2993 26.8019C50.4454 26.8669 50.5753 26.9318 50.6889 27.0292C50.8188 27.1104 50.9487 27.2078 51.0786 27.289C51.3221 27.4838 51.582 27.6624 51.8743 27.8085C52.2152 27.9222 52.4099 28.1982 52.6048 28.4741C52.7022 28.6203 52.7834 28.7664 52.8808 28.9125C52.9295 28.9774 52.9782 29.0424 53.0269 29.1073C53.0756 29.1723 53.1405 29.2372 53.2055 29.3021C53.3353 30.0165 53.6601 30.5847 54.0985 31.2179C54.0822 31.4127 54.0985 31.5913 54.1147 31.7699C54.1309 31.9484 54.1796 32.127 54.2283 32.3056C54.277 32.4842 54.3094 32.6628 54.3418 32.8576C54.3418 32.955 54.3743 33.0524 54.3743 33.1336C54.3743 33.231 54.3743 33.3122 54.3743 33.4096C54.147 33.7668 54.0985 34.1077 54.0985 34.4649C54.0822 34.822 54.1308 35.1955 54.147 35.5689C54.1145 36.3157 53.7086 36.9813 53.5138 37.6956C53.4326 37.858 53.3516 38.0366 53.2867 38.2152C53.2055 38.3775 53.1406 38.5561 53.0756 38.7347C52.9295 39.0756 52.8158 39.449 52.5885 39.7412C52.4911 40.1147 52.3612 40.4881 52.1826 40.8128C51.9878 41.1375 51.7444 41.4459 51.4359 41.6894C51.2898 42.0466 51.0462 42.3551 50.819 42.6636C50.7053 42.8097 50.5917 42.972 50.4618 43.1181C50.332 43.2642 50.2181 43.4104 50.0883 43.5727C49.7473 44.2871 49.0981 44.7741 48.6273 45.391C48.1727 46.0404 47.2634 46.284 47.0686 47.1769C46.5815 47.81 45.9321 48.2971 45.4288 48.9303C44.8281 49.466 44.2113 50.0018 43.7405 50.6674C43.5132 50.7323 43.3184 50.8298 43.1561 50.9596C43.1074 50.9921 43.0748 51.0246 43.0261 51.0571L42.9611 51.1058L42.8638 51.2032C42.7339 51.333 42.6203 51.4467 42.4904 51.5928C42.0033 52.1286 41.5324 52.7617 40.9804 53.4274C40.4285 52.9728 39.8602 52.4208 39.3082 51.8526L38.9023 51.4304L38.805 51.3168L38.74 51.2519L38.6427 51.1382L38.2368 50.6674C37.6361 50.1154 37.0841 49.5147 36.5483 48.9303C35.8989 48.427 35.5742 47.6315 34.9086 47.1769C34.2267 46.7223 33.9995 45.8618 33.3501 45.391C32.7494 44.8715 32.1811 44.3195 31.8889 43.5727C31.6454 43.2642 31.4993 42.9071 31.3207 42.5499C31.1421 42.209 30.9149 41.9005 30.5577 41.6894C30.3142 41.3972 29.9895 41.1537 29.7297 40.8615C29.4862 40.5692 29.3237 40.2121 29.4049 39.725C29.1451 39.449 29.0641 39.0594 28.9504 38.7022C28.9017 38.5236 28.8366 38.345 28.7717 38.1827C28.7067 38.0041 28.6257 37.8418 28.4958 37.6956C28.577 37.2573 28.4309 36.9326 28.301 36.5917C28.1549 36.2507 27.9438 35.926 27.8626 35.5689C27.8302 35.1955 27.8301 34.822 27.7976 34.4649C27.7814 34.1077 27.7652 33.7505 27.6353 33.3934C27.6028 33.2959 27.5865 33.2148 27.5703 33.1174C27.5703 33.02 27.5703 32.9225 27.5703 32.8414C27.5703 32.6465 27.6029 32.468 27.6516 32.2732C27.7003 32.0946 27.7489 31.916 27.7976 31.7374C27.8463 31.5588 27.9114 31.3802 27.9276 31.2016C27.9276 31.1042 27.9276 31.0068 27.9276 30.9256C27.9439 30.8445 27.9762 30.7471 28.0249 30.6659C28.1061 30.5035 28.1874 30.3412 28.301 30.1951C28.4147 30.0489 28.5282 29.9191 28.6094 29.7567C28.6906 29.6106 28.7717 29.4645 28.8042 29.2697C29.2101 28.7339 29.5673 28.1332 30.1193 27.7761C30.1518 27.3215 30.444 27.1267 30.7525 26.9968C30.9149 26.9481 31.0771 26.9156 31.2394 26.8831C31.4018 26.8507 31.5642 26.8182 31.6941 26.7695C31.8402 26.7208 31.9701 26.6396 32.0999 26.5584C32.2298 26.4773 32.3597 26.3961 32.4896 26.3149C32.7493 26.1525 33.0416 26.0876 33.3663 26.2337C33.5936 25.9415 33.8858 25.8928 34.1781 25.909C34.4541 25.9577 34.7463 26.0551 34.9898 26.1363C35.2496 26.2175 35.493 26.1688 35.7366 26.1688C35.8664 26.1688 35.9801 26.1688 36.1099 26.185C36.2398 26.2175 36.3536 26.2662 36.451 26.3474C36.7108 26.2175 36.9542 26.3474 37.149 26.4772C37.3438 26.6396 37.5224 26.7857 37.7497 26.8344C37.912 27.0292 38.0907 27.1267 38.2693 27.2241C38.4641 27.3052 38.6426 27.4026 38.7888 27.5488C39.1459 27.7273 39.4056 28.0196 39.5518 28.3443C39.7628 28.604 39.9415 28.8638 40.0876 29.1073C40.5422 29.8379 40.7695 30.4548 40.8994 30.8607C41.0293 31.2828 41.0454 31.5101 40.9804 31.5588L40.9967 31.6075Z"
          fill="black"></path>
    <path fill-rule="evenodd" clip-rule="evenodd"
          d="M49.0651 112.025C53.1259 107.177 56.3346 101.903 58.695 96.0404C58.7657 95.8667 59.0436 95.9858 58.9959 96.1592C57.2903 102.432 54.5126 108.176 49.721 112.669C49.2867 113.078 48.6867 112.476 49.0651 112.025Z"
          fill="black"></path>
    <path fill-rule="evenodd" clip-rule="evenodd"
          d="M4.4208 11.8574C5.3365 10.9594 5.93268 9.68635 6.69074 8.64628C7.70014 7.26583 8.85617 5.99641 10.3093 5.07845C10.8419 4.74335 10.4002 3.91058 9.83791 4.21532C7.29582 5.58944 4.47761 8.59941 3.83248 11.4977C3.75677 11.8294 4.15208 12.12 4.4208 11.8574Z"
          fill="black"></path>
</svg>