<?xml version="1.0" encoding="utf-8"?>
<!-- Generator: Adobe Illustrator 27.5.0, SVG Export Plug-In . SVG Version: 6.00 Build 0)  -->
<svg version="1.1" xmlns="http://www.w3.org/2000/svg" xmlns:xlink="http://www.w3.org/1999/xlink" x="0px" y="0px"
	 viewBox="0 0 500 500" style="enable-background:new 0 0 500 500;" xml:space="preserve">
<g id="BACKGROUND">
	<rect style="fill:#FFFFFF;" width="500" height="500"/>
</g>
<g id="OBJECTS">
	<g>
		<g>
			<g>
				<g>
					<path style="fill:#2E2F2E;" d="M318.492,91.184c-4.646,1.643-8.587,4.774-12.095,8.178c-3.508,3.436-6.588,7.311-9.1,11.529
						c-2.508,4.215-4.469,8.771-5.656,13.53c-1.205,4.752-1.613,9.709-1.115,14.583l-0.306-0.132
						c5.864-4.486,12.031-8.575,18.437-12.251c3.191-1.843,6.515-3.572,10.122-4.559c1.798-0.487,3.671-0.783,5.559-0.71
						c1.882,0.074,3.773,0.55,5.439,1.471l0.233,0.129l-0.067,0.259c-0.383,1.476-1.301,2.754-2.399,3.738
						c-1.108,0.985-2.364,1.755-3.644,2.431c-2.575,1.315-5.147,2.542-7.72,3.817l-15.436,7.585
						c-2.548,1.268-5.07,2.621-7.085,4.537c-2.028,1.889-3.355,4.423-3.843,7.147c-0.509,2.726-0.301,5.568,0.201,8.336
						c0.508,2.777,1.319,5.507,2.205,8.219l-1.089-0.242c4.157-4.507,8.386-8.985,13.01-13.078
						c4.614-4.086,9.669-7.79,15.334-10.418c2.828-1.31,5.804-2.325,8.869-2.969c0.77-0.141,1.537-0.299,2.314-0.397
						c0.756-0.123,1.601-0.211,2.413-0.193c1.626,0.043,3.303,0.309,4.827,1.249c0.748,0.472,1.443,1.19,1.798,2.096
						c0.355,0.895,0.376,1.889,0.11,2.796c-0.599,1.82-1.983,2.935-3.263,3.861c-1.342,0.911-2.626,1.643-3.936,2.468l-3.913,2.41
						l-15.654,9.641c-5.17,3.267-10.675,6.14-14.53,10.664c-7.68,9.029-6.547,24.306,2.445,32.081l-1.346,0.348
						c5.838-15.807,17.51-29.312,32.221-37.44c1.821-1.007,3.688-2.079,5.896-2.552c2.164-0.505,4.81,0.021,6.365,1.911
						c0.79,0.935,1.133,2.255,0.934,3.454c-0.207,1.206-0.823,2.229-1.524,3.075c-0.703,0.858-1.508,1.58-2.323,2.258l-2.413,1.979
						l-19.289,15.804c-3.198,2.63-6.381,5.301-8.831,8.576c-2.446,3.224-4.081,7.186-3.994,11.224
						c0.049,2.007,0.592,3.984,1.583,5.741c0.962,1.776,2.307,3.338,3.743,4.807c2.882,2.92,6.215,5.563,8.658,9.025
						c2.477,3.391,4.392,7.106,6.902,10.369c2.489,3.275,5.721,5.908,9.094,8.296c3.374,2.401,6.919,4.594,10.22,7.166
						c3.29,2.554,6.359,5.575,8.348,9.321l-0.419-0.144c5.967-2.654,11.229-6.646,16.274-10.801
						c5.047-4.17,9.967-8.559,15.497-12.166c2.752-1.795,5.577-3.466,8.064-5.549c2.469-2.048,4.619-4.681,5.152-7.841
						c0.592-3.149-0.546-6.357-2.217-9.083c-1.67-2.772-3.848-5.227-5.927-7.766l-12.546-15.159l-1.568-1.895
						c-0.516-0.621-1.077-1.282-1.504-2.041c-0.418-0.747-0.788-1.67-0.581-2.667c0.188-0.997,1.015-1.753,1.844-2.089
						c1.703-0.678,3.452-0.587,5.129-0.259c1.68,0.347,3.239,1.073,4.663,1.959c2.865,1.772,5.219,4.168,7.485,6.533
						c2.27,2.383,4.462,4.84,6.567,7.371c4.206,5.065,8.056,10.424,11.531,16.018l-0.79-0.17
						c6.889-4.697,12.406-11.375,15.724-19.011c1.639-3.802,2.852-7.9,2.483-11.957c-0.33-4.061-2.648-7.689-5.52-10.615
						c-2.911-2.944-6.315-5.394-9.987-7.36c-3.668-1.983-7.553-3.572-11.504-5.002c-7.89-2.878-16.096-5.173-23.744-9.052
						c-1.906-0.969-3.77-2.036-5.56-3.226c-1.758-1.2-3.587-2.451-4.995-4.299c-0.686-0.914-1.259-1.997-1.488-3.195
						c-0.23-1.179-0.172-2.432,0.291-3.605c0.437-1.174,1.45-2.214,2.585-2.7c1.13-0.501,2.247-0.684,3.305-0.818
						c2.139-0.356,4.311-0.41,6.471-0.391c2.156,0.109,4.317,0.285,6.429,0.726c4.247,0.776,8.325,2.259,12.2,4.097
						c3.859,1.882,7.505,4.184,10.877,6.827c3.36,2.649,6.493,5.569,9.403,8.679c5.85,6.206,10.893,13.054,15.906,19.844
						l-1.703,0.192c3.353-7.76,5.255-16.156,5.574-24.59c0.067-2.09-0.02-4.164-0.507-6.109c-0.472-1.945-1.415-3.703-2.736-5.23
						c-2.649-3.064-6.391-5.182-10.096-7.23c-7.46-4.036-15.465-7.067-23.735-8.951c-4.136-0.944-8.393-1.619-12.61-2.748
						c-4.196-1.12-8.437-2.754-11.967-5.575l-0.952-0.76l0.892-0.821c1.178-1.083,2.632-1.782,4.086-2.182
						c1.461-0.395,2.934-0.552,4.372-0.6c2.866-0.06,5.663,0.09,8.486,0.328c5.625,0.544,11.179,1.734,16.551,3.469
						c5.374,1.732,10.562,4.044,15.427,6.912c4.871,2.855,9.441,6.229,13.585,10.071l-1.689,0.582
						c0.552-3.501,0.929-7.021,0.901-10.527c-0.039-3.496-0.456-7-1.532-10.284c-1.075-3.278-2.726-6.393-5.036-8.92
						c-1.149-1.264-2.453-2.381-3.886-3.291c-1.442-0.904-3.013-1.606-4.653-2.125c-3.287-1.04-6.809-1.359-10.333-1.401
						c-3.529-0.039-7.104,0.199-10.685,0.351l-21.467,1.002l-1.052,0.049l0.199-1.038c0.236-1.229,0.97-2.372,1.916-3.125
						c0.941-0.772,2.021-1.24,3.095-1.578c2.146-0.666,4.408-0.769,6.501-0.803c4.249-0.121,8.5-0.128,12.748-0.044
						c8.497,0.173,16.983,0.757,25.422,1.736l-0.671,0.535c0.549-4.587-0.519-9.305-2.685-13.409
						c-2.166-4.115-5.388-7.684-9.263-10.274c-3.899-2.576-8.377-4.245-12.995-5.063c-4.624-0.824-9.385-0.846-14.051-0.223
						c-9.306,1.257-18.447,5.02-25.334,11.518c-1.709,1.621-3.249,3.422-4.529,5.398c-1.286,1.973-2.304,4.111-3.113,6.328
						c-0.819,2.222-1.591,4.462-2.298,6.721c-0.694,2.261-1.363,4.539-1.772,6.86l-0.088,0.499l-0.24-0.445
						c-1.706-3.157-3.723-6.15-6.035-8.896c-2.315-2.74-4.934-5.24-7.889-7.275c-2.948-2.027-6.263-3.588-9.795-4.233
						C325.561,89.684,321.877,90.002,318.492,91.184z M318.426,90.995c3.41-1.204,7.136-1.54,10.701-0.88
						c3.573,0.64,6.927,2.205,9.908,4.239c2.988,2.042,5.634,4.55,7.973,7.3c2.336,2.756,4.376,5.759,6.105,8.931l-0.328,0.055
						c0.406-2.355,1.07-4.641,1.759-6.914c0.702-2.27,1.467-4.517,2.281-6.749c0.808-2.239,1.834-4.415,3.132-6.422
						c1.292-2.011,2.85-3.845,4.575-5.493c6.916-6.634,16.132-10.528,25.55-11.883c4.725-0.672,9.562-0.695,14.288,0.104
						c4.72,0.794,9.328,2.459,13.376,5.083c4.031,2.648,7.398,6.3,9.693,10.558c2.293,4.244,3.475,9.182,2.94,14.051l-0.066,0.6
						l-0.605-0.064c-8.409-0.894-16.858-1.394-25.31-1.485c-4.226-0.043-8.452,0.004-12.675,0.165
						c-2.132,0.053-4.154,0.167-6.07,0.77c-1.885,0.568-3.571,1.73-3.868,3.48l-0.853-0.989l21.461-1.124
						c3.574-0.172,7.152-0.433,10.788-0.415c3.623,0.025,7.323,0.325,10.888,1.428c1.777,0.55,3.507,1.31,5.107,2.3
						c1.597,1,3.043,2.227,4.31,3.605c2.546,2.758,4.344,6.109,5.493,9.625c1.159,3.534,1.595,7.23,1.64,10.885
						c0.032,3.662-0.357,7.29-0.916,10.861l-0.293,1.874l-1.397-1.292c-4.035-3.733-8.486-7.014-13.233-9.79
						c-4.741-2.789-9.797-5.037-15.033-6.718c-5.233-1.685-10.642-2.838-16.115-3.363c-2.729-0.229-5.505-0.371-8.212-0.313
						c-2.664,0.087-5.347,0.59-7.117,2.236l-0.059-1.581c3.207,2.56,7.15,4.101,11.211,5.18c4.075,1.089,8.307,1.759,12.535,2.717
						c8.461,1.919,16.657,5.004,24.272,9.162c1.902,1.042,3.778,2.118,5.607,3.353c1.819,1.237,3.58,2.645,5.061,4.381
						c1.487,1.714,2.625,3.842,3.154,6.075c0.55,2.228,0.625,4.485,0.552,6.674c-0.351,8.711-2.329,17.326-5.798,25.31l-0.686,1.578
						l-1.018-1.386c-4.994-6.8-9.979-13.597-15.71-19.703c-2.851-3.062-5.907-5.921-9.172-8.509
						c-3.267-2.573-6.796-4.812-10.522-6.641c-3.74-1.785-7.667-3.223-11.733-3.974c-2.024-0.429-4.085-0.598-6.141-0.709
						c-2.057-0.02-4.124,0.023-6.156,0.349c-1.031,0.118-2.023,0.303-2.829,0.66c-0.805,0.358-1.371,0.942-1.695,1.745
						c-0.322,0.792-0.385,1.734-0.213,2.622c0.163,0.884,0.59,1.723,1.162,2.496c1.15,1.543,2.846,2.756,4.557,3.928
						c1.721,1.157,3.521,2.2,5.372,3.154c7.428,3.822,15.57,6.157,23.514,9.097c3.978,1.464,7.924,3.099,11.677,5.153
						c3.758,2.038,7.273,4.589,10.286,7.67c1.497,1.551,2.852,3.271,3.907,5.192c1.049,1.916,1.753,4.071,1.933,6.267
						c0.371,4.42-0.953,8.685-2.649,12.579c-3.457,7.838-9.152,14.655-16.245,19.438l-0.485,0.327l-0.305-0.497
						c-3.415-5.57-7.225-10.897-11.379-15.942c-2.08-2.52-4.248-4.968-6.493-7.342c-2.249-2.368-4.541-4.704-7.268-6.403
						c-1.353-0.85-2.813-1.53-4.351-1.852c-1.505-0.318-3.196-0.367-4.558,0.184c-0.673,0.284-1.183,0.778-1.314,1.426
						c-0.146,0.637,0.102,1.366,0.474,2.027c0.377,0.674,0.878,1.276,1.407,1.915l1.561,1.901l12.49,15.205
						c2.061,2.538,4.253,5.021,5.967,7.884c0.858,1.424,1.587,2.95,2.021,4.583c0.456,1.624,0.565,3.362,0.26,5.037
						c-0.299,1.675-1.017,3.258-1.989,4.63c-0.971,1.378-2.17,2.563-3.443,3.625c-2.558,2.125-5.411,3.795-8.153,5.571
						c-5.487,3.549-10.409,7.904-15.482,12.065c-5.055,4.164-10.34,8.219-16.393,10.928l-0.277,0.124l-0.143-0.268
						c-1.939-3.627-4.937-6.572-8.195-9.087c-3.267-2.532-6.811-4.712-10.215-7.12c-3.401-2.393-6.709-5.067-9.275-8.423
						c-2.572-3.33-4.5-7.047-6.941-10.363c-2.378-3.369-5.666-5.926-8.633-8.888c-1.474-1.488-2.884-3.095-3.921-4.975
						c-1.065-1.854-1.673-4-1.738-6.147c-0.121-4.323,1.587-8.488,4.111-11.869c2.524-3.42,5.76-6.162,8.946-8.822l19.181-15.937
						c1.576-1.357,3.299-2.58,4.524-4.083c0.617-0.748,1.08-1.588,1.22-2.442c0.124-0.857-0.1-1.718-0.66-2.377
						c-0.551-0.668-1.378-1.146-2.258-1.383c-0.876-0.244-1.817-0.21-2.759-0.013c-1.877,0.406-3.685,1.425-5.474,2.439
						c-14.341,8.061-25.66,21.342-31.342,36.752l-0.422,1.143l-0.925-0.795c-4.873-4.187-7.619-10.433-8.096-16.72
						c-0.498-6.285,1.243-12.882,5.406-17.788c2.059-2.435,4.556-4.399,7.122-6.142c2.579-1.742,5.217-3.291,7.827-4.896
						l15.692-9.578l3.923-2.395c1.286-0.801,2.666-1.59,3.862-2.398c1.182-0.82,2.28-1.823,2.639-2.971
						c0.166-0.558,0.152-1.179-0.056-1.71c-0.205-0.528-0.614-0.979-1.154-1.326c-1.093-0.694-2.555-0.976-3.97-1.008
						c-0.722-0.017-1.406,0.05-2.163,0.168c-0.744,0.09-1.479,0.239-2.216,0.37c-2.937,0.605-5.8,1.567-8.538,2.822
						c-5.486,2.513-10.434,6.121-15.025,10.097c-4.594,3.993-8.835,8.402-13.024,12.863l-0.757,0.806l-0.332-1.049
						c-0.869-2.743-1.672-5.531-2.172-8.402c-0.492-2.862-0.694-5.841-0.123-8.765c0.543-2.917,2.033-5.699,4.233-7.704
						c2.179-2.03,4.802-3.391,7.379-4.648l15.505-7.453c2.575-1.248,5.189-2.469,7.731-3.74c1.258-0.65,2.469-1.384,3.515-2.297
						c1.036-0.915,1.862-2.058,2.217-3.371l0.166,0.388c-1.56-0.879-3.334-1.345-5.132-1.432c-1.802-0.086-3.617,0.182-5.377,0.643
						c-3.533,0.934-6.833,2.608-10.029,4.419c-6.426,3.596-12.59,7.66-18.451,12.12l-0.272,0.207l-0.034-0.339
						c-0.488-4.923-0.059-9.921,1.169-14.704c1.211-4.791,3.198-9.368,5.732-13.597c2.538-4.232,5.645-8.116,9.178-11.555
						C309.757,95.781,313.731,92.64,318.426,90.995z"/>
				</g>
				<g>
					<path style="fill:#2E2F2E;" d="M254.44,165.126c-6.099-5.953-12.49-11.32-19.388-16.157c-3.437-2.412-6.973-4.682-10.594-6.803
						c-1.808-1.054-3.652-2.045-5.607-2.71c-1.948-0.677-4.009-0.938-6.073-0.874c-4.137,0.141-8.201,1.356-12.167,2.622
						c-3.963,1.322-7.794,3.025-11.459,5.023c-7.339,3.987-13.927,9.32-19.415,15.591l-0.493-1.03
						c8.096-0.35,16.21-0.295,24.305,0.167c4.052,0.241,8.153,0.657,12.128,1.834c3.942,1.157,7.838,3.209,10.528,6.53l1.003,1.239
						l-1.592,0.015c-6.557,0.063-13.103,0.133-19.61,0.625c-6.5,0.491-12.977,1.408-19.223,3.154
						c-6.2,1.752-12.263,4.458-16.847,8.912c-2.268,2.215-4.134,4.854-5.383,7.751c-1.249,2.891-1.853,6.062-1.553,9.167
						l-1.366-0.657c11.067-7.257,23.622-12.168,36.617-14.566c3.255-0.572,6.532-1.023,9.827-1.286
						c1.647-0.122,3.298-0.227,4.949-0.272c1.665-0.006,3.262-0.148,5.041,0.051c0.88,0.11,1.806,0.342,2.648,0.829
						c0.877,0.52,1.55,1.292,1.936,2.24c0.396,0.923,0.395,2.192-0.242,3.116c-0.612,0.914-1.465,1.385-2.184,1.798
						c-2.857,1.602-5.697,3.211-8.515,4.872c-11.268,6.635-22.17,13.897-32.639,21.741c-1.309,0.98-2.612,1.969-3.905,2.969
						c-1.298,0.999-2.595,1.983-3.763,3.068c-1.169,1.082-2.201,2.288-2.915,3.665c-0.713,1.381-1.126,2.919-1.307,4.488
						c-0.625,6.334,1.746,12.924,6.112,17.599l-0.855,0.229c2.87-11.635,9.749-22.152,19.076-29.591
						c4.625-3.775,9.93-6.687,15.541-8.708c1.392-0.51,2.861-0.973,4.419-1.019c1.542-0.065,3.202,0.487,4.266,1.702
						c0.536,0.594,0.908,1.382,0.944,2.208c0.054,0.821-0.205,1.634-0.605,2.305c-0.809,1.36-2.022,2.321-3.143,3.27
						c-9.063,7.634-18.135,15.268-27.135,22.967c-4.441,3.863-8.773,8.028-11.54,13.214c-1.368,2.578-2.332,5.387-2.683,8.276
						c-0.359,2.88-0.088,5.852,0.991,8.535l-0.737-0.043c3.514-6.482,7.141-12.97,11.733-18.821
						c2.295-2.916,4.838-5.662,7.713-8.043c2.869-2.381,6.083-4.383,9.559-5.784l1.311-0.528l-0.688,1.236
						c-3.255,5.848-6.89,11.486-10.892,16.853c-2.001,2.682-4.089,5.305-6.256,7.852c-2.149,2.54-4.286,5.088-5.923,7.917
						c-1.634,2.797-2.725,5.988-2.283,9.138c0.374,3.156,2.321,5.927,4.147,8.675c3.713,5.491,7.971,10.609,12.671,15.276
						l-0.82-0.137l10.838-5.317l5.419-2.658l2.71-1.329c0.903-0.451,1.824-0.863,2.593-1.356c0.783-0.497,1.378-1.085,1.731-1.853
						c0.361-0.771,0.51-1.687,0.568-2.639c0.081-1.937,0.026-3.947-0.143-5.909c-0.342-3.941-1.168-7.84-2.452-11.579
						c-0.64-1.872-1.402-3.695-2.268-5.475c-0.433-0.902-0.929-1.865-1.168-3.012c-0.11-0.581-0.172-1.162-0.059-1.827
						c0.106-0.639,0.365-1.226,0.735-1.753c0.382-0.516,0.9-0.988,1.591-1.238c0.69-0.258,1.497-0.204,2.139,0.084
						c1.3,0.629,1.883,1.703,2.404,2.609c0.968,1.804,1.838,3.659,2.607,5.555c3.052,7.594,4.396,15.871,3.859,24.049l-1.129-0.994
						c2.468-0.509,4.871-1.365,7.098-2.538c2.21-1.199,4.244-2.723,5.895-4.573c1.599-1.875,2.865-4.061,3.334-6.454
						c0.54-2.373,0.295-4.891-0.258-7.353c-1.188-4.955-3.231-9.786-5.052-14.702c-1.83-4.909-3.503-10.042-3.917-15.431
						c-0.212-2.684-0.116-5.416,0.416-8.098c0.281-1.338,0.669-2.656,1.17-3.936c0.503-1.234,1.134-2.638,2.331-3.696
						c0.59-0.527,1.391-1.005,2.361-1.087c0.954-0.078,1.934,0.302,2.578,0.895c1.283,1.193,1.694,2.592,2.212,3.76
						c1.029,2.434,1.953,4.912,2.775,7.424c3.313,10.036,5.069,20.584,5.164,31.154l-1.423-0.958
						c2.32-0.958,4.497-2.249,6.472-3.812c1.969-1.577,3.668-3.473,5.156-5.512c1.508-2.034,2.636-4.328,3.553-6.677
						c0.927-2.354,1.472-4.849,1.703-7.356c0.16-1.255,0.104-2.515,0.102-3.774c-0.133-1.25-0.212-2.508-0.517-3.73
						c-0.475-2.468-1.395-4.859-2.539-7.124c-2.307-4.563-5.595-8.531-9.246-12.261c-1.795-1.917-3.653-3.959-4.865-6.519
						c-0.311-0.631-0.547-1.304-0.758-1.982c-0.184-0.716-0.322-1.446-0.333-2.176c-0.053-1.458,0.197-2.913,0.78-4.258
						c0.568-1.341,1.469-2.611,2.782-3.463c1.291-0.895,2.977-1.14,4.478-0.866c1.53,0.309,2.838,1.144,3.866,2.126
						c1.044,0.983,1.857,2.117,2.576,3.281c0.717,1.174,1.278,2.4,1.839,3.587c0.551,1.204,1.079,2.419,1.576,3.646
						c0.99,2.456,1.862,4.958,2.613,7.496c1.501,5.076,2.515,10.295,3.018,15.563l-1.239-0.671c5.2-2.696,9.948-6.266,14.002-10.504
						c2.021-2.115,3.889-4.416,5.508-6.826c0.782-1.198,1.416-2.46,1.604-3.778c0.203-1.32-0.032-2.715-0.448-4.071
						c-1.876-5.477-5.078-10.586-9.046-14.872c-3.986-4.295-8.826-7.811-14.182-10.203l-0.312-0.139l-0.055-0.331
						c-0.227-1.375,0.114-2.812,0.819-3.965c0.711-1.159,1.743-2.053,2.882-2.71c1.144-0.65,2.425-1.071,3.754-1.15
						c1.343-0.085,2.65,0.186,3.858,0.638c2.435,0.92,4.475,2.597,6.076,4.558c1.559,1.93,3.026,3.934,4.357,6.031
						c1.331,2.096,2.533,4.28,3.546,6.552c0.505,1.136,0.979,2.288,1.385,3.465l0.143,0.392c0.042,0.087,0.031,0.035-0.005,0.034
						c-0.098,0.021,0.157-0.05,0.3-0.235c0.34-0.415,0.749-0.936,1.103-1.412c2.939-3.882,5.287-8.229,6.623-12.905
						c1.306-4.672,1.794-9.629,1.185-14.452c-0.164-1.203-0.396-2.397-0.728-3.562c-0.336-1.173-0.772-2.277-1.496-3.209
						c-0.715-0.93-1.691-1.654-2.797-2.094c-1.102-0.451-2.296-0.675-3.498-0.773c-2.419-0.166-4.863,0.172-7.251,0.682
						c-2.393,0.513-4.741,1.242-7.058,2.049c-2.316,0.814-4.594,1.738-6.849,2.715c-1.126,0.492-2.246,0.997-3.362,1.514
						l-1.67,0.783C255.618,164.582,255.061,164.864,254.44,165.126z M254.474,164.929c4.289-2.163,8.842-4.273,13.449-5.963
						c2.318-0.838,4.671-1.598,7.084-2.145c2.409-0.543,4.884-0.918,7.387-0.777c1.246,0.087,2.5,0.304,3.684,0.773
						c1.186,0.456,2.27,1.235,3.066,2.245c0.805,1.005,1.295,2.227,1.647,3.41c0.356,1.198,0.608,2.421,0.791,3.653
						c0.68,4.94,0.242,9.981-1.04,14.789c-1.322,4.814-3.719,9.281-6.685,13.256c-0.379,0.512-0.724,0.964-1.162,1.501
						c-0.132,0.139-0.274,0.271-0.47,0.385c-0.185,0.107-0.472,0.226-0.82,0.138c-0.338-0.083-0.572-0.388-0.648-0.583
						c-0.089-0.208-0.121-0.324-0.179-0.472c-0.404-1.147-0.874-2.27-1.375-3.378c-1.004-2.216-2.195-4.348-3.513-6.396
						c-1.318-2.05-2.774-4.013-4.319-5.901c-1.51-1.83-3.423-3.365-5.614-4.174c-1.093-0.403-2.252-0.625-3.369-0.545
						c-1.13,0.072-2.247,0.445-3.233,1.015c-0.981,0.573-1.858,1.351-2.429,2.3c-0.565,0.949-0.81,2.047-0.634,3.111l-0.366-0.47
						c5.533,2.43,10.539,6.019,14.675,10.42c4.126,4.418,7.437,9.587,9.458,15.366c0.461,1.474,0.764,3.088,0.527,4.727
						c-0.229,1.645-0.98,3.107-1.807,4.395c-1.685,2.542-3.57,4.887-5.645,7.089c-4.147,4.39-9.017,8.1-14.369,10.917l-1.112,0.585
						l-0.128-1.257c-0.524-5.154-1.549-10.256-3.047-15.213c-0.749-2.478-1.617-4.92-2.6-7.315c-0.493-1.197-1.016-2.38-1.562-3.553
						c-0.565-1.175-1.103-2.331-1.761-3.389c-0.66-1.056-1.4-2.061-2.271-2.869c-0.864-0.817-1.864-1.41-2.919-1.617
						c-1.06-0.168-2.162-0.016-3.033,0.603c-0.895,0.581-1.588,1.529-2.027,2.594c-0.454,1.061-0.66,2.248-0.614,3.404
						c0.007,0.582,0.122,1.145,0.258,1.696c0.181,0.569,0.376,1.137,0.647,1.68c1.037,2.199,2.742,4.111,4.518,5.994
						c3.664,3.734,7.161,7.915,9.592,12.724c1.215,2.401,2.2,4.947,2.723,7.621c0.328,1.327,0.422,2.687,0.562,4.041
						c0.009,1.358,0.064,2.72-0.103,4.07c-0.247,2.699-0.831,5.373-1.818,7.895c-0.978,2.517-2.186,4.967-3.796,7.15
						c-1.59,2.187-3.413,4.223-5.535,5.927c-2.128,1.69-4.485,3.093-7.01,4.135l-1.408,0.581l-0.015-1.539
						c-0.104-10.351-1.835-20.684-5.09-30.509c-0.808-2.458-1.715-4.884-2.725-7.266c-0.498-1.209-0.973-2.392-1.654-2.988
						c-0.644-0.559-1.357-0.512-2.141,0.177c-0.379,0.336-0.726,0.783-1.015,1.272c-0.291,0.469-0.512,1.061-0.767,1.628
						c-0.454,1.154-0.81,2.349-1.072,3.571c-0.492,2.452-0.594,4.992-0.401,7.521c0.374,5.078,1.952,10.016,3.755,14.888
						c1.79,4.889,3.842,9.735,5.086,14.971c0.581,2.619,0.87,5.445,0.241,8.198c-0.553,2.759-2.007,5.248-3.796,7.325
						c-3.707,4.107-8.791,6.607-14.08,7.689l-1.215,0.249l0.085-1.243c0.54-7.885-0.737-15.892-3.666-23.239
						c-0.739-1.834-1.574-3.629-2.504-5.374c-0.436-0.825-0.981-1.578-1.539-1.821c-0.277-0.115-0.545-0.132-0.801-0.04
						c-0.263,0.09-0.533,0.31-0.749,0.597c-0.953,1.205-0.273,2.999,0.625,4.774c0.884,1.843,1.665,3.744,2.315,5.684
						c1.306,3.88,2.137,7.918,2.466,11.996c0.162,2.047,0.21,4.069,0.11,6.151c-0.073,1.049-0.238,2.159-0.736,3.218
						c-0.492,1.074-1.405,1.938-2.325,2.5c-0.933,0.585-1.862,0.984-2.759,1.428l-2.717,1.313l-5.435,2.626l-10.869,5.252
						l-0.462,0.223l-0.359-0.36c-4.738-4.761-9.022-9.973-12.75-15.557c-0.924-1.399-1.858-2.794-2.661-4.315
						c-0.787-1.514-1.462-3.171-1.641-4.932c-0.227-1.745-0.047-3.527,0.425-5.194c0.47-1.673,1.209-3.239,2.069-4.708
						c1.729-2.944,3.923-5.519,6.091-8.052c2.169-2.522,4.259-5.105,6.255-7.763c3.995-5.312,7.629-10.896,10.886-16.692
						l0.623,0.708c-3.378,1.345-6.511,3.276-9.326,5.592c-2.82,2.316-5.331,5.002-7.607,7.87
						c-4.555,5.754-8.193,12.188-11.728,18.648l-0.417,0.762l-0.32-0.805c-1.127-2.835-1.392-5.95-1.007-8.936
						c0.378-2.997,1.384-5.884,2.801-8.528c2.869-5.318,7.285-9.509,11.758-13.37l27.146-22.965
						c1.128-0.954,2.275-1.893,2.986-3.104c0.74-1.181,0.694-2.721-0.271-3.72c-0.917-1.031-2.329-1.52-3.735-1.457
						c-1.415,0.045-2.822,0.481-4.198,0.993c-5.525,2.01-10.747,4.896-15.296,8.633c-9.201,7.346-15.849,17.814-18.581,29.223
						l-0.217,0.904l-0.638-0.675c-4.597-4.865-7.138-11.67-6.533-18.416c0.18-1.683,0.613-3.366,1.393-4.907
						c0.786-1.545,1.913-2.871,3.135-4.02c1.225-1.156,2.538-2.164,3.827-3.172c1.29-1.014,2.59-2.016,3.896-3.01
						c10.448-7.952,21.34-15.327,32.608-22.078c2.813-1.692,5.666-3.33,8.523-4.934c0.693-0.385,1.301-0.787,1.601-1.259
						c0.302-0.452,0.316-1.012,0.087-1.592c-0.227-0.57-0.688-1.099-1.224-1.409c-0.582-0.335-1.275-0.521-2.016-0.611
						c-1.484-0.171-3.173-0.041-4.78-0.027c-1.623,0.048-3.244,0.155-4.863,0.279c-3.237,0.267-6.457,0.718-9.654,1.287
						c-12.778,2.367-25.062,7.287-35.96,14.347l-1.23,0.797l-0.136-1.454c-0.322-3.441,0.36-6.91,1.717-10.025
						c1.358-3.124,3.362-5.932,5.789-8.29c4.901-4.727,11.234-7.495,17.593-9.275c6.4-1.769,12.981-2.676,19.553-3.153
						c6.578-0.477,13.158-0.526,19.715-0.57l-0.589,1.254c-2.43-3.02-6.003-4.945-9.767-6.064
						c-3.785-1.137-7.783-1.592-11.785-1.854c-8.041-0.519-16.112-0.632-24.168-0.343l-1.454,0.052l0.962-1.083
						c5.635-6.345,12.369-11.712,19.846-15.704c3.734-2.001,7.632-3.699,11.66-5.01c4.031-1.253,8.148-2.423,12.452-2.526
						c2.138-0.042,4.314,0.26,6.335,0.992c2.025,0.718,3.893,1.756,5.702,2.839c3.612,2.175,7.132,4.498,10.551,6.96
						c3.416,2.467,6.734,5.066,9.931,7.808c1.603,1.365,3.172,2.77,4.713,4.203C251.538,161.997,253.056,163.467,254.474,164.929z"
						/>
				</g>
				<path style="fill:none;stroke:#2E2F2E;stroke-miterlimit:10;" d="M302.484,103.054c-0.841-5.801-5.22-10.709-10.539-13.174
					c-5.319-2.465-11.441-2.736-17.234-1.841c-7.258,1.121-14.793,4.528-18.021,11.125c5.326-1.01,11.043-1.089,15.946,1.223
					c4.903,2.313,8.731,7.464,8.217,12.86c-0.042,0.44-0.164,0.951-0.571,1.125c-0.447,0.192-0.934-0.145-1.292-0.473
					c-3.887-3.557-6.393-8.691-11.02-11.211c-4.868-2.651-11.172-1.644-15.712,1.536c-4.541,3.18-7.506,8.201-9.334,13.434
					c4.31-1.527,8.851-2.591,13.42-2.41c4.569,0.181,9.189,1.697,12.547,4.8c1.648,1.523,3.022,3.585,2.918,5.826
					c-0.018,0.38-0.084,0.774-0.302,1.086c-0.609,0.873-1.94,0.654-2.952,0.322c-5.082-1.671-10.054-3.788-15.325-4.701
					c-5.271-0.913-11.042-0.48-15.421,2.592c-1.938,1.36-3.514,3.169-4.973,5.034c-2.971,3.797-5.596,8.033-6.486,12.772"/>
				<path style="fill:none;stroke:#2E2F2E;stroke-miterlimit:10;" d="M233.173,147.485c4.932-0.973,9.981-1.354,15.004-1.134
					c1.059,0.046,2.155,0.13,3.083,0.641c0.928,0.51,1.641,1.566,1.422,2.602c-0.295,1.399-1.954,1.971-3.363,2.212
					c-3.056,0.523-6.178,0.666-9.269,0.424"/>
				<path style="fill:none;stroke:#2E2F2E;stroke-miterlimit:10;" d="M288.387,157.834c-1.279-4.252-4.174-7.997-7.968-10.304
					c-1.109-0.674-2.546-1.224-3.653-0.547c-0.75,0.459-1.113,1.382-1.128,2.261c-0.015,0.879,0.262,1.733,0.536,2.569
					c0.507,1.545,1.015,3.09,1.522,4.635"/>
				<g>
					<path style="fill:#2E2F2E;" d="M131.617,203.592c-0.978-1.579-2.534-2.769-4.312-3.278c-1.782-0.519-3.684-0.451-5.514-0.152
						c-3.674,0.647-7.152,2.134-10.595,3.566c-3.419,1.506-6.757,3.223-9.821,5.355c-3.072,2.115-5.856,4.636-8.223,7.498
						l-0.23-0.537c3.515,0.194,6.88,1.757,9.464,4.123c2.587,2.363,4.462,5.587,4.979,9.121l0.091,0.624l-0.64-0.029l-7.498-0.341
						c-2.502-0.11-4.99-0.254-7.448-0.164c-4.909,0.133-9.663,1.657-13.939,4.048c-4.293,2.385-8.076,5.615-11.483,9.193
						c-3.425,3.575-6.468,7.52-9.583,11.431l-1.185-1.297c6.511-4.21,14.076-6.72,21.786-7.318c1.928-0.133,3.865-0.191,5.797-0.086
						c0.484,0.008,0.965,0.07,1.447,0.103c0.483,0.047,0.946,0.055,1.507,0.168c0.533,0.122,1.147,0.275,1.694,0.84
						c0.572,0.559,0.647,1.558,0.352,2.159c-0.26,0.615-0.648,1.033-0.998,1.389c-0.352,0.342-0.688,0.702-1.06,1.021
						c-0.719,0.668-1.492,1.269-2.278,1.846c-1.579,1.147-3.275,2.104-5.009,2.953c-6.973,3.389-14.571,4.711-21.449,7.752
						c-3.439,1.498-6.67,3.487-9.281,6.165c-1.295,1.338-2.441,2.826-3.325,4.46c-0.864,1.642-1.465,3.421-1.714,5.255l-0.579-0.369
						c4.4-2.746,9.146-4.928,14.084-6.5c4.937-1.577,10.068-2.518,15.236-2.862l0.585-0.039l-0.299,0.507
						c-0.931,1.582-2.345,2.841-3.918,3.728c-1.577,0.898-3.29,1.481-5.003,1.962c-3.424,0.966-6.958,1.485-10.154,2.88
						c-1.59,0.703-3.104,1.58-4.492,2.633c-1.38,1.063-2.635,2.283-3.769,3.605c-2.235,2.674-3.962,5.772-5.057,9.077
						c-2.222,6.631-1.816,13.922,0.16,20.589c0.998,3.347,2.373,6.584,4.04,9.653c0.832,1.521,1.772,2.976,2.963,4.136
						c1.174,1.179,2.662,1.932,4.255,2.11c1.596,0.159,3.245-0.234,4.76-0.952c1.526-0.704,2.942-1.691,4.264-2.788
						c2.621-2.264,5.068-4.799,7.299-7.492c4.484-5.39,8.288-11.335,12.113-17.285c3.81-5.957,7.697-11.955,12.335-17.419
						c4.597-5.467,10.07-10.389,16.54-13.725l-0.381,0.329c0.07-0.115,0.085-0.164,0.072-0.29c-0.014-0.124-0.088-0.317-0.222-0.517
						c-0.274-0.405-0.733-0.809-1.218-1.099c-1.096-0.602-2.413-1.123-3.679-1.506c-2.577-0.766-5.311-1.008-7.978-0.699
						l-2.34,0.271l1.353-1.921c2.951-4.19,7.405-7.224,12.353-8.493c1.233-0.303,2.504-0.532,3.822-0.569
						c1.305-0.031,2.615,0.108,3.895,0.443c1.274,0.343,2.541,0.87,3.637,1.735c1.093,0.855,1.988,2.067,2.41,3.436l-1.563-0.538
						c3.501-2.445,6.642-5.415,9.262-8.791c1.32-1.697,2.519-3.429,3.305-5.338c0.786-1.884,1.232-3.942,0.781-5.766
						c-0.435-1.833-1.888-3.229-3.75-3.933c-1.865-0.736-3.995-0.924-6.131-0.997c-4.266-0.118-8.559,0.534-12.604,1.924
						l-2.851,0.98l1.968-2.273c2.098-2.424,4.919-4.07,7.838-5.109c2.936-1.045,5.999-1.555,9.046-1.794
						c3.024-0.211,6.172-0.354,9.21,0.557c1.511,0.449,2.946,1.21,4.137,2.263c1.189,1.047,2.145,2.424,2.55,3.995l-0.709-0.228
						c3.543-2.863,6.753-6.147,9.544-9.76c0.698-0.903,1.366-1.829,2.013-2.77c0.657-0.943,1.255-1.887,1.633-2.943
						c0.365-1.04,0.521-2.198,0.112-3.206c-0.382-1.021-1.335-1.715-2.351-2.138c-2.094-0.857-4.445-0.372-6.692-0.06
						c-1.138,0.16-2.292,0.297-3.458,0.26c-1.16-0.038-2.347-0.277-3.373-0.864c-1.035-0.568-1.868-1.447-2.486-2.429
						c-0.624-0.985-1.068-2.06-1.464-3.14C133.41,207.778,132.829,205.532,131.617,203.592z M131.786,203.484
						c1.249,1.969,1.848,4.227,2.653,6.36c0.779,2.11,1.842,4.305,3.861,5.388c1.998,1.116,4.406,0.845,6.631,0.516
						c1.132-0.164,2.266-0.375,3.431-0.439c1.156-0.062,2.362,0.021,3.468,0.472c1.076,0.436,2.154,1.191,2.604,2.357
						c0.468,1.15,0.302,2.417-0.059,3.528c-0.375,1.121-0.999,2.144-1.633,3.093c-0.635,0.962-1.292,1.911-1.979,2.837
						c-2.75,3.705-5.935,7.094-9.475,10.07l-0.52,0.437l-0.19-0.665c-0.786-2.752-3.378-4.721-6.131-5.462
						c-2.807-0.783-5.829-0.602-8.799-0.327c-2.967,0.295-5.91,0.857-8.654,1.9c-2.739,1.035-5.255,2.622-7.112,4.805l-0.884-1.293
						c4.213-1.507,8.698-2.248,13.181-2.18c2.22,0.054,4.529,0.198,6.768,1.041c1.109,0.422,2.204,1.042,3.093,1.939
						c0.895,0.884,1.554,2.025,1.869,3.244c0.631,2.468,0.058,4.916-0.819,7.032c-0.882,2.15-2.203,4.049-3.56,5.801
						c-2.738,3.543-6.02,6.659-9.686,9.231l-1.137,0.797l-0.426-1.335c-0.305-0.954-0.908-1.78-1.72-2.422
						c-0.813-0.644-1.833-1.077-2.896-1.359c-1.067-0.278-2.195-0.398-3.316-0.369c-1.11,0.032-2.241,0.236-3.363,0.513
						c-4.46,1.151-8.505,3.924-11.142,7.69l-0.987-1.649c2.959-0.349,5.978-0.087,8.831,0.754c1.441,0.44,2.772,0.966,4.155,1.733
						c0.72,0.446,1.362,0.984,1.886,1.752c0.253,0.39,0.482,0.858,0.551,1.44c0.081,0.579-0.103,1.259-0.444,1.722l-0.161,0.218
						l-0.22,0.112c-6.161,3.135-11.463,7.825-15.983,13.145c-4.561,5.314-8.432,11.208-12.275,17.147
						c-3.844,5.935-7.74,11.918-12.392,17.359c-2.317,2.729-4.829,5.278-7.591,7.609c-1.412,1.143-2.934,2.185-4.634,2.947
						c-1.681,0.77-3.601,1.232-5.539,1.015c-1.933-0.228-3.749-1.206-5.053-2.555c-1.333-1.333-2.308-2.906-3.154-4.491
						c-1.674-3.17-3.042-6.497-4.027-9.946c-1.95-6.867-2.282-14.384,0.1-21.217c1.173-3.398,2.991-6.568,5.329-9.295
						c1.184-1.352,2.501-2.583,3.926-3.679c1.437-1.082,3.007-1.982,4.655-2.701c3.326-1.428,6.88-1.925,10.259-2.866
						c1.69-0.465,3.357-1.028,4.863-1.877c1.504-0.841,2.823-2.009,3.703-3.485l0.286,0.469c-5.121,0.292-10.195,1.296-15.071,2.876
						c-4.875,1.585-9.554,3.772-13.883,6.51l-0.683,0.432l0.104-0.801c0.25-1.934,0.872-3.809,1.766-5.532
						c0.909-1.717,2.071-3.287,3.396-4.696c2.662-2.818,5.991-4.932,9.48-6.516c6.994-3.21,14.576-4.657,21.263-8.044
						c1.663-0.845,3.274-1.787,4.753-2.896c0.736-0.557,1.457-1.135,2.12-1.771c0.633-0.622,1.432-1.333,1.638-1.872
						c0.097-0.265,0.05-0.366-0.057-0.495c-0.114-0.136-0.462-0.279-0.845-0.346c-0.372-0.074-0.862-0.086-1.325-0.122
						c-0.465-0.025-0.929-0.078-1.396-0.08c-1.863-0.092-3.729-0.027-5.588,0.11c-7.432,0.611-14.715,3.07-20.949,7.143l-4.468,2.92
						l3.283-4.217c3.072-3.947,6.237-7.873,9.756-11.511c3.516-3.627,7.458-6.942,11.95-9.386c2.241-1.217,4.603-2.247,7.075-2.932
						c2.463-0.704,5.043-1.052,7.587-1.087c2.547-0.042,5.058,0.156,7.55,0.314l7.489,0.489l-0.549,0.595
						c-0.829-6.572-6.741-12.227-13.447-12.732l-0.65-0.049l0.42-0.488c2.465-2.868,5.337-5.368,8.478-7.444
						c3.121-2.109,6.482-3.829,9.93-5.314c1.728-0.735,3.479-1.412,5.246-2.045c1.77-0.628,3.582-1.163,5.445-1.47
						c1.856-0.29,3.796-0.349,5.626,0.197C129.199,200.619,130.802,201.866,131.786,203.484z"/>
				</g>
				<g>
					<polygon style="fill:#2E2F2E;" points="300.53,159.886 300.425,172.843 299.53,159.916 					"/>
				</g>
				<g>
					<polygon style="fill:#2E2F2E;" points="303.383,157.196 303.702,169.957 302.386,157.271 					"/>
				</g>
				<g>
					<polygon style="fill:#2E2F2E;" points="332.098,252.506 323.021,264.092 331.29,251.917 					"/>
				</g>
				<g>
					<g>
						<path style="fill:#2E2F2E;" d="M271.601,222.151c0.789,1.779,1.526,3.588,2.249,5.406c0.626,1.847,1.207,3.714,1.777,5.585
							c0.486,1.891,0.934,3.794,1.373,5.699c0.366,1.918,0.683,3.846,0.959,5.778l0.517,5.83c0.099,1.948,0.211,3.891,0.374,5.827
							c0.124,1.94,0.284,3.876,0.474,5.81c0.143,1.937,0.377,3.869,0.556,5.806c0.386,3.871,0.697,7.747,0.907,11.624
							c0.22,3.876,0.47,7.745,0.633,11.616c0.313,7.742,0.642,15.459,1.135,23.225l-0.198,0.029
							c-1.745-7.602-2.585-15.385-3.067-23.145c-0.217-3.883-0.301-7.769-0.382-11.65c-0.093-3.88-0.119-7.759-0.12-11.641
							c-0.043-1.938-0.052-3.88-0.14-5.817c-0.103-1.936-0.262-3.868-0.442-5.798c-0.227-1.925-0.531-3.841-0.834-5.754
							l-1.056-5.707c-0.39-1.891-0.745-3.786-1.051-5.691c-0.4-1.885-0.779-3.774-1.14-5.671c-0.453-1.873-0.884-3.754-1.291-5.647
							c-0.499-1.866-0.984-3.741-1.418-5.645L271.601,222.151z"/>
					</g>
					<g>
						<path style="fill:#2E2F2E;" d="M275.622,217.709c3.823,7.504,6.728,15.473,8.767,23.646c0.941,4.111,1.613,8.272,2.382,12.402
							l2.304,12.399c1.511,8.278,2.166,16.747,2.353,25.125c0.188,8.372,0.291,16.696,2.035,24.922l-0.192,0.056
							c-2.983-7.938-3.626-16.558-3.975-24.909c-0.152-4.198-0.205-8.371-0.422-12.539c-0.247-4.167-0.525-8.335-0.883-12.508
							c-0.401-4.166-0.967-8.324-1.854-12.417c-0.911-4.09-2.146-8.099-3.354-12.098l-3.575-12.009l-3.769-11.993L275.622,217.709z"
							/>
					</g>
					<g>
						<path style="fill:#2E2F2E;" d="M300.697,209.602c0.415,4.413,0.649,8.833,0.763,13.254c0.112,4.421,0.148,8.844-0.021,13.264
							c-0.197,4.42-0.571,8.833-0.753,13.249c-0.19,4.416-0.174,8.835-0.272,13.269c-0.079,4.431-0.392,8.891-1.128,13.29
							c-0.719,4.395-1.646,8.735-2.633,13.032c-1.005,4.293-1.969,8.572-2.693,12.89c-0.709,4.319-1.069,8.69-0.937,13.111
							l-0.199,0.022c-0.798-4.373-0.811-8.888-0.427-13.331c0.417-4.447,1.26-8.827,2.174-13.156
							c0.939-4.325,2.02-8.593,2.863-12.896c0.836-4.298,1.426-8.643,1.887-13.029c0.444-4.385,0.679-8.801,0.716-13.218
							c0.035-4.417-0.173-8.838-0.263-13.253c-0.064-4.415,0.026-8.828,0.136-13.243c0.109-4.415,0.284-8.831,0.587-13.252
							L300.697,209.602z"/>
					</g>
					<g>
						<path style="fill:#2E2F2E;" d="M304.127,200.782c0.778,6.61,1.293,13.233,1.68,19.864c0.185,3.315,0.373,6.631,0.438,9.952
							c0.07,3.321,0.054,6.645,0.071,9.967c-0.027,6.647,0.237,13.281,0.666,19.913c0.424,6.632,0.8,13.269,0.956,19.912
							l-1.722-0.599c2.26-2.834,4.261-5.862,6.069-8.997c1.806-3.138,3.377-6.41,4.721-9.78c1.335-3.374,2.421-6.85,3.278-10.394
							c0.835-3.549,1.415-7.169,1.761-10.832l0.2,0.006c0.133,3.69-0.126,7.405-0.72,11.072c-0.572,3.672-1.506,7.295-2.745,10.811
							c-1.23,3.521-2.791,6.932-4.639,10.179c-1.846,3.25-4.021,6.308-6.422,9.165l-1.697,2.019l-0.025-2.618
							c-0.062-6.634-0.006-13.273,0.021-19.915c0.033-6.642-0.176-13.279-0.728-19.901c-0.248-3.312-0.538-6.622-0.75-9.935
							c-0.221-3.313-0.326-6.63-0.44-9.948c-0.214-6.636-0.324-13.277-0.172-19.931L304.127,200.782z"/>
					</g>
					<g>
						<path style="fill:#2E2F2E;" d="M326.747,246.002c0.034,2.666-0.156,5.31-0.457,7.948c-0.314,2.635-0.744,5.27-1.474,7.838
							c-0.734,2.57-1.793,5.039-2.788,7.497c-1.008,2.456-2.016,4.914-3.241,7.301c-0.596,1.202-1.287,2.362-2.024,3.493
							c-0.754,1.117-1.574,2.164-2.363,3.207c-1.606,2.075-2.895,4.208-3.992,6.539c-1.146,2.311-2.02,4.727-3.062,7.208
							c-0.536,1.233-1.147,2.475-1.99,3.579c-0.823,1.107-1.939,2.048-3.207,2.523l-0.092-0.178
							c1.072-0.763,1.867-1.768,2.438-2.897c0.583-1.121,0.995-2.333,1.373-3.571c0.707-2.496,1.495-5.103,2.608-7.569
							c0.575-1.228,1.209-2.444,1.979-3.582c0.765-1.146,1.619-2.203,2.474-3.224c1.724-2.04,3.433-3.937,4.919-6.091
							c1.485-2.142,2.72-4.485,3.573-6.967c0.871-2.48,1.296-5.089,1.776-7.656c0.49-2.567,1.034-5.124,1.563-7.699
							c0.543-2.572,1.065-5.16,1.788-7.727L326.747,246.002z"/>
					</g>
					<g>
						<path style="fill:#2E2F2E;" d="M336.931,256.728c-2.231,5.563-5.52,10.642-9.166,15.325c-0.942,1.153-1.913,2.281-2.871,3.417
							c-0.967,1.129-1.928,2.263-2.828,3.441c-1.808,2.349-3.434,4.836-4.896,7.408c-1.464,2.572-2.842,5.174-4.137,7.798
							c-1.313,2.63-2.334,5.324-3.431,8.1c-1.111,2.753-2.462,5.576-4.304,7.99c-1.818,2.43-3.895,4.603-6.132,6.581l-0.148-0.134
							c1.742-2.42,3.501-4.8,4.967-7.317c1.505-2.501,2.61-5.123,3.632-7.902c1.032-2.761,2.279-5.564,3.744-8.181
							c0.691-1.338,1.502-2.602,2.294-3.874c0.84-1.241,1.694-2.471,2.598-3.66c1.769-2.406,3.599-4.748,5.288-7.192
							c1.691-2.443,3.244-4.989,4.88-7.461c1.668-2.451,3.423-4.82,5.162-7.207l5.17-7.227L336.931,256.728z"/>
					</g>
					<g>
						<polygon style="fill:#2E2F2E;" points="154.132,221.845 159.727,224.492 159.193,225.337 						"/>
					</g>
					<g>
						<polygon style="fill:#2E2F2E;" points="152.762,224.448 158.04,227.453 157.461,228.268 						"/>
					</g>
					<g>
						<polygon style="fill:#2E2F2E;" points="169.008,235.281 177.547,241.006 176.939,241.799 						"/>
					</g>
					<g>
						<path style="fill:#2E2F2E;" d="M171.031,231.958c2.937,2.437,6.073,4.611,9.359,6.494l-0.535,0.845
							C176.699,237.101,173.744,234.642,171.031,231.958z"/>
					</g>
					<g>
						<path style="fill:#2E2F2E;" d="M226.022,285.304c8.076,9.488,16.239,19.086,22.597,29.848
							c-6.926-10.406-15.515-19.468-24.085-28.512L226.022,285.304z"/>
					</g>
					<g>
						<path style="fill:#2E2F2E;" d="M229.404,280.802c10.95,10.348,20.547,22.061,28.501,34.756
							c-8.512-12.328-18.572-23.533-29.842-33.272L229.404,280.802z"/>
					</g>
				</g>
				<path style="fill:#2E2F2E;" d="M354.415,136c0.17,8.227,1.624,16.543,2.01,24.756c1.491,31.721,2.02,63.487,1.585,95.24
					c0.201-14.823-0.036-30.271,1.81-44.969c0.884-7.038,0.082-14.585-0.054-21.716c-0.14-7.374-0.421-14.76-0.421-22.135
					c-0.183-9.635-0.368-19.281-1.193-28.887c-0.411-4.788-0.978-9.565-1.784-14.304c-0.603-3.543-0.953-8.574-3.198-11.568
					c-0.042-0.057-0.311,3.471-0.278,3.844c0.183,2.021,0.334,4.044,0.502,6.066c0.335,4.042,0.669,8.083,1.004,12.125
					C354.399,134.968,354.404,135.484,354.415,136z"/>
				<g>
					<g>
						<path style="fill:#2E2F2E;" d="M355.993,124.463c-0.456,0.839-1.062,1.408-1.671,1.907c-0.616,0.493-1.259,0.901-1.917,1.269
							c-1.303,0.722-2.714,1.321-4.116,1.72c-2.743,0.847-5.503,1.611-8.261,2.355c-5.516,1.485-11.032,2.897-16.412,4.726
							c-5.375,1.821-10.601,4.129-15.367,7.23c-4.746,3.097-9.009,7.055-12.047,11.902c2.891-4.936,7.062-9.057,11.761-12.326
							c4.714-3.274,9.94-5.771,15.308-7.77c5.373-2.008,10.88-3.594,16.335-5.239c2.728-0.824,5.445-1.665,8.129-2.582
							c1.331-0.421,2.55-0.977,3.727-1.663c1.134-0.667,2.287-1.539,2.743-2.426L355.993,124.463z"/>
					</g>
					<g>
						<path style="fill:#2E2F2E;" d="M356.382,149.571c-10.534,4.468-20.662,9.972-29.972,16.677
							c-9.301,6.699-17.78,14.63-24.762,23.794c6.713-9.362,14.994-17.58,24.165-24.597c9.18-7.024,19.242-12.879,29.761-17.704
							L356.382,149.571z"/>
					</g>
					<g>
						<path style="fill:#2E2F2E;" d="M359.07,177.845c-8.722,4.598-17.203,9.733-24.699,16.155
							c-7.465,6.399-13.96,14.141-18.092,23.179c3.825-9.173,10.1-17.206,17.429-23.927c7.356-6.745,15.768-12.233,24.4-17.16
							L359.07,177.845z"/>
					</g>
					<g>
						<path style="fill:#2E2F2E;" d="M359.685,186.382c-15.556,10.468-28.076,25.58-35.497,43.013
							c6.803-17.684,18.855-33.411,34.351-44.652L359.685,186.382z"/>
					</g>
					<g>
						<path style="fill:#2E2F2E;" d="M359.848,194.234c-5.342,7.558-10.648,15.133-15.069,23.239
							c-4.411,8.08-7.923,16.773-9.269,25.965c1.012-9.234,4.229-18.127,8.383-26.427c4.161-8.328,9.232-16.151,14.302-23.901
							L359.848,194.234z"/>
					</g>
					<g>
						<path style="fill:#2E2F2E;" d="M359.619,208.098c-3.811,6.717-7.586,13.441-10.575,20.535
							c-2.982,7.072-5.157,14.583-5.466,22.33c-0.028-7.752,1.833-15.432,4.536-22.698c2.707-7.289,6.223-14.236,9.744-21.117
							L359.619,208.098z"/>
					</g>
					<g>
						<path style="fill:#2E2F2E;" d="M353.811,116.345c-16.641-5.25-35.416-3.927-51.357,3.799
							c15.638-8.32,34.585-10.472,51.922-5.717L353.811,116.345z"/>
					</g>
					<g>
						<path style="fill:#2E2F2E;" d="M353.379,114.795c2.732-4.488,6.305-8.411,10.382-11.642c4.08-3.233,8.664-5.79,13.509-7.603
							c9.714-3.631,20.299-4.321,30.416-2.84c-10.16-1.153-20.644-0.101-30.05,3.771c-4.689,1.931-9.076,4.574-12.924,7.833
							c-3.846,3.256-7.15,7.142-9.608,11.494L353.379,114.795z"/>
					</g>
					<g>
						<path style="fill:#2E2F2E;" d="M354.2,114.677c12.449-1.809,25.124-2.63,37.673-1.405c12.513,1.222,24.922,4.53,35.919,10.608
							c-11.155-5.782-23.572-8.729-36.003-9.612c-12.468-0.883-24.984,0.263-37.275,2.383L354.2,114.677z"/>
					</g>
					<g>
						<path style="fill:#2E2F2E;" d="M356.169,130.175c12.465,4.934,25.89,7.261,38.775,11.486
							c6.438,2.116,12.74,4.763,18.527,8.312c5.772,3.536,11.025,8.048,14.883,13.615c-3.995-5.47-9.328-9.819-15.139-13.186
							c-5.827-3.378-12.135-5.846-18.571-7.787c-12.891-3.884-26.344-5.861-39.188-10.571L356.169,130.175z"/>
					</g>
					<g>
						<path style="fill:#2E2F2E;" d="M358.454,163.678c5.458,2.58,10.62,5.677,15.628,8.951c5,3.295,9.901,6.683,14.799,10.111
							c4.881,3.444,9.677,7.048,14.085,11.099c4.419,4.029,8.384,8.584,11.524,13.662c-3.282-4.989-7.353-9.407-11.857-13.29
							c-4.494-3.904-9.358-7.351-14.318-10.647c-4.972-3.277-9.982-6.537-15.036-9.669c-5.065-3.114-10.247-6.025-15.652-8.397
							L358.454,163.678z"/>
					</g>
					<g>
						<path style="fill:#2E2F2E;" d="M359.441,175.963c3.477,1.441,6.864,3.074,10.135,4.896c1.637,0.908,3.243,1.868,4.82,2.868
							c1.528,1.021,3.281,1.933,4.309,3.532c-1.161-1.49-2.939-2.213-4.558-3.098c-1.652-0.85-3.323-1.657-5.018-2.407
							c-3.386-1.506-6.852-2.809-10.37-3.91L359.441,175.963z"/>
					</g>
					<g>
						<path style="fill:#2E2F2E;" d="M359.657,185.795c12.578,11.942,22.82,26.235,30.054,41.859
							c-7.833-15.332-18.564-29.104-31.403-40.382L359.657,185.795z"/>
					</g>
					<g>
						<path style="fill:#2E2F2E;" d="M359.646,194.751c11.826,12.341,20.393,27.641,24.73,43.996
							c-4.978-16.172-14.09-30.959-26.146-42.585L359.646,194.751z"/>
					</g>
					<g>
						<path style="fill:#2E2F2E;" d="M359.87,208.003c8.141,11.105,13.443,24.159,15.365,37.626
							c-2.58-13.357-8.483-25.971-16.949-36.405L359.87,208.003z"/>
					</g>
				</g>
				<path style="fill:#2E2F2E;" d="M209.517,229.88c-3.659,6.135-7.184,12.359-10.219,18.826
					c-5.041,10.744-8.706,22.134-10.876,33.802c5.417-21.239,17.128-40.242,28.677-58.872c2.829-4.564,5.658-9.127,8.487-13.691
					c9.335-15.09,18.983-29.604,30.673-42.982c-7.987,4.84-13.387,13.961-18.917,21.354c-6.385,8.538-12.486,17.288-18.288,26.232
					C215.78,219.6,212.6,224.711,209.517,229.88z"/>
				<g>
					<g>
						<g>
							<path style="fill:#2E2F2E;" d="M196.591,150.818c19.66,0.964,39.025,8.754,54.004,21.878l-1.343,1.482
								C235.066,160.869,216.206,152.447,196.591,150.818z"/>
						</g>
						<g>
							<path style="fill:#2E2F2E;" d="M165.736,185.902c11.486-6.407,24.579-9.889,37.781-10.351
								c13.201-0.466,26.584,2.081,38.646,7.735l-0.871,1.8C218.044,173.464,189.052,173.674,165.736,185.902z"/>
						</g>
						<g>
							<path style="fill:#2E2F2E;" d="M169.775,223.712c4.276-3.944,8.66-7.783,13.295-11.32c4.633-3.535,9.525-6.766,14.744-9.428
								c5.217-2.659,10.768-4.722,16.54-5.93c5.764-1.207,11.768-1.537,17.662-0.66l-0.321,1.974
								c-5.603-0.999-11.407-0.857-17.055,0.158c-5.655,1.015-11.165,2.88-16.385,5.355c-5.226,2.479-10.174,5.545-14.888,8.933
								C178.651,216.183,174.162,219.892,169.775,223.712z"/>
						</g>
						<g>
							<path style="fill:#2E2F2E;" d="M170.222,254.052c12.054-13.954,27.514-25.048,44.755-32.028l0.717,1.867
								C198.514,230.133,182.773,240.543,170.222,254.052z"/>
						</g>
						<g>
							<path style="fill:#2E2F2E;" d="M171.214,276.517c6.897-10.183,16.134-18.861,26.875-25.158l0.965,1.752
								C188.256,258.678,178.653,266.723,171.214,276.517z"/>
						</g>
						<g>
							<path style="fill:#2E2F2E;" d="M176.2,288.186c4.212-9.614,10.148-18.533,17.486-26.201l1.401,1.428
								C187.45,270.439,181.014,278.859,176.2,288.186z"/>
						</g>
					</g>
					<g>
						<path style="fill:#2E2F2E;" d="M249.311,172.607c2.699-1.625,5.565-2.944,8.535-3.929c2.971-0.978,6.038-1.635,9.134-1.939
							c1.546-0.164,3.102-0.208,4.652-0.195c1.546,0.011,3.113,0.131,4.637,0.44c1.525,0.302,3.023,0.799,4.373,1.574
							c0.669,0.398,1.29,0.87,1.845,1.41c0.542,0.556,0.994,1.187,1.357,1.864c-0.4-0.657-0.882-1.257-1.444-1.773
							c-0.575-0.502-1.207-0.93-1.879-1.282c-1.358-0.684-2.838-1.087-4.338-1.301c-1.503-0.22-3.02-0.255-4.543-0.183
							c-1.52,0.07-3.037,0.195-4.536,0.437c-3.001,0.46-5.939,1.26-8.749,2.358c-2.809,1.104-5.483,2.518-7.963,4.201
							L249.311,172.607z"/>
					</g>
					<g>
						<path style="fill:#2E2F2E;" d="M241.406,183.023c3.655,0.27,7.191,1.387,10.357,3.1c3.169,1.715,5.989,4.02,8.304,6.735
							c4.638,5.451,7.23,12.336,8.062,19.279c-1.158-6.897-4.073-13.563-8.808-18.612c-2.357-2.512-5.166-4.586-8.241-6.065
							c-3.071-1.479-6.421-2.352-9.777-2.439L241.406,183.023z"/>
					</g>
					<g>
						<path style="fill:#2E2F2E;" d="M227.061,205.483c13.553,11.892,20.75,30.276,19.041,47.885
							c1.046-17.662-6.856-35.42-20.331-46.356L227.061,205.483z"/>
					</g>
					<g>
						<path style="fill:#2E2F2E;" d="M208.05,236.709c2.816,6.622,5.617,13.317,7.565,20.296c1.947,6.951,2.991,14.269,2.079,21.432
							c0.577-7.199-0.798-14.368-3.035-21.142c-2.243-6.8-5.314-13.285-8.43-19.761L208.05,236.709z"/>
					</g>
					<g>
						<path style="fill:#2E2F2E;" d="M194.929,263.389c3.541,9.431,4.498,19.708,2.833,29.461c1.005-9.843-0.66-19.853-4.681-28.696
							L194.929,263.389z"/>
					</g>
				</g>
				<path style="fill:#2E2F2E;" d="M110.599,232.076c-13.162,11.466-22.905,26.261-32.477,40.859
					c-9.413,14.355-19.059,29.302-21.605,46.278c6.25-15.836,12.576-31.82,22.152-45.897c2.258-3.32,4.688-6.519,7.135-9.701
					c10.551-13.717,21.633-27.358,35.431-37.967c3.904-3.002,8.013-5.752,12.331-8.125c-3.469,2.142-7.373,3.399-10.883,5.596
					C118.429,225.782,114.384,228.779,110.599,232.076z"/>
				<g>
					<g>
						<path style="fill:#2E2F2E;" d="M121.777,224.279c-1.632-5.448-5.916-10.249-11.48-12.502
							c5.778,1.623,10.875,6.007,13.359,11.816L121.777,224.279z"/>
					</g>
					<g>
						<path style="fill:#2E2F2E;" d="M103.116,240.965c-2.199-1.268-4.647-2.161-7.164-2.864c-2.522-0.704-5.091-1.247-7.694-1.486
							c-2.6-0.236-5.24-0.151-7.806,0.404c-2.56,0.557-5.047,1.582-7.188,3.156c2.038-1.705,4.49-2.908,7.067-3.641
							c2.584-0.732,5.297-0.993,7.986-0.918c2.694,0.077,5.368,0.47,7.993,1.028c2.627,0.56,5.262,1.326,7.749,2.557
							L103.116,240.965z"/>
					</g>
					<g>
						<path style="fill:#2E2F2E;" d="M95.912,247.829c2.225-0.627,4.489-1.207,6.802-1.578c2.31-0.371,4.679-0.528,7.021-0.291
							c2.345,0.238,4.64,0.907,6.691,2.025c2.045,1.113,3.843,2.718,4.99,4.716c-1.291-1.909-3.163-3.339-5.214-4.269
							c-2.057-0.935-4.301-1.41-6.532-1.474c-4.508-0.12-8.881,1.232-13.147,2.775L95.912,247.829z"/>
					</g>
					<g>
						<path style="fill:#2E2F2E;" d="M87.783,260.92c-5.947,1.082-11.886,2.164-17.758,3.551
							c-5.869,1.386-11.679,3.082-17.276,5.376c5.497-2.524,11.257-4.468,17.089-6.103c5.835-1.636,11.749-2.968,17.647-4.294
							L87.783,260.92z"/>
					</g>
					<g>
						<path style="fill:#2E2F2E;" d="M71.903,284.807l-7.509,2.427c-2.503,0.82-4.93,1.832-7.288,2.985
							c-2.342,1.173-4.613,2.527-6.624,4.219c-2.027,1.669-3.767,3.699-5.051,6.015c1.172-2.373,2.83-4.509,4.804-6.298
							c1.957-1.812,4.199-3.297,6.521-4.6c2.336-1.283,4.754-2.427,7.235-3.372l7.469-2.81L71.903,284.807z"/>
					</g>
					<g>
						<path style="fill:#2E2F2E;" d="M67.749,293.215c-9.732,5.275-17.974,13.487-23.334,23.398
							c4.764-10.211,12.59-19.075,22.328-25.127L67.749,293.215z"/>
					</g>
					<g>
						<path style="fill:#2E2F2E;" d="M71.401,283.416c3.14-0.198,6.265-1.017,9.142-2.409c1.444-0.673,2.767-1.628,4.284-2.302
							c1.481-0.667,3.32-0.928,4.758-0.093c-1.498-0.713-3.226-0.313-4.596,0.431c-1.4,0.753-2.653,1.811-4.093,2.626
							c-2.845,1.658-6.032,2.772-9.342,3.24L71.401,283.416z"/>
					</g>
					<g>
						<path style="fill:#2E2F2E;" d="M67.114,291.352c2.13-0.422,4.169,0.48,5.515,1.832c1.403,1.382,2.029,3.306,2.096,5.109
							c0.077,1.825-0.37,3.601-1.076,5.201c-0.704,1.61-1.642,3.073-2.606,4.505c0.822-1.518,1.61-3.063,2.138-4.684
							c0.534-1.613,0.775-3.311,0.547-4.936c-0.219-1.614-0.928-3.14-2.114-4.09c-1.167-0.971-2.756-1.404-4.028-0.993
							L67.114,291.352z"/>
					</g>
					<g>
						<path style="fill:#2E2F2E;" d="M120.264,224.209c4.1-1.512,8.505-2.052,12.769-1.579c2.128,0.233,4.238,0.695,6.22,1.497
							c1.974,0.801,3.818,1.984,5.186,3.595c-1.493-1.497-3.383-2.5-5.357-3.125c-1.981-0.625-4.054-0.908-6.119-0.969
							c-4.132-0.131-8.253,0.729-11.931,2.428L120.264,224.209z"/>
					</g>
				</g>
				<path style="fill:#2E2F2E;" d="M292.551,120.668c-14.833,10.672-28.875,25.357-38.02,41.178
					c9.536-14.126,22.991-27.532,36.943-37.32L292.551,120.668z"/>
				<g>
					<g>
						<path style="fill:#2E2F2E;" d="M279.96,93.895c1.3,0.581,2.393,1.572,3.262,2.704c0.87,1.138,1.557,2.412,2.122,3.721
							c1.183,2.607,1.962,5.389,2.47,8.21c0.522,2.823,0.732,5.69,0.837,8.547c0.093,2.859,0.041,5.714-0.029,8.555l-1.997-0.11
							c0.235-2.819,0.451-5.63,0.525-8.44c0.062-2.807,0.022-5.621-0.326-8.404c-0.334-2.781-0.933-5.541-1.943-8.168
							c-0.48-1.321-1.077-2.601-1.863-3.766C282.234,95.589,281.223,94.552,279.96,93.895z"/>
					</g>
					<g>
						<path style="fill:#2E2F2E;" d="M254.891,109.446c5.953,0.401,11.823,2.582,16.656,6.247
							c4.832,3.666,8.595,8.791,10.652,14.603l-1.903,0.616c-1.616-5.536-4.907-10.638-9.376-14.439
							C266.452,112.672,260.812,110.179,254.891,109.446z"/>
					</g>
					<g>
						<path style="fill:#2E2F2E;" d="M233.458,136.676c2.984-1.151,6.159-1.796,9.355-2.089c3.201-0.293,6.427-0.248,9.633-0.022
							c3.207,0.234,6.433,0.691,9.567,1.661c3.121,0.964,6.17,2.497,8.648,4.812l-1.4,1.428c-2.095-2.175-4.813-3.75-7.73-4.82
							c-2.924-1.077-6.04-1.692-9.182-2.086c-3.149-0.387-6.327-0.598-9.502-0.474C239.674,135.21,236.498,135.682,233.458,136.676z
							"/>
					</g>
					<g>
						<path style="fill:#2E2F2E;" d="M282.665,130.375c4.758,4.717,7.59,11.104,7.961,17.539c-1.034-6.363-4.468-12.172-9.296-16.05
							L282.665,130.375z"/>
					</g>
					<g>
						<path style="fill:#2E2F2E;" d="M270.767,141.405c0.919,1.432,0.938,2.959,0.966,4.262c0.013,1.319,0.004,2.635-0.035,3.95
							c-0.074,2.629-0.256,5.248-0.536,7.849c-0.052-2.616-0.204-5.224-0.463-7.814c-0.127-1.295-0.284-2.587-0.462-3.872
							c-0.168-1.267-0.436-2.474-1.083-3.191L270.767,141.405z"/>
					</g>
				</g>
				<g>
					<path style="fill:#2E2F2E;" d="M230.339,326.254c0.902-1.961,2.121-3.803,3.624-5.41c1.502-1.608,3.301-2.956,5.264-3.989
						c3.936-2.087,8.444-2.898,12.806-2.778c1.094,0.009,2.187,0.145,3.262,0.241c1.062,0.119,2.102,0.23,3.128,0.215
						c1.025-0.013,2.032-0.166,2.965-0.562c0.937-0.403,1.812-1.015,2.732-1.588c1.845-1.187,4.05-1.836,6.249-1.865
						c2.201,0.001,4.371,0.42,6.457,1.015c4.194,1.15,8.128,2.918,12.208,3.593c4.113,0.686,8.357,0.545,12.654,0.602
						c2.153,0.054,4.318,0.1,6.504,0.351c2.18,0.256,4.346,0.694,6.442,1.379c2.096,0.681,4.101,1.675,5.906,2.939
						c1.792,1.284,3.307,2.96,4.341,4.86l-0.169,0.107c-2.595-3.437-6.495-5.404-10.52-6.395c-2.023-0.501-4.096-0.808-6.181-0.962
						c-2.084-0.129-4.208-0.163-6.34-0.148c-4.261-0.006-8.642-0.019-12.981-0.886c-4.393-0.865-8.243-2.933-12.199-4.4
						c-1.986-0.706-4.028-1.322-6.125-1.378c-2.092-0.052-4.159,0.551-5.894,1.73c-0.877,0.589-1.727,1.269-2.732,1.787
						c-1.002,0.539-2.137,0.817-3.247,0.93c-1.115,0.118-2.219,0.095-3.294,0.069c-1.065-0.008-2.112-0.026-3.162,0.028
						c-2.096,0.067-4.176,0.257-6.219,0.633c-2.037,0.397-4.027,1.008-5.905,1.87c-3.77,1.713-6.992,4.561-9.4,8.107
						L230.339,326.254z"/>
				</g>
				<g>
					<path style="fill:#2E2F2E;" d="M217.347,323.176c1.923-2.095,3.894-4.174,6.217-5.872c1.164-0.839,2.419-1.573,3.773-2.104
						c1.356-0.553,2.809-0.792,4.22-0.991c2.848-0.39,5.721-0.517,8.591-0.477c2.871,0.037,5.743,0.263,8.598,0.682l-0.255,1.478
						c-2.759-0.528-5.564-0.874-8.383-1.032c-2.818-0.162-5.653-0.16-8.463,0.101c-1.41,0.138-2.801,0.305-4.112,0.773
						c-1.32,0.451-2.573,1.108-3.753,1.882C221.424,319.181,219.36,321.168,217.347,323.176z"/>
				</g>
				<g>
					<path style="fill:#2E2F2E;" d="M298.461,315.642c4.405-1.831,8.63-4.544,13.537-5.864c2.443-0.635,5.019-0.887,7.551-0.485
						c1.261,0.205,2.508,0.574,3.655,1.162c1.161,0.568,2.17,1.427,3.072,2.192c1.766,1.578,4.163,2.046,6.562,2.486
						c2.422,0.403,4.849,1.2,6.977,2.457c4.28,2.484,7.61,6.557,9.032,11.249c-1.581-4.641-5.023-8.535-9.276-10.812
						c-2.133-1.156-4.45-1.835-6.861-2.154c-1.205-0.188-2.434-0.366-3.649-0.716c-1.21-0.33-2.421-0.939-3.403-1.723
						c-0.987-0.779-1.884-1.488-2.947-1.967c-1.048-0.493-2.186-0.789-3.342-0.936c-2.319-0.289-4.708,0.021-6.966,0.692
						c-4.55,1.379-8.599,4.163-13.139,6.251L298.461,315.642z"/>
				</g>
				<g>
					<path style="fill:#2E2F2E;" d="M251.328,331.015c8.808,0.079,17.615,0.189,26.423,0.161c8.807-0.068,17.612-0.213,26.409-0.531
						l6.595-0.269l6.59-0.337l6.587-0.368l6.58-0.449l6.572-0.541l6.563-0.625l6.555-0.686l6.542-0.8l0.919-0.112l0.047,0.913
						c0.373,7.271,0.484,14.555,0.33,21.831c-0.132,7.276-0.503,14.546-1.092,21.795c-0.283,3.626-0.668,7.241-1.039,10.859
						c-0.403,3.615-0.888,7.233-1.68,10.797c-0.772,3.564-1.859,7.08-3.409,10.397c-1.531,3.322-3.571,6.435-6.141,9.062
						c-2.545,2.648-5.55,4.823-8.759,6.581c-3.213,1.762-6.637,3.122-10.164,4.11c-7.094,1.986-14.472,2.145-21.666,2.754
						c-7.218,0.704-14.489,1.259-21.745,1.653c-7.256,0.372-14.526,0.81-21.845,0.595c-7.303-0.202-14.675-1.065-21.741-3.227
						c-3.533-1.063-6.979-2.477-10.235-4.284c-3.226-1.847-6.287-4.103-8.755-6.966c-2.502-2.872-4.344-6.074-5.998-9.387
						c-1.627-3.321-2.937-6.782-3.987-10.308c-1.135-3.564-1.486-7.384-1.49-11.036l0.005-5.45l-0.089-5.426
						c-0.14-7.252-0.397-14.517-0.429-21.795c-0.002-7.276,0.184-14.568,0.885-21.822c0.023-0.229,0.03-0.44,0.078-0.717
						c0.048-0.259,0.144-0.611,0.459-0.872c0.319-0.259,0.697-0.275,0.958-0.259c0.279,0.02,0.484,0.065,0.714,0.098
						c0.904,0.138,1.803,0.301,2.698,0.476c1.791,0.347,3.565,0.752,5.335,1.153c3.541,0.8,7.073,1.62,10.681,1.965
						C236.8,330.729,244.069,330.873,251.328,331.015z M251.325,331.215c-7.26-0.067-14.535-0.135-21.78-0.844
						c-3.629-0.334-7.221-1.011-10.776-1.737c-1.78-0.356-3.558-0.713-5.341-1.011c-0.891-0.15-1.783-0.288-2.677-0.401
						c-0.454-0.074-0.919-0.111-0.967-0.006c-0.108,0.048-0.158,0.501-0.175,0.964c-0.502,7.226-0.475,14.477-0.27,21.721
						c0.179,7.247,0.539,14.496,0.807,21.763c0.061,1.821,0.143,3.624,0.156,5.465l0.01,5.444c0.02,3.598,0.353,7.096,1.433,10.468
						c1.032,3.43,2.312,6.781,3.89,9.979c1.586,3.17,3.426,6.312,5.714,8.91c2.296,2.637,5.159,4.76,8.203,6.547
						c3.082,1.74,6.383,3.126,9.795,4.179c6.829,2.143,14.012,3.044,21.21,3.294c7.205,0.238,14.46-0.053,21.71-0.319
						c7.254-0.282,14.476-0.72,21.726-1.313c7.255-0.5,14.546-0.544,21.529-2.376c6.941-1.811,13.628-5.147,18.676-10.299
						c2.531-2.556,4.546-5.589,6.074-8.85c1.504-3.275,2.546-6.754,3.283-10.288c1.463-7.08,1.95-14.349,2.429-21.58
						c0.912-14.48,0.799-29,0.019-43.466l0.966,0.8l-6.568,0.845l-6.58,0.731l-6.595,0.579l-6.602,0.465l-6.607,0.372l-6.609,0.285
						l-6.612,0.163l-6.612,0.094c-8.816,0.081-17.628,0.01-26.437-0.147L251.325,331.215z"/>
				</g>
				<g>
					<path style="fill:#2E2F2E;" d="M210.47,326.938c1.27-2.975,3.433-5.48,5.974-7.376c2.548-1.902,5.471-3.248,8.516-4.058
						c3.048-0.807,6.195-1.118,9.323-1.145c3.132-0.026,6.252,0.226,9.356,0.554c-3.112-0.246-6.236-0.414-9.351-0.304
						c-3.111,0.109-6.22,0.503-9.194,1.376c-2.965,0.873-5.782,2.267-8.193,4.17c-2.406,1.896-4.392,4.344-5.507,7.163
						L210.47,326.938z"/>
				</g>
				<g>
					<path style="fill:#2E2F2E;" d="M328.752,314.844c2.577-0.572,5.227-0.874,7.881-0.777c2.649,0.096,5.31,0.606,7.772,1.665
						c2.462,1.061,4.68,2.71,6.397,4.802c1.712,2.084,2.913,4.668,3.157,7.422l-0.997,0.075c-0.143-2.533-1.178-4.993-2.747-7.031
						c-1.571-2.044-3.659-3.708-6.013-4.811c-2.363-1.107-4.961-1.695-7.581-1.872C333.996,314.138,331.346,314.354,328.752,314.844
						z"/>
				</g>
				<g>
					<g>
						<g>
							<path style="fill:#2E2F2E;" d="M246.714,320.911c0.026-0.628,0.512-1.057,1.032-1.232c0.524-0.16,1.17-0.091,1.554,0.408
								c-0.54,0.289-0.873,0.416-1.251,0.544C247.667,320.744,247.321,320.833,246.714,320.911z"/>
						</g>
						<g>
							<path style="fill:#2E2F2E;" d="M253.392,322.402c0.188-0.649,0.68-1.043,1.213-1.279c0.543-0.211,1.17-0.281,1.762,0.047
								c-0.487,0.46-0.919,0.672-1.38,0.876C254.517,322.225,254.061,322.382,253.392,322.402z"/>
						</g>
						<g>
							<path style="fill:#2E2F2E;" d="M259.043,319.077c0.388-0.571,0.959-0.823,1.537-0.943c0.584-0.091,1.207-0.054,1.77,0.348
								c-0.564,0.393-1.068,0.527-1.593,0.636C260.227,319.197,259.707,319.247,259.043,319.077z"/>
						</g>
						<g>
							<path style="fill:#2E2F2E;" d="M264.787,315.704c0.326-0.683,0.929-1.078,1.566-1.31c0.322-0.095,0.657-0.186,1.059-0.145
								c0.364,0.019,0.876,0.257,0.906,0.679c-0.368-0.114-0.582,0.021-0.839,0.098c-0.239,0.099-0.518,0.211-0.805,0.314
								C266.097,315.52,265.537,315.689,264.787,315.704z"/>
						</g>
						<g>
							<path style="fill:#2E2F2E;" d="M272.82,316.374c0.877-0.201,1.732,0.01,2.49,0.373c0.374,0.199,0.728,0.426,1.038,0.727
								c0.309,0.283,0.652,0.752,0.546,1.224c-0.31-0.328-0.635-0.418-0.981-0.576c-0.361-0.144-0.707-0.317-1.051-0.482
								C274.18,317.281,273.511,316.941,272.82,316.374z"/>
						</g>
						<g>
							<path style="fill:#2E2F2E;" d="M279.406,320.772c0.47-0.251,0.771-0.284,1.092-0.278c0.319,0.034,0.612,0.107,1.046,0.419
								c-0.273,0.467-0.709,0.592-1.112,0.578C280.032,321.45,279.617,321.268,279.406,320.772z"/>
						</g>
						<g>
							<path style="fill:#2E2F2E;" d="M270.294,320.97c0.324-0.408,0.662-0.51,1.002-0.541c0.341,0,0.686,0.075,1.043,0.457
								c-0.324,0.41-0.662,0.513-1.002,0.541C270.995,321.425,270.651,321.35,270.294,320.97z"/>
						</g>
						<g>
							<path style="fill:#2E2F2E;" d="M236.304,323.706c0.261-0.604,0.85-0.887,1.423-0.951c0.575-0.043,1.206,0.128,1.572,0.677
								c-0.611,0.212-1.028,0.267-1.481,0.318C237.364,323.78,236.942,323.802,236.304,323.706z"/>
						</g>
						<g>
							<path style="fill:#2E2F2E;" d="M241.269,325.613c0.103-0.596,0.569-0.944,1.054-1.091c0.491-0.126,1.071-0.067,1.465,0.394
								c-0.493,0.332-0.827,0.456-1.198,0.569C242.212,325.577,241.861,325.642,241.269,325.613z"/>
						</g>
						<g>
							<path style="fill:#2E2F2E;" d="M249.531,327.045c0.232-0.392,0.516-0.48,0.792-0.495c0.276,0.016,0.558,0.108,0.786,0.504
								c-0.298,0.393-0.541,0.482-0.791,0.495C250.067,327.531,249.825,327.44,249.531,327.045z"/>
						</g>
						<g>
							<path style="fill:#2E2F2E;" d="M260.684,325.841c0.032-0.686,0.497-1.195,1.034-1.488c0.547-0.274,1.232-0.363,1.812,0.006
								c-0.521,0.428-0.921,0.646-1.35,0.88C261.74,325.455,261.332,325.658,260.684,325.841z"/>
						</g>
						<g>
							<path style="fill:#2E2F2E;" d="M291.603,322.208c0.421-0.497,0.971-0.658,1.511-0.696c0.541-0.008,1.102,0.11,1.561,0.573
								c-0.561,0.324-1.033,0.392-1.522,0.425C292.664,322.514,292.188,322.484,291.603,322.208z"/>
						</g>
						<g>
							<path style="fill:#2E2F2E;" d="M305.09,321.174c0.036-0.54,0.399-0.847,0.785-0.993c0.394-0.122,0.87-0.099,1.228,0.308
								c-0.366,0.39-0.616,0.527-0.906,0.638C305.899,321.214,305.616,321.258,305.09,321.174z"/>
						</g>
						<g>
							<path style="fill:#2E2F2E;" d="M313.72,321.644c0.55-0.26,1.045-0.191,1.496-0.033c0.44,0.187,0.851,0.473,1.077,1.039
								c-0.591,0.138-1.021,0.041-1.441-0.108C314.444,322.364,314.062,322.144,313.72,321.644z"/>
						</g>
						<g>
							<path style="fill:#2E2F2E;" d="M280.756,325.229c0.153-0.42,0.35-0.538,0.557-0.585c0.211-0.016,0.433,0.042,0.698,0.405
								c-0.153,0.422-0.35,0.54-0.557,0.585C281.242,325.647,281.021,325.59,280.756,325.229z"/>
						</g>
						<g>
							<path style="fill:#2E2F2E;" d="M311.04,313.594c0.367-0.571,0.935-0.819,1.507-0.922c0.576-0.075,1.193-0.008,1.714,0.429
								c-0.572,0.356-1.056,0.468-1.563,0.559C312.187,313.723,311.691,313.761,311.04,313.594z"/>
						</g>
						<g>
							<path style="fill:#2E2F2E;" d="M318.508,312.936c0.67-0.376,1.378-0.389,2.048-0.276c0.665,0.142,1.318,0.416,1.8,1.015
								c-0.75,0.148-1.365,0.072-1.989-0.034C319.75,313.506,319.15,313.349,318.508,312.936z"/>
						</g>
						<g>
							<path style="fill:#2E2F2E;" d="M314.263,315.716c0.214-0.472,0.591-0.625,0.955-0.656c0.365-0.003,0.755,0.118,1.008,0.571
								c-0.396,0.329-0.669,0.401-0.965,0.427C314.964,316.056,314.685,316.007,314.263,315.716z"/>
						</g>
						<g>
							<path style="fill:#2E2F2E;" d="M324.181,316.375c0.576-0.246,1.085-0.174,1.557-0.02c0.461,0.184,0.897,0.458,1.177,1.019
								c-0.605,0.162-1.069,0.069-1.52-0.081C324.955,317.115,324.54,316.886,324.181,316.375z"/>
						</g>
						<g>
							<path style="fill:#2E2F2E;" d="M335.728,319.757c0.486-0.443,1.08-0.518,1.632-0.451c0.548,0.095,1.095,0.34,1.43,0.906
								c-0.629,0.172-1.095,0.141-1.577,0.082C336.735,320.208,336.28,320.102,335.728,319.757z"/>
						</g>
						<g>
							<path style="fill:#2E2F2E;" d="M222.796,320.195c-0.043-0.553,0.273-0.93,0.642-1.153c0.382-0.201,0.869-0.274,1.319,0.054
								c-0.304,0.456-0.546,0.645-0.83,0.818C223.63,320.064,223.341,320.173,222.796,320.195z"/>
						</g>
						<g>
							<path style="fill:#2E2F2E;" d="M230.035,317.415c0.674-0.514,1.431-0.698,2.189-0.776c0.76-0.047,1.537,0.013,2.285,0.413
								c-0.75,0.393-1.472,0.509-2.204,0.583C231.569,317.678,230.837,317.68,230.035,317.415z"/>
						</g>
						<g>
							<path style="fill:#2E2F2E;" d="M226.955,321.914c0.13-0.469,0.427-0.643,0.728-0.711c0.306-0.039,0.645,0.024,0.926,0.424
								c-0.282,0.394-0.506,0.504-0.754,0.561C227.601,322.215,227.354,322.188,226.955,321.914z"/>
						</g>
						<g>
							<path style="fill:#2E2F2E;" d="M219.25,324.909c0.369-0.491,0.807-0.683,1.262-0.806c0.462-0.092,0.94-0.113,1.488,0.167
								c-0.369,0.493-0.807,0.686-1.262,0.806C220.276,325.166,219.798,325.186,219.25,324.909z"/>
						</g>
					</g>
					<g>
						<g>
							<path style="fill:#2E2F2E;" d="M301.766,323.147c0.883-0.005,1.763-0.022,2.65-0.058c0.441-0.022,0.937,0.076,1.327,0.328
								c0.393,0.229,0.74,0.497,1.114,0.745c0.367,0.257,0.738,0.497,1.105,0.772c0.184,0.147,0.389,0.328,0.535,0.598
								c0.145,0.284,0.211,0.629,0.058,0.99c-0.156,0.393-0.611,0.573-0.859,0.601c-0.269,0.041-0.451,0.066-0.682,0.091
								l-1.327,0.13c-1.767,0.115-3.656,0.088-5.364-0.712c-0.408-0.215-0.847-0.486-1.063-0.955
								c-0.225-0.473-0.069-1.006,0.197-1.364C300.013,323.597,300.883,323.156,301.766,323.147z M301.766,323.147
								c-0.882,0.021-1.742,0.513-2.192,1.243c-0.22,0.368-0.248,0.822-0.036,1.139c0.207,0.326,0.596,0.505,0.979,0.641
								c0.792,0.268,1.658,0.302,2.51,0.3c0.856-0.003,1.72-0.052,2.588-0.121l1.311-0.091l0.635-0.037
								c0.181-0.024,0.191-0.035,0.217-0.063c0.094-0.117,0.033-0.424-0.275-0.715c-0.302-0.299-0.637-0.591-0.956-0.888
								c-0.663-0.568-1.23-1.321-2.137-1.325C303.533,323.172,302.647,323.16,301.766,323.147z"/>
						</g>
						<g>
							<path style="fill:#2E2F2E;" d="M269.596,324.824c0.31-0.172,0.658-0.326,1.028-0.289c0.366,0.04,0.701,0.193,1.036,0.323
								c0.668,0.264,1.361,0.597,1.866,1.217c0.247,0.306,0.441,0.669,0.534,1.081c0.046,0.206,0.065,0.423,0.047,0.644
								c-0.011,0.119-0.018,0.201-0.061,0.352c-0.025,0.077-0.076,0.19-0.183,0.285c-0.105,0.092-0.221,0.133-0.305,0.153
								l-2.169,0.323c-0.721,0.079-1.454,0.145-2.208,0.1c-0.374-0.012-0.759-0.081-1.142-0.181
								c-0.363-0.092-0.832-0.31-1.051-0.717c-0.259-0.419-0.114-0.924,0.087-1.232c0.202-0.334,0.477-0.586,0.749-0.827
								C268.374,325.582,268.966,325.169,269.596,324.824z M269.596,324.824c-0.621,0.359-1.199,0.801-1.675,1.332
								c-0.456,0.492-0.885,1.278-0.515,1.683c0.341,0.403,1.116,0.348,1.773,0.312c0.684-0.047,1.383-0.136,2.087-0.229
								l1.069-0.118c0.182-0.021,0.362-0.029,0.55-0.04l0.285-0.011c0.096-0.003,0.215-0.004,0.208-0.001
								c0.008-0.025-0.138,0.112-0.099,0.106c0.014-0.019,0.048-0.114,0.061-0.172c0.036-0.134,0.051-0.28,0.044-0.429
								c-0.013-0.3-0.109-0.613-0.268-0.898c-0.319-0.572-0.896-1.027-1.516-1.374c-0.318-0.159-0.629-0.356-0.981-0.411
								C270.265,324.523,269.912,324.662,269.596,324.824z"/>
						</g>
						<g>
							<path style="fill:#2E2F2E;" d="M234.468,326.637c0.535-0.014,0.796,0.026,1.081,0.113c0.279,0.105,0.508,0.233,0.922,0.576
								c-0.312,0.453-0.833,0.503-1.247,0.37C234.817,327.544,234.438,327.185,234.468,326.637z"/>
						</g>
						<g>
							<path style="fill:#2E2F2E;" d="M224.692,324.759c0.656,0.021,1.081,0.125,1.538,0.239c0.451,0.136,0.868,0.267,1.44,0.591
								c-0.477,0.47-1.139,0.52-1.708,0.372C225.399,325.791,224.859,325.406,224.692,324.759z"/>
						</g>
						<g>
							<path style="fill:#2E2F2E;" d="M317.204,325.61c0.599-0.572,1.328-0.849,2.124-0.919c0.397-0.017,0.813,0.017,1.202,0.173
								c0.386,0.147,0.747,0.404,0.946,0.779c-0.826-0.044-1.402-0.001-2.084,0.046C318.721,325.714,318.017,325.795,317.204,325.61
								z"/>
						</g>
						<g>
							<path style="fill:#2E2F2E;" d="M334.314,323.048c-0.622-0.202-1.382-0.15-1.835,0.328c-0.448,0.469-0.558,1.134-0.604,1.765
								c-0.011,0.292-0.045,0.717,0.012,0.883c0.015,0.038,0.032,0.032,0.016,0.005c-0.018-0.025-0.043-0.03,0.017-0.032
								c0.139-0.009,0.325-0.027,0.485-0.029c0.664-0.03,1.328-0.03,1.991-0.021c0.671,0.019,1.318,0.081,1.892,0.018
								c0.284-0.035,0.569-0.095,0.801-0.22c0.225-0.127,0.369-0.296,0.315-0.451c-0.056-0.189-0.373-0.427-0.602-0.647
								c-0.247-0.22-0.492-0.444-0.757-0.642C335.521,323.602,334.941,323.269,334.314,323.048z M334.314,323.048
								c0.632,0.204,1.228,0.51,1.809,0.838l0.869,0.506c0.275,0.199,0.585,0.279,0.863,0.677c0.132,0.207,0.13,0.513,0.031,0.723
								c-0.094,0.217-0.237,0.379-0.398,0.513c-0.316,0.252-0.671,0.415-1.037,0.505c-0.736,0.182-1.427,0.133-2.079,0.133
								c-0.663-0.024-1.326-0.057-1.988-0.119c-0.172-0.011-0.317-0.035-0.51-0.055c-0.103-0.011-0.302-0.049-0.445-0.188
								c-0.146-0.135-0.195-0.303-0.212-0.427c-0.029-0.256,0.026-0.432,0.053-0.593l0.114-0.502c0.168-0.656,0.442-1.36,1.004-1.79
								C332.945,322.832,333.698,322.835,334.314,323.048z"/>
						</g>
						<g>
							<path style="fill:#2E2F2E;" d="M345.813,320.099c0.591-0.276,1.222-0.068,1.666,0.296c0.432,0.378,0.74,0.968,0.562,1.596
								c-0.557-0.311-0.87-0.558-1.208-0.834C346.506,320.866,346.211,320.596,345.813,320.099z"/>
						</g>
						<g>
							<path style="fill:#2E2F2E;" d="M324.411,319.989c0.379-0.341,0.755-0.345,1.087-0.256c0.323,0.118,0.627,0.34,0.737,0.839
								c-0.462,0.211-0.754,0.19-1.041,0.113C324.915,320.58,324.665,320.428,324.411,319.989z"/>
						</g>
						<g>
							<path style="fill:#2E2F2E;" d="M288.81,326.757c0.627-0.236,1.202-0.13,1.724,0.074c0.509,0.232,0.984,0.573,1.248,1.191
								c-0.665,0.067-1.155-0.081-1.639-0.271C289.671,327.531,289.224,327.28,288.81,326.757z"/>
						</g>
						<g>
							<path style="fill:#2E2F2E;" d="M256.633,327.954c0.028,0.588-0.379,1.002-0.831,1.195c-0.459,0.176-1.041,0.159-1.428-0.286
								c0.453-0.354,0.731-0.502,1.054-0.641C255.76,328.1,256.063,328.014,256.633,327.954z"/>
						</g>
					</g>
				</g>
				<g>
					<path style="fill:#2E2F2E;" d="M210.267,389.614c3.021,1.465,6.145,2.724,9.34,3.796c3.197,1.07,6.475,1.902,9.78,2.619
						c6.62,1.405,13.38,2.193,20.159,2.698c3.39,0.259,6.788,0.448,10.189,0.609c3.401,0.151,6.806,0.238,10.21,0.361l20.428,0.684
						l-20.441-0.185c-3.407-0.039-6.816-0.043-10.223-0.111c-3.408-0.078-6.817-0.185-10.226-0.361
						c-6.815-0.341-13.642-0.965-20.389-2.225c-3.368-0.645-6.724-1.409-10.016-2.422c-3.29-1.014-6.526-2.227-9.673-3.66
						L210.267,389.614z"/>
				</g>
				<g>
					<path style="fill:#2E2F2E;" d="M357.602,338.685c-18.587,3.314-37.429,4.653-56.216,4.874
						c-18.798,0.222-37.563-0.662-56.291-1.814c18.752,0.653,37.526,1.035,56.253,0.315c18.716-0.719,37.402-2.555,55.688-6.321
						L357.602,338.685z"/>
				</g>
			</g>
			<g>
				<g>
					<path style="fill:#2E2F2E;" d="M321.066,216.476c-0.355,0.934-0.728,1.687-1.049,2.495c-0.344,0.798-0.616,1.593-1.03,2.503
						c-0.383-0.937-0.258-1.98,0.108-2.887C319.482,217.689,320.133,216.867,321.066,216.476z"/>
				</g>
				<g>
					<path style="fill:#2E2F2E;" d="M316.332,220.61c0.133,0.581,0.078,0.975-0.01,1.38c-0.116,0.398-0.258,0.768-0.658,1.213
						c-0.395-0.457-0.419-0.988-0.31-1.462C315.491,221.273,315.767,220.82,316.332,220.61z"/>
				</g>
				<g>
					<path style="fill:#2E2F2E;" d="M320.449,224.939c0.058,0.898-0.068,1.652-0.195,2.423c-0.156,0.766-0.308,1.515-0.686,2.332
						c-0.417-0.805-0.437-1.684-0.297-2.514C319.44,226.355,319.774,225.543,320.449,224.939z"/>
				</g>
				<g>
					<path style="fill:#2E2F2E;" d="M328.683,208.73c-0.289,0.827-0.567,1.458-0.801,2.142c-0.253,0.678-0.44,1.34-0.745,2.162
						c-0.492-0.746-0.476-1.692-0.196-2.5C327.241,209.734,327.83,208.995,328.683,208.73z"/>
				</g>
				<g>
					<path style="fill:#2E2F2E;" d="M327.376,231.432c0.174,0.57,0.122,0.98,0.028,1.394c-0.123,0.406-0.284,0.787-0.722,1.193
						c-0.352-0.487-0.353-0.991-0.244-1.452C326.576,232.115,326.829,231.678,327.376,231.432z"/>
				</g>
				<g>
					<path style="fill:#2E2F2E;" d="M333.643,223.856c0.007,0.976-0.181,1.813-0.376,2.663c-0.224,0.842-0.452,1.669-0.919,2.528
						c-0.324-0.927-0.26-1.874-0.051-2.77C332.536,225.388,332.924,224.523,333.643,223.856z"/>
				</g>
				<g>
					<path style="fill:#2E2F2E;" d="M329.91,239.218c0.435,0.586,0.565,1.193,0.624,1.804c0.027,0.614-0.02,1.232-0.373,1.872
						c-0.437-0.586-0.567-1.192-0.624-1.804C329.512,240.476,329.559,239.858,329.91,239.218z"/>
				</g>
				<g>
					<path style="fill:#2E2F2E;" d="M339.456,235.968c0.354,0.884,0.402,1.753,0.379,2.619c-0.055,0.865-0.183,1.726-0.62,2.573
						c-0.356-0.884-0.404-1.753-0.379-2.619C338.893,237.677,339.022,236.815,339.456,235.968z"/>
				</g>
				<g>
					<path style="fill:#2E2F2E;" d="M339.046,247.654c0.394,0.613,0.483,1.226,0.5,1.839c-0.015,0.613-0.103,1.226-0.5,1.839
						c-0.396-0.613-0.485-1.226-0.5-1.839C338.563,248.88,338.651,248.267,339.046,247.654z"/>
				</g>
				<g>
					<path style="fill:#2E2F2E;" d="M347.641,241.584c0.223,0.962,0.202,1.844,0.159,2.733c-0.074,0.887-0.172,1.763-0.525,2.687
						c-0.44-0.889-0.52-1.831-0.472-2.754C346.882,243.329,347.088,242.406,347.641,241.584z"/>
				</g>
				<g>
					<path style="fill:#2E2F2E;" d="M347.464,254.794c0.406,0.625,0.572,1.186,0.73,1.767c0.131,0.588,0.242,1.162,0.169,1.904
						c-0.641-0.394-0.968-1.021-1.14-1.667C347.079,256.147,347.079,255.44,347.464,254.794z"/>
				</g>
				<g>
					<path style="fill:#2E2F2E;" d="M306.594,174.958c-0.476,0.809-0.997,1.41-1.512,2.044c-0.537,0.616-1.041,1.23-1.761,1.834
						c0.002-0.948,0.43-1.787,0.997-2.479C304.906,175.683,305.661,175.121,306.594,174.958z"/>
				</g>
				<g>
					<path style="fill:#2E2F2E;" d="M298.584,184.473c0.158,0.714,0.03,1.323-0.167,1.908c-0.226,0.574-0.521,1.122-1.105,1.564
						c-0.16-0.715-0.032-1.324,0.167-1.908C297.707,185.464,298.002,184.915,298.584,184.473z"/>
				</g>
				<g>
					<path style="fill:#2E2F2E;" d="M303.357,182.323c-0.075,0.589-0.202,0.924-0.359,1.281c-0.177,0.347-0.358,0.655-0.772,1.083
						c-0.384-0.47-0.34-1.052-0.129-1.514C302.327,182.72,302.751,182.321,303.357,182.323z"/>
				</g>
				<g>
					<path style="fill:#2E2F2E;" d="M298.118,192.887c-0.036,0.717-0.232,1.236-0.452,1.763c-0.246,0.516-0.504,1.006-1.018,1.509
						c-0.262-0.675-0.141-1.335,0.107-1.919C297.028,193.669,297.441,193.141,298.118,192.887z"/>
				</g>
				<g>
					<path style="fill:#2E2F2E;" d="M301.394,195.723c0.106,0.706,0.01,1.253-0.112,1.81c-0.15,0.55-0.32,1.078-0.746,1.653
						c-0.367-0.62-0.362-1.282-0.224-1.894C300.478,196.688,300.782,196.1,301.394,195.723z"/>
				</g>
				<g>
					<path style="fill:#2E2F2E;" d="M297.31,146.405c-0.195,1.076-0.573,1.993-0.964,2.916c-0.418,0.911-0.842,1.807-1.508,2.675
						c-0.094-1.094,0.186-2.121,0.594-3.079C295.868,147.971,296.439,147.073,297.31,146.405z"/>
				</g>
				<g>
					<path style="fill:#2E2F2E;" d="M294.09,158.549c-0.028,0.649-0.203,1.084-0.407,1.525c-0.23,0.428-0.474,0.827-0.98,1.237
						c-0.265-0.601-0.15-1.185,0.087-1.686C293.052,159.137,293.451,158.697,294.09,158.549z"/>
				</g>
				<g>
					<path style="fill:#2E2F2E;" d="M301.396,152.232c0.317,0.248,0.36,0.36,0.339,0.44c-0.049,0.066-0.165,0.098-0.555-0.007
						c-0.319-0.249-0.362-0.361-0.339-0.44C300.892,152.161,301.008,152.128,301.396,152.232z"/>
				</g>
				<g>
					<path style="fill:#2E2F2E;" d="M411.088,182.761c1.221,0.2,2.299,0.737,3.297,1.378c0.981,0.667,1.895,1.45,2.554,2.499
						c-1.158-0.431-2.134-1.038-3.106-1.666C412.877,184.319,411.938,183.657,411.088,182.761z"/>
				</g>
				<g>
					<path style="fill:#2E2F2E;" d="M422.293,188.009c0.984,0.249,1.772,0.857,2.42,1.566c0.626,0.729,1.133,1.586,1.258,2.594
						c-0.809-0.604-1.399-1.265-2.007-1.932C423.379,189.551,422.795,188.884,422.293,188.009z"/>
				</g>
				<g>
					<path style="fill:#2E2F2E;" d="M419.072,192.122c0.756-0.112,1.434,0.187,1.98,0.611c0.529,0.445,0.961,1.047,1.005,1.812
						c-0.694-0.304-1.155-0.662-1.635-1.036C419.959,193.115,419.513,192.736,419.072,192.122z"/>
				</g>
				<g>
					<path style="fill:#2E2F2E;" d="M414.995,194.641c0.677,0.161,1.126,0.583,1.475,1.06c0.324,0.494,0.561,1.063,0.47,1.755
						c-0.613-0.325-0.966-0.74-1.292-1.186C415.347,195.805,415.084,195.328,414.995,194.641z"/>
				</g>
				<g>
					<path style="fill:#2E2F2E;" d="M421.462,203.521c0.682,0.766,1.075,1.631,1.4,2.52c0.296,0.899,0.521,1.823,0.456,2.846
						c-0.684-0.765-1.077-1.63-1.4-2.52C421.624,205.468,421.398,204.544,421.462,203.521z"/>
				</g>
				<g>
					<path style="fill:#2E2F2E;" d="M424.543,200.9c0.537,0.148,0.802,0.503,0.963,0.883c0.133,0.391,0.168,0.833-0.139,1.299
						c-0.469-0.298-0.653-0.607-0.796-0.946C424.456,201.787,424.39,201.432,424.543,200.9z"/>
				</g>
				<g>
					<path style="fill:#2E2F2E;" d="M413.502,214.536c0.663,0.426,1.012,1.089,1.204,1.774c0.164,0.692,0.178,1.442-0.2,2.134
						c-0.416-0.663-0.594-1.264-0.768-1.886C413.593,215.93,413.459,215.317,413.502,214.536z"/>
				</g>
				<g>
					<path style="fill:#2E2F2E;" d="M367.823,249.817c0.394,0.541,0.483,1.082,0.5,1.623c-0.015,0.541-0.103,1.082-0.5,1.623
						c-0.396-0.541-0.485-1.082-0.5-1.623C367.341,250.899,367.429,250.358,367.823,249.817z"/>
				</g>
				<g>
					<path style="fill:#2E2F2E;" d="M378.392,232.73c0.462,0.323,0.624,0.703,0.715,1.096c0.06,0.399,0.048,0.812-0.267,1.281
						c-0.464-0.323-0.626-0.702-0.715-1.096C378.067,233.612,378.079,233.199,378.392,232.73z"/>
				</g>
				<g>
					<path style="fill:#2E2F2E;" d="M380.152,240.946c0.43,0.851,0.52,1.742,0.501,2.621c-0.049,0.878-0.209,1.758-0.707,2.573
						c-0.289-0.907-0.311-1.757-0.291-2.612C379.706,242.673,379.794,241.828,380.152,240.946z"/>
				</g>
				<g>
					<path style="fill:#2E2F2E;" d="M362.659,262.152c0.377,0.436,0.387,0.931,0.272,1.368c-0.141,0.429-0.421,0.838-0.978,0.994
						c-0.131-0.557-0.076-0.914,0.02-1.28C362.096,262.875,362.246,262.546,362.659,262.152z"/>
				</g>
				<g>
					<path style="fill:#2E2F2E;" d="M368.256,238.133c0.394,0.721,0.483,1.443,0.5,2.164c-0.015,0.721-0.103,1.442-0.5,2.164
						c-0.397-0.721-0.485-1.442-0.5-2.164C367.773,239.576,367.862,238.854,368.256,238.133z"/>
				</g>
				<g>
					<path style="fill:#2E2F2E;" d="M389.016,235.538c0.467,0.839,0.562,1.757,0.514,2.652c-0.079,0.892-0.305,1.788-0.891,2.55
						c-0.189-0.938-0.154-1.774-0.106-2.622C388.61,237.271,388.696,236.438,389.016,235.538z"/>
				</g>
				<g>
					<path style="fill:#2E2F2E;" d="M395.736,229.695c0.394,0.541,0.483,1.082,0.5,1.623c-0.015,0.541-0.103,1.082-0.5,1.623
						c-0.396-0.541-0.485-1.082-0.5-1.623C395.253,230.776,395.341,230.236,395.736,229.695z"/>
				</g>
				<g>
					<path style="fill:#2E2F2E;" d="M419.55,159.146c0.741,0.293,1.244,0.777,1.691,1.307c0.423,0.549,0.787,1.145,0.912,1.933
						c-0.743-0.292-1.246-0.776-1.691-1.307C420.042,160.528,419.677,159.933,419.55,159.146z"/>
				</g>
				<g>
					<path style="fill:#2E2F2E;" d="M424.993,165.828c1.244,0.971,2.196,2.209,3.004,3.523c0.782,1.329,1.429,2.752,1.701,4.306
						c-0.992-1.223-1.768-2.506-2.558-3.791C426.378,168.564,425.609,167.277,424.993,165.828z"/>
				</g>
				<g>
					<path style="fill:#2E2F2E;" d="M415.21,142.711c0.95,0.023,1.776,0.386,2.524,0.851c0.732,0.49,1.401,1.096,1.809,1.955
						c-0.915-0.248-1.636-0.669-2.353-1.116C416.491,143.928,415.812,143.442,415.21,142.711z"/>
				</g>
				<g>
					<path style="fill:#2E2F2E;" d="M425.075,151.715c1.096,0.957,1.936,2.08,2.715,3.243c0.753,1.18,1.445,2.401,1.878,3.79
						c-1.097-0.955-1.937-2.079-2.715-3.243C426.202,154.324,425.511,153.103,425.075,151.715z"/>
				</g>
				<g>
					<path style="fill:#2E2F2E;" d="M432.753,154.389c0.752,0.792,1.221,1.7,1.623,2.635c0.374,0.947,0.679,1.922,0.699,3.015
						c-0.754-0.791-1.223-1.699-1.623-2.635C433.08,156.456,432.775,155.481,432.753,154.389z"/>
				</g>
				<g>
					<path style="fill:#2E2F2E;" d="M434.859,165.436c0.428,0.238,0.553,0.515,0.607,0.801c0.023,0.29-0.028,0.59-0.384,0.929
						c-0.43-0.238-0.556-0.515-0.607-0.801C434.455,166.075,434.505,165.775,434.859,165.436z"/>
				</g>
				<g>
					<path style="fill:#2E2F2E;" d="M418.042,123.199c1.137,0.132,2.139,0.607,3.06,1.19c0.904,0.608,1.742,1.336,2.318,2.326
						c-1.079-0.377-1.972-0.923-2.864-1.489C419.68,124.633,418.821,124.034,418.042,123.199z"/>
				</g>
				<g>
					<path style="fill:#2E2F2E;" d="M427.615,128.794c0.776,0.278,1.342,0.779,1.852,1.325c0.486,0.567,0.919,1.186,1.106,1.99
						c-0.799-0.301-1.352-0.787-1.852-1.325C428.245,130.225,427.825,129.621,427.615,128.794z"/>
				</g>
				<g>
					<path style="fill:#2E2F2E;" d="M420.432,111.703c0.835-0.069,1.572,0.232,2.213,0.645c0.625,0.438,1.18,1.008,1.429,1.809
						c-0.801-0.231-1.392-0.595-1.987-0.98C421.507,112.768,420.947,112.357,420.432,111.703z"/>
				</g>
				<g>
					<path style="fill:#2E2F2E;" d="M430.952,119.172c0.878,0.43,1.504,1.119,2.019,1.869c0.489,0.767,0.876,1.614,0.924,2.591
						c-0.755-0.617-1.264-1.318-1.758-2.041C431.668,120.852,431.224,120.107,430.952,119.172z"/>
				</g>
				<g>
					<path style="fill:#2E2F2E;" d="M401.59,81.374c1.486-0.22,2.936-0.136,4.377,0.019c1.438,0.186,2.866,0.446,4.259,1.011
						c-1.486,0.222-2.936,0.139-4.377-0.019C404.412,82.197,402.983,81.937,401.59,81.374z"/>
				</g>
				<g>
					<path style="fill:#2E2F2E;" d="M415.213,84.502c1.105,0.223,2.042,0.837,2.834,1.576c0.772,0.76,1.425,1.67,1.692,2.767
						c-0.92-0.643-1.637-1.347-2.384-2.045C416.628,86.08,415.895,85.392,415.213,84.502z"/>
				</g>
				<g>
					<path style="fill:#2E2F2E;" d="M408.684,86.303c1.195,0.196,2.246,0.661,3.263,1.189c1.002,0.556,1.968,1.177,2.789,2.069
						c-1.197-0.194-2.247-0.659-3.263-1.189C410.472,87.814,409.505,87.193,408.684,86.303z"/>
				</g>
				<g>
					<path style="fill:#2E2F2E;" d="M417.597,95.095c0.725-0.072,1.311,0.129,1.865,0.394c0.539,0.292,1.044,0.651,1.409,1.283
						c-0.726,0.073-1.312-0.127-1.865-0.394C418.468,96.084,417.963,95.725,417.597,95.095z"/>
				</g>
				<g>
					<path style="fill:#2E2F2E;" d="M305.786,108.141c0.438-1.188,1.191-2.17,2.038-3.045c0.869-0.853,1.848-1.611,3.035-2.053
						c-0.689,1.059-1.501,1.908-2.327,2.758C307.686,106.629,306.84,107.446,305.786,108.141z"/>
				</g>
				<g>
					<path style="fill:#2E2F2E;" d="M298.986,114.783c0.026,0.77-0.217,1.393-0.522,1.98c-0.333,0.573-0.73,1.109-1.397,1.498
						c-0.027-0.771,0.215-1.394,0.522-1.98C297.924,115.709,298.321,115.172,298.986,114.783z"/>
				</g>
				<g>
					<path style="fill:#2E2F2E;" d="M296.253,123.032c0.211,0.914,0.048,1.796-0.243,2.618c-0.319,0.81-0.776,1.583-1.538,2.132
						c0.067-0.932,0.326-1.704,0.603-2.483C295.379,124.531,295.692,123.779,296.253,123.032z"/>
				</g>
				<g>
					<path style="fill:#2E2F2E;" d="M308.995,112.243c0.363-0.698,0.889-1.137,1.455-1.516c0.582-0.353,1.204-0.643,1.991-0.673
						c-0.362,0.7-0.888,1.139-1.455,1.517C310.402,111.921,309.781,112.211,308.995,112.243z"/>
				</g>
			</g>
			<g>
				<g>
					<path style="fill:#2E2F2E;" d="M218.672,143.016c-0.988-0.324-1.801-0.69-2.663-1.005c-0.853-0.338-1.702-0.608-2.655-1.028
						c0.982-0.376,2.058-0.258,3.011,0.094C217.31,141.453,218.189,142.081,218.672,143.016z"/>
				</g>
				<g>
					<path style="fill:#2E2F2E;" d="M209.711,142.556c-0.948,0.346-1.855,0.427-2.771,0.476c-0.917,0.018-1.828-0.001-2.797-0.281
						c0.876-0.507,1.821-0.67,2.763-0.717C207.848,142.017,208.802,142.114,209.711,142.556z"/>
				</g>
				<g>
					<path style="fill:#2E2F2E;" d="M213.146,145.94c0.349-0.318,0.622-0.34,0.878-0.293c0.248,0.078,0.478,0.228,0.633,0.676
						c-0.349,0.32-0.623,0.343-0.878,0.293C213.531,146.536,213.301,146.386,213.146,145.94z"/>
				</g>
				<g>
					<path style="fill:#2E2F2E;" d="M194.722,146.188c0.024,0.445-0.109,0.628-0.278,0.75c-0.186,0.094-0.41,0.126-0.792-0.107
						c-0.026-0.447,0.107-0.63,0.278-0.75C194.116,145.988,194.34,145.957,194.722,146.188z"/>
				</g>
				<g>
					<path style="fill:#2E2F2E;" d="M179.729,156.884c0.408-0.494,0.937-0.66,1.46-0.71c0.525-0.02,1.071,0.076,1.54,0.516
						c-0.533,0.351-0.996,0.436-1.475,0.481C180.773,157.186,180.303,157.161,179.729,156.884z"/>
				</g>
				<g>
					<path style="fill:#2E2F2E;" d="M158.144,192.051c0.163-0.778,0.755-1.335,1.418-1.661c0.673-0.305,1.48-0.407,2.184-0.034
						c-0.658,0.425-1.198,0.664-1.758,0.939C159.418,191.548,158.889,191.813,158.144,192.051z"/>
				</g>
				<g>
					<path style="fill:#2E2F2E;" d="M166.256,188.63c0.391-0.566,0.889-0.846,1.412-1.058c0.534-0.183,1.093-0.296,1.76-0.121
						c-0.391,0.568-0.889,0.847-1.412,1.057C167.482,188.69,166.922,188.803,166.256,188.63z"/>
				</g>
				<g>
					<path style="fill:#2E2F2E;" d="M163.248,183.026c0.214-0.791,0.777-1.355,1.414-1.754c0.651-0.375,1.415-0.605,2.214-0.418
						c-0.574,0.575-1.128,0.918-1.701,1.275C164.589,182.463,164.025,182.791,163.248,183.026z"/>
				</g>
				<g>
					<path style="fill:#2E2F2E;" d="M163.708,226.525c-0.179,0.789-0.51,1.373-0.867,1.958c-0.382,0.569-0.775,1.113-1.42,1.602
						c-0.081-0.81,0.195-1.519,0.579-2.143C162.409,227.335,162.939,226.789,163.708,226.525z"/>
				</g>
				<g>
					<path style="fill:#2E2F2E;" d="M168.593,228.201c-0.026,0.597-0.176,0.961-0.359,1.331c-0.208,0.357-0.431,0.681-0.919,1.028
						c-0.285-0.535-0.183-1.066,0.04-1.504C167.602,228.631,167.99,228.256,168.593,228.201z"/>
				</g>
				<g>
					<path style="fill:#2E2F2E;" d="M161.994,235.709c0.239,0.667,0.181,1.259,0.054,1.834c-0.158,0.567-0.387,1.117-0.915,1.591
						c-0.241-0.668-0.183-1.26-0.054-1.834C161.239,236.733,161.468,236.183,161.994,235.709z"/>
				</g>
				<g>
					<path style="fill:#2E2F2E;" d="M178.672,274.681c-0.098,0.862-0.45,1.554-0.862,2.207c-0.438,0.636-0.939,1.23-1.696,1.655
						c0.096-0.863,0.448-1.555,0.862-2.207C177.417,275.702,177.917,275.107,178.672,274.681z"/>
				</g>
				<g>
					<path style="fill:#2E2F2E;" d="M171.837,281.747c0.255,0.599,0.145,1.168-0.075,1.665c-0.246,0.485-0.62,0.928-1.248,1.105
						c-0.012-0.648,0.148-1.091,0.346-1.536C171.085,282.55,171.328,282.146,171.837,281.747z"/>
				</g>
				<g>
					<path style="fill:#2E2F2E;" d="M173.553,287.968c0.207,0.445,0.264,0.635,0.267,0.862c-0.015,0.227-0.085,0.412-0.321,0.844
						c-0.494-0.101-0.681-0.512-0.678-0.876C172.843,288.436,173.056,288.039,173.553,287.968z"/>
				</g>
				<g>
					<path style="fill:#2E2F2E;" d="M180.588,287.736c0.138,0.695,0.05,1.246-0.072,1.802c-0.151,0.548-0.334,1.076-0.785,1.624
						c-0.339-0.628-0.32-1.269-0.185-1.866C179.711,288.705,179.996,288.132,180.588,287.736z"/>
				</g>
				<g>
					<path style="fill:#2E2F2E;" d="M179.565,296.531c0.26,0.504,0.338,0.812,0.397,1.158c0.037,0.349,0.042,0.665-0.077,1.221
						c-0.564-0.14-0.841-0.619-0.914-1.088C178.92,297.35,179.061,296.815,179.565,296.531z"/>
				</g>
				<g>
					<path style="fill:#2E2F2E;" d="M191.081,287.736c0.394,0.821,0.483,1.642,0.5,2.463c-0.015,0.821-0.103,1.642-0.5,2.463
						c-0.396-0.821-0.485-1.642-0.5-2.463C190.598,289.378,190.687,288.557,191.081,287.736z"/>
				</g>
				<g>
					<path style="fill:#2E2F2E;" d="M189.582,296.088c0.346,0.516,0.351,1.038,0.255,1.525c-0.125,0.48-0.359,0.947-0.898,1.259
						c-0.206-0.584-0.166-1.034-0.076-1.484C188.983,296.945,189.143,296.522,189.582,296.088z"/>
				</g>
				<g>
					<path style="fill:#2E2F2E;" d="M215.708,280.455c0.394,0.571,0.483,1.142,0.5,1.713c-0.015,0.571-0.103,1.142-0.5,1.713
						c-0.396-0.571-0.485-1.142-0.5-1.713C215.225,281.597,215.313,281.026,215.708,280.455z"/>
				</g>
				<g>
					<path style="fill:#2E2F2E;" d="M223.876,272.523c0.599,0.617,0.858,1.387,0.979,2.162c0.091,0.779,0.045,1.591-0.371,2.344
						c-0.378-0.768-0.507-1.482-0.619-2.211C223.782,274.085,223.718,273.363,223.876,272.523z"/>
				</g>
				<g>
					<path style="fill:#2E2F2E;" d="M221.084,281.313c0.358,0.711,0.302,1.484,0.082,2.176c-0.245,0.684-0.672,1.331-1.391,1.676
						c0.058-0.787,0.249-1.381,0.445-1.997C220.442,282.561,220.652,281.973,221.084,281.313z"/>
				</g>
				<g>
					<path style="fill:#2E2F2E;" d="M238.628,238.268c0.512,0.646,0.775,1.279,1.03,1.932c0.227,0.663,0.433,1.316,0.455,2.142
						c-0.711-0.43-1.123-1.097-1.394-1.799C238.477,239.83,238.363,239.054,238.628,238.268z"/>
				</g>
				<g>
					<path style="fill:#2E2F2E;" d="M242.505,246.837c0.358,0.699,0.41,1.382,0.391,2.061c-0.051,0.677-0.175,1.351-0.607,2.008
						c-0.36-0.699-0.412-1.382-0.391-2.061C241.951,248.167,242.075,247.494,242.505,246.837z"/>
				</g>
				<g>
					<path style="fill:#2E2F2E;" d="M240.762,256.043c0.394,0.286,0.483,0.571,0.5,0.857c-0.015,0.285-0.103,0.571-0.5,0.857
						c-0.396-0.285-0.485-0.571-0.5-0.857C240.279,256.614,240.368,256.329,240.762,256.043z"/>
				</g>
				<g>
					<path style="fill:#2E2F2E;" d="M249.757,240.196c0.552,0.387,0.78,0.953,0.871,1.519c0.062,0.57-0.01,1.175-0.444,1.693
						c-0.358-0.567-0.465-1.054-0.547-1.562C249.585,241.335,249.561,240.836,249.757,240.196z"/>
				</g>
				<g>
					<path style="fill:#2E2F2E;" d="M261.266,213.02c0.608,0.52,0.901,1.191,1.08,1.88c0.149,0.696,0.185,1.428-0.131,2.164
						c-0.472-0.643-0.674-1.28-0.842-1.936C261.234,214.466,261.131,213.805,261.266,213.02z"/>
				</g>
				<g>
					<path style="fill:#2E2F2E;" d="M263.487,225.21c0.352,0.401,0.399,0.767,0.376,1.125c-0.055,0.355-0.183,0.701-0.617,1.013
						c-0.354-0.401-0.402-0.767-0.376-1.125C262.927,225.868,263.055,225.522,263.487,225.21z"/>
				</g>
				<g>
					<path style="fill:#2E2F2E;" d="M272.679,205.07c0.912,0.588,1.507,1.501,1.892,2.472c0.359,0.98,0.522,2.059,0.229,3.104
						c-0.498-0.956-0.807-1.849-1.163-2.749C273.307,206.988,272.944,206.114,272.679,205.07z"/>
				</g>
				<g>
					<path style="fill:#2E2F2E;" d="M270.1,214.928c0.394,0.5,0.483,0.999,0.5,1.499c-0.015,0.5-0.103,0.999-0.5,1.499
						c-0.396-0.5-0.485-0.999-0.5-1.499C269.617,215.927,269.705,215.427,270.1,214.928z"/>
				</g>
				<g>
					<path style="fill:#2E2F2E;" d="M278.066,178.273c0.906,0.463,1.552,1.202,2.069,2.006c0.492,0.82,0.865,1.729,0.874,2.746
						c-0.735-0.698-1.231-1.451-1.724-2.22C278.818,180.02,278.365,179.241,278.066,178.273z"/>
				</g>
				<g>
					<path style="fill:#2E2F2E;" d="M283.963,178.37c0.806,0.209,1.383,0.818,1.75,1.502c0.345,0.695,0.505,1.519,0.203,2.297
						c-0.488-0.663-0.773-1.244-1.092-1.84C284.527,179.721,284.22,179.151,283.963,178.37z"/>
				</g>
				<g>
					<path style="fill:#2E2F2E;" d="M285.516,165.677c0.853,0.265,1.483,0.841,1.986,1.492c0.48,0.669,0.849,1.439,0.855,2.332
						c-0.713-0.531-1.186-1.124-1.658-1.736C286.252,167.136,285.82,166.511,285.516,165.677z"/>
				</g>
			</g>
			<g>
				<g>
					<path style="fill:#2E2F2E;" d="M51.344,299.026c-0.054,0.713-0.303,1.231-0.593,1.736c-0.316,0.489-0.663,0.947-1.275,1.319
						c-0.105-0.711,0.115-1.309,0.423-1.84C50.233,299.726,50.664,299.258,51.344,299.026z"/>
				</g>
				<g>
					<path style="fill:#2E2F2E;" d="M45.92,304.735c-0.149,0.819-0.482,1.445-0.846,2.064c-0.391,0.602-0.805,1.178-1.475,1.673
						c-0.047-0.835,0.241-1.554,0.626-2.201C44.635,305.641,45.152,305.065,45.92,304.735z"/>
				</g>
				<g>
					<path style="fill:#2E2F2E;" d="M46.479,286.642c-0.041,0.77-0.291,1.362-0.58,1.943c-0.317,0.566-0.667,1.105-1.284,1.569
						c-0.117-0.766,0.095-1.431,0.401-2.038C45.349,287.525,45.781,286.976,46.479,286.642z"/>
				</g>
				<g>
					<path style="fill:#2E2F2E;" d="M41.685,295.096c0.239,0.511,0.217,0.9,0.14,1.284c-0.107,0.376-0.267,0.731-0.718,1.073
						c-0.334-0.46-0.339-0.901-0.253-1.311C40.97,295.738,41.178,295.349,41.685,295.096z"/>
				</g>
				<g>
					<path style="fill:#2E2F2E;" d="M51.01,288.69c-0.29,0.747-0.632,1.275-0.973,1.835c-0.363,0.546-0.701,1.076-1.26,1.651
						c-0.21-0.784,0.025-1.554,0.418-2.19C49.611,289.364,50.212,288.829,51.01,288.69z"/>
				</g>
				<g>
					<path style="fill:#2E2F2E;" d="M46.775,316.011c0.124,0.921,0.123,1.689,0.169,2.484c0.021,0.796,0.085,1.56,0.035,2.489
						c-0.692-0.638-0.985-1.553-1.033-2.448C45.922,317.639,46.14,316.704,46.775,316.011z"/>
				</g>
				<g>
					<path style="fill:#2E2F2E;" d="M52.666,311.827c0.15,0.598,0.072,1.039-0.05,1.477c-0.152,0.43-0.342,0.834-0.813,1.235
						c-0.311-0.538-0.277-1.061-0.14-1.538C51.829,312.533,52.103,312.086,52.666,311.827z"/>
				</g>
				<g>
					<path style="fill:#2E2F2E;" d="M50.001,323.192c0.397,0.487,0.514,0.944,0.584,1.414c0.039,0.474,0.027,0.945-0.253,1.509
						c-0.494-0.395-0.669-0.894-0.74-1.396C49.551,324.212,49.609,323.687,50.001,323.192z"/>
				</g>
				<g>
					<path style="fill:#2E2F2E;" d="M67.74,305.323c0.48,0.832,0.569,1.766,0.492,2.665c-0.106,0.896-0.383,1.792-1.025,2.509
						c-0.118-0.949-0.042-1.771,0.031-2.611C67.34,307.048,67.433,306.227,67.74,305.323z"/>
				</g>
				<g>
					<path style="fill:#2E2F2E;" d="M63.856,316.124c0.173,0.681,0.021,1.276-0.221,1.819c-0.27,0.53-0.638,1.022-1.279,1.313
						c-0.038-0.7,0.146-1.229,0.378-1.744C62.993,317.009,63.288,316.534,63.856,316.124z"/>
				</g>
				<g>
					<path style="fill:#2E2F2E;" d="M81.145,288.235c0.522,0.589,0.718,1.274,0.808,1.962c0.059,0.691,0.011,1.402-0.378,2.088
						c-0.404-0.674-0.531-1.322-0.616-1.982C80.905,289.638,80.893,288.978,81.145,288.235z"/>
				</g>
				<g>
					<path style="fill:#2E2F2E;" d="M79.699,295.321c0.351,0.674,0.319,1.388,0.148,2.043c-0.199,0.647-0.549,1.27-1.205,1.656
						c-0.048-0.754,0.088-1.336,0.244-1.931C79.069,296.502,79.262,295.936,79.699,295.321z"/>
				</g>
				<g>
					<path style="fill:#2E2F2E;" d="M98.124,270.107c0.735,0.02,1.314,0.51,1.656,1.091c0.324,0.59,0.448,1.34,0.085,1.981
						c-0.435-0.576-0.679-1.02-0.955-1.488C98.653,271.212,98.396,270.774,98.124,270.107z"/>
				</g>
				<g>
					<path style="fill:#2E2F2E;" d="M52.243,271.939c-0.08,0.471-0.24,0.662-0.441,0.812c-0.217,0.125-0.456,0.193-0.921,0.074
						c-0.057-0.479,0.138-0.74,0.376-0.912C51.512,271.767,51.829,271.694,52.243,271.939z"/>
				</g>
				<g>
					<path style="fill:#2E2F2E;" d="M108.004,251.545c0.664-0.239,1.284-0.132,1.85,0.079c0.555,0.239,1.076,0.591,1.388,1.226
						c-0.702,0.056-1.233-0.101-1.761-0.299C108.964,252.325,108.471,252.07,108.004,251.545z"/>
				</g>
				<g>
					<path style="fill:#2E2F2E;" d="M115.526,254.178c0.777,0.21,1.341,0.638,1.854,1.118c0.491,0.502,0.93,1.057,1.154,1.832
						c-0.779-0.209-1.342-0.637-1.854-1.118C116.19,255.506,115.751,254.951,115.526,254.178z"/>
				</g>
				<g>
					<path style="fill:#2E2F2E;" d="M121.126,244.664c0.373-0.126,0.774-0.066,1.121,0.081c0.355,0.142,0.649,0.384,0.898,0.646
						c0.476,0.551,0.771,1.195,0.77,1.964c-0.682-0.369-1.097-0.856-1.512-1.294C121.996,245.601,121.666,245.206,121.126,244.664z"
						/>
				</g>
				<g>
					<path style="fill:#2E2F2E;" d="M126.412,241.73c0.615-0.141,1.142,0.111,1.536,0.465c0.376,0.374,0.656,0.887,0.545,1.51
						c-0.581-0.228-0.905-0.49-1.233-0.785C126.95,242.606,126.671,242.296,126.412,241.73z"/>
				</g>
				<g>
					<path style="fill:#2E2F2E;" d="M113.055,240.767c1.136-0.202,2.235-0.056,3.299,0.201c1.056,0.287,2.09,0.69,2.986,1.418
						c-1.152,0.023-2.194-0.197-3.235-0.45C115.072,241.652,114.053,241.342,113.055,240.767z"/>
				</g>
				<g>
					<path style="fill:#2E2F2E;" d="M68.547,244.301c0.295-0.724,0.833-1.194,1.422-1.557c0.604-0.337,1.279-0.575,2.055-0.474
						c-0.462,0.628-0.993,0.995-1.551,1.337C69.901,243.923,69.32,244.205,68.547,244.301z"/>
				</g>
				<g>
					<path style="fill:#2E2F2E;" d="M76.513,241.109c0.536-0.517,1.136-0.735,1.75-0.882c0.621-0.117,1.258-0.162,1.958,0.095
						c-0.536,0.519-1.135,0.737-1.751,0.883C77.849,241.319,77.213,241.363,76.513,241.109z"/>
				</g>
				<g>
					<path style="fill:#2E2F2E;" d="M138.688,228.648c0.772,0.043,1.373,0.34,1.935,0.697c0.544,0.383,1.047,0.827,1.378,1.527
						c-0.773-0.041-1.375-0.338-1.935-0.697C139.523,229.79,139.02,229.346,138.688,228.648z"/>
				</g>
				<g>
					<path style="fill:#2E2F2E;" d="M145.211,222.335c0.633-0.142,1.191,0.151,1.581,0.556c0.372,0.42,0.618,1.002,0.421,1.622
						c-0.547-0.329-0.845-0.622-1.157-0.945C145.762,223.228,145.494,222.906,145.211,222.335z"/>
				</g>
				<g>
					<path style="fill:#2E2F2E;" d="M148.992,220.374c0.592,0.045,0.969,0.438,1.18,0.875c0.188,0.447,0.231,0.991-0.13,1.463
						c-0.432-0.396-0.613-0.706-0.782-1.054C149.115,221.301,149.002,220.958,148.992,220.374z"/>
				</g>
				<g>
					<path style="fill:#2E2F2E;" d="M100.798,213.603c1.366-0.334,2.765-0.243,4.109,0.03c1.338,0.303,2.65,0.797,3.756,1.667
						c-1.396-0.131-2.671-0.425-3.967-0.69C103.407,214.315,102.123,214.057,100.798,213.603z"/>
				</g>
				<g>
					<path style="fill:#2E2F2E;" d="M106.641,218.219c0.565-0.254,1.101-0.134,1.552,0.098c0.438,0.257,0.825,0.646,0.911,1.261
						c-0.615-0.022-1.003-0.185-1.393-0.386C107.334,218.967,106.988,218.725,106.641,218.219z"/>
				</g>
				<g>
					<path style="fill:#2E2F2E;" d="M111.252,207.471c0.757-0.436,1.581-0.506,2.379-0.439c0.794,0.096,1.587,0.334,2.238,0.918
						c-0.85,0.184-1.59,0.14-2.341,0.076C112.78,207.932,112.047,207.824,111.252,207.471z"/>
				</g>
				<g>
					<path style="fill:#2E2F2E;" d="M118.896,205.102c0.983-0.491,2.052-0.594,3.097-0.538c1.043,0.086,2.089,0.337,2.994,0.96
						c-1.084,0.15-2.066,0.092-3.063,0.037C120.93,205.475,119.948,205.398,118.896,205.102z"/>
				</g>
			</g>
		</g>
		<g>
			<g>
				<polygon style="fill:#2E2F2E;" points="211.27,391.759 210.6,392.419 210.301,392.713 209.898,392.71 80.145,391.717 
					209.898,390.724 209.196,391.015 209.856,390.345 				"/>
			</g>
			<g>
				<polygon style="fill:#2E2F2E;" points="354.273,389.387 414.775,390.387 354.273,391.387 				"/>
			</g>
		</g>
	</g>
</g>
</svg>
