<svg width="117" height="91" viewBox="0 0 117 91" fill="none"
     xmlns="http://www.w3.org/2000/svg">
    <path fill-rule="evenodd" clip-rule="evenodd"
          d="M67.1508 6.34008C68.1394 6.55892 69.0719 6.99549 69.9352 7.51234C70.3861 7.78397 70.7666 7.10656 70.3421 6.81844C69.4217 6.19162 68.4627 5.76604 67.3883 5.47682C66.5438 5.25029 65.3693 4.94678 64.583 5.41085C64.4302 5.50322 64.439 5.71547 64.583 5.80784C65.3121 6.27191 66.3161 6.15314 67.1508 6.34008Z"
          fill="#351E16"></path>
    <path fill-rule="evenodd" clip-rule="evenodd"
          d="M63.3165 8.2529C63.8619 8.47283 64.5008 8.42116 65.0804 8.50033C65.7842 8.59491 66.4825 8.71917 67.1819 8.84783C67.6866 8.9391 67.9077 8.18252 67.3963 8.07035C66.7035 7.92079 66.0118 7.77564 65.3124 7.66127C64.6757 7.559 63.9323 7.40065 63.3165 7.62828C63.002 7.74485 63.0163 8.13193 63.3165 8.2529Z"
          fill="#351E16"></path>
    <path fill-rule="evenodd" clip-rule="evenodd"
          d="M80.8364 3.599C80.5758 3.18662 80.3371 2.76104 80.1502 2.31017C79.9808 1.89559 79.9379 1.44801 79.7136 1.05872C79.6135 0.882774 79.3122 0.859681 79.2187 1.05872C78.7844 1.97366 79.6718 3.25041 80.17 3.9894C80.446 4.39959 81.1058 4.02458 80.8364 3.599Z"
          fill="#351E16"></path>
    <path fill-rule="evenodd" clip-rule="evenodd"
          d="M93.7302 6.66003C94.2954 5.97272 94.8749 5.3052 95.5028 4.67508C95.8855 4.28799 96.2924 3.93389 96.7323 3.61608C97.0501 3.38625 97.3437 3.2213 97.5483 2.8771C97.644 2.71654 97.5175 2.5329 97.3426 2.5219C96.5509 2.47131 95.8152 3.2422 95.2686 3.73596C94.4868 4.44196 93.8302 5.28432 93.1836 6.11129C92.8823 6.49838 93.409 7.04932 93.7302 6.66003Z"
          fill="#351E16"></path>
    <path fill-rule="evenodd" clip-rule="evenodd"
          d="M96.7647 8.27807C98.0195 7.52808 99.2699 6.74069 100.388 5.80156C100.592 5.63111 100.374 5.23632 100.119 5.34189C98.764 5.90603 97.6148 6.83087 96.3667 7.60065C95.9389 7.86458 96.3293 8.5398 96.7647 8.27807Z"
          fill="#351E16"></path>
    <path fill-rule="evenodd" clip-rule="evenodd"
          d="M101.49 13.2831C102.063 13.2545 102.578 13.0577 103.08 12.7871C103.208 12.7189 103.282 12.5738 103.283 12.4319C103.287 12.1999 103.123 12.0195 102.872 12.0195C102.683 12.0195 102.48 12.1548 102.312 12.2307C102.048 12.3494 101.779 12.4275 101.491 12.444C100.952 12.4748 100.948 13.3095 101.49 13.2831Z"
          fill="#351E16"></path>
    <path fill-rule="evenodd" clip-rule="evenodd"
          d="M67.7844 83.6173C67.8713 83.7009 67.9593 83.7867 68.0473 83.8702C68.0715 83.8933 68.1078 83.857 68.0847 83.8339C68 83.746 67.9142 83.658 67.8306 83.5722C67.8009 83.5425 67.7536 83.5876 67.7844 83.6173Z"
          fill="#351E16"></path>
    <path fill-rule="evenodd" clip-rule="evenodd"
          d="M101.731 36.8923C98.0378 34.4499 93.6709 33.0291 89.1875 32.4473C89.182 32.3979 89.1699 32.3528 89.1501 32.3099C91.19 29.7201 93.5873 27.413 95.6921 24.876C96.4927 23.9116 97.3472 22.8075 97.9905 21.6187C98.4743 21.0029 98.9043 20.353 99.1232 19.6613C99.1528 19.5667 99.1034 19.4765 99.0286 19.4204C99.2353 19.1136 99.4729 18.8057 99.6521 18.478C99.9798 18.4824 100.276 18.0513 99.9798 17.7368C96.4234 13.9418 92.7021 10.4206 89.6285 6.19778C89.4965 6.01633 89.2876 5.99984 89.1336 6.07792C89.1303 6.06362 89.1292 6.04933 89.1259 6.03283C89.0665 5.64794 88.4067 5.73702 88.4463 6.12521C88.7344 8.93491 88.9676 11.7787 89.6274 14.5213C88.84 13.7218 88.0229 12.9411 87.3103 12.1416C85.906 10.569 84.4533 8.86562 82.6729 7.69336C82.7015 7.63727 82.7334 7.58338 82.7609 7.5295C82.7851 7.48221 82.7851 7.43603 82.7796 7.39204C82.8335 7.39534 82.8874 7.39974 82.9402 7.40194C84.1663 7.45362 85.6058 7.56689 86.8793 7.29527C86.9134 7.30517 86.9408 7.32606 86.9771 7.32606C87.2037 7.32276 87.4269 7.31836 87.6512 7.32826C87.6567 7.33266 87.6567 7.33267 87.6622 7.33707C87.6853 7.35466 87.6952 7.36895 87.7568 7.41843C88.0526 7.66146 88.5892 7.33816 88.3297 6.97856C88.2857 6.91918 88.2528 6.8466 88.2055 6.77622C88.2715 6.68384 88.2528 6.56947 88.1758 6.4892C88.2341 6.24067 88.0317 5.95145 87.7557 5.95145C87.4467 5.95145 87.1366 5.94485 86.8275 5.95585C86.6879 5.96025 86.5207 6.03173 86.4581 6.16699C86.4251 6.23957 86.4141 6.29456 86.4097 6.35284C84.9977 6.38033 83.5549 6.55298 82.1539 6.50129C80.1326 6.42652 78.1213 6.23738 76.0979 6.23738C75.8868 6.23738 75.7636 6.36824 75.7229 6.5244C75.6668 6.54309 75.6096 6.57058 75.5568 6.62117C73.8446 8.20692 72.5118 10.3964 71.1075 12.245C70.1728 13.4755 69.2403 14.7105 68.2736 15.9157C68.0295 16.2214 67.384 17.187 67.0497 17.4509C66.8297 17.4432 66.6032 17.6191 66.6934 17.8787C66.722 17.9601 66.766 18.026 66.8045 18.0953C66.7297 18.1613 66.689 18.2592 66.7319 18.3867C67.8425 21.6792 71.1647 24.6692 73.5224 27.0666C75.1829 28.7524 77.0876 30.6175 79.1748 32.0789C76.6741 31.5126 73.5169 32.3583 70.6764 33.7956C66.9122 28.8898 61.7283 24.8485 55.2368 22.2202C39.9204 16.0202 21.3126 20.3695 12.5876 34.4499C12.5173 34.4422 12.4458 34.4576 12.3886 34.5158C5.84656 41.2195 4.54343 52.2879 6.08409 61.1789C7.89528 71.6259 13.7775 80.0572 22.8246 85.5458C35.6987 93.3557 52.6207 91.8965 64.1036 83.132C65.6069 84.4835 67.252 85.7052 69.0775 86.7334C82.6114 94.3587 98.9054 91.7876 107.694 78.8597C116.543 65.8394 115.415 45.9449 101.731 36.8923ZM88.2176 30.3513C87.7788 30.7032 87.318 31.0254 86.8496 31.3366C87.3048 30.359 87.6061 29.2835 87.8712 28.2201C88.3429 27.1116 88.763 25.9691 89.2898 24.9189C89.4481 24.6033 89.0016 24.3371 88.8147 24.6395C88.8015 24.6604 88.7894 24.6802 88.7784 24.7C89.3305 22.67 89.9298 20.6741 90.6951 18.7111C90.7028 18.7078 90.7095 18.7067 90.7172 18.7056C90.8645 18.6715 90.9338 18.5825 90.9712 18.4813C91.863 20.2001 92.8055 21.8947 93.7985 23.5553C93.3564 24.1425 92.9165 24.7242 92.4723 25.2851C91.4353 26.5959 90.4455 27.9364 89.5504 29.3385C89.05 29.5617 88.6332 30.0159 88.2176 30.3513ZM85.9643 30.9122C85.8532 31.3399 85.7422 31.7644 85.6278 32.1812C85.1374 32.1625 84.6469 32.1559 84.1586 32.1548C83.9739 30.105 83.7638 28.0475 83.5186 26.0043C85.9467 24.0875 87.6853 21.4911 89.5636 19.052C88.1109 22.3148 87.2081 26.0373 86.3184 29.5431C86.1743 29.9137 86.0281 30.2876 85.9126 30.6603C85.8774 30.767 85.9104 30.8473 85.9643 30.9122ZM82.7488 25.2972C82.7554 25.3983 82.7598 25.5017 82.7653 25.6018C82.7488 25.6348 82.7323 25.6699 82.7235 25.7051C82.707 25.6381 82.6762 25.5765 82.6091 25.5226C80.137 23.5465 78.1235 21.1524 75.9154 18.9179C79.6686 20.0802 84.4412 19.8504 88.4155 19.1631C86.7869 21.203 85.3452 23.3969 83.3284 25.0838C83.1293 24.887 82.7279 24.9431 82.7488 25.2972ZM83.2668 32.168C82.9754 32.1746 82.6839 32.1746 82.3925 32.1878C80.6253 30.1985 79.0297 28.3576 77.6836 25.9977C76.5905 24.0842 75.6448 22.0905 74.6958 20.1011C74.6925 20.0572 74.676 20.022 74.6485 19.9989C74.5572 19.8097 74.4671 19.6195 74.3769 19.4292C74.6045 19.4468 74.8333 19.4567 75.0631 19.482C75.1753 19.4963 75.26 19.4644 75.3226 19.4127C77.4318 21.7881 79.4607 24.4339 82.1066 26.1747C82.354 26.3375 82.6366 26.1494 82.718 25.9163C82.7301 25.9746 82.7576 26.0285 82.7873 26.0757C82.8753 28.0926 82.8665 30.1886 83.2668 32.168ZM92.7494 27.1061C91.9411 27.9716 91.1175 28.8261 90.3202 29.6904C91.3616 28.1399 92.481 26.6443 93.6588 25.174C93.8667 24.9156 94.08 24.656 94.2988 24.3965C94.3395 24.4614 94.3758 24.5252 94.4143 24.5901C93.8436 25.2664 93.2783 25.946 92.7076 26.6234C92.5657 26.7905 92.6218 26.9929 92.7494 27.1061ZM97.4725 20.5113C97.3351 20.7566 97.1954 20.9996 97.058 21.2448C97.0393 21.2778 97.0327 21.3108 97.025 21.3416C96.7038 21.7815 96.3882 22.2246 96.0572 22.6304C95.7086 23.0604 95.3468 23.4772 94.9916 23.9017C94.9531 23.8346 94.9168 23.7719 94.8806 23.7059C95.9835 22.4039 97.0997 21.0623 97.864 19.5777C97.7519 19.8999 97.6089 20.2023 97.4725 20.5113ZM98.0598 18.9993C98.0026 18.8651 97.8365 18.787 97.698 18.9168C96.4795 20.066 95.4073 21.4318 94.3659 22.8086C93.5389 21.3515 92.7109 19.8944 91.8718 18.4417C93.9414 18.7364 96.0605 18.7485 98.1433 18.7463C98.1213 18.8332 98.084 18.9135 98.0598 18.9993ZM89.2656 7.00056C91.7981 11.1805 95.6844 14.496 99.0352 18.0062C99.0187 18.026 99.0022 18.0425 98.9868 18.0623C98.9186 17.949 98.8109 17.8611 98.6382 17.8611C96.231 17.86 93.8568 17.7863 91.4715 17.5213C91.4441 17.4465 91.4177 17.3706 91.3869 17.2958C91.6057 17.2793 91.8113 17.077 91.653 16.8516C91.4187 16.5162 91.1482 16.1973 90.8744 15.8783C89.9661 13.0115 89.6834 9.98182 89.2656 7.00056ZM86.7132 12.7398C87.6908 13.8384 88.763 15.3956 90.0068 16.4502C89.9969 16.5195 90.0002 16.592 90.0387 16.669C90.1563 16.8999 90.2773 17.1298 90.3961 17.3618C90.3873 17.3783 90.3796 17.3948 90.3719 17.4091C90.3235 17.4124 90.2828 17.4333 90.241 17.4498C90.1167 17.3783 89.9595 17.3783 89.8242 17.5191C89.6537 17.6994 89.4943 17.8886 89.3283 18.0755C84.7602 18.7672 79.5619 19.2049 75.1533 17.8402C76.2606 16.5909 77.2724 15.2625 78.2709 13.9209C79.5916 12.1449 81.1807 10.304 82.3122 8.35868C83.8595 9.74978 85.3232 11.1783 86.7132 12.7398ZM76.4399 7.06654C78.4029 7.12592 80.3614 7.27108 82.3243 7.36675C82.3034 7.38655 82.2859 7.40965 82.265 7.42944C82.2496 7.41844 82.2364 7.40854 82.221 7.39974C81.9141 7.22159 81.5656 7.64498 81.8163 7.8957C80.5659 9.19114 79.5685 10.8154 78.5205 12.2527C77.1602 14.1177 75.746 15.9311 74.2746 17.7071C74.2152 17.706 74.1569 17.7203 74.1053 17.75C74.7827 14.165 75.9517 10.6878 76.4399 7.06654ZM70.4356 14.518C72.1346 12.3132 73.7622 10.0467 75.5349 7.9001C74.8399 11.3674 73.7753 14.7534 73.209 18.2482C73.2079 18.2581 73.2046 18.268 73.2035 18.2768C73.198 18.3207 73.187 18.3658 73.1782 18.4109C72.6625 18.4076 72.1467 18.4263 71.6749 18.4197C70.7347 18.4054 68.5595 18.6177 67.6259 17.9106C68.7025 17.2859 70.0617 15.0019 70.4356 14.518ZM67.5676 18.787C68.1483 19.0586 68.884 19.1202 69.491 19.1818C70.7567 19.3116 72.028 19.3094 73.2981 19.36C72.5602 21.0073 71.8817 22.8636 71.9092 24.5835C70.164 22.8702 68.4705 20.9446 67.5676 18.787ZM74.0096 26.575C73.5279 26.1296 73.0243 25.6601 72.5206 25.1784C72.8956 24.1436 73.0001 22.9911 73.2871 21.9244C73.462 21.2767 73.6709 20.6356 73.8985 20.0022C74.0382 20.3332 74.1855 20.662 74.3285 20.9908C74.1646 22.8559 73.7237 24.8397 74.1481 26.63C74.18 26.7674 74.3868 26.7652 74.4198 26.63C74.7904 25.163 74.786 23.5223 74.7442 21.9343C74.8366 22.1367 74.9388 22.3335 75.0334 22.5359C74.9476 22.5479 74.8706 22.6073 74.8838 22.7052C74.9905 23.5223 74.9839 24.3448 74.9861 25.1663C74.9861 25.9548 74.8652 26.8378 75.1082 27.5955C74.7365 27.2524 74.3681 26.9082 74.0096 26.575ZM75.3446 27.8176C75.4161 27.8099 75.4832 27.7671 75.514 27.6835C75.7966 26.9038 75.6459 25.9812 75.5921 25.1685C75.5459 24.479 75.4315 23.7983 75.3127 23.1187C75.536 23.5905 75.7713 24.0545 76.0033 24.5197C75.8934 24.5538 75.7977 24.6297 75.7955 24.7792C75.7834 25.3378 75.7724 25.8965 75.7592 26.454C75.746 26.9698 75.6382 27.5394 75.9165 27.9969C76 28.1311 76.198 28.1311 76.2805 27.9969C76.5246 27.5966 76.4553 27.149 76.4443 26.6927C76.4333 26.2396 76.4234 25.7876 76.4146 25.3334C76.5884 25.6689 76.7709 25.9977 76.9502 26.3298C76.8666 26.3815 76.8061 26.465 76.8028 26.5915C76.7918 27.1974 76.7819 27.799 76.8248 28.4016C76.8446 28.6677 76.8611 29.0097 76.9722 29.2846C76.4179 28.8008 75.8725 28.3092 75.3446 27.8176ZM77.4274 29.6706C77.4978 29.664 77.5627 29.6343 77.6023 29.5651C77.8046 29.211 77.6056 28.7854 77.5561 28.4027C77.511 28.042 77.4923 27.6769 77.4824 27.3118C77.5814 27.4855 77.6869 27.6692 77.7936 27.8572C77.6814 27.8935 77.5913 27.9903 77.5924 28.1476C77.6034 28.8371 77.7397 29.8873 78.2885 30.3645C78.3941 30.4569 78.5942 30.4349 78.6272 30.2754C78.6888 29.962 78.6118 29.7234 78.5073 29.4221C78.4293 29.1956 78.3655 28.9745 78.316 28.748C78.8108 29.5695 79.3838 30.4063 80.0238 31.1343C79.8632 31.1288 79.7016 31.2289 79.6356 31.3817C78.8746 30.8539 78.1389 30.2765 77.4274 29.6706ZM60.8254 84.2393C60.6946 84.3163 60.5681 84.3999 60.4361 84.478C60.3119 84.5527 60.1843 84.622 60.0579 84.6946C51.8003 89.3617 41.4457 90.4955 31.9081 88.0069C31.9026 87.9442 31.8773 87.8848 31.8069 87.8474C23.7231 83.7511 17.4263 78.7519 12.3204 71.1629C5.26811 60.6862 8.49129 50.9342 10.9073 39.6877C10.959 39.4447 10.6335 39.3655 10.5444 39.5865C6.44479 49.7762 5.22742 60.1617 10.584 70.0259C14.081 76.4645 19.9578 82.7273 26.7373 86.2606C26.0907 85.99 25.4485 85.7063 24.8162 85.3995C7.55987 77.0188 1.78099 54.0507 10.8732 37.8688C10.9656 38.2768 11.544 38.5088 11.7805 38.0425C19.2935 23.2012 35.2456 18.0458 50.8645 21.9376C58.4017 23.8148 65.1252 28.2058 70.12 34.0947C69.4283 34.4708 68.752 34.8677 68.1241 35.2955C68.0372 35.3208 67.9569 35.3593 67.8722 35.3857C67.7095 35.1471 67.4895 34.9392 67.2806 34.7281C67.042 34.4894 66.7209 34.6511 66.6285 34.893C66.424 34.7171 66.2172 34.551 66.0644 34.4037C65.7531 34.1013 65.3253 34.4103 65.3506 34.7479C65.0031 34.4477 64.6579 34.1419 64.2961 33.8604C64.1113 33.7164 63.8859 33.7999 63.788 33.9506C63.2942 33.4524 62.7884 32.9686 62.2583 32.5067C62.0241 32.3022 61.7514 32.5496 61.8382 32.7926C51.6925 24.1238 32.4315 23.7719 22.7949 33.1434C14.2833 40.1693 11.7948 49.8752 14.1129 59.0686C13.937 59.0873 13.7665 59.2258 13.8105 59.4557C15.9252 70.6593 24.7326 82.1103 36.9369 82.8493C37.0975 82.8603 37.1866 82.7636 37.2349 82.647C40.8386 83.6994 44.638 84.0469 48.4749 83.5817C49.5602 84.1986 50.8744 84.6341 52.0444 84.5011C52.1885 84.4835 52.2721 84.2932 52.1247 84.2085C51.5122 83.8632 50.8117 83.7401 50.1343 83.5729C49.9583 83.53 49.7956 83.4585 49.6251 83.4058C50.2486 83.3024 50.8711 83.1737 51.4946 83.0319C51.4605 83.1462 51.4781 83.2793 51.6001 83.3431C52.5492 83.8412 54.6463 84.4989 55.3193 83.2232C55.3952 83.077 55.3017 82.8856 55.128 82.8878C54.6562 82.8944 54.235 83.1331 53.7621 83.1825C53.1353 83.2474 52.5635 83.133 51.9883 82.9164C52.6383 82.7559 53.2871 82.5623 53.9359 82.349C53.9733 82.4138 54.0261 82.4732 54.1152 82.504C54.6001 82.6646 55.0796 82.7559 55.5898 82.7812C56.1848 82.8108 56.5741 82.6437 57.0502 82.3105C57.1646 82.2313 57.1283 82.0444 56.9776 82.04C56.3013 82.0268 55.6283 82.0741 54.9619 81.9971C55.2522 81.8728 55.3072 81.5594 55.1972 81.3395C56.1342 80.9502 57.0348 80.4784 57.9201 79.9648C57.4868 80.3299 57.0568 80.6994 56.6224 81.0601C56.3761 81.268 56.6994 81.6771 56.9644 81.5044C59.9941 79.5459 63.1964 76.8637 64.9746 73.6328C68.6233 68.6721 70.6423 62.7184 70.9865 56.6745C71.0415 56.7922 71.1889 56.856 71.3033 56.7361C72.2226 55.7717 72.5503 54.1992 72.9869 52.973C73.1166 52.6079 72.5536 52.466 72.4162 52.8135C71.9631 53.9605 71.2274 55.1823 70.9987 56.4073C71.1196 53.9286 70.9701 51.4367 70.5258 48.9987C70.5775 49.002 70.6347 48.9745 70.6578 48.9174C70.98 48.0937 71.0283 47.1766 71.1614 46.3089C71.1933 46.1066 70.8876 46.0164 70.8513 46.2231C70.7116 47.0006 70.506 47.7836 70.4488 48.5754C70.2157 47.3877 69.9198 46.211 69.5503 45.0553C69.8737 44.4735 69.8781 43.6136 69.8726 43.0296C69.8726 43.0054 69.8627 42.9889 69.8594 42.9669C69.933 42.9131 70.0056 42.8559 70.0804 42.8031C70.6831 44.0589 71.2263 45.3456 71.7409 46.6509C71.5914 46.5893 71.3912 46.6234 71.3571 46.8093C71.1658 47.8749 70.6424 49.0713 70.8568 50.1622C70.8832 50.2964 71.0811 50.314 71.1427 50.1996C71.6452 49.2758 71.7574 48.075 71.8839 47.0314C71.9752 47.2678 72.0609 47.5109 72.1522 47.7473C72.0246 47.6934 71.8729 47.7209 71.8487 47.8957C71.6804 49.0504 71.4451 50.1963 71.3077 51.3532C71.2879 51.5137 71.5485 51.5819 71.6123 51.4367C72.0664 50.4096 72.1632 49.2693 72.3095 48.1652C72.4843 48.627 72.6647 49.0812 72.8296 49.5541C72.8956 49.7465 73.2244 49.7289 73.2024 49.5035C72.9605 46.906 72.0609 44.4944 70.8403 42.2401C71.9059 41.5396 73.0397 40.9721 74.2043 40.4751C77.9366 48.8932 76.8666 58.9531 74.1042 67.5483C72.7791 71.6655 70.7215 75.19 68.145 78.1438C68.0482 78.0448 67.8942 77.9953 67.7733 78.0734C66.4547 78.9278 65.4727 80.3882 64.351 81.4857C63.2744 82.5348 62.0868 83.4432 60.8254 84.2393ZM64.4951 38.9883C62.8126 40.3772 61.2873 41.9596 60.1029 43.6993C61.5292 41.3625 63.2239 39.1521 65.3298 37.5983C65.0175 37.9172 64.7249 38.2372 64.4786 38.5506C64.3554 38.7112 64.3906 38.8871 64.4951 38.9883ZM23.7836 74.9184C25.2813 76.3106 26.9364 77.5433 28.697 78.61C29.5316 79.1775 30.3927 79.6943 31.2692 80.1738C28.0152 78.8465 25.0746 77.1376 22.299 74.3894C19.6179 71.737 17.7155 68.4797 16.309 65.0135C18.0795 68.5853 20.5978 71.9569 23.7836 74.9184ZM20.3503 36.9659C20.3921 36.9857 20.4361 36.9967 20.4823 37.0077C14.5077 44.7913 12.7735 53.9539 16.4442 63.2661C12.757 54.5511 13.8666 44.6176 20.3503 36.9659ZM29.7428 77.837C26.5251 75.6904 23.5713 72.8268 20.9167 69.288C11.1537 56.2743 15.5139 42.3324 26.4305 31.9096C26.557 31.7897 26.5735 31.6523 26.5339 31.5291C37.489 24.347 55.1731 26.7125 63.6286 36.1148C63.9321 36.4546 64.2048 36.8131 64.4808 37.1694C60.6924 40.0517 58.2005 45.1597 56.2002 49.079C52.7306 55.8839 52.3908 65.2587 56.364 71.9195C57.147 73.9562 58.1697 75.8993 59.3915 77.7237C59.1946 77.8732 59.0033 78.0272 58.8086 78.1822C50.3971 83.8896 38.8361 82.9769 29.7428 77.837ZM62.486 73.1578C62.4156 73.2073 62.3628 73.282 62.3606 73.3997C62.3551 73.8286 62.3672 74.4488 62.5728 74.9096C62.5288 74.9558 62.4849 75.0019 62.4409 75.047C62.3925 74.7776 62.3243 74.506 62.2814 74.2553C62.1594 73.5449 62.0483 72.8334 61.9504 72.1208C62.1143 72.4727 62.31 72.8103 62.486 73.1578ZM68.2824 43.9534C71.6145 52.9466 70.1145 63.8379 65.0548 71.7403C64.7447 72.2219 64.4203 72.6794 64.0882 73.1259C59.243 63.7994 61.7734 51.9954 68.2824 43.9534ZM74.5968 40.3046C84.9625 36.1181 98.4359 39.7086 104.191 49.4936C109.583 58.6661 107.227 70.9991 99.8885 78.3208C91.5232 86.6663 77.1151 86.7851 68.5716 79.0378C70.5929 76.8109 72.3293 74.2872 73.6874 71.4764C78.8482 60.7951 78.8504 49.6135 74.5968 40.3046ZM108.452 75.9026C100.836 90.4855 84.9196 93.0005 70.7534 86.5828C68.5046 85.5645 66.4954 84.2239 64.6963 82.6646C64.9207 82.4864 65.1351 82.2929 65.354 82.1081C65.4672 82.7141 65.7531 83.3387 66.3195 83.4806C66.4679 83.5168 66.5933 83.4113 66.6032 83.2661C66.645 82.6646 66.1303 82.1686 65.9753 81.5803C66.0798 81.4879 66.1765 81.3889 66.2788 81.2966C66.5174 82.0465 66.8858 83.0968 67.6127 83.1462C67.6941 83.1528 67.7766 83.0836 67.7963 83.0066C67.8161 82.9274 67.814 82.8581 67.8085 82.7877C68.4837 83.5905 69.1963 84.3361 70.0837 84.9827C70.1849 85.0553 70.3059 84.8947 70.2168 84.8112C69.4855 84.1415 68.7993 83.3981 68.134 82.6393C68.2758 82.7658 68.4144 82.8988 68.5827 82.9868C68.7025 83.0517 68.8345 82.9912 68.884 82.8834C68.8949 82.9175 68.896 82.9538 68.9312 82.9868C69.8572 83.8116 70.7985 84.6165 71.7805 85.3731C72.6306 86.0285 73.705 87.0051 74.8014 87.1282C74.9223 87.1414 75.0147 86.9754 74.9443 86.8764C74.4253 86.1594 73.4982 85.7404 72.7735 85.2489C71.5705 84.4307 70.4004 83.5608 69.271 82.6459C69.127 82.5282 68.9587 82.6096 68.8916 82.7339C68.6541 81.8145 67.925 81.0414 67.4181 80.2233C67.4719 80.1716 67.528 80.1243 67.5808 80.0704C68.7157 81.1591 69.9385 82.173 71.2956 83.0517C71.5595 83.221 71.8388 82.8416 71.6244 82.6239C71.4528 82.4501 71.2912 82.2786 71.1207 82.1037C72.7362 83.1177 74.4638 83.9039 76.2585 84.4637C76.1518 84.5285 76.0902 84.666 76.2068 84.7771C77.5286 86.0252 79.6697 87.1139 81.538 86.8665C81.6788 86.8467 81.791 86.6345 81.6217 86.5575C79.9303 85.78 78.0763 85.8471 76.6071 84.5582C77.8288 84.9211 79.0825 85.1708 80.3504 85.3291C80.3614 85.3401 80.3603 85.3544 80.3757 85.3632C81.6414 86.1231 83.1425 87.0171 84.6469 87.1271C84.8228 87.1403 84.8591 86.9017 84.7316 86.8181C83.8199 86.221 82.7554 85.8878 81.7393 85.4633C83.1623 85.5623 84.5996 85.515 86.0303 85.3665C86.0171 85.4523 86.0479 85.5491 86.1501 85.5898C87.5126 86.1286 89.2029 86.4772 90.638 86.0362C90.7502 86.0043 90.7502 85.8449 90.638 85.8108C89.325 85.4072 87.9251 85.6502 86.5944 85.3148C89.6263 84.9299 92.6141 83.9919 95.3754 82.5293C96.7742 82.7591 98.1093 82.5139 99.2123 81.5759C99.2727 81.5264 99.2078 81.4186 99.1375 81.445C98.1301 81.7947 97.1382 82.1169 96.0924 82.1257C96.8094 81.7178 97.5044 81.2669 98.1851 80.7896C99.8424 80.3596 101.695 79.7328 102.86 78.4869C102.931 78.4132 102.863 78.2669 102.754 78.3054C101.698 78.6727 100.691 79.1753 99.6763 79.6591C99.7082 79.6316 99.7434 79.6075 99.7764 79.5822C100.548 78.9333 101.246 78.2229 101.908 77.4873C102.968 76.8549 104.052 76.095 104.712 75.1086C104.784 74.9997 104.64 74.8568 104.533 74.9294C104.035 75.2494 103.578 75.6288 103.126 76.0115C109.005 68.1685 109.411 56.6812 104.46 48.2674C97.709 36.7977 78.3852 33.988 68.5738 42.9252C68.5177 42.9252 68.4584 42.9416 68.4045 42.9944C62.2044 49.1582 59.4541 58.6045 61.1234 67.1623C60.9486 66.6146 60.7649 66.0769 60.6209 65.4974C58.5128 57.099 61.8151 49.2209 67.4697 43.0978C67.6963 42.8537 67.351 42.5106 67.1069 42.7327C58.8537 50.2491 57.5099 62.1202 61.7811 71.7249C61.5798 71.6204 61.2433 71.737 61.2664 72.0108C61.3313 72.7333 61.3676 73.4591 61.4643 74.1794C61.5314 74.6698 61.5446 75.2769 61.7723 75.7442C61.6645 75.8498 61.5655 75.9697 61.4556 76.0742C61.0553 76.3744 60.677 76.7164 60.3009 77.0166C60.1898 77.1046 60.0744 77.1903 59.9633 77.2783C58.912 75.7102 57.9872 74.0485 57.2482 72.2802C57.2713 72.2033 57.269 72.1131 57.2229 72.0174C57.0326 71.6281 56.8567 71.2355 56.6862 70.8418C56.6477 70.7341 56.6049 70.6307 56.5664 70.5229C54.0734 63.3783 55.2489 56.2864 57.9432 49.6322C58.0553 49.6509 58.1708 49.6102 58.2038 49.4606C58.2994 49.0218 58.4182 48.5995 58.5513 48.1883C58.9868 47.2018 59.4508 46.2253 59.9402 45.2598C64.0244 40.9776 68.2043 37.0033 73.8226 34.7017C76.0099 33.8055 78.3292 33.2831 80.6979 33.0599C80.7166 33.0698 80.7342 33.0797 80.7529 33.0896C80.7529 33.1181 80.7815 33.1467 80.7947 33.1764C79.5146 33.3304 78.2962 33.5965 77.2856 33.9836C76.8149 34.164 77.0095 34.9216 77.4956 34.7479C81.4468 33.337 85.078 34.5851 89.0489 34.8512C89.281 34.8677 89.3481 34.5389 89.1633 34.429C88.4804 34.0232 87.6776 33.7285 86.8243 33.5052C86.8682 33.3898 86.8671 33.2534 86.8111 33.1401C86.8946 33.1357 86.976 33.1313 87.0596 33.1269C87.2366 33.1445 87.4159 33.1544 87.5918 33.1764C87.6787 33.4338 88.0669 33.5954 88.311 33.3678C88.3473 33.3447 88.3836 33.3183 88.4199 33.293C90.9789 33.6537 93.4917 34.2607 95.8472 35.0448C113.046 40.7742 116.031 61.3922 108.452 75.9026Z"
          fill="#351E16"></path>
    <path fill-rule="evenodd" clip-rule="evenodd"
          d="M72.6229 83.0783C72.3062 82.8551 72.0159 83.3708 72.3227 83.5919C74.0041 84.8136 75.8318 86.5412 77.886 87.0581C77.9828 87.0812 78.0532 86.9635 77.9828 86.8931C76.5015 85.3524 74.3648 84.3001 72.6229 83.0783Z"
          fill="#351E16"></path>
    <path fill-rule="evenodd" clip-rule="evenodd"
          d="M85.621 86.1348C84.949 85.9754 84.2958 85.7741 83.6481 85.5311C83.5029 85.4772 83.3985 85.7225 83.5426 85.784C84.7137 86.2822 86.2115 87.2444 87.5256 86.8002C87.6279 86.7661 87.6202 86.6396 87.5256 86.6C86.9263 86.3603 86.25 86.2877 85.621 86.1348Z"
          fill="#351E16"></path>
    <path fill-rule="evenodd" clip-rule="evenodd"
          d="M90.381 85.03C90.2259 85.0003 90.1599 85.2258 90.315 85.2687C91.2717 85.5348 92.3406 85.7602 93.2566 85.2467C93.3578 85.1884 93.3072 85.0399 93.1994 85.0366C92.2361 84.9937 91.3487 85.2214 90.381 85.03Z"
          fill="#351E16"></path>
    <path fill-rule="evenodd" clip-rule="evenodd"
          d="M95.1316 83.8098C94.5763 83.8681 94.0154 83.8769 93.4579 83.8912C93.1742 83.8978 93.1742 84.3255 93.4579 84.331C94.4465 84.3541 95.7573 84.529 96.6272 83.9549C96.7328 83.8846 96.6822 83.7471 96.5667 83.7317C96.0873 83.6701 95.6089 83.7603 95.1316 83.8098Z"
          fill="#351E16"></path>
    <path fill-rule="evenodd" clip-rule="evenodd"
          d="M103.303 45.3048C103.371 45.3048 103.371 45.1992 103.303 45.1992C103.236 45.1992 103.236 45.3048 103.303 45.3048Z"
          fill="#351E16"></path>
    <path fill-rule="evenodd" clip-rule="evenodd"
          d="M104.854 48.1022H104.859V47.582H104.854V48.1022Z" fill="#351E16"></path>
    <path fill-rule="evenodd" clip-rule="evenodd"
          d="M104.69 46.6394C106.138 49.0675 106.959 51.6814 107.692 54.39C107.773 54.6924 108.291 54.6418 108.253 54.3152C107.903 51.4131 106.69 48.8189 105.025 46.4436C104.883 46.2413 104.559 46.4216 104.69 46.6394Z"
          fill="#351E16"></path>
    <path fill-rule="evenodd" clip-rule="evenodd"
          d="M25.1399 78.5692C24.9078 78.2843 24.4097 78.6659 24.6285 78.9618C26.4672 81.4536 29.1196 83.9334 32.2372 84.6131C32.5297 84.6779 32.7376 84.259 32.4484 84.1105C29.6266 82.6765 27.1589 81.0523 25.1399 78.5692Z"
          fill="#351E16"></path>
    <path fill-rule="evenodd" clip-rule="evenodd"
          d="M32.2033 82.2962C31.935 82.0444 31.5434 82.4336 31.8008 82.6976C33.2095 84.1393 34.903 85.559 36.878 86.0912C37.0694 86.1451 37.2585 85.8768 37.0859 85.7371C35.51 84.4934 33.689 83.6873 32.2033 82.2962Z"
          fill="#351E16"></path>
    <path fill-rule="evenodd" clip-rule="evenodd"
          d="M35.8456 82.86C35.5278 82.6599 35.2628 83.1437 35.5575 83.3559C37.1752 84.5205 38.8775 86.2943 40.8712 86.7606C41.1187 86.8167 41.3474 86.4967 41.134 86.3097C39.5967 84.9549 37.5809 83.952 35.8456 82.86Z"
          fill="#351E16"></path>
    <path fill-rule="evenodd" clip-rule="evenodd"
          d="M41.3273 84.6878C40.9732 84.5723 40.8302 85.1178 41.1744 85.2421C42.0058 85.5368 42.7898 85.9294 43.6707 86.058C43.8565 86.0855 43.9929 85.8436 43.806 85.738C43.0197 85.2904 42.185 84.9704 41.3273 84.6878Z"
          fill="#351E16"></path>
    <path fill-rule="evenodd" clip-rule="evenodd"
          d="M19.795 33.9009C22.5684 30.9087 26.4162 27.9065 30.4697 27.0279C30.5159 27.0169 30.495 26.9509 30.451 26.9575C26.0742 27.7372 22.1748 30.1422 19.5146 33.6854C19.3925 33.8503 19.6586 34.0483 19.795 33.9009Z"
          fill="#351E16"></path>
    <path fill-rule="evenodd" clip-rule="evenodd"
          d="M55.0507 27.2652C59.0371 28.6134 62.6133 30.1772 65.7958 32.9759C65.9365 33.098 66.173 32.9396 66.0652 32.7681C63.7878 29.16 59.0602 27.8239 55.1992 26.7275C54.8495 26.6274 54.7131 27.152 55.0507 27.2652Z"
          fill="#351E16"></path>
    <path fill-rule="evenodd" clip-rule="evenodd"
          d="M70.296 43.7992C70.3026 44.2666 70.2751 44.713 70.196 45.176C70.1883 45.2255 70.2521 45.2431 70.2697 45.1969C70.4522 44.7405 70.4687 44.2874 70.4786 43.7992C70.4819 43.6815 70.2949 43.6815 70.296 43.7992Z"
          fill="#351E16"></path>
    <path fill-rule="evenodd" clip-rule="evenodd"
          d="M70.6761 44.9856C70.5442 45.7201 70.5409 46.4558 70.4529 47.1926C70.4397 47.2938 70.6036 47.3114 70.6278 47.2157C70.8059 46.5053 70.8873 45.8037 71.0237 45.0834C71.0687 44.8536 70.7179 44.7579 70.6761 44.9856Z"
          fill="#351E16"></path>
    <path fill-rule="evenodd" clip-rule="evenodd"
          d="M72.1454 49.8967C71.8056 51.0778 71.2898 52.2313 71.0897 53.4476C71.0479 53.6994 71.3679 53.8644 71.512 53.6279C72.1718 52.5414 72.3708 51.257 72.638 50.032C72.7084 49.7119 72.2377 49.5789 72.1454 49.8967Z"
          fill="#351E16"></path>
    <path fill-rule="evenodd" clip-rule="evenodd"
          d="M72.1008 56.4427C72.1008 56.3911 72.1018 56.3405 72.1029 56.2877C72.104 56.2635 72.0645 56.2635 72.0645 56.2877C72.0656 56.3405 72.0656 56.3911 72.0667 56.4427C72.0689 56.4636 72.1008 56.4636 72.1008 56.4427Z"
          fill="#351E16"></path>
    <path fill-rule="evenodd" clip-rule="evenodd"
          d="M59.1477 67.85C59.1268 67.6322 58.8342 67.6344 58.8112 67.85C58.677 69.0772 58.148 70.9247 59.019 71.9738C59.1004 72.0739 59.2587 72.009 59.2906 71.9012C59.4666 71.3294 59.3368 70.7224 59.3038 70.134C59.2631 69.3686 59.2202 68.6132 59.1477 67.85Z"
          fill="#351E16"></path>
    <path fill-rule="evenodd" clip-rule="evenodd"
          d="M59.7975 73.736C59.8393 73.8416 59.969 73.8416 60.0108 73.736C60.4661 72.6155 60.123 71.1683 59.9745 70.007C59.9382 69.7266 59.4962 69.7167 59.5258 70.007C59.6512 71.2013 59.3411 72.6144 59.7975 73.736Z"
          fill="#351E16"></path>
    <path fill-rule="evenodd" clip-rule="evenodd"
          d="M61.5369 75.5579C61.5435 74.8343 61.3335 74.1294 61.229 73.4168C61.1025 72.5469 61.0409 71.6551 61.0849 70.7797C61.1003 70.4443 60.6121 70.463 60.5736 70.7797C60.3877 72.3094 60.2173 74.3152 61.0794 75.6833C61.2092 75.8878 61.5347 75.8075 61.5369 75.5579Z"
          fill="#351E16"></path>
    <path fill-rule="evenodd" clip-rule="evenodd"
          d="M1.72852 57.7285C1.56796 61.2541 2.09911 64.9633 3.72885 68.1304C3.86191 68.3899 4.2424 68.2041 4.18301 67.9391C3.40993 64.5234 2.32345 61.2475 2.04633 57.7285C2.03093 57.525 1.73841 57.5206 1.72852 57.7285Z"
          fill="#351E16"></path>
    <path fill-rule="evenodd" clip-rule="evenodd"
          d="M1.35794 67.9228C1.22597 67.5577 0.642025 67.7127 0.772888 68.0833C1.20836 69.3205 2.02653 70.1563 2.96236 71.0393C3.1724 71.2373 3.47704 70.9326 3.2791 70.7215C2.49942 69.8945 1.74942 69.006 1.35794 67.9228Z"
          fill="#351E16"></path>
    <path fill-rule="evenodd" clip-rule="evenodd"
          d="M112.237 46.3569C112.369 46.6461 112.817 46.4372 112.738 46.1457C111.703 42.277 108.632 39.4871 106.043 36.6159C105.86 36.4113 105.577 36.7071 105.746 36.9128C108.222 39.8973 110.612 42.8115 112.237 46.3569Z"
          fill="#351E16"></path>
    <path fill-rule="evenodd" clip-rule="evenodd"
          d="M113.605 41.1986C113.452 40.8258 112.843 40.9764 112.988 41.3679C114.601 45.77 115.444 50.1885 115.872 54.8501C115.908 55.2339 116.452 55.2416 116.475 54.8501C116.738 50.1753 115.359 45.4829 113.605 41.1986Z"
          fill="#351E16"></path>
    <path fill-rule="evenodd" clip-rule="evenodd"
          d="M16.0626 25.18C17.5878 24.3277 19.1604 23.294 20.546 22.2328C20.8088 22.0305 20.6725 21.5499 20.3052 21.661C18.5886 22.1789 16.9742 23.4546 15.5886 24.5631C15.229 24.849 15.6865 25.39 16.0626 25.18Z"
          fill="#351E16"></path>
    <path fill-rule="evenodd" clip-rule="evenodd"
          d="M110.164 80.6723C109.168 83.2885 107.383 85.3416 105.666 87.5003C105.403 87.8291 105.8 88.2371 106.129 87.9644C108.332 86.1279 109.803 83.5095 110.675 80.8142C110.781 80.4854 110.282 80.3589 110.164 80.6723Z"
          fill="#351E16"></path>
</svg>